<svg width="24" height="24" viewBox="0 0 24 24" fill="none" xmlns="http://www.w3.org/2000/svg">
<g clip-path="url(#clip0_845_2930)">
<path d="M23.5735 4.53907C23.2625 4.17148 22.8271 3.94695 22.3472 3.90687L5.44615 2.49566C4.96625 2.45558 4.49965 2.60478 4.13202 2.9157C3.76588 3.2254 3.54167 3.65867 3.50033 4.13618L3.1603 7.32629H1.80257C0.808638 7.32629 0 8.13493 0 9.12886V19.7086C0 20.7025 0.808638 21.5112 1.80257 21.5112H18.7625C19.7565 21.5112 20.5651 20.7025 20.5651 19.7086V17.9924L21.1669 18.0426C21.2177 18.0468 21.2682 18.049 21.3182 18.049C22.2449 18.049 23.0348 17.336 23.1133 16.3963L23.9936 5.85325C24.0337 5.37339 23.8845 4.90671 23.5735 4.53907ZM1.80257 8.26379H18.7625C19.2395 8.26379 19.6276 8.65187 19.6276 9.12886V10.0929H0.937496V9.12886C0.937496 8.65187 1.32557 8.26379 1.80257 8.26379ZM0.937496 11.0304H19.6276V12.9752H0.937496V11.0304ZM18.7625 20.5737H1.80257C1.32557 20.5737 0.937496 20.1856 0.937496 19.7086V13.9127H19.6276V19.7086C19.6276 20.1856 19.2395 20.5737 18.7625 20.5737ZM23.0594 5.7752L22.179 16.3182C22.1393 16.7936 21.7202 17.1482 21.2449 17.1084L20.5651 17.0516V9.12886C20.5651 8.13493 19.7565 7.32629 18.7625 7.32629H4.10314L4.43309 4.23068C4.43347 4.22712 4.4338 4.2236 4.43408 4.21999C4.47378 3.74464 4.89265 3.39007 5.36815 3.42992L22.2692 4.84113C22.4995 4.86035 22.7086 4.96811 22.8578 5.14455C23.007 5.32099 23.0786 5.54491 23.0594 5.7752Z" fill="#0096C7"/>
<path d="M17.6656 15.3062H13.1543C12.8954 15.3062 12.6855 15.516 12.6855 15.7749V18.7181C12.6855 18.977 12.8954 19.1869 13.1543 19.1869H17.6656C17.9245 19.1869 18.1344 18.977 18.1344 18.7181V15.7749C18.1344 15.516 17.9245 15.3062 17.6656 15.3062ZM17.1969 18.2494H13.623V16.2436H17.1969V18.2494Z" fill="#0096C7"/>
</g>
<defs>
<clipPath id="clip0_845_2930">
<rect width="24" height="24" fill="white"/>
</clipPath>
</defs>
</svg>
