<svg width="24" height="24" viewBox="0 0 24 24" fill="none" xmlns="http://www.w3.org/2000/svg">
<g clip-path="url(#clip0_877_7148)">
<path d="M22.7929 3.08582L21.914 2.2068C20.3046 0.597415 17.6953 0.597415 16.0859 2.20676C16.0859 2.20676 16.0859 2.20676 16.0859 2.2068L4.85366 13.439C3.71565 14.577 3.71565 16.4221 4.85366 17.5601L5.43965 18.1461C6.5988 19.2319 8.40159 19.2319 9.56074 18.1461L17.8539 9.85295C18.0525 9.66109 18.058 9.34458 17.8661 9.14592C17.6743 8.94731 17.3578 8.94183 17.1591 9.13364C17.1549 9.13767 17.1509 9.14175 17.1468 9.14592L8.85371 17.4391C8.09207 18.1517 6.90832 18.1517 6.14668 17.4391L5.56068 16.8531C4.81316 16.1056 4.81306 14.8937 5.5605 14.1462C5.56054 14.1462 5.56064 14.1461 5.56068 14.146L16.7928 2.91378C18.0288 1.73664 19.971 1.73664 21.2069 2.91378L22.0859 3.7928C23.3044 5.0119 23.3044 6.98776 22.0859 8.20686L9.56069 20.7321C7.87021 22.422 5.13008 22.422 3.4396 20.7321L2.26756 19.5611C0.577692 17.8706 0.577692 15.1305 2.26756 13.44L11.8538 3.85383C12.0524 3.66197 12.0579 3.34546 11.866 3.1468C11.6742 2.94819 11.3577 2.94266 11.159 3.13452C11.1548 3.13855 11.1508 3.14263 11.1467 3.1468L1.56058 12.732C-0.520187 14.8127 -0.520187 18.1863 1.56054 20.267C1.56054 20.2671 1.56058 20.2671 1.56058 20.2671L2.73262 21.4391C4.81334 23.5199 8.1869 23.5199 10.2677 21.4392C10.2677 21.4392 10.2677 21.4392 10.2677 21.4391L22.7929 8.91389C24.4023 7.30455 24.4024 4.69521 22.7929 3.08582C22.793 3.08582 22.793 3.08582 22.7929 3.08582Z" fill="#6A6A6A"/>
<path d="M6.49972 23.0002C5.08576 23.0033 3.72917 22.4413 2.73165 21.4392L1.5606 20.2681C-0.520169 18.1874 -0.520216 14.8138 1.56055 12.7331L1.5606 12.733L11.1468 3.1468C11.3387 2.94819 11.6552 2.94266 11.8538 3.13452C12.0524 3.32638 12.058 3.64289 11.8661 3.84155C11.8621 3.84572 11.858 3.8498 11.8538 3.85383L2.26763 13.439C0.577756 15.1295 0.577756 17.8696 2.26763 19.5601L3.43967 20.7321C5.13015 22.422 7.87027 22.422 9.56076 20.7321L22.086 8.20691C23.3044 6.98781 23.3044 5.01195 22.086 3.79285L21.207 2.91383C19.971 1.73668 18.0288 1.73668 16.7929 2.91383L5.56066 14.146C4.81313 14.8934 4.81303 16.1053 5.56047 16.8528C5.56052 16.8529 5.56061 16.853 5.56066 16.853L6.14665 17.439C6.90829 18.1517 8.09204 18.1517 8.85368 17.439L17.1468 9.14588C17.3387 8.94727 17.6552 8.94173 17.8538 9.1336C18.0525 9.32546 18.0579 9.64196 17.8661 9.84062C17.8621 9.8448 17.858 9.84887 17.8538 9.85291L9.56076 18.1461C8.40161 19.2319 6.59881 19.2319 5.43967 18.1461L4.85368 17.5601C3.71567 16.4221 3.71567 14.577 4.85368 13.439L16.0859 2.2068C17.6953 0.597415 20.3046 0.597415 21.9139 2.20676C21.9139 2.20676 21.9139 2.20676 21.914 2.2068L22.793 3.08582C24.4024 4.69521 24.4024 7.3045 22.7931 8.91389C22.7931 8.91389 22.7931 8.91389 22.793 8.91394L10.2678 21.4392C9.27027 22.4413 7.91368 23.0033 6.49972 23.0002Z" fill="#6A6A6A"/>
</g>
<defs>
<clipPath id="clip0_877_7148">
<rect width="24" height="24" fill="white"/>
</clipPath>
</defs>
</svg>
