<svg width="24" height="24" viewBox="0 0 24 24" fill="none" xmlns="http://www.w3.org/2000/svg">
<path d="M23.7026 4.89356L19.0153 0.205969C18.8835 0.0740625 18.7046 0 18.5181 0H7.73669C6.57359 0 5.62732 0.946266 5.62732 2.10938V11.383C2.46766 11.7339 0.00231934 14.4202 0.00231934 17.6719C0.00231934 21.1612 2.84112 24 6.33044 24H21.7992C22.9623 24 23.9086 23.0537 23.9086 21.8906V5.39077C23.9086 5.20425 23.8345 5.02547 23.7026 4.89356ZM19.2211 2.40061L20.3646 3.54413L21.5079 4.6875H19.2211V2.40061ZM1.40857 17.6719C1.40857 14.958 3.61652 12.75 6.33044 12.75C9.04437 12.75 11.2523 14.958 11.2523 17.6719C11.2523 20.3858 9.04437 22.5938 6.33044 22.5938C3.61652 22.5938 1.40857 20.3858 1.40857 17.6719ZM21.7992 22.5938H10.3031C11.5669 21.5716 12.4307 20.0738 12.6193 18.375H19.9242C20.3125 18.375 20.6273 18.0602 20.6273 17.6719C20.6273 17.2836 20.3125 16.9688 19.9242 16.9688H12.6193C12.5046 15.9366 12.141 14.9785 11.5895 14.1562H19.9242C20.3125 14.1562 20.6273 13.8414 20.6273 13.4531C20.6273 13.0648 20.3125 12.75 19.9242 12.75H10.3031C9.38801 12.01 8.26348 11.5196 7.03357 11.383V2.10938C7.03357 1.72167 7.34899 1.40625 7.73669 1.40625H17.8148V5.39062C17.8148 5.77894 18.1296 6.09375 18.5179 6.09375H22.5023V21.8906C22.5023 22.2783 22.1869 22.5938 21.7992 22.5938Z" fill="#ADB0C7"/>
</svg>
