<svg width="24" height="25" viewBox="0 0 24 25" fill="none" xmlns="http://www.w3.org/2000/svg">
<g clip-path="url(#clip0_863_3979)">
<path d="M19.5 24.5H4.5C3.122 24.5 2 23.378 2 22V3C2 1.622 3.122 0.5 4.5 0.5H19.5C20.878 0.5 22 1.622 22 3V22C22 23.378 20.878 24.5 19.5 24.5ZM4.5 1.5C3.673 1.5 3 2.173 3 3V22C3 22.827 3.673 23.5 4.5 23.5H19.5C20.327 23.5 21 22.827 21 22V3C21 2.173 20.327 1.5 19.5 1.5H4.5Z" fill="#02044F"/>
<path d="M17.5 8.5H6.5C5.673 8.5 5 7.827 5 7V5C5 4.173 5.673 3.5 6.5 3.5H17.5C18.327 3.5 19 4.173 19 5V7C19 7.827 18.327 8.5 17.5 8.5ZM6.5 4.5C6.224 4.5 6 4.724 6 5V7C6 7.276 6.224 7.5 6.5 7.5H17.5C17.776 7.5 18 7.276 18 7V5C18 4.724 17.776 4.5 17.5 4.5H6.5Z" fill="#02044F"/>
<path d="M8 14.5C7.724 14.5 7.5 14.276 7.5 14V11C7.5 10.724 7.724 10.5 8 10.5C8.276 10.5 8.5 10.724 8.5 11V14C8.5 14.276 8.276 14.5 8 14.5Z" fill="#02044F"/>
<path d="M9.5 13H6.5C6.224 13 6 12.776 6 12.5C6 12.224 6.224 12 6.5 12H9.5C9.776 12 10 12.224 10 12.5C10 12.776 9.776 13 9.5 13Z" fill="#02044F"/>
<path d="M17.5 13H14.5C14.224 13 14 12.776 14 12.5C14 12.224 14.224 12 14.5 12H17.5C17.776 12 18 12.224 18 12.5C18 12.776 17.776 13 17.5 13Z" fill="#02044F"/>
<path d="M17.5 17.5H14.5C14.224 17.5 14 17.276 14 17C14 16.724 14.224 16.5 14.5 16.5H17.5C17.776 16.5 18 16.724 18 17C18 17.276 17.776 17.5 17.5 17.5Z" fill="#02044F"/>
<path d="M17.5 20.5H14.5C14.224 20.5 14 20.276 14 20C14 19.724 14.224 19.5 14.5 19.5H17.5C17.776 19.5 18 19.724 18 20C18 20.276 17.776 20.5 17.5 20.5Z" fill="#02044F"/>
<path d="M6.50025 20.5002C6.37225 20.5002 6.24425 20.4512 6.14625 20.3542C5.95125 20.1592 5.95125 19.8422 6.14625 19.6472L9.14625 16.6472C9.34125 16.4522 9.65825 16.4522 9.85325 16.6472C10.0482 16.8422 10.0482 17.1592 9.85325 17.3542L6.85325 20.3542C6.75625 20.4512 6.62825 20.5002 6.50025 20.5002Z" fill="#02044F"/>
<path d="M9.50025 20.5002C9.37225 20.5002 9.24425 20.4512 9.14625 20.3542L6.14625 17.3542C5.95125 17.1592 5.95125 16.8422 6.14625 16.6472C6.34125 16.4522 6.65825 16.4522 6.85325 16.6472L9.85325 19.6472C10.0482 19.8422 10.0482 20.1592 9.85325 20.3542C9.75625 20.4512 9.62825 20.5002 9.50025 20.5002Z" fill="#02044F"/>
</g>
<defs>
<clipPath id="clip0_863_3979">
<rect width="24" height="24" fill="white" transform="translate(0 0.5)"/>
</clipPath>
</defs>
</svg>
