<svg width="20" height="24" viewBox="0 0 20 24" fill="none" xmlns="http://www.w3.org/2000/svg">
<path d="M17.5 24H2.5C1.122 24 0 22.878 0 21.5V2.5C0 1.122 1.122 0 2.5 0H17.5C18.878 0 20 1.122 20 2.5V21.5C20 22.878 18.878 24 17.5 24ZM2.5 1C1.673 1 1 1.673 1 2.5V21.5C1 22.327 1.673 23 2.5 23H17.5C18.327 23 19 22.327 19 21.5V2.5C19 1.673 18.327 1 17.5 1H2.5Z" fill="#6A6A6A"/>
<path d="M15.5 8H4.5C3.673 8 3 7.327 3 6.5V4.5C3 3.673 3.673 3 4.5 3H15.5C16.327 3 17 3.673 17 4.5V6.5C17 7.327 16.327 8 15.5 8ZM4.5 4C4.224 4 4 4.224 4 4.5V6.5C4 6.776 4.224 7 4.5 7H15.5C15.776 7 16 6.776 16 6.5V4.5C16 4.224 15.776 4 15.5 4H4.5Z" fill="#6A6A6A"/>
<path d="M6 13.9995C5.724 13.9995 5.5 13.7755 5.5 13.4995V10.4995C5.5 10.2235 5.724 9.99951 6 9.99951C6.276 9.99951 6.5 10.2235 6.5 10.4995V13.4995C6.5 13.7755 6.276 13.9995 6 13.9995Z" fill="#6A6A6A"/>
<path d="M7.5 12.4995H4.5C4.224 12.4995 4 12.2755 4 11.9995C4 11.7235 4.224 11.4995 4.5 11.4995H7.5C7.776 11.4995 8 11.7235 8 11.9995C8 12.2755 7.776 12.4995 7.5 12.4995Z" fill="#6A6A6A"/>
<path d="M15.5 12.5002H12.5C12.224 12.5002 12 12.2762 12 12.0002C12 11.7242 12.224 11.5002 12.5 11.5002H15.5C15.776 11.5002 16 11.7242 16 12.0002C16 12.2762 15.776 12.5002 15.5 12.5002Z" fill="#6A6A6A"/>
<path d="M15.5 17.0002H12.5C12.224 17.0002 12 16.7762 12 16.5002C12 16.2242 12.224 16.0002 12.5 16.0002H15.5C15.776 16.0002 16 16.2242 16 16.5002C16 16.7762 15.776 17.0002 15.5 17.0002Z" fill="#6A6A6A"/>
<path d="M15.5 20.0002H12.5C12.224 20.0002 12 19.7762 12 19.5002C12 19.2242 12.224 19.0002 12.5 19.0002H15.5C15.776 19.0002 16 19.2242 16 19.5002C16 19.7762 15.776 20.0002 15.5 20.0002Z" fill="#6A6A6A"/>
<path d="M4.50025 19.9997C4.37225 19.9997 4.24425 19.9507 4.14625 19.8537C3.95125 19.6587 3.95125 19.3417 4.14625 19.1467L7.14625 16.1467C7.34125 15.9517 7.65825 15.9517 7.85325 16.1467C8.04825 16.3417 8.04825 16.6587 7.85325 16.8537L4.85325 19.8537C4.75625 19.9507 4.62825 19.9997 4.50025 19.9997Z" fill="#6A6A6A"/>
<path d="M7.50025 19.9997C7.37225 19.9997 7.24425 19.9507 7.14625 19.8537L4.14625 16.8537C3.95125 16.6587 3.95125 16.3417 4.14625 16.1467C4.34125 15.9517 4.65825 15.9517 4.85325 16.1467L7.85325 19.1467C8.04825 19.3417 8.04825 19.6587 7.85325 19.8537C7.75625 19.9507 7.62825 19.9997 7.50025 19.9997Z" fill="#6A6A6A"/>
</svg>
