<svg width="68" height="68" viewBox="0 0 68 68" fill="none" xmlns="http://www.w3.org/2000/svg">
<rect width="68" height="68" rx="4" fill="#E1EDF3"/>
<path d="M46.5007 54H21.5007C19.204 54 17.334 52.13 17.334 49.8333V18.1667C17.334 15.87 19.204 14 21.5007 14H46.5007C48.7973 14 50.6673 15.87 50.6673 18.1667V49.8333C50.6673 52.13 48.7973 54 46.5007 54ZM21.5007 15.6667C20.1223 15.6667 19.0007 16.7883 19.0007 18.1667V49.8333C19.0007 51.2117 20.1223 52.3333 21.5007 52.3333H46.5007C47.879 52.3333 49.0007 51.2117 49.0007 49.8333V18.1667C49.0007 16.7883 47.879 15.6667 46.5007 15.6667H21.5007Z" fill="#02044F"/>
<path d="M43.1673 27.3333H24.834C23.4557 27.3333 22.334 26.2117 22.334 24.8333V21.5C22.334 20.1217 23.4557 19 24.834 19H43.1673C44.5457 19 45.6673 20.1217 45.6673 21.5V24.8333C45.6673 26.2117 44.5457 27.3333 43.1673 27.3333ZM24.834 20.6667C24.374 20.6667 24.0007 21.04 24.0007 21.5V24.8333C24.0007 25.2933 24.374 25.6667 24.834 25.6667H43.1673C43.6273 25.6667 44.0007 25.2933 44.0007 24.8333V21.5C44.0007 21.04 43.6273 20.6667 43.1673 20.6667H24.834Z" fill="#02044F"/>
<path d="M27.3353 37.3327C26.8753 37.3327 26.502 36.9593 26.502 36.4993V31.4993C26.502 31.0393 26.8753 30.666 27.3353 30.666C27.7953 30.666 28.1686 31.0393 28.1686 31.4993V36.4993C28.1686 36.9593 27.7953 37.3327 27.3353 37.3327Z" fill="#02044F"/>
<path d="M29.8353 34.8327H24.8353C24.3753 34.8327 24.002 34.4593 24.002 33.9993C24.002 33.5393 24.3753 33.166 24.8353 33.166H29.8353C30.2953 33.166 30.6686 33.5393 30.6686 33.9993C30.6686 34.4593 30.2953 34.8327 29.8353 34.8327Z" fill="#02044F"/>
<path d="M43.1673 34.8337H38.1673C37.7073 34.8337 37.334 34.4603 37.334 34.0003C37.334 33.5403 37.7073 33.167 38.1673 33.167H43.1673C43.6273 33.167 44.0007 33.5403 44.0007 34.0003C44.0007 34.4603 43.6273 34.8337 43.1673 34.8337Z" fill="#02044F"/>
<path d="M43.1673 42.3337H38.1673C37.7073 42.3337 37.334 41.9603 37.334 41.5003C37.334 41.0403 37.7073 40.667 38.1673 40.667H43.1673C43.6273 40.667 44.0007 41.0403 44.0007 41.5003C44.0007 41.9603 43.6273 42.3337 43.1673 42.3337Z" fill="#02044F"/>
<path d="M43.1673 47.3337H38.1673C37.7073 47.3337 37.334 46.9603 37.334 46.5003C37.334 46.0403 37.7073 45.667 38.1673 45.667H43.1673C43.6273 45.667 44.0007 46.0403 44.0007 46.5003C44.0007 46.9603 43.6273 47.3337 43.1673 47.3337Z" fill="#02044F"/>
<path d="M24.8357 47.3329C24.6224 47.3329 24.409 47.2512 24.2457 47.0896C23.9207 46.7646 23.9207 46.2362 24.2457 45.9112L29.2457 40.9112C29.5707 40.5862 30.099 40.5862 30.424 40.9112C30.749 41.2362 30.749 41.7646 30.424 42.0896L25.424 47.0896C25.2624 47.2512 25.049 47.3329 24.8357 47.3329Z" fill="#02044F"/>
<path d="M29.8357 47.3329C29.6224 47.3329 29.409 47.2512 29.2457 47.0896L24.2457 42.0896C23.9207 41.7646 23.9207 41.2362 24.2457 40.9112C24.5707 40.5862 25.099 40.5862 25.424 40.9112L30.424 45.9112C30.749 46.2362 30.749 46.7646 30.424 47.0896C30.2624 47.2512 30.049 47.3329 29.8357 47.3329Z" fill="#02044F"/>
</svg>
