<svg width="16" height="16" viewBox="0 0 16 16" fill="none" xmlns="http://www.w3.org/2000/svg">
<path d="M13.6566 2.34343C12.1448 0.83165 10.138 0 8 0C5.86195 0 3.85522 0.83165 2.34343 2.34343C0.83165 3.85522 0 5.86195 0 8C0 10.138 0.83165 12.1448 2.34343 13.6566C3.85522 15.1684 5.86195 16 8 16C10.138 16 12.1448 15.1684 13.6566 13.6566C15.1684 12.1448 16 10.138 16 8C16 5.86195 15.1684 3.85522 13.6566 2.34343ZM13.0135 13.0135C11.6734 14.3535 9.89226 15.0909 8 15.0909C6.10774 15.0909 4.3266 14.3535 2.98653 13.0135C0.222222 10.2492 0.222222 5.75084 2.98653 2.98653C4.3266 1.64646 6.10774 0.909091 8 0.909091C9.89226 0.909091 11.6734 1.64646 13.0135 2.98653C15.7778 5.75084 15.7778 10.2492 13.0135 13.0135Z" fill="#6A6A6A"/>
<path d="M11.5261 4.47466C11.3477 4.29621 11.0615 4.29621 10.883 4.47466L8.00089 7.35681L5.11873 4.47466C4.94028 4.29621 4.65409 4.29621 4.47564 4.47466C4.29718 4.65311 4.29718 4.93931 4.47564 5.11776L7.35779 7.99991L4.47564 10.8821C4.29718 11.0605 4.29718 11.3467 4.47564 11.5252C4.56318 11.6127 4.68102 11.6598 4.7955 11.6598C4.90998 11.6598 5.02782 11.6161 5.11537 11.5252L7.99752 8.64301L10.8797 11.5252C10.9672 11.6127 11.0851 11.6598 11.1995 11.6598C11.3174 11.6598 11.4319 11.6161 11.5194 11.5252C11.6979 11.3467 11.6979 11.0605 11.5194 10.8821L8.64399 7.99991L11.5261 5.11776C11.7046 4.93931 11.7046 4.65311 11.5261 4.47466Z" fill="#6A6A6A"/>
</svg>
