<svg width="27" height="24" viewBox="0 0 27 24" fill="none" xmlns="http://www.w3.org/2000/svg">
<path d="M14.151 2.25284H14.2387L14.3213 2.22294L19.0628 0.505225L19.0638 0.504884C19.1046 0.489985 19.1504 0.511452 19.1652 0.551453C19.1653 0.551562 19.1653 0.551671 19.1653 0.551781L19.6644 1.92376L19.7841 2.25284H20.1343H22.2472C23.2643 2.25284 24.089 3.07752 24.089 4.09464V5.26555V5.76555H24.589C25.6061 5.76555 26.4308 6.59023 26.4308 7.60735V21.0727C26.4308 22.4136 25.3444 23.5 24.0035 23.5H2.92726C1.58638 23.5 0.5 22.4136 0.5 21.0727V4.09464C0.5 3.07752 1.32469 2.25284 2.34181 2.25284H14.151ZM4.46934 5.76555H4.56218L4.64883 5.73222C4.66957 5.72424 4.68801 5.71563 4.70401 5.70725L11.089 3.39384L10.9187 2.42374H2.34181C1.41933 2.42374 0.670903 3.17216 0.670903 4.09464C0.670903 5.01712 1.41933 5.76555 2.34181 5.76555H4.35869H4.46934ZM17.3722 1.28273L17.3723 1.28333L14.2282 2.42374H14.2224L14.1399 2.45365L7.67706 4.79546L7.84739 5.76555H20.1782H20.8919L20.6481 5.09475L19.8355 2.85902L19.8355 2.85891L19.2138 1.14715L19.0942 0.817846H18.7438H18.7432H18.6555L18.5729 0.847742L17.3722 1.28273ZM20.5593 2.42374H19.8456L20.0894 3.09455L20.9406 5.43636L21.0603 5.76555H21.4106H23.4181H23.9181V5.26555V4.09464C23.9181 3.17216 23.1696 2.42374 22.2472 2.42374H20.5593ZM1.42275 5.67958L0.670903 5.24122V6.11152V21.0727C0.670903 22.3191 1.68172 23.3291 2.92726 23.3291H24.0035C25.2498 23.3291 26.2599 22.319 26.2599 21.0727V16.9746V16.4746H25.7599H23.4181C22.4009 16.4746 21.5763 15.6499 21.5763 14.6328C21.5763 13.6157 22.4009 12.791 23.4181 12.791H25.7599H26.2599V12.291V7.60735C26.2599 6.68487 25.5115 5.93645 24.589 5.93645H2.34181C2.0116 5.93645 1.7007 5.84164 1.42275 5.67958ZM25.7599 16.3037H26.2599V15.8037V13.4619V12.9619H25.7599H23.4181C22.4956 12.9619 21.7472 13.7103 21.7472 14.6328C21.7472 15.5553 22.4956 16.3037 23.4181 16.3037H25.7599ZM23.9181 14.5473H24.089V14.7182H23.9181V14.5473Z" fill="#6A6A6A" stroke="#6A6A6A"/>
</svg>
