<svg width="24" height="25" viewBox="0 0 24 25" fill="none" xmlns="http://www.w3.org/2000/svg">
<g clip-path="url(#clip0_863_4122)">
<path d="M14 9.59033L22.81 11.3403C23.52 11.4903 24 12.0903 24 12.8003V23.0003C24 23.8303 23.33 24.5003 22.5 24.5003H13.5C13.78 24.5003 14 24.2803 14 24.0003V23.5003H22.5C22.77 23.5003 23 23.2803 23 23.0003V12.8003C23 12.5703 22.84 12.3603 22.61 12.3103L14 10.6103V9.59033Z" fill="#02044F"/>
<path d="M19.5 14.5C19.78 14.5 20 14.72 20 15C20 15.28 19.78 15.5 19.5 15.5H17.5C17.22 15.5 17 15.28 17 15C17 14.72 17.22 14.5 17.5 14.5H19.5Z" fill="#02044F"/>
<path d="M19.5 17.5C19.78 17.5 20 17.72 20 18C20 18.28 19.78 18.5 19.5 18.5H17.5C17.22 18.5 17 18.28 17 18C17 17.72 17.22 17.5 17.5 17.5H19.5Z" fill="#02044F"/>
<path d="M19.5 20.5C19.78 20.5 20 20.72 20 21C20 21.28 19.78 21.5 19.5 21.5H17.5C17.22 21.5 17 21.28 17 21C17 20.72 17.22 20.5 17.5 20.5H19.5Z" fill="#02044F"/>
<path d="M14 24.0003C14 24.2803 13.78 24.5003 13.5 24.5003C13.22 24.5003 13 24.2803 13 24.0003V23.5003V10.0003C13 9.85034 13.07 9.71034 13.18 9.61034C13.3 9.52034 13.45 9.48034 13.6 9.51034L14 9.59034V10.6103V23.5003V24.0003Z" fill="#02044F"/>
<path d="M13 23.5V24C13 24.28 13.22 24.5 13.5 24.5H9.5C9.78 24.5 10 24.28 10 24V23.5H13Z" fill="#02044F"/>
<path d="M10.5 5.5C10.78 5.5 11 5.72 11 6C11 6.28 10.78 6.5 10.5 6.5H8.5C8.22 6.5 8 6.28 8 6C8 5.72 8.22 5.5 8.5 5.5H10.5Z" fill="#02044F"/>
<path d="M11 9C11 9.28 10.78 9.5 10.5 9.5H8.5C8.22 9.5 8 9.28 8 9C8 8.72 8.22 8.5 8.5 8.5H10.5C10.78 8.5 11 8.72 11 9Z" fill="#02044F"/>
<path d="M10.5 11.5C10.78 11.5 11 11.72 11 12C11 12.28 10.78 12.5 10.5 12.5H8.5C8.22 12.5 8 12.28 8 12C8 11.72 8.22 11.5 8.5 11.5H10.5Z" fill="#02044F"/>
<path d="M10.5 14.5C10.78 14.5 11 14.72 11 15C11 15.28 10.78 15.5 10.5 15.5H8.5C8.22 15.5 8 15.28 8 15C8 14.72 8.22 14.5 8.5 14.5H10.5Z" fill="#02044F"/>
<path d="M6 15C6 15.28 5.78 15.5 5.5 15.5H3.5C3.22 15.5 3 15.28 3 15C3 14.72 3.22 14.5 3.5 14.5H5.5C5.78 14.5 6 14.72 6 15Z" fill="#02044F"/>
<path d="M5.5 5.5C5.78 5.5 6 5.72 6 6C6 6.28 5.78 6.5 5.5 6.5H3.5C3.22 6.5 3 6.28 3 6C3 5.72 3.22 5.5 3.5 5.5H5.5Z" fill="#02044F"/>
<path d="M5.5 8.5C5.78 8.5 6 8.72 6 9C6 9.28 5.78 9.5 5.5 9.5H3.5C3.22 9.5 3 9.28 3 9C3 8.72 3.22 8.5 3.5 8.5H5.5Z" fill="#02044F"/>
<path d="M5.5 11.5C5.78 11.5 6 11.72 6 12C6 12.28 5.78 12.5 5.5 12.5H3.5C3.22 12.5 3 12.28 3 12C3 11.72 3.22 11.5 3.5 11.5H5.5Z" fill="#02044F"/>
<path d="M9 19C9 18.72 8.77 18.5 8.5 18.5H5.5C5.22 18.5 5 18.72 5 19V23.5H4V19C4 18.17 4.67 17.5 5.5 17.5H8.5C9.33 17.5 10 18.17 10 19V23.5H9V19Z" fill="#02044F"/>
<path d="M5 23.5H9H10V24C10 24.28 9.78 24.5 9.5 24.5H4.5C4.22 24.5 4 24.28 4 24V23.5H5Z" fill="#02044F"/>
<path d="M1.75 0.700133L12.74 2.37013C13.47 2.49013 14 3.11013 14 3.85013V9.59013L13.6 9.51013C13.45 9.48013 13.3 9.52013 13.18 9.61013C13.07 9.71013 13 9.85013 13 10.0001V3.85013C13 3.60013 12.82 3.39013 12.58 3.35013L1.59 1.69013C1.56 1.68013 1.53 1.68013 1.5 1.68013C1.38 1.68013 1.27 1.72013 1.18 1.80013C1.06 1.90013 1 2.03013 1 2.18013V23.0001C1 23.2801 1.23 23.5001 1.5 23.5001H4V24.0001C4 24.2801 4.22 24.5001 4.5 24.5001H1.5C0.67 24.5001 0 23.8301 0 23.0001V2.18013C0 1.74013 0.19 1.32013 0.53 1.04013C0.87 0.750133 1.31 0.630133 1.75 0.700133Z" fill="#02044F"/>
</g>
<defs>
<clipPath id="clip0_863_4122">
<rect width="24" height="24" fill="white" transform="translate(0 0.5)"/>
</clipPath>
</defs>
</svg>
