<svg width="228" height="202" viewBox="0 0 228 202" fill="none" xmlns="http://www.w3.org/2000/svg">
<path d="M14.497 85.4443H60.1379C64.1307 85.4443 67.755 87.0992 70.3964 89.6734C73.0378 92.309 74.6349 95.9252 74.6349 99.9091V186.023C74.6349 190.007 72.9764 193.624 70.3964 196.259C67.755 198.895 64.1307 200.488 60.1379 200.488H14.497C10.5042 200.488 6.87993 198.833 4.23853 196.259C1.65855 193.562 0 189.946 0 185.962V99.9091C0 95.9252 1.65855 92.309 4.23853 89.6734C6.87993 87.0379 10.5042 85.4443 14.497 85.4443ZM60.1379 92.4928H14.497C12.4699 92.4928 10.627 93.3509 9.27562 94.6993C7.9242 96.0477 7.06421 97.8865 7.06421 99.9091V186.023C7.06421 188.046 7.9242 189.885 9.27562 191.233C10.627 192.582 12.4699 193.44 14.497 193.44H60.1379C62.1651 193.44 64.0079 192.582 65.3593 191.233C66.7107 189.885 67.5707 188.046 67.5707 186.023V99.9091C67.5707 97.8865 66.7107 96.0477 65.3593 94.6993C64.0079 93.2896 62.1651 92.4928 60.1379 92.4928Z" fill="#02044F"/>
<path d="M68.9237 92.9832C67.1423 93.8413 66.4052 95.9252 67.2652 97.6413C68.1252 99.4188 70.2137 100.154 71.9337 99.2962C72.0566 99.2349 120.523 76.8023 113.398 7.66563C123.226 5.88819 154.616 5.15269 140.979 73.9829C140.61 75.8829 141.839 77.7829 143.743 78.1507C144.234 78.2733 144.726 78.212 145.156 78.1507C150.991 77.4152 242.212 66.3827 213.034 111.064C212.112 112.413 212.296 114.19 213.402 115.355C214.754 117.071 224.828 131.106 208.734 138.952C207.075 139.748 206.338 141.71 206.952 143.365C207.444 144.774 212.726 161.568 200.318 166.839C198.844 167.452 198.045 168.923 198.168 170.394C198.168 173.275 197.37 196.688 177.528 193.991C177.344 193.991 177.16 193.93 176.975 193.93H91.0378L72.7323 183.878C71.0123 182.959 68.8623 183.572 67.9409 185.288C67.0195 187.004 67.6337 189.149 69.3537 190.069L88.2735 200.427C88.8264 200.795 89.4407 200.979 90.1778 200.979H177.098C201.547 204.043 204.864 179.894 205.294 172.233C218.071 165.246 216.105 150.107 214.569 143.794C231.769 133.742 223.968 118.297 220.344 112.78C250.628 63.2569 169.85 68.4667 148.903 70.6118C163.83 -13.7863 112.292 0.494547 108.729 1.5365C107.009 1.96554 105.842 3.62041 106.088 5.39785C114.319 72.0216 69.0466 92.9219 68.9237 92.9832Z" fill="#02044F"/>
<path fill-rule="evenodd" clip-rule="evenodd" d="M113.459 7.6657C119.54 67.3022 84.465 92.1865 74.5137 97.9479C74.5751 98.5608 74.6365 99.235 74.6365 99.8479V184.92L90.9764 193.93H177.037C177.221 193.93 177.405 193.93 177.59 193.991C197.431 196.688 198.168 173.275 198.23 170.394C198.107 168.923 198.905 167.452 200.38 166.839C212.788 161.507 207.505 144.774 207.014 143.365C206.399 141.649 207.137 139.749 208.795 138.952C224.889 131.106 214.754 117.132 213.464 115.355C212.419 114.19 212.235 112.413 213.095 111.064C242.273 66.3828 151.053 77.4152 145.217 78.1507C144.787 78.2733 144.296 78.2733 143.804 78.1507C141.9 77.783 140.61 75.9443 141.04 73.9829C154.616 5.21405 123.226 5.88825 113.459 7.6657Z" fill="#F2D0B0"/>
<path fill-rule="evenodd" clip-rule="evenodd" d="M67.5729 185.962V99.9089C67.5729 97.8863 66.7129 96.0476 65.3615 94.6992C64.0101 93.3508 62.1673 92.4927 60.1401 92.4927H14.4992C12.4721 92.4927 10.6292 93.3508 9.27781 94.6992C7.9264 96.0476 7.06641 97.8863 7.06641 99.9089V186.023C7.06641 188.046 7.9264 189.885 9.27781 191.233C10.6292 192.581 12.4721 193.44 14.4992 193.44H60.1401C62.1673 193.44 64.0101 192.581 65.3615 191.233C66.4672 190.13 67.2043 188.72 67.4501 187.126C67.4501 186.881 67.4501 186.575 67.5115 186.33C67.5729 186.146 67.5729 186.085 67.5729 185.962Z" fill="#CCDFDC"/>
<path fill-rule="evenodd" clip-rule="evenodd" d="M17.6904 99.9089V186.023C17.6904 188.72 18.4275 191.233 19.7175 193.44H14.4347C12.4076 193.44 10.5648 192.581 9.21336 191.233C7.86194 189.885 7.00195 188.046 7.00195 186.023V99.9089C7.00195 97.8863 7.86194 96.0476 9.21336 94.6992C10.5648 93.3508 12.4076 92.4927 14.4347 92.4927H19.7175C18.489 94.6379 17.6904 97.2121 17.6904 99.9089Z" fill="#02044F"/>
<path opacity="0.5" fill-rule="evenodd" clip-rule="evenodd" d="M85.2607 99.909V186.023C85.2607 186.146 85.2607 186.207 85.2607 186.33C85.1993 186.575 85.1993 186.881 85.1993 187.127C85.015 188.23 84.585 189.272 84.0322 190.191L74.6951 185.043V99.909C74.6951 99.2348 74.6337 98.6219 74.5723 98.009C76.1694 97.0896 78.5036 95.6186 81.2065 93.5347C94.8435 80.7861 117.94 50.8147 113.518 7.72686C116.036 7.29782 119.906 6.86878 124.145 7.72686C130.84 70.5505 85.2607 95.5574 85.2607 99.909Z" fill="#EB7324"/>
<path fill-rule="evenodd" clip-rule="evenodd" d="M90.2344 193.5C90.4801 193.071 90.7258 192.642 90.9101 192.213L94.0429 193.93H90.9715L90.2344 193.5Z" fill="#EB7324"/>
</svg>
