<svg width="13" height="16" viewBox="0 0 13 16" fill="none" xmlns="http://www.w3.org/2000/svg">
<path d="M8.70869 5.79688C8.50172 5.79688 8.33398 5.96461 8.33398 6.17158V13.2535C8.33398 13.4603 8.50172 13.6282 8.70869 13.6282C8.91566 13.6282 9.0834 13.4603 9.0834 13.2535V6.17158C9.0834 5.96461 8.91566 5.79688 8.70869 5.79688Z" fill="#6A6A6A"/>
<path d="M4.28682 5.79688C4.07985 5.79688 3.91211 5.96461 3.91211 6.17158V13.2535C3.91211 13.4603 4.07985 13.6282 4.28682 13.6282C4.49378 13.6282 4.66152 13.4603 4.66152 13.2535V6.17158C4.66152 5.96461 4.49378 5.79688 4.28682 5.79688Z" fill="#6A6A6A"/>
<path d="M1.06423 4.76335V13.9953C1.06423 14.541 1.26431 15.0534 1.61384 15.4211C1.96176 15.7898 2.44596 15.9991 2.95269 16H10.0422C10.5491 15.9991 11.0333 15.7898 11.3811 15.4211C11.7306 15.0534 11.9307 14.541 11.9307 13.9953V4.76335C12.6255 4.57893 13.0758 3.90768 12.9828 3.19471C12.8897 2.48189 12.2824 1.94867 11.5635 1.94852H9.645V1.48014C9.64719 1.08626 9.49145 0.708039 9.21262 0.42979C8.93379 0.151688 8.55498 -0.0031709 8.1611 4.92333e-05H4.83383C4.43995 -0.0031709 4.06114 0.151688 3.78231 0.42979C3.50348 0.708039 3.34774 1.08626 3.34993 1.48014V1.94852H1.43147C0.7125 1.94867 0.105213 2.48189 0.0121219 3.19471C-0.0808227 3.90768 0.36941 4.57893 1.06423 4.76335V4.76335ZM10.0422 15.2506H2.95269C2.31203 15.2506 1.81364 14.7002 1.81364 13.9953V4.79629H11.1813V13.9953C11.1813 14.7002 10.6829 15.2506 10.0422 15.2506ZM4.09935 1.48014C4.09686 1.28503 4.17356 1.09724 4.31202 0.959502C4.45034 0.821768 4.63857 0.746095 4.83383 0.749461H8.1611C8.35636 0.746095 8.54459 0.821768 8.68291 0.959502C8.82138 1.09709 8.89807 1.28503 8.89558 1.48014V1.94852H4.09935V1.48014ZM1.43147 2.69793H11.5635C11.936 2.69793 12.2379 2.99989 12.2379 3.3724C12.2379 3.74491 11.936 4.04688 11.5635 4.04688H1.43147C1.05896 4.04688 0.756997 3.74491 0.756997 3.3724C0.756997 2.99989 1.05896 2.69793 1.43147 2.69793V2.69793Z" fill="#6A6A6A"/>
<path d="M6.49775 5.79688C6.29079 5.79688 6.12305 5.96461 6.12305 6.17158V13.2535C6.12305 13.4603 6.29079 13.6282 6.49775 13.6282C6.70472 13.6282 6.87246 13.4603 6.87246 13.2535V6.17158C6.87246 5.96461 6.70472 5.79688 6.49775 5.79688Z" fill="#6A6A6A"/>
</svg>
