<svg width="24" height="24" viewBox="0 0 24 24" fill="none" xmlns="http://www.w3.org/2000/svg">
<g clip-path="url(#clip0_725_5033)">
<path d="M7.19176 6.8083C7.34806 6.9646 7.60146 6.9646 7.75776 6.8083L11.6002 2.9655L11.6002 13.9999C11.6002 14.2208 11.7793 14.3999 12.0002 14.3999C12.2211 14.3999 12.4002 14.2208 12.4002 13.9999L12.4002 2.9655L16.2426 6.8083C16.3989 6.9646 16.6523 6.9646 16.8086 6.8083C16.9649 6.652 16.9649 6.3986 16.8086 6.2423L12.2834 1.7175C12.1274 1.5611 11.8741 1.56075 11.7177 1.7168C11.7174 1.71705 11.7172 1.7173 11.717 1.7175L7.19176 6.2423C7.03546 6.3986 7.03546 6.652 7.19176 6.8083Z" fill="#0AA45A"/>
<path d="M1.2 22.3999L22.8 22.3999C23.4628 22.3999 24 21.8627 24 21.1999L24 6.7999C24 6.13715 23.4628 5.5999 22.8 5.5999H18.8C18.5791 5.5999 18.4 5.779 18.4 5.9999C18.4 6.2208 18.5791 6.3999 18.8 6.3999H22.8C23.0209 6.3999 23.2 6.579 23.2 6.7999L23.2 17.5999L0.799999 17.5999L0.799999 6.7999C0.799999 6.579 0.979099 6.3999 1.2 6.3999H5.2C5.4209 6.3999 5.6 6.2208 5.6 5.9999C5.6 5.779 5.4209 5.5999 5.2 5.5999H1.2C0.537251 5.5999 0 6.13715 0 6.7999L0 21.1999C0 21.8627 0.537251 22.3999 1.2 22.3999ZM0.799999 19.1999L23.2 19.1999V21.1999C23.2 21.4208 23.0209 21.5999 22.8 21.5999L1.2 21.5999C0.979099 21.5999 0.799999 21.4208 0.799999 21.1999V19.1999Z" fill="#0AA45A"/>
</g>
<defs>
<clipPath id="clip0_725_5033">
<rect width="24" height="24" fill="white" transform="translate(24 24) rotate(-180)"/>
</clipPath>
</defs>
</svg>
