<svg width="25" height="24" viewBox="0 0 25 24" fill="none" xmlns="http://www.w3.org/2000/svg">
<g clip-path="url(#clip0_725_4927)">
<path d="M7.30894 6.8083C7.46524 6.9646 7.71864 6.9646 7.87494 6.8083L11.7173 2.9655L11.7173 13.9999C11.7173 14.2208 11.8964 14.3999 12.1173 14.3999C12.3382 14.3999 12.5173 14.2208 12.5173 13.9999L12.5173 2.9655L16.3597 6.8083C16.516 6.9646 16.7694 6.9646 16.9257 6.8083C17.082 6.652 17.082 6.3986 16.9257 6.2423L12.4005 1.7175C12.2445 1.5611 11.9912 1.56075 11.8348 1.7168C11.8346 1.71705 11.8343 1.7173 11.8341 1.7175L7.30894 6.2423C7.15264 6.3986 7.15264 6.652 7.30894 6.8083Z" fill="white"/>
<path d="M1.31719 22.3999L22.9172 22.3999C23.5799 22.3999 24.1172 21.8627 24.1172 21.1999L24.1172 6.7999C24.1172 6.13715 23.5799 5.5999 22.9172 5.5999H18.9172C18.6963 5.5999 18.5172 5.779 18.5172 5.9999C18.5172 6.2208 18.6963 6.3999 18.9172 6.3999H22.9172C23.1381 6.3999 23.3172 6.579 23.3172 6.7999L23.3172 17.5999L0.917187 17.5999L0.917187 6.7999C0.917187 6.579 1.09629 6.3999 1.31719 6.3999H5.31719C5.53809 6.3999 5.71719 6.2208 5.71719 5.9999C5.71719 5.779 5.53809 5.5999 5.31719 5.5999H1.31719C0.654438 5.5999 0.117188 6.13715 0.117188 6.7999L0.117188 21.1999C0.117188 21.8627 0.654438 22.3999 1.31719 22.3999ZM0.917187 19.1999L23.3172 19.1999V21.1999C23.3172 21.4208 23.1381 21.5999 22.9172 21.5999L1.31719 21.5999C1.09629 21.5999 0.917187 21.4208 0.917187 21.1999V19.1999Z" fill="white"/>
</g>
<defs>
<clipPath id="clip0_725_4927">
<rect width="24" height="24" fill="white" transform="translate(24.1172 24) rotate(-180)"/>
</clipPath>
</defs>
</svg>
