<svg width="24" height="24" viewBox="0 0 24 24" fill="none" xmlns="http://www.w3.org/2000/svg">
<path d="M11.3305 22.5359C10.8534 22.5362 10.3818 22.4343 9.94754 22.2369L5.34051 20.1408C5.26219 20.1052 5.20123 20.0399 5.17103 19.9593C5.14083 19.8788 5.14387 19.7895 5.17948 19.7112C5.21509 19.6329 5.28036 19.5719 5.36092 19.5417C5.44148 19.5115 5.53073 19.5146 5.60905 19.5502L10.2164 21.6466C10.6469 21.8414 11.121 21.92 11.5913 21.8744C12.0616 21.8289 12.5118 21.6609 12.8969 21.3872L22.3461 14.6652C22.5111 14.5459 22.6277 14.3714 22.6747 14.1733C22.7218 13.9753 22.6962 13.767 22.6026 13.5862C22.5089 13.4055 22.3535 13.2644 22.1646 13.1886C21.9757 13.1128 21.7658 13.1074 21.5733 13.1733L14.7268 15.5373C14.6455 15.5654 14.5563 15.56 14.4789 15.5224C14.4016 15.4847 14.3423 15.4179 14.3142 15.3366C14.2862 15.2552 14.2915 15.1661 14.3292 15.0887C14.3668 15.0113 14.4337 14.9521 14.515 14.924L21.3634 12.5564C21.7041 12.4392 22.0756 12.4486 22.4098 12.583C22.7441 12.7173 23.0187 12.9676 23.1834 13.2881C23.3481 13.6085 23.3918 13.9775 23.3066 14.3275C23.2213 14.6775 23.0127 14.9851 22.7191 15.1939L13.2732 21.9164C12.7058 22.32 12.0267 22.5365 11.3305 22.5359Z" fill="#1F1F1F"/>
<path d="M10.1731 16.7632C10.0937 16.7633 10.0171 16.7343 9.95766 16.6816C9.89825 16.6289 9.86022 16.5563 9.85079 16.4774C9.84135 16.3986 9.86117 16.3191 9.90647 16.2538C9.95178 16.1886 10.0194 16.1423 10.0966 16.1237L14.0676 15.1556C14.2795 15.0954 14.4625 14.9608 14.5829 14.7764C14.7033 14.592 14.7531 14.3703 14.723 14.1522C14.6929 13.934 14.585 13.7341 14.4192 13.5892C14.2533 13.4443 14.0407 13.3642 13.8205 13.3637L10.1793 13.4285C10.1253 13.4284 10.072 13.4159 10.0236 13.3919L8.71628 12.7108C7.75316 12.2074 6.67242 11.9722 5.5872 12.0297L5.48763 12.0339C5.44497 12.0361 5.40231 12.0297 5.36214 12.0152C5.32198 12.0007 5.28512 11.9783 5.25373 11.9493C5.22234 11.9203 5.19705 11.8854 5.17936 11.8465C5.16166 11.8076 5.1519 11.7656 5.15066 11.7229C5.14892 11.6803 5.15559 11.6378 5.17028 11.5978C5.18497 11.5578 5.2074 11.5211 5.23629 11.4898C5.26517 11.4585 5.29994 11.4332 5.33862 11.4153C5.37729 11.3974 5.41911 11.3873 5.46169 11.3856L5.55704 11.382C6.75677 11.3181 7.9516 11.5781 9.01628 12.1348L10.2487 12.7783L13.8056 12.7134C14.1848 12.7109 14.552 12.8464 14.8386 13.0947C15.1253 13.3429 15.3118 13.687 15.3634 14.0627C15.415 14.4384 15.3282 14.82 15.1191 15.1364C14.9101 15.4528 14.593 15.6823 14.2272 15.7822L10.2503 16.7538C10.2251 16.76 10.1992 16.7631 10.1731 16.7632Z" fill="#1F1F1F"/>
<path d="M4.65255 20.9392H1.7946C1.49072 20.9388 1.19939 20.8179 0.98452 20.6031C0.769647 20.3882 0.648781 20.0969 0.648438 19.793V11.3058C0.648781 11.0019 0.769658 10.7106 0.98454 10.4958C1.19942 10.281 1.49075 10.1602 1.7946 10.1599H4.65255C4.95637 10.1603 5.24765 10.2811 5.46251 10.4959C5.67737 10.7107 5.79828 11.0019 5.79871 11.3058V19.793C5.79836 20.0969 5.6775 20.3882 5.46263 20.6031C5.24775 20.8179 4.95642 20.9388 4.65255 20.9392ZM1.7946 10.8086C1.66273 10.8086 1.53629 10.861 1.44301 10.9543C1.34974 11.0475 1.29726 11.1739 1.29709 11.3058V19.793C1.29726 19.9249 1.34973 20.0513 1.44299 20.1446C1.53626 20.2379 1.6627 20.2903 1.7946 20.2905H4.65255C4.78444 20.2903 4.91089 20.2379 5.00415 20.1446C5.09742 20.0513 5.14989 19.9249 5.15006 19.793V11.3058C5.14989 11.1739 5.09741 11.0475 5.00413 10.9543C4.91086 10.861 4.78441 10.8086 4.65255 10.8086H1.7946Z" fill="#1F1F1F"/>
<path d="M19.9939 13.699C19.9401 13.6989 19.8871 13.6855 19.8397 13.6599C19.7924 13.6343 19.7521 13.5973 19.7227 13.5522C19.6932 13.5072 19.6754 13.4555 19.6709 13.4018C19.6664 13.3482 19.6753 13.2943 19.6968 13.2449C20.3065 11.8471 18.4478 8.65832 16.4633 6.08221H13.3417C12.3736 7.34351 9.81432 10.8822 10.0011 12.8074C10.0069 12.8917 9.97962 12.9749 9.92501 13.0393C9.8704 13.1038 9.7928 13.1444 9.70872 13.1525C9.62464 13.1606 9.54072 13.1356 9.47479 13.0828C9.40887 13.0299 9.36616 12.9535 9.35573 12.8697C9.14395 10.6853 11.7953 7.01302 12.945 5.5354C12.9861 5.48284 13.0424 5.44423 13.1063 5.42485C13.1701 5.40546 13.2384 5.40624 13.3018 5.42708C13.3185 5.43207 13.3359 5.43437 13.3534 5.43389H16.4406C16.459 5.43438 16.4773 5.43175 16.4948 5.4261C16.5589 5.40353 16.6285 5.40169 16.6937 5.42084C16.759 5.43999 16.8166 5.47915 16.8583 5.53281C18.1903 7.24199 21.1919 11.4404 20.2913 13.5044C20.266 13.5622 20.2245 13.6115 20.1716 13.646C20.1188 13.6806 20.057 13.699 19.9939 13.699Z" fill="#1F1F1F"/>
<path d="M16.6014 4.99634C16.5651 4.99632 16.529 4.99029 16.4947 4.9785C16.4769 4.97271 16.4582 4.96997 16.4395 4.97039H13.3536C13.3377 4.96986 13.3217 4.97149 13.3062 4.97525C13.2361 4.99585 13.1611 4.99216 13.0934 4.96479C13.0256 4.93741 12.9691 4.88796 12.9329 4.82444L11.9123 3.02834C11.8283 2.86839 11.7913 2.68789 11.8058 2.5078C11.8203 2.3277 11.8855 2.15541 11.994 2.01093C12.1001 1.86828 12.2442 1.75847 12.4099 1.69415C12.5757 1.62983 12.7562 1.61361 12.9307 1.64736L13.122 1.68401C13.2843 1.72171 13.453 1.72249 13.6156 1.68628L14.432 1.50434C14.7762 1.42901 15.135 1.45803 15.4627 1.58769L15.9923 1.79266C16.2388 1.88956 16.5115 1.8969 16.7629 1.81342C16.9413 1.75984 17.1316 1.75982 17.31 1.81338C17.4885 1.86693 17.6473 1.97169 17.7668 2.11467C17.8862 2.25765 17.9611 2.43256 17.9821 2.61769C18.003 2.80283 17.9692 2.99004 17.8847 3.15612C17.8815 3.16261 17.8779 3.16909 17.8743 3.17558L16.8793 4.83839C16.8506 4.88648 16.8099 4.92631 16.7612 4.95399C16.7124 4.98167 16.6574 4.99626 16.6014 4.99634ZM13.3941 4.32174H16.433L17.3113 2.85417C17.3336 2.8092 17.3439 2.75925 17.3412 2.70915C17.3385 2.65904 17.323 2.61047 17.2961 2.56812C17.262 2.51229 17.2107 2.46895 17.15 2.44453C17.0893 2.42011 17.0224 2.41591 16.9591 2.43255C16.5664 2.5619 16.1408 2.54962 15.7562 2.39785L15.2256 2.19223C15.0174 2.10956 14.7893 2.09104 14.5705 2.13904L13.7577 2.31871C13.5047 2.37596 13.2421 2.37596 12.989 2.31871L12.8103 2.28304C12.7546 2.27336 12.6972 2.27939 12.6446 2.30046C12.5921 2.32153 12.5464 2.3568 12.5127 2.40234C12.4791 2.44787 12.4588 2.50188 12.454 2.5583C12.4493 2.61473 12.4604 2.67136 12.486 2.72185L13.3941 4.32174Z" fill="#1F1F1F"/>
<path d="M14.9278 12.9255C14.4589 12.9255 14.0005 12.7865 13.6105 12.5261C13.2206 12.2656 12.9167 11.8953 12.7372 11.4621C12.5577 11.0289 12.5107 10.5522 12.6022 10.0923C12.6936 9.63241 12.9194 9.20994 13.2509 8.87835C13.5825 8.54675 14.0049 8.32092 14.4648 8.22942C14.9247 8.13791 15.4014 8.18484 15.8346 8.36428C16.2679 8.54371 16.6382 8.84758 16.8987 9.23746C17.1592 9.62735 17.2983 10.0857 17.2983 10.5546C17.2976 11.1832 17.0476 11.7857 16.6032 12.2302C16.1588 12.6746 15.5563 12.9247 14.9278 12.9255ZM14.9278 8.83281C14.5871 8.83275 14.2541 8.9337 13.9709 9.12291C13.6876 9.31212 13.4668 9.58108 13.3364 9.89578C13.2061 10.2105 13.1719 10.5568 13.2384 10.8909C13.3048 11.225 13.4688 11.5319 13.7097 11.7727C13.9506 12.0136 14.2575 12.1776 14.5916 12.2441C14.9257 12.3105 15.2719 12.2764 15.5866 12.146C15.9013 12.0156 16.1703 11.7948 16.3595 11.5116C16.5487 11.2283 16.6497 10.8953 16.6496 10.5546C16.649 10.0982 16.4674 9.66057 16.1446 9.33779C15.8219 9.01501 15.3843 8.83341 14.9278 8.83281Z" fill="#1F1F1F"/>
<path d="M14.8188 11.7112V11.5438C14.646 11.5434 14.4767 11.4946 14.3301 11.4031L14.4066 11.189C14.5436 11.2782 14.7034 11.3259 14.8668 11.3265C15.0939 11.3265 15.2469 11.1968 15.2469 11.0133C15.2469 10.8375 15.1224 10.7288 14.886 10.6328C14.5616 10.5054 14.3586 10.3581 14.3586 10.0815C14.3606 9.951 14.4111 9.82594 14.5003 9.73075C14.5896 9.63556 14.7111 9.57709 14.8412 9.56677V9.39941H15.0394V9.55412C15.1852 9.55527 15.3282 9.59379 15.4548 9.66601L15.3751 9.87682C15.2533 9.80439 15.1139 9.76681 14.9722 9.76817C14.7261 9.76817 14.6333 9.91541 14.6333 10.0432C14.6333 10.2093 14.7517 10.2923 15.0296 10.4074C15.3588 10.5417 15.5252 10.7077 15.5252 10.9912C15.5227 11.128 15.4698 11.2592 15.3767 11.3594C15.2835 11.4597 15.1565 11.522 15.0202 11.5344V11.7115L14.8188 11.7112Z" fill="#1F1F1F"/>
<path d="M15.0204 11.7923H14.819C14.7975 11.7923 14.7769 11.7838 14.7617 11.7686C14.7465 11.7533 14.7379 11.7327 14.7379 11.7112V11.6207C14.5763 11.6085 14.4203 11.5563 14.2839 11.469C14.2696 11.4587 14.259 11.4441 14.2537 11.4273C14.2484 11.4105 14.2488 11.3925 14.2547 11.3759L14.3315 11.1618C14.3356 11.1502 14.3423 11.1397 14.3511 11.1311C14.3598 11.1225 14.3705 11.116 14.3821 11.1122C14.3939 11.1083 14.4063 11.1071 14.4186 11.1087C14.4308 11.1104 14.4425 11.1148 14.4528 11.1216C14.5764 11.2021 14.7205 11.2451 14.868 11.2455C15.047 11.2455 15.167 11.1521 15.167 11.0133C15.167 10.9202 15.1294 10.8187 14.8566 10.7084C14.5712 10.5962 14.2787 10.434 14.2787 10.0802C14.279 9.94238 14.3273 9.80898 14.4154 9.703C14.5035 9.59702 14.6258 9.5251 14.7613 9.49965V9.39846C14.7612 9.3878 14.7633 9.37724 14.7674 9.36739C14.7714 9.35753 14.7774 9.34857 14.7849 9.34104C14.7925 9.3335 14.8014 9.32753 14.8113 9.32347C14.8211 9.31941 14.8317 9.31734 14.8424 9.31738H15.0405C15.0512 9.31734 15.0617 9.31941 15.0716 9.32347C15.0815 9.32753 15.0904 9.3335 15.098 9.34104C15.1055 9.34857 15.1115 9.35753 15.1155 9.36739C15.1196 9.37724 15.1216 9.3878 15.1216 9.39846V9.47695C15.2538 9.48816 15.3819 9.52835 15.4968 9.59468C15.5131 9.60433 15.5254 9.61931 15.5318 9.63705C15.5382 9.6548 15.5382 9.67421 15.5319 9.69198L15.4521 9.90311C15.4479 9.91408 15.4413 9.92401 15.4329 9.93224C15.4246 9.94046 15.4145 9.94679 15.4034 9.95079C15.3924 9.95453 15.3807 9.95594 15.3691 9.95494C15.3575 9.95393 15.3462 9.95053 15.336 9.94495C15.2264 9.8797 15.1009 9.84603 14.9734 9.84765C14.7833 9.84765 14.7159 9.94787 14.7159 10.0422C14.7159 10.1434 14.7658 10.2096 15.0619 10.3319C15.2116 10.3687 15.3455 10.4527 15.4437 10.5715C15.542 10.6903 15.5994 10.8376 15.6074 10.9915C15.6059 11.1356 15.5548 11.2748 15.4629 11.3857C15.371 11.4966 15.2437 11.5726 15.1025 11.601V11.7119C15.1024 11.7225 15.1002 11.7331 15.096 11.7429C15.0918 11.7528 15.0858 11.7617 15.0781 11.7691C15.0705 11.7766 15.0615 11.7825 15.0516 11.7865C15.0417 11.7904 15.0311 11.7924 15.0204 11.7923ZM14.9001 11.6301H14.9393V11.5328C14.9393 11.5137 14.9461 11.4951 14.9585 11.4805C14.971 11.4659 14.9882 11.4561 15.0071 11.4531C15.1244 11.4435 15.234 11.3909 15.3147 11.3053C15.3955 11.2197 15.4416 11.1072 15.4443 10.9896C15.4443 10.7564 15.3146 10.6088 14.9993 10.4798C14.746 10.3753 14.5527 10.2764 14.5527 10.0403C14.554 9.98831 14.5662 9.93717 14.5886 9.89023C14.611 9.84328 14.643 9.80161 14.6827 9.76792C14.7223 9.73424 14.7686 9.70931 14.8185 9.69477C14.8685 9.68022 14.9209 9.6764 14.9724 9.68355C15.0962 9.68292 15.2188 9.70879 15.3318 9.75944L15.3535 9.70106C15.2537 9.65674 15.1459 9.63313 15.0366 9.63165C15.0156 9.6309 14.9958 9.62202 14.9812 9.6069C14.9666 9.59177 14.9585 9.57158 14.9585 9.55057V9.47728H14.9225V9.56322C14.9225 9.58244 14.9157 9.60105 14.9033 9.61572C14.8909 9.63039 14.8736 9.64018 14.8547 9.64333C14.7436 9.65033 14.6392 9.69895 14.5623 9.77949C14.4854 9.86004 14.4417 9.96659 14.4399 10.0779C14.4399 10.2874 14.5732 10.4211 14.9157 10.5553C15.1083 10.6332 15.3282 10.7551 15.3282 11.011C15.3254 11.0677 15.311 11.1233 15.286 11.1743C15.2609 11.2253 15.2258 11.2706 15.1826 11.3076C15.1394 11.3445 15.0891 11.3722 15.0349 11.389C14.9806 11.4058 14.9235 11.4114 14.867 11.4054C14.7223 11.4047 14.5797 11.3706 14.4503 11.3058L14.4285 11.3665C14.5506 11.4263 14.6844 11.4584 14.8203 11.4605C14.8416 11.4609 14.8618 11.4697 14.8767 11.4848C14.8916 11.5 14.9 11.5203 14.9001 11.5416V11.6301Z" fill="#1F1F1F"/>
<path d="M16.4392 6.0826H13.3532C13.266 6.0831 13.1792 6.06952 13.0963 6.04238C12.9158 5.98814 12.7576 5.8771 12.6453 5.72576C12.5329 5.57443 12.4724 5.39087 12.4727 5.20239C12.4715 5.00576 12.5367 4.81451 12.6578 4.65958C12.7789 4.50466 12.9487 4.39514 13.1398 4.34876C13.2094 4.32996 13.2812 4.3209 13.3532 4.32184H16.4392C16.5305 4.32142 16.6213 4.33633 16.7077 4.36595C16.8515 4.41167 16.9812 4.49372 17.084 4.60417C17.1869 4.71462 17.2596 4.84973 17.295 4.99645C17.3304 5.14318 17.3274 5.29655 17.2862 5.44177C17.245 5.58698 17.1671 5.71912 17.0599 5.82541C16.9575 5.92767 16.831 6.00251 16.6921 6.04303C16.6106 6.07014 16.5251 6.08351 16.4392 6.0826ZM13.3532 4.97049C13.3373 4.96996 13.3214 4.9716 13.3059 4.97536C13.2599 4.98532 13.2176 5.00777 13.1836 5.04022C13.1433 5.08461 13.1211 5.14245 13.1213 5.20239C13.1213 5.25207 13.1374 5.30042 13.1672 5.34014C13.197 5.37987 13.239 5.40881 13.2867 5.4226C13.3075 5.43004 13.3295 5.43388 13.3516 5.43395H16.4392C16.4575 5.43444 16.4758 5.43181 16.4933 5.42617C16.5339 5.41637 16.5712 5.39601 16.6013 5.36714C16.63 5.33934 16.651 5.30451 16.6621 5.26611C16.6732 5.22772 16.6741 5.18708 16.6647 5.14824C16.6552 5.10939 16.6358 5.07369 16.6083 5.04468C16.5808 5.01566 16.5462 4.99434 16.5079 4.98282C16.4859 4.97469 16.4626 4.97052 16.4392 4.97049H13.3532Z" fill="#1F1F1F"/>
</svg>
