<svg width="24" height="24" viewBox="0 0 24 24" fill="none" xmlns="http://www.w3.org/2000/svg">
<path fill-rule="evenodd" clip-rule="evenodd" d="M12 8.8421C11.3027 8.8421 10.7368 8.27495 10.7368 7.57895C10.7368 6.88295 11.3027 6.31579 12 6.31579C12.6973 6.31579 13.2632 6.88295 13.2632 7.57895C13.2632 8.27495 12.6973 8.8421 12 8.8421ZM13.2632 17.6842H10.7368C10.3882 17.6842 10.1053 17.4013 10.1053 17.0526C10.1053 16.704 10.3882 16.4211 10.7368 16.4211H11.3684V11.3684H10.7368C10.3882 11.3684 10.1053 11.0855 10.1053 10.7368C10.1053 10.3882 10.3882 10.1053 10.7368 10.1053H12C12.3486 10.1053 12.6316 10.3882 12.6316 10.7368V16.4211H13.2632C13.6118 16.4211 13.8947 16.704 13.8947 17.0526C13.8947 17.4013 13.6118 17.6842 13.2632 17.6842ZM12 1.26316C6.07958 1.26316 1.26316 6.07958 1.26316 12C1.26316 17.9204 6.07958 22.7368 12 22.7368C17.9204 22.7368 22.7369 17.9204 22.7369 12C22.7369 6.07958 17.9204 1.26316 12 1.26316ZM12 24C5.38358 24 0 18.6164 0 12C0 5.38358 5.38358 0 12 0C18.6164 0 24 5.38358 24 12C24 18.6164 18.6164 24 12 24Z" fill="#6A6A6A"/>
</svg>
