<svg width="16" height="16" viewBox="0 0 16 16" fill="none" xmlns="http://www.w3.org/2000/svg">
<path fill-rule="evenodd" clip-rule="evenodd" d="M8 5.89474C7.53516 5.89474 7.1579 5.51663 7.1579 5.05263C7.1579 4.58863 7.53516 4.21053 8 4.21053C8.46485 4.21053 8.84211 4.58863 8.84211 5.05263C8.84211 5.51663 8.46485 5.89474 8 5.89474ZM8.84211 11.7895H7.1579C6.92548 11.7895 6.73684 11.6008 6.73684 11.3684C6.73684 11.136 6.92548 10.9474 7.1579 10.9474H7.57895V7.57895H7.1579C6.92548 7.57895 6.73684 7.39032 6.73684 7.15789C6.73684 6.92547 6.92548 6.73684 7.1579 6.73684H8C8.23242 6.73684 8.42106 6.92547 8.42106 7.15789V10.9474H8.84211C9.07453 10.9474 9.26316 11.136 9.26316 11.3684C9.26316 11.6008 9.07453 11.7895 8.84211 11.7895ZM8 0.842105C4.05305 0.842105 0.842106 4.05305 0.842106 8C0.842106 11.9469 4.05305 15.1579 8 15.1579C11.947 15.1579 15.1579 11.9469 15.1579 8C15.1579 4.05305 11.947 0.842105 8 0.842105ZM8 16C3.58905 16 0 12.4109 0 8C0 3.58905 3.58905 0 8 0C12.411 0 16 3.58905 16 8C16 12.4109 12.411 16 8 16Z" fill="#6A6A6A"/>
</svg>
