<svg width="16" height="16" viewBox="0 0 16 16" fill="none" xmlns="http://www.w3.org/2000/svg">
<path d="M8.00144 11.4187C7.93922 11.4052 7.87538 11.4028 7.81234 11.4122C7.18065 11.3387 6.70412 10.8042 6.70304 10.1685C6.70304 9.86381 6.45602 9.61679 6.15135 9.61679C5.84669 9.61679 5.59967 9.86381 5.59967 10.1685C5.60128 11.2301 6.31136 12.16 7.335 12.441V12.9926C7.335 13.2973 7.58202 13.5443 7.88669 13.5443C8.19136 13.5443 8.43838 13.2973 8.43838 12.9926V12.4744C9.61987 12.2271 10.4229 11.1267 10.2987 9.92604C10.1743 8.72542 9.16274 7.81303 7.95565 7.81276C7.26389 7.81276 6.70304 7.25192 6.70304 6.56015C6.70304 5.86839 7.26389 5.30754 7.95565 5.30754C8.64741 5.30754 9.20826 5.86839 9.20826 6.56015C9.20826 6.86482 9.45528 7.11184 9.75995 7.11184C10.0646 7.11184 10.3116 6.86482 10.3116 6.56015C10.31 5.44546 9.52909 4.48405 8.43838 4.254V3.75188C8.43838 3.44722 8.19136 3.2002 7.88669 3.2002C7.58202 3.2002 7.335 3.44722 7.335 3.75188V4.28768C6.19661 4.59854 5.4639 5.7038 5.62068 6.87344C5.77746 8.04308 6.7755 8.91614 7.95565 8.91587C8.63826 8.91587 9.19506 9.46243 9.20745 10.1448C9.22011 10.8271 8.68351 11.3939 8.00144 11.4187Z" fill="#6A6A6A"/>
<circle cx="8" cy="8" r="7.5" stroke="#6A6A6A"/>
</svg>
