<svg width="24" height="18" viewBox="0 0 24 18" fill="none" xmlns="http://www.w3.org/2000/svg">
<path d="M23.9821 1.72039C23.9821 1.69296 24.001 1.66627 23.9997 1.63916L16.6758 8.69621L23.991 15.5278C23.9953 15.479 23.9821 15.4298 23.9821 15.38V1.72039Z" fill="#02044F"/>
<path d="M15.5583 9.78223L12.5685 12.6588C12.4172 12.8044 12.2218 12.8774 12.0263 12.8774C11.8348 12.8774 11.6434 12.8075 11.4931 12.6675L8.51141 9.889L1.14844 16.9861C1.32747 17.0504 1.51964 17.1004 1.72088 17.1004H22.3318C22.6306 17.1004 22.9109 17.0093 23.1546 16.8736L15.5583 9.78223Z" fill="#02044F"/>
<path d="M12.0188 11.0185L23.1962 0.251397C22.9431 0.100934 22.6485 0 22.3328 0H1.72191C1.31077 0 0.934043 0.159639 0.640625 0.403111L12.0188 11.0185Z" fill="#02044F"/>
<path d="M0 1.98273V15.3799C0 15.5337 0.0353478 15.6819 0.0737194 15.8236L7.34535 8.82122L0 1.98273Z" fill="#02044F"/>
</svg>
