<svg width="172" height="172" viewBox="0 0 172 172" fill="none" xmlns="http://www.w3.org/2000/svg">
<path d="M86.0031 172C74.4154 172 63.1397 169.737 52.5274 165.25C42.3052 160.92 33.0974 154.716 25.2161 146.835C17.3349 138.954 11.1313 129.746 6.80056 119.524C2.31371 108.872 0.0507812 97.6355 0.0507812 86.0088C0.0507812 74.421 2.31371 63.1453 6.80056 52.533C11.1313 42.3108 17.3349 33.103 25.2161 25.2217C33.0974 17.3405 42.3052 11.137 52.5274 6.80617C63.1397 2.31933 74.4154 0.0563965 86.0031 0.0563965C97.5909 0.0563965 108.867 2.31933 119.479 6.80617C129.701 11.137 138.909 17.3405 146.79 25.2217C154.671 33.103 160.875 42.3108 165.206 52.533C169.693 63.1453 171.956 74.382 171.956 86.0088C171.956 97.5965 169.693 108.872 165.206 119.485C160.875 129.707 154.671 138.915 146.79 146.796C138.909 154.677 129.701 160.881 119.479 165.211C108.867 169.698 97.6299 172 86.0031 172ZM86.0031 5.01143C41.3298 5.01143 5.00582 41.3354 5.00582 86.0088C5.00582 130.682 41.3298 167.045 86.0031 167.045C130.677 167.045 167.039 130.682 167.039 86.0088C167.039 41.3354 130.677 5.01143 86.0031 5.01143Z" fill="#02044F"/>
<path d="M57.4996 61.7918C63.9624 63.3179 67.9644 69.7941 66.4384 76.2569C64.9124 82.7197 58.4361 86.7217 51.9733 85.1956C45.5105 83.6696 41.5085 77.1934 43.0346 70.7306C44.5606 64.2678 51.0368 60.2658 57.4996 61.7918Z" fill="#02044F" stroke="#02044F"/>
<path d="M129.638 75.4871C130.746 68.6594 126.109 62.2262 119.282 61.1181C112.454 60.01 106.021 64.6467 104.913 71.4743C103.805 78.302 108.441 84.7352 115.269 85.8433C122.096 86.9514 128.53 82.3147 129.638 75.4871Z" fill="#02044F"/>
<path d="M122.99 70.7535C125.123 70.7535 126.852 69.0242 126.852 66.8909C126.852 64.7577 125.123 63.0283 122.99 63.0283C120.856 63.0283 119.127 64.7577 119.127 66.8909C119.127 69.0242 120.856 70.7535 122.99 70.7535Z" fill="white"/>
<path d="M60.4505 70.7533C62.5837 70.7533 64.3131 69.0239 64.3131 66.8907C64.3131 64.7574 62.5837 63.0281 60.4505 63.0281C58.3172 63.0281 56.5879 64.7574 56.5879 66.8907C56.5879 69.0239 58.3172 70.7533 60.4505 70.7533Z" fill="white"/>
<path d="M49.6006 80.1558C50.9581 80.1558 52.0586 79.0553 52.0586 77.6978C52.0586 76.3402 50.9581 75.2397 49.6006 75.2397C48.2431 75.2397 47.1426 76.3402 47.1426 77.6978C47.1426 79.0553 48.2431 80.1558 49.6006 80.1558Z" fill="white"/>
<path d="M112.14 80.1558C113.497 80.1558 114.598 79.0553 114.598 77.6978C114.598 76.3402 113.497 75.2397 112.14 75.2397C110.782 75.2397 109.682 76.3402 109.682 77.6978C109.682 79.0553 110.782 80.1558 112.14 80.1558Z" fill="white"/>
<path d="M43.4412 127.249C42.7389 127.249 42.0366 126.937 41.5684 126.352C40.671 125.298 40.8271 123.738 41.8805 122.879C54.2096 112.462 69.894 106.766 86.0467 106.766C94.006 106.766 101.809 108.131 109.222 110.784C116.401 113.359 123.073 117.105 129.042 121.904C130.096 122.762 130.291 124.323 129.433 125.376C128.574 126.43 127.014 126.625 125.96 125.766C114.723 116.715 100.561 111.721 86.0857 111.721C71.1035 111.721 56.5506 117.027 45.1189 126.703C44.5726 127.054 43.9874 127.249 43.4412 127.249Z" fill="#02044F"/>
<path d="M70.8261 129.902C69.8117 129.902 68.8753 129.277 68.5241 128.302C68.056 127.014 68.6802 125.61 69.9677 125.103C74.8838 123.269 80.0339 122.293 85.3401 122.293C90.3341 122.293 95.2501 123.152 99.9321 124.79C101.22 125.259 101.883 126.663 101.415 127.951C100.946 129.238 99.5419 129.902 98.2544 129.433C94.1187 127.951 89.7489 127.209 85.301 127.209C80.6191 127.209 76.0542 128.029 71.6844 129.668C71.4113 129.824 71.0992 129.902 70.8261 129.902Z" fill="#02044F"/>
</svg>
