<svg width="24" height="25" viewBox="0 0 24 25" fill="none" xmlns="http://www.w3.org/2000/svg">
<path d="M11.3773 19.3482C10.2485 19.3482 9.14507 19.0135 8.2065 18.3864C7.26793 17.7593 6.53639 16.8679 6.1044 15.8251C5.67241 14.7822 5.55937 13.6347 5.77957 12.5276C5.99977 11.4204 6.54332 10.4035 7.34149 9.60529C8.13966 8.8071 9.15659 8.26351 10.2637 8.04328C11.3708 7.82304 12.5184 7.93605 13.5612 8.368C14.6041 8.79996 15.4955 9.53146 16.1226 10.47C16.7498 11.4086 17.0845 12.512 17.0845 13.6408C17.0829 15.154 16.481 16.6046 15.4111 17.6746C14.3411 18.7446 12.8905 19.3465 11.3773 19.3482ZM11.3773 8.68358C10.3969 8.68356 9.4384 8.97429 8.62316 9.519C7.80792 10.0637 7.17251 10.8379 6.7973 11.7438C6.42208 12.6496 6.3239 13.6463 6.51517 14.608C6.70645 15.5696 7.17858 16.4529 7.87188 17.1462C8.56518 17.8395 9.44849 18.3117 10.4101 18.5029C11.3718 18.6942 12.3685 18.596 13.2743 18.2208C14.1802 17.8456 14.9544 17.2102 15.4991 16.395C16.0438 15.5797 16.3345 14.6213 16.3345 13.6408C16.333 12.3265 15.8103 11.0665 14.881 10.1372C13.9516 9.20784 12.6916 8.68509 11.3773 8.6836V8.68358Z" fill="#02044F"/>
<path d="M12.2224 13.4426C11.7998 13.2435 11.0453 13.2547 10.797 13.1317C9.86688 12.6705 10.3537 11.6553 11.3785 11.6553C11.5648 11.6483 11.75 11.6861 11.9186 11.7656C12.0872 11.8451 12.2343 11.9638 12.3475 12.112C12.4024 12.1942 12.4877 12.2514 12.5846 12.2711C12.6815 12.2908 12.7823 12.2715 12.865 12.2173C12.9477 12.163 13.0057 12.0783 13.0262 11.9816C13.0468 11.8848 13.0283 11.7839 12.9748 11.7007C12.833 11.4983 12.6517 11.3267 12.4418 11.1963C12.2319 11.0659 11.9978 10.9793 11.7535 10.9417V10.5229C11.7535 10.4235 11.714 10.3281 11.6437 10.2578C11.5733 10.1875 11.478 10.1479 11.3785 10.1479C11.279 10.1479 11.1837 10.1875 11.1133 10.2578C11.043 10.3281 11.0035 10.4235 11.0035 10.5229V10.9388C9.37727 11.2287 9.00738 13.0819 10.4639 13.8037C10.8999 14.0199 11.6513 14.0027 11.9027 14.1212C12.9237 14.6019 12.3989 15.6259 11.3785 15.6259C11.1893 15.6338 11.0011 15.5949 10.8305 15.5128C10.6599 15.4307 10.5121 15.3079 10.4002 15.1552C10.3471 15.0718 10.2632 15.0127 10.1668 14.9908C10.0704 14.9689 9.96923 14.986 9.88535 15.0384C9.80148 15.0907 9.74168 15.1741 9.71896 15.2703C9.69624 15.3665 9.71245 15.4678 9.76405 15.5521C9.90445 15.7624 10.0872 15.9411 10.3006 16.0767C10.5141 16.2123 10.7535 16.3019 11.0035 16.3396V16.7581C11.0035 16.8575 11.043 16.9529 11.1133 17.0232C11.1837 17.0936 11.279 17.1331 11.3785 17.1331C11.4779 17.1331 11.5733 17.0936 11.6437 17.0232C11.714 16.9529 11.7535 16.8575 11.7535 16.7581V16.3424C13.3846 16.0515 13.7783 14.1754 12.2224 13.4426Z" fill="#02044F"/>
<path d="M10.427 3.79195L8.53071 2.56057C8.44728 2.50749 8.34627 2.48951 8.24966 2.51053C8.15304 2.53155 8.06863 2.58988 8.0148 2.67282C7.96097 2.75576 7.94207 2.8566 7.96222 2.95341C7.98237 3.05021 8.03993 3.13514 8.12239 3.18972L9.22454 3.90539C7.1399 4.3873 5.28149 5.56467 3.95525 7.24367C2.62901 8.92267 1.914 11.0032 1.92793 13.1428C1.92866 13.2422 1.96887 13.3373 2.03971 13.4071C2.11055 13.477 2.20622 13.5158 2.30568 13.515C2.40514 13.5143 2.50023 13.4741 2.57004 13.4033C2.63985 13.3324 2.67866 13.2367 2.67793 13.1373C2.66514 11.1605 3.32854 9.23868 4.55808 7.69071C5.78762 6.14274 7.50941 5.06162 9.43783 4.62669L8.67682 5.79861C8.62378 5.88203 8.60583 5.98302 8.62686 6.07962C8.64789 6.17621 8.70622 6.2606 8.78914 6.31441C8.87206 6.36823 8.97288 6.38713 9.06967 6.36701C9.16646 6.34688 9.25138 6.28935 9.30598 6.20693L10.5374 4.31069C10.5896 4.22674 10.6073 4.12579 10.5867 4.02906C10.5662 3.93234 10.5089 3.84735 10.427 3.79195Z" fill="#02044F"/>
<path d="M15.7309 20.5605C14.0255 21.5604 12.0294 21.9469 10.074 21.6561C8.11855 21.3653 6.32138 20.4145 4.98073 18.9616L6.37607 19.0347C6.47492 19.0391 6.57152 19.0043 6.64479 18.9378C6.71807 18.8713 6.76209 18.7785 6.76726 18.6797C6.77243 18.5809 6.73833 18.484 6.67239 18.4102C6.60646 18.3365 6.51403 18.2917 6.41525 18.2858L4.15738 18.1675C4.05906 18.1661 3.96383 18.2019 3.89076 18.2677C3.8177 18.3335 3.77218 18.4244 3.76333 18.5224L3.64504 20.7803C3.63985 20.8796 3.67431 20.9769 3.74086 21.0508C3.80741 21.1247 3.90059 21.1691 3.9999 21.1743C4.09921 21.1795 4.19652 21.145 4.27042 21.0785C4.34431 21.0119 4.38875 20.9188 4.39395 20.8194L4.46273 19.5071C5.92251 21.0712 7.87131 22.0918 9.9884 22.4008C12.1055 22.7098 14.2647 22.2889 16.1107 21.2073C16.1958 21.1566 16.2574 21.0743 16.2821 20.9783C16.3068 20.8824 16.2924 20.7806 16.2423 20.6951C16.1921 20.6097 16.1102 20.5476 16.0143 20.5224C15.9185 20.4971 15.8166 20.5109 15.7309 20.5605Z" fill="#02044F"/>
<path d="M21.5275 15.2327L20.3566 15.8293C20.9815 13.783 20.891 11.5849 20.1 9.59692C19.3091 7.60893 17.8648 5.94949 16.005 4.89178C15.9186 4.84354 15.8166 4.83144 15.7212 4.8581C15.6259 4.88477 15.545 4.94804 15.4961 5.03412C15.4473 5.1202 15.4344 5.2221 15.4604 5.31762C15.4864 5.41313 15.549 5.49451 15.6348 5.544C17.3531 6.52133 18.6857 8.05672 19.4115 9.89548C20.1373 11.7342 20.2127 13.7659 19.6252 15.6534L18.9909 14.4085C18.9453 14.3207 18.8668 14.2545 18.7726 14.2243C18.6783 14.1942 18.576 14.2024 18.4878 14.2473C18.3997 14.2923 18.3329 14.3702 18.3019 14.4642C18.2709 14.5582 18.2784 14.6606 18.3226 14.7491L19.3491 16.7636C19.3948 16.8517 19.4733 16.9182 19.5677 16.9489C19.6621 16.9795 19.7648 16.9719 19.8535 16.9275L21.868 15.901C21.9558 15.8553 22.0219 15.7768 22.0521 15.6826C22.0822 15.5884 22.0739 15.4861 22.029 15.398C21.9841 15.3099 21.9062 15.2431 21.8123 15.2121C21.7183 15.1811 21.616 15.1885 21.5275 15.2327Z" fill="#02044F"/>
</svg>
