<svg width="13" height="13" viewBox="0 0 13 13" fill="none" xmlns="http://www.w3.org/2000/svg">
<path d="M12.4091 5.90909C12.2524 5.90909 12.1021 5.97135 11.9913 6.08216C11.8804 6.19298 11.8182 6.34328 11.8182 6.5V10.907C11.818 11.1486 11.722 11.3803 11.5511 11.5511C11.3803 11.722 11.1486 11.818 10.907 11.8182H2.093C1.85139 11.818 1.61972 11.722 1.44887 11.5511C1.27802 11.3803 1.18197 11.1486 1.18182 10.907V2.093C1.18197 1.85139 1.27802 1.61972 1.44887 1.44887C1.61972 1.27802 1.85139 1.18197 2.093 1.18182H6.5C6.65672 1.18182 6.80702 1.11956 6.91784 1.00874C7.02865 0.897928 7.09091 0.747628 7.09091 0.590909C7.09091 0.43419 7.02865 0.28389 6.91784 0.173073C6.80702 0.0622564 6.65672 0 6.5 0H2.093C1.53809 0.000625599 1.00609 0.221338 0.613716 0.613716C0.221338 1.00609 0.000625599 1.53809 0 2.093V10.907C0.000625599 11.4619 0.221338 11.9939 0.613716 12.3863C1.00609 12.7787 1.53809 12.9994 2.093 13H10.907C11.4619 12.9994 11.9939 12.7787 12.3863 12.3863C12.7787 11.9939 12.9994 11.4619 13 10.907V6.5C13 6.34328 12.9377 6.19298 12.8269 6.08216C12.7161 5.97135 12.5658 5.90909 12.4091 5.90909Z" fill="#6A6A6A"/>
<path d="M12.4096 0H8.86415C8.70743 0 8.55713 0.0622564 8.44631 0.173073C8.3355 0.28389 8.27324 0.43419 8.27324 0.590909C8.27324 0.747628 8.3355 0.897928 8.44631 1.00874C8.55713 1.11956 8.70743 1.18182 8.86415 1.18182H10.9832L6.08274 6.08223C6.0263 6.13674 5.98129 6.20194 5.95032 6.27403C5.91935 6.34613 5.90305 6.42367 5.90237 6.50213C5.90168 6.58059 5.91664 6.6584 5.94635 6.73102C5.97606 6.80364 6.01994 6.86961 6.07542 6.9251C6.1309 6.98058 6.19688 7.02446 6.2695 7.05417C6.34212 7.08388 6.41993 7.09883 6.49839 7.09815C6.57685 7.09747 6.65439 7.08116 6.72648 7.0502C6.79857 7.01923 6.86378 6.97421 6.91829 6.91777L11.8187 2.01736V4.13636C11.8187 4.29308 11.881 4.44338 11.9918 4.5542C12.1026 4.66502 12.2529 4.72727 12.4096 4.72727C12.5663 4.72727 12.7166 4.66502 12.8274 4.5542C12.9383 4.44338 13.0005 4.29308 13.0005 4.13636V0.590909C13.0005 0.43419 12.9383 0.28389 12.8274 0.173073C12.7166 0.0622564 12.5663 0 12.4096 0Z" fill="#6A6A6A"/>
</svg>
