<svg width="16" height="16" viewBox="0 0 16 16" fill="none" xmlns="http://www.w3.org/2000/svg">
<g clip-path="url(#clip0_1499_3324)">
<path d="M2.71517 15.5H2.71533C2.78222 15.5 2.90105 15.4683 3.04833 15.3425L3.04947 15.3415L7.20173 11.8161C7.20195 11.8159 7.20218 11.8157 7.2024 11.8155C7.43382 11.6182 7.73807 11.5239 8.03058 11.5239C8.32356 11.5239 8.62734 11.6185 8.85883 11.8159L2.71517 15.5ZM2.71517 15.5C2.64817 15.5 2.58962 15.4694 2.55229 15.4158C2.50388 15.3464 2.46289 15.2421 2.46289 15.0911V1.3582C2.46289 0.921844 2.87856 0.5 3.38282 0.5H12.6662C13.1468 0.5 13.5358 0.898823 13.5358 1.3582V15.0912C13.5358 15.311 13.475 15.409 13.4416 15.446C13.4088 15.4823 13.3674 15.5001 13.3164 15.5001C13.2583 15.5001 13.1553 15.4755 12.9988 15.3419L12.9983 15.3415L8.85932 11.8164L2.71517 15.5Z" stroke="#6A6A6A"/>
</g>
<defs>
<clipPath id="clip0_1499_3324">
<rect width="16" height="16" fill="white"/>
</clipPath>
</defs>
</svg>
