<svg width="24" height="24" viewBox="0 0 24 24" fill="none" xmlns="http://www.w3.org/2000/svg">
<g clip-path="url(#clip0_874_4305)">
<path fill-rule="evenodd" clip-rule="evenodd" d="M7.12469 6.60003C6.85825 7.63513 5.91864 8.4 4.80034 8.4C3.47487 8.4 2.40039 7.32551 2.40039 6.00005C2.40039 4.67458 3.47487 3.6001 4.80034 3.6001C5.91864 3.6001 6.85825 4.36496 7.12469 5.40006H23.4003C23.7316 5.40006 24.0003 5.66865 24.0003 6.00005C24.0003 6.33145 23.7316 6.60003 23.4003 6.60003H7.12469ZM6.00031 6.00005C6.00031 6.66284 5.46301 7.20002 4.80034 7.20002C4.13767 7.20002 3.60037 6.66272 3.60037 6.00005C3.60037 5.33738 4.13767 4.80007 4.80034 4.80007C5.46301 4.80007 6.00031 5.33725 6.00031 6.00005Z" fill="#02044F"/>
<path d="M0.599987 6.59988H2.47555C2.42616 6.40815 2.39995 6.20706 2.39995 5.99989C2.39995 5.79272 2.42616 5.59162 2.47555 5.3999H0.599987C0.268589 5.3999 0 5.66849 0 5.99989C0 6.33129 0.268589 6.59988 0.599987 6.59988Z" fill="#02044F"/>
<path fill-rule="evenodd" clip-rule="evenodd" d="M14.3243 17.4001C14.0579 16.365 13.1182 15.6001 12 15.6001C10.8818 15.6001 9.94196 16.365 9.67565 17.4001H0.599987C0.268589 17.4001 0 17.6688 0 18C0 18.3313 0.268589 18.6 0.599987 18.6H9.67552C9.94196 19.6351 10.8817 20.4 11.9999 20.4C13.118 20.4 14.0579 19.6351 14.3242 18.6H23.3998C23.731 18.6 23.9997 18.3313 23.9997 18C23.9997 17.6688 23.731 17.4001 23.3998 17.4001H14.3243ZM12 19.2C12.6628 19.2 13.2 18.6628 13.2 18C13.2 17.3372 12.6628 16.8001 12 16.8001C11.3372 16.8001 10.8 17.3372 10.8 18C10.8 18.6628 11.3372 19.2 12 19.2Z" fill="#02044F"/>
<path fill-rule="evenodd" clip-rule="evenodd" d="M21.5243 11.4001C21.2579 10.365 20.3181 9.6001 19.2 9.6001C18.0818 9.6001 17.1419 10.365 16.8756 11.4001H0.599987C0.268589 11.4001 0 11.6688 0 12C0 12.3313 0.268589 12.6 0.599987 12.6H16.8756C17.1421 13.6351 18.0818 14.4 19.2 14.4C20.3181 14.4 21.258 13.6351 21.5243 12.6H23.3999C23.7312 12.6 23.9999 12.3313 23.9999 12C23.9999 11.6688 23.7312 11.4001 23.3999 11.4001H21.5243ZM19.2 13.2C19.8628 13.2 20.3999 12.6628 20.3999 12C20.3999 11.3372 19.8626 10.8001 19.2 10.8001C18.5372 10.8001 18 11.3372 18 12C18 12.6628 18.5372 13.2 19.2 13.2Z" fill="#02044F"/>
</g>
<defs>
<clipPath id="clip0_874_4305">
<rect width="24" height="24" fill="white"/>
</clipPath>
</defs>
</svg>
