<svg width="92" height="93" viewBox="0 0 92 93" fill="none" xmlns="http://www.w3.org/2000/svg">
<path d="M82.7021 0.121094L61.9279 11.9921H59.5626L50.4383 9.3849C49.7215 9.18013 48.9796 9.09703 48.2347 9.06884L41.5217 6.92167C38.4619 5.94232 35.1514 5.79245 32.013 6.48987L22.1839 8.67561L9.35284 0.121094H0V21.934L17.1654 28.1766L22.2729 31.2408C22.3456 33.6744 24.2969 35.6316 26.7275 35.7177C26.8135 38.1394 28.7574 40.0832 31.1791 40.1693C31.2518 42.2052 32.6392 43.8953 34.5223 44.4369C26.1028 48.7238 20.7742 57.2976 20.7742 66.8953C20.7742 80.8051 32.0902 92.1211 46 92.1211C59.9098 92.1211 71.2258 80.8051 71.2258 66.8953C71.2258 56.6091 65.1464 47.5975 55.8574 43.6816C56.1764 43.0732 56.3723 42.3936 56.3812 41.6635C58.8251 41.6324 60.8046 39.6514 60.8328 37.2075C63.299 37.1481 65.2903 35.133 65.2903 32.6535C65.2903 32.4843 65.2562 32.3211 65.2369 32.1534L71.8357 28.1945L92 21.9919V0.121094H82.7021ZM2.96774 19.8566V3.08884H8.45361L20.5442 11.1492L16.7974 24.8854L2.96774 19.8566ZM25.2258 31.1028C25.2258 30.6577 25.3994 30.2407 25.7125 29.9261L29.805 25.8336C30.1196 25.5205 30.5366 25.3469 30.9817 25.3469C31.8988 25.3469 32.6452 26.0933 32.6452 27.0103C32.6452 27.4555 32.4715 27.8724 32.1585 28.187L28.0659 32.2795C27.7514 32.5926 27.3344 32.7663 26.8892 32.7663C25.9722 32.7663 25.2258 32.0199 25.2258 31.1028ZM29.6774 35.5544C29.6774 35.1093 29.851 34.6923 30.1641 34.3777L34.2566 30.2852C34.5712 29.9721 34.9882 29.7985 35.4334 29.7985C36.3504 29.7985 37.0968 30.5449 37.0968 31.4619C37.0968 31.9071 36.9232 32.3241 36.6101 32.6386L32.5175 36.7312C32.203 37.0443 31.786 37.2179 31.3408 37.2179C30.4238 37.2179 29.6774 36.4715 29.6774 35.5544ZM34.6157 38.8294L38.7083 34.7368C39.0228 34.4237 39.4398 34.2501 39.885 34.2501C40.802 34.2501 41.5484 34.9965 41.5484 35.9135C41.5484 36.3587 41.3748 36.7757 41.0617 37.0903L36.9692 41.1828C36.6546 41.4959 36.2376 41.6695 35.7925 41.6695C34.8754 41.6695 34.129 40.9231 34.129 40.0061C34.129 39.5609 34.3026 39.1439 34.6157 38.8294ZM44.3366 38.7017C45.2536 38.7017 46 39.4481 46 40.3652C46 40.8103 45.8264 41.2273 45.5133 41.5419L41.4208 45.6344C41.1062 45.9475 40.6892 46.1211 40.2441 46.1211C39.327 46.1211 38.5806 45.3747 38.5806 44.4577C38.5806 44.0125 38.7543 43.5955 39.0674 43.281L43.1599 39.1884C43.4745 38.8754 43.8914 38.7017 44.3366 38.7017ZM47.3058 43.9472L48.4113 44.8687C48.7645 45.1625 48.9677 45.5958 48.9677 46.0573C48.9677 46.9105 48.2733 47.605 47.4201 47.605H47.1455C46.7686 47.605 46.4051 47.467 46.1217 47.2177L45.0117 46.2383L47.3058 43.9472ZM46 50.5727C54.9997 50.5727 62.3226 57.8956 62.3226 66.8953C62.3226 75.895 54.9997 83.2179 46 83.2179C37.0003 83.2179 29.6774 75.895 29.6774 66.8953C29.6774 57.8956 37.0003 50.5727 46 50.5727ZM68.2581 66.8953C68.2581 79.1684 58.2731 89.1534 46 89.1534C33.7269 89.1534 23.7419 79.1684 23.7419 66.8953C23.7419 58.2621 28.6239 50.5623 36.3029 46.8571C36.9172 47.8617 37.8966 48.6066 39.0614 48.9167C31.8468 51.7108 26.7097 58.7058 26.7097 66.8953C26.7097 77.5317 35.3636 86.1856 46 86.1856C56.6364 86.1856 65.2903 77.5317 65.2903 66.8953C65.2903 58.0915 59.3563 50.6632 51.2841 48.3588C51.6788 47.6984 51.9192 46.9372 51.9295 46.1152C52.4029 46.1092 52.8525 46.0157 53.2814 45.8733C62.2692 48.9731 68.2581 57.305 68.2581 66.8953ZM60.7259 34.2501H60.4692C60.0968 34.2501 59.7332 34.1195 59.4483 33.8806L59.2139 33.6848L51.4013 27.175L49.5019 29.4543L57.3145 35.964C57.6677 36.2608 57.871 36.6941 57.871 37.1541C57.871 38.0073 57.1765 38.7017 56.3233 38.7017H56.0013C55.6392 38.7017 55.2875 38.5741 55.0101 38.3426L54.7623 38.1364L46.9497 31.6266L45.0503 33.9059L52.8629 40.4156C53.2161 40.7109 53.4194 41.1442 53.4194 41.6057C53.4194 42.4589 52.7249 43.1534 51.8717 43.1534C51.3019 43.1534 50.7484 42.953 50.3106 42.588L48.8505 41.3712C48.9217 41.0433 48.9677 40.7094 48.9677 40.3652C48.9677 37.8663 46.9764 35.8379 44.4998 35.7503C44.4137 33.3286 42.4699 31.3848 40.0482 31.2987C39.9621 28.877 38.0183 26.9332 35.5966 26.8471C35.509 24.3705 33.4791 22.3792 30.9817 22.3792C29.7442 22.3792 28.5808 22.8614 27.7068 23.7354L23.6143 27.8279C23.457 27.9852 23.3279 28.1603 23.1974 28.3354L19.5337 26.1378L23.549 11.4119L32.6555 9.38787C35.285 8.80471 38.0554 8.93084 40.6165 9.74993L42.8008 10.4488L35.3918 14.1526C33.6972 14.9999 32.6452 16.7034 32.6452 18.5983V18.8935C32.6452 21.6343 34.8739 23.863 37.6146 23.863C38.5154 23.863 39.3997 23.6182 40.1728 23.1537L45.6973 19.8388C46.7998 19.1755 48.2985 19.3194 49.2556 20.1815L61.7943 31.4664C62.1297 31.7706 62.3226 32.2024 62.3226 32.6535C62.3226 33.5349 61.6074 34.2501 60.7259 34.2501ZM63.7797 29.2628L51.241 17.978C49.3372 16.2641 46.365 15.9777 44.1689 17.2954L38.6445 20.6104C38.3343 20.7974 37.9782 20.8953 37.6146 20.8953C36.5106 20.8953 35.6129 19.9975 35.6129 18.8935V18.5983C35.6129 17.8341 36.0373 17.1485 36.7199 16.8072L44.9984 12.6687C46.4185 11.9594 48.1012 11.8036 49.6236 12.2384L58.9483 14.9019L61.5213 14.945L69.1291 26.3574L63.9593 29.4587C63.8955 29.3979 63.8465 29.3222 63.7797 29.2628ZM89.0323 19.7987L71.8461 25.0872L64.4386 13.976L83.4915 3.08884H89.0323V19.7987Z" fill="#787878"/>
<path d="M44.5146 77.2822V80.25H47.4823V77.2822C50.7557 77.2822 53.4178 74.6202 53.4178 71.3467C53.4178 68.0733 50.7557 65.4113 47.4823 65.4113H44.5146C42.8779 65.4113 41.5468 64.0802 41.5468 62.4435C41.5468 60.8068 42.8779 59.4758 44.5146 59.4758H47.4823C49.119 59.4758 50.4501 60.8068 50.4501 62.4435H53.4178C53.4178 59.1701 50.7557 56.508 47.4823 56.508V53.5403H44.5146V56.508C41.2412 56.508 38.5791 59.1701 38.5791 62.4435C38.5791 65.7169 41.2412 68.379 44.5146 68.379H47.4823C49.119 68.379 50.4501 69.71 50.4501 71.3467C50.4501 72.9834 49.119 74.3145 47.4823 74.3145H44.5146C42.8779 74.3145 41.5468 72.9834 41.5468 71.3467V69.8629H38.5791V71.3467C38.5791 74.6187 41.2412 77.2822 44.5146 77.2822Z" fill="#787878"/>
<path d="M70.04 54.1339L72.4142 55.9146L78.6465 47.6049V78.7662H81.6142V47.6049L87.8465 55.9146L90.2207 54.1339L80.1304 40.6797L70.04 54.1339Z" fill="#787878"/>
<path d="M78.6455 81.7339H81.6132V84.7016H78.6455V81.7339Z" fill="#787878"/>
<path d="M21.9609 54.1339L11.8706 40.6797L1.78027 54.1339L4.15447 55.9146L10.3867 47.6049V78.7662H13.3545V47.6049L19.5867 55.9146L21.9609 54.1339Z" fill="#787878"/>
<path d="M10.3887 81.7339H13.3564V84.7016H10.3887V81.7339Z" fill="#787878"/>
</svg>
