<svg width="92" height="93" viewBox="0 0 92 93" fill="none" xmlns="http://www.w3.org/2000/svg">
<path d="M90.5156 53.5408H83.0963V43.1538C83.0963 42.7602 82.9399 42.3828 82.6617 42.1045C82.3834 41.8263 82.006 41.6699 81.6124 41.6699H1.48386C1.09032 41.6699 0.712891 41.8263 0.434613 42.1045C0.156335 42.3828 0 42.7602 0 43.1538V55.0247C0 55.4182 0.156335 55.7957 0.434613 56.0739C0.712891 56.3522 1.09032 56.5085 1.48386 56.5085H8.90317V65.4117H1.48386C1.09032 65.4117 0.712891 65.568 0.434613 65.8463C0.156335 66.1246 0 66.502 0 66.8956V78.7665C0 79.16 0.156335 79.5374 0.434613 79.8157C0.712891 80.094 1.09032 80.2503 1.48386 80.2503H8.90317V90.6374C8.90317 91.0309 9.05951 91.4083 9.33779 91.6866C9.61606 91.9649 9.99349 92.1212 10.387 92.1212H90.5156C90.9091 92.1212 91.2866 91.9649 91.5648 91.6866C91.8431 91.4083 91.9994 91.0309 91.9994 90.6374V78.7665C91.9994 78.3729 91.8431 77.9955 91.5648 77.7172C91.2866 77.4389 90.9091 77.2826 90.5156 77.2826H83.0963V68.3794H90.5156C90.9091 68.3794 91.2866 68.2231 91.5648 67.9448C91.8431 67.6665 91.9994 67.2891 91.9994 66.8956V55.0247C91.9994 54.6311 91.8431 54.2537 91.5648 53.9754C91.2866 53.6972 90.9091 53.5408 90.5156 53.5408ZM80.1285 53.5408H56.3868V44.6376H80.1285V53.5408ZM38.5804 65.4117V56.5085H62.3222V65.4117H38.5804ZM62.3222 80.2503V89.1535H38.5804V80.2503H62.3222ZM29.6772 77.2826V68.3794H53.419V77.2826H29.6772ZM29.6772 53.5408V44.6376H53.419V53.5408H29.6772ZM2.96772 44.6376H26.7095V53.5408H2.96772V44.6376ZM11.8709 56.5085H35.6127V65.4117H11.8709V56.5085ZM2.96772 77.2826V68.3794H26.7095V77.2826H2.96772ZM11.8709 80.2503H35.6127V89.1535H11.8709V80.2503ZM89.0317 89.1535H65.2899V80.2503H89.0317V89.1535ZM56.3868 77.2826V68.3794H80.1285V77.2826H56.3868ZM89.0317 65.4117H65.2899V56.5085H89.0317V65.4117Z" fill="#787878"/>
<path d="M45.6392 40.1416C45.8759 40.2009 46.1236 40.2009 46.3603 40.1416C50.7959 39.1018 54.6886 36.4547 57.286 32.7119C59.6552 29.2536 60.8961 25.1468 60.8384 20.9552V7.54112C60.8384 7.14757 60.682 6.77015 60.4038 6.49187C60.1255 6.21359 59.7481 6.05726 59.3545 6.05726C50.1175 6.05726 47.4302 1.13974 47.3352 0.942383C47.2127 0.696771 47.0244 0.489972 46.7913 0.344982C46.5582 0.199993 46.2895 0.122497 46.015 0.121113C45.7405 0.119729 45.471 0.194511 45.2365 0.337143C45.0019 0.479774 44.8116 0.684665 44.6865 0.929028C44.5693 1.13974 41.882 6.05726 32.645 6.05726C32.2514 6.05726 31.874 6.21359 31.5957 6.49187C31.3175 6.77015 31.1611 7.14757 31.1611 7.54112V20.9552C31.1031 25.1464 32.344 29.2528 34.7135 32.7104C37.3104 36.4541 41.2032 39.1018 45.6392 40.1416ZM34.1289 20.9552V8.9864C40.7024 8.63027 44.2829 5.95042 45.9997 4.08965C47.7166 5.95784 51.2971 8.63769 57.8706 8.99382V20.9552C57.9278 24.5359 56.8756 28.0465 54.8584 31.0054C52.7403 34.056 49.5963 36.2436 45.9997 37.1694C42.4028 36.2436 39.2587 34.0553 37.1411 31.0039C35.1238 28.0456 34.0715 24.5354 34.1289 20.9552Z" fill="#787878"/>
<path d="M44.5158 26.8314C44.9093 26.8313 45.2867 26.6749 45.5649 26.3966L55.9519 16.0096L53.8537 13.9114L44.5158 23.2493L39.6294 18.363L37.5312 20.4611L43.4667 26.3966C43.7449 26.6749 44.1223 26.8313 44.5158 26.8314Z" fill="#787878"/>
</svg>
