<svg width="16" height="16" viewBox="0 0 16 16" fill="none" xmlns="http://www.w3.org/2000/svg">
<path d="M12.6502 2.96045C12.436 2.96045 12.2617 3.13473 12.2617 3.34889C12.2617 3.56304 12.436 3.73732 12.6502 3.73732C12.8643 3.73732 13.0386 3.56307 13.0386 3.34889C13.0386 3.1347 12.8643 2.96045 12.6502 2.96045Z" fill="#02044F"/>
<path d="M8.00027 4.5564C6.10145 4.5564 4.55664 6.10121 4.55664 8.00002C4.55664 9.89883 6.10145 11.4437 8.00027 11.4437C9.89911 11.4437 11.4439 9.89887 11.4439 8.00005C11.4439 6.10124 9.89911 4.5564 8.00027 4.5564Z" fill="#02044F"/>
<path d="M11.6138 0H4.38616C1.96762 0 0 1.96763 0 4.38619V11.6138C0 14.0324 1.96762 16 4.38616 16H11.6138C14.0324 16 16 14.0324 16 11.6138V4.38619C16 1.96763 14.0324 0 11.6138 0ZM8 12.3885C5.58016 12.3885 3.61153 10.4198 3.61153 8C3.61153 5.58016 5.58019 3.61156 8 3.61156C10.4198 3.61156 12.3885 5.58019 12.3885 8C12.3885 10.4198 10.4198 12.3885 8 12.3885ZM12.651 4.68237C11.9158 4.68237 11.3177 4.08425 11.3177 3.34906C11.3177 2.61387 11.9158 2.01572 12.651 2.01572C13.3862 2.01572 13.9843 2.61384 13.9843 3.34903C13.9843 4.08422 13.3862 4.68237 12.651 4.68237Z" fill="#02044F"/>
</svg>
