<svg width="24" height="24" viewBox="0 0 24 24" fill="none" xmlns="http://www.w3.org/2000/svg">
<path d="M12.0031 17.1277C11.9098 17.1075 11.814 17.1039 11.7195 17.118C10.7719 17.0077 10.0572 16.2061 10.0555 15.2525C10.0555 14.7955 9.68501 14.4249 9.22801 14.4249C8.77101 14.4249 8.40048 14.7955 8.40048 15.2525C8.4029 16.8449 9.46802 18.2397 11.0035 18.6612V19.4887C11.0035 19.9457 11.374 20.3162 11.831 20.3162C12.288 20.3162 12.6585 19.9457 12.6585 19.4887V18.7113C14.4308 18.3404 15.6353 16.6897 15.449 14.8888C15.2624 13.0879 13.7451 11.7193 11.9345 11.7189C10.8968 11.7189 10.0555 10.8776 10.0555 9.83998C10.0555 8.80234 10.8968 7.96107 11.9345 7.96107C12.9721 7.96107 13.8134 8.80234 13.8134 9.83998C13.8134 10.297 14.1839 10.6675 14.6409 10.6675C15.0979 10.6675 15.4684 10.297 15.4684 9.83998C15.466 8.16795 14.2946 6.72584 12.6585 6.38076V5.62758C12.6585 5.17058 12.288 4.80005 11.831 4.80005C11.374 4.80005 11.0035 5.17058 11.0035 5.62758V6.43127C9.29589 6.89756 8.19683 8.55545 8.43199 10.3099C8.66716 12.0644 10.1642 13.374 11.9345 13.3736C12.9584 13.3736 13.7936 14.1934 13.8122 15.2169C13.8311 16.2404 13.0262 17.0906 12.0031 17.1277Z" fill="#6A6A6A"/>
<circle cx="12" cy="12" r="11.5" stroke="#6A6A6A"/>
</svg>
