<svg width="24" height="24" viewBox="0 0 24 24" fill="none" xmlns="http://www.w3.org/2000/svg">
<path d="M23.6 23.2H21.9753C21.9923 23.0685 22 22.9343 22 22.8C22 21.671 21.3503 20.7099 20.4 20.2649V6.79998C20.4 6.55998 20.2401 6.4 20.0001 6.4H14.0001V0.399985C14.0001 0.159985 13.8401 1.02979e-08 13.6001 1.02979e-08H2.80008C2.55998 -4.68648e-05 2.4 0.159938 2.4 0.399938V23.2H0.399984C0.159984 23.2 0 23.36 0 23.6C0 23.84 0.159984 24 0.399984 24H2.79998H3.99998H13.6H21.48H23.6C23.84 24 24 23.84 24 23.6C24 23.36 23.84 23.2 23.6 23.2ZM19.6 20.0282C19.4694 20.01 19.336 20 19.2 20C18.898 20 18.6018 20.0514 18.322 20.1475C18.2523 20.0546 18.1399 20 18 20C17.76 20 17.6 20.1599 17.6 20.3999V20.5225C17.4484 20.6317 17.3075 20.7563 17.1795 20.8949C17.1593 20.9162 17.1395 20.9379 17.12 20.9599C16.7886 20.5456 16.3616 20.2459 15.8789 20.0999C15.8096 20.0363 15.714 19.9999 15.6 19.9999C15.5554 19.9999 15.5136 20.0055 15.475 20.016C15.3847 20.0055 15.293 19.9999 15.2 19.9999C14.9493 19.9999 14.667 20.0324 14.4383 20.1253C14.41 20.1349 14.3819 20.1447 14.3541 20.1553C14.0776 19.9305 13.7543 19.7688 13.4137 19.6798C13.41 19.6788 13.4063 19.6781 13.4028 19.6771C13.3731 19.6694 13.3433 19.6622 13.3133 19.6557C13.289 19.6503 13.2645 19.6457 13.2399 19.6411C13.2293 19.6391 13.2187 19.637 13.208 19.6352C13.1822 19.6307 13.1564 19.6268 13.1304 19.6232C13.1188 19.6215 13.1071 19.6201 13.0955 19.6186C13.0716 19.6157 13.0477 19.6129 13.0236 19.6107C13.006 19.6091 12.9884 19.6079 12.9707 19.6066C12.9519 19.6053 12.9331 19.6037 12.9141 19.6028C12.8761 19.601 12.8381 19.5999 12.8 19.5999C12.7706 19.5999 12.7414 19.6005 12.7123 19.6016C12.6933 19.6022 12.6743 19.6034 12.6553 19.6045C12.6477 19.6049 12.64 19.6053 12.6324 19.6058C12.268 19.63 11.91 19.7328 11.6 19.915V7.19997H13.6H19.6V20.0282ZM3.20002 0.79997H13.2V6.4H11.2C10.96 6.4 10.8 6.55998 10.8 6.79998V19.24C10.5956 19.0356 10.3599 18.8627 10.1034 18.7274C10.0808 18.7153 10.0579 18.7035 10.0349 18.6921C10.0259 18.6876 10.0169 18.683 10.0078 18.6786C9.72234 18.5402 9.4117 18.4493 9.08709 18.4153C9.08255 18.4149 9.07795 18.4145 9.07336 18.414C9.03567 18.4103 8.9978 18.4073 8.95973 18.4051C8.94966 18.4045 8.93958 18.4039 8.92945 18.4034C8.88647 18.4014 8.84334 18.4 8.79998 18.4C8.20467 18.4 7.65314 18.5958 7.2 18.9249V18.8001C7.2 18.5601 7.04002 18.4001 6.80002 18.4001C6.56002 18.4001 6.40003 18.5601 6.40003 18.8001V19.6001C6.40003 19.6601 6.41002 19.7151 6.42877 19.7638C6.23236 20.0875 6.09703 20.4524 6.04003 20.8401C5.57953 20.8927 5.15845 21.0584 4.80005 21.3062V21.2001C4.80005 20.9601 4.64006 20.8001 4.40006 20.8001C4.16006 20.8001 4.00008 20.9601 4.00008 21.2001V22.0001C4.00008 22.0468 4.00631 22.0904 4.01784 22.1304C3.81952 22.4512 3.68456 22.8141 3.62897 23.2001H3.20011V0.79997H3.20002ZM6.21797 21.6083C6.22589 21.6076 6.23391 21.6071 6.24188 21.6065C6.26297 21.6049 6.28406 21.6033 6.30534 21.6023C6.3367 21.6009 6.36825 21.5999 6.40003 21.5999C6.64003 21.5999 6.80002 21.44 6.80002 21.2C6.80002 20.08 7.68 19.1999 8.80003 19.1999C9.80002 19.1999 10.64 19.9199 10.76 20.9199C10.7871 21.0281 10.8513 21.1173 10.9391 21.1765C10.9447 21.1804 10.9503 21.1841 10.9561 21.1877C10.9623 21.1915 10.9684 21.1953 10.9748 21.1988C10.9896 21.2069 11.005 21.2144 11.021 21.2208C11.0216 21.2211 11.0222 21.2213 11.0228 21.2216C11.0411 21.2289 11.0603 21.235 11.08 21.2399C11.08 21.2399 11.08 21.2399 11.0801 21.24C11.1039 21.2479 11.1309 21.251 11.1595 21.2501C11.291 21.252 11.4133 21.1801 11.48 21.0801C11.48 21.0801 11.4801 21.0801 11.4801 21.08L11.5201 21.04C11.8401 20.64 12.2801 20.4 12.8001 20.4C13.0702 20.4 13.3402 20.4757 13.5825 20.6172C13.1053 21.0658 12.8347 21.6507 12.8033 22.2764C12.8012 22.3174 12.8001 22.3586 12.8001 22.4001C12.8001 22.6782 12.8464 22.9448 12.9379 23.2001H4.44C4.62722 22.3388 5.34019 21.688 6.21797 21.6083ZM13.8822 23.2C13.7294 22.9415 13.64 22.6359 13.64 22.36C13.64 21.9177 13.8144 21.5192 14.1141 21.2279C14.1714 21.1748 14.2325 21.1258 14.297 21.0814C14.3595 21.0818 14.4223 21.0688 14.48 21.04C15.36 20.56 16.4 21 16.72 21.88C16.76 22 16.88 22.12 17.08 22.12C17.118 22.12 17.16 22.1079 17.2022 22.0864C17.3025 22.07 17.3819 21.9963 17.44 21.88C17.595 21.5506 17.835 21.2876 18.1272 21.1033C18.1902 21.0857 18.2444 21.0546 18.2874 21.0123C18.5622 20.8742 18.8736 20.8 19.2 20.8C20.32 20.8 21.2001 21.68 21.2001 22.8C21.2001 22.92 21.2001 23.08 21.1601 23.2H13.8822Z" fill="#0077B6"/>
<path d="M13.2008 10.3999C12.9608 10.3999 12.8008 10.5599 12.8008 10.7999V11.5999C12.8008 11.8399 12.9608 11.9999 13.2008 11.9999C13.4408 11.9999 13.6008 11.8399 13.6008 11.5999V10.7999C13.6008 10.5599 13.4408 10.3999 13.2008 10.3999Z" fill="#ADE8F4"/>
<path d="M13.2008 17.6001C12.9608 17.6001 12.8008 17.7601 12.8008 18.0001V18.8001C12.8008 19.0401 12.9608 19.2001 13.2008 19.2001C13.4408 19.2001 13.6008 19.0401 13.6008 18.8001V18.0001C13.6008 17.7601 13.4408 17.6001 13.2008 17.6001Z" fill="#ADE8F4"/>
<path d="M13.2008 12.8C12.9608 12.8 12.8008 12.96 12.8008 13.2V14.0001C12.8008 14.2401 12.9608 14.4 13.2008 14.4C13.4408 14.4 13.6008 14.2401 13.6008 14.0001V13.2C13.6008 12.96 13.4408 12.8 13.2008 12.8Z" fill="#ADE8F4"/>
<path d="M13.2008 15.2C12.9608 15.2 12.8008 15.3599 12.8008 15.5999V16.4C12.8008 16.64 12.9608 16.7999 13.2008 16.7999C13.4408 16.7999 13.6008 16.64 13.6008 16.4V15.5999C13.6008 15.3599 13.4408 15.2 13.2008 15.2Z" fill="#ADE8F4"/>
<path d="M13.2008 8C12.9608 8 12.8008 8.15998 12.8008 8.39998V9.2C12.8008 9.44 12.9608 9.59999 13.2008 9.59999C13.4408 9.59999 13.6008 9.44 13.6008 9.2V8.39998C13.6008 8.15998 13.4408 8 13.2008 8Z" fill="#ADE8F4"/>
<path d="M15.5992 11.9999C15.8392 11.9999 15.9992 11.8399 15.9992 11.5999V10.7999C15.9992 10.5599 15.8392 10.3999 15.5992 10.3999C15.3592 10.3999 15.1992 10.5599 15.1992 10.7999V11.5999C15.1992 11.8399 15.3592 11.9999 15.5992 11.9999Z" fill="#ADE8F4"/>
<path d="M15.5992 9.59999C15.8392 9.59999 15.9992 9.44 15.9992 9.2V8.39998C15.9992 8.15998 15.8392 8 15.5992 8C15.3592 8 15.1992 8.15998 15.1992 8.39998V9.2C15.1992 9.44 15.3592 9.59999 15.5992 9.59999Z" fill="#ADE8F4"/>
<path d="M15.5992 14.4C15.8392 14.4 15.9992 14.2401 15.9992 14.0001V13.2C15.9992 12.96 15.8392 12.8 15.5992 12.8C15.3592 12.8 15.1992 12.96 15.1992 13.2V14.0001C15.1992 14.2401 15.3592 14.4 15.5992 14.4Z" fill="#ADE8F4"/>
<path d="M15.5992 16.7999C15.8392 16.7999 15.9992 16.64 15.9992 16.4V15.5999C15.9992 15.3599 15.8392 15.2 15.5992 15.2C15.3592 15.2 15.1992 15.3599 15.1992 15.5999V16.4C15.1992 16.64 15.3592 16.7999 15.5992 16.7999Z" fill="#ADE8F4"/>
<path d="M15.5992 19.2001C15.8392 19.2001 15.9992 19.0401 15.9992 18.8001V18.0001C15.9992 17.7601 15.8392 17.6001 15.5992 17.6001C15.3592 17.6001 15.1992 17.7601 15.1992 18.0001V18.8001C15.1992 19.0401 15.3592 19.2001 15.5992 19.2001Z" fill="#ADE8F4"/>
<path d="M17.9996 14.4C18.2396 14.4 18.3996 14.2401 18.3996 14.0001V13.2C18.3996 12.96 18.2396 12.8 17.9996 12.8C17.7596 12.8 17.5996 12.96 17.5996 13.2V14.0001C17.5996 14.2401 17.7596 14.4 17.9996 14.4Z" fill="#ADE8F4"/>
<path d="M17.9996 11.9999C18.2396 11.9999 18.3996 11.8399 18.3996 11.5999V10.7999C18.3996 10.5599 18.2396 10.3999 17.9996 10.3999C17.7596 10.3999 17.5996 10.5599 17.5996 10.7999V11.5999C17.5996 11.8399 17.7596 11.9999 17.9996 11.9999Z" fill="#ADE8F4"/>
<path d="M17.9996 19.2001C18.2396 19.2001 18.3996 19.0401 18.3996 18.8001V18.0001C18.3996 17.7601 18.2396 17.6001 17.9996 17.6001C17.7596 17.6001 17.5996 17.7601 17.5996 18.0001V18.8001C17.5996 19.0401 17.7596 19.2001 17.9996 19.2001Z" fill="#ADE8F4"/>
<path d="M17.9996 16.7999C18.2396 16.7999 18.3996 16.64 18.3996 16.4V15.5999C18.3996 15.3599 18.2396 15.2 17.9996 15.2C17.7596 15.2 17.5996 15.3599 17.5996 15.5999V16.4C17.5996 16.64 17.7596 16.7999 17.9996 16.7999Z" fill="#ADE8F4"/>
<path d="M17.9996 9.59999C18.2396 9.59999 18.3996 9.44 18.3996 9.2V8.39998C18.3996 8.15998 18.2396 8 17.9996 8C17.7596 8 17.5996 8.15998 17.5996 8.39998V9.2C17.5996 9.44 17.7596 9.59999 17.9996 9.59999Z" fill="#ADE8F4"/>
<path d="M4.39998 15.2001C4.63998 15.2001 4.79997 15.0401 4.79997 14.8001V14.0001C4.79997 13.7601 4.63998 13.6001 4.39998 13.6001C4.15998 13.6001 4 13.7601 4 14.0001V14.8001C3.99995 15.0401 4.15998 15.2001 4.39998 15.2001Z" fill="#ADE8F4"/>
<path d="M4.39998 17.6C4.63998 17.6 4.79997 17.44 4.79997 17.2V16.4C4.79997 16.16 4.63998 16 4.39998 16C4.15998 16 4 16.16 4 16.4V17.2C3.99995 17.44 4.15998 17.6 4.39998 17.6Z" fill="#ADE8F4"/>
<path d="M4.39998 19.9999C4.63998 19.9999 4.79997 19.8399 4.79997 19.5999V18.7999C4.79997 18.5599 4.63998 18.3999 4.39998 18.3999C4.15998 18.3999 4 18.5599 4 18.7999V19.5999C3.99995 19.8399 4.15998 19.9999 4.39998 19.9999Z" fill="#ADE8F4"/>
<path d="M4.39998 3.20009C4.63998 3.20009 4.79997 3.0401 4.79997 2.8001V2.00008C4.79997 1.76008 4.63998 1.6001 4.39998 1.6001C4.15998 1.6001 4 1.76008 4 2.00008V2.8001C3.99995 3.04005 4.15998 3.20009 4.39998 3.20009Z" fill="#ADE8F4"/>
<path d="M4.39998 5.59999C4.63998 5.59999 4.79997 5.44 4.79997 5.2V4.39999C4.79997 4.15998 4.63998 4 4.39998 4C4.15998 4 4 4.15998 4 4.39999V5.2C3.99995 5.43996 4.15998 5.59999 4.39998 5.59999Z" fill="#ADE8F4"/>
<path d="M4.39998 7.99989C4.63998 7.99989 4.79997 7.83991 4.79997 7.5999V6.79989C4.79997 6.55989 4.63998 6.3999 4.39998 6.3999C4.15998 6.3999 4 6.55989 4 6.79989V7.5999C3.99995 7.83986 4.15998 7.99989 4.39998 7.99989Z" fill="#ADE8F4"/>
<path d="M4.39998 10.4C4.63998 10.4 4.79997 10.2401 4.79997 10.0001V9.20003C4.79997 8.96003 4.63998 8.80005 4.39998 8.80005C4.15998 8.80005 4 8.96003 4 9.20003V10.0001C3.99995 10.24 4.15998 10.4 4.39998 10.4Z" fill="#ADE8F4"/>
<path d="M4.39998 12.7999C4.63998 12.7999 4.79997 12.64 4.79997 12.4V11.5999C4.79997 11.3599 4.63998 11.2 4.39998 11.2C4.15998 11.2 4 11.3599 4 11.5999V12.4C3.99995 12.6399 4.15998 12.7999 4.39998 12.7999Z" fill="#ADE8F4"/>
<path d="M6.80038 5.59999C7.04038 5.59999 7.20036 5.44 7.20036 5.2V4.39999C7.20036 4.15998 7.04038 4 6.80038 4C6.56038 4 6.40039 4.15998 6.40039 4.39999V5.2C6.40034 5.43996 6.56038 5.59999 6.80038 5.59999Z" fill="#ADE8F4"/>
<path d="M6.80038 3.20009C7.04038 3.20009 7.20036 3.0401 7.20036 2.8001V2.00008C7.20036 1.76008 7.04038 1.6001 6.80038 1.6001C6.56038 1.6001 6.40039 1.76008 6.40039 2.00008V2.8001C6.40034 3.04005 6.56038 3.20009 6.80038 3.20009Z" fill="#ADE8F4"/>
<path d="M6.80038 10.4C7.04038 10.4 7.20036 10.2401 7.20036 10.0001V9.20003C7.20036 8.96003 7.04038 8.80005 6.80038 8.80005C6.56038 8.80005 6.40039 8.96003 6.40039 9.20003V10.0001C6.40034 10.24 6.56038 10.4 6.80038 10.4Z" fill="#ADE8F4"/>
<path d="M6.80038 7.99989C7.04038 7.99989 7.20036 7.83991 7.20036 7.5999V6.79989C7.20036 6.55989 7.04038 6.3999 6.80038 6.3999C6.56038 6.3999 6.40039 6.55989 6.40039 6.79989V7.5999C6.40034 7.83986 6.56038 7.99989 6.80038 7.99989Z" fill="#ADE8F4"/>
<path d="M6.80038 12.7999C7.04038 12.7999 7.20036 12.64 7.20036 12.4V11.5999C7.20036 11.3599 7.04038 11.2 6.80038 11.2C6.56038 11.2 6.40039 11.3599 6.40039 11.5999V12.4C6.40034 12.6399 6.56038 12.7999 6.80038 12.7999Z" fill="#ADE8F4"/>
<path d="M6.80038 15.2001C7.04038 15.2001 7.20036 15.0401 7.20036 14.8001V14.0001C7.20036 13.7601 7.04038 13.6001 6.80038 13.6001C6.56038 13.6001 6.40039 13.7601 6.40039 14.0001V14.8001C6.40034 15.0401 6.56038 15.2001 6.80038 15.2001Z" fill="#ADE8F4"/>
<path d="M6.80038 17.6C7.04038 17.6 7.20036 17.44 7.20036 17.2V16.4C7.20036 16.16 7.04038 16 6.80038 16C6.56038 16 6.40039 16.16 6.40039 16.4V17.2C6.40034 17.44 6.56038 17.6 6.80038 17.6Z" fill="#ADE8F4"/>
<path d="M9.20077 7.99989C9.44077 7.99989 9.60075 7.83991 9.60075 7.5999V6.79989C9.60075 6.55989 9.44077 6.3999 9.20077 6.3999C8.96077 6.3999 8.80078 6.55989 8.80078 6.79989V7.5999C8.80073 7.83986 8.96077 7.99989 9.20077 7.99989Z" fill="#ADE8F4"/>
<path d="M9.20077 5.59999C9.44077 5.59999 9.60075 5.44 9.60075 5.2V4.39999C9.60075 4.15998 9.44077 4 9.20077 4C8.96077 4 8.80078 4.15998 8.80078 4.39999V5.2C8.80073 5.43996 8.96077 5.59999 9.20077 5.59999Z" fill="#ADE8F4"/>
<path d="M9.20077 3.20009C9.44077 3.20009 9.60075 3.0401 9.60075 2.8001V2.00008C9.60075 1.76008 9.44077 1.6001 9.20077 1.6001C8.96077 1.6001 8.80078 1.76008 8.80078 2.00008V2.8001C8.80073 3.04005 8.96077 3.20009 9.20077 3.20009Z" fill="#ADE8F4"/>
<path d="M9.20077 17.6C9.44077 17.6 9.60075 17.44 9.60075 17.2V16.4C9.60075 16.16 9.44077 16 9.20077 16C8.96077 16 8.80078 16.16 8.80078 16.4V17.2C8.80073 17.44 8.96077 17.6 9.20077 17.6Z" fill="#ADE8F4"/>
<path d="M9.20077 15.2001C9.44077 15.2001 9.60075 15.0401 9.60075 14.8001V14.0001C9.60075 13.7601 9.44077 13.6001 9.20077 13.6001C8.96077 13.6001 8.80078 13.7601 8.80078 14.0001V14.8001C8.80073 15.0401 8.96077 15.2001 9.20077 15.2001Z" fill="#ADE8F4"/>
<path d="M9.20077 12.7999C9.44077 12.7999 9.60075 12.64 9.60075 12.4V11.5999C9.60075 11.3599 9.44077 11.2 9.20077 11.2C8.96077 11.2 8.80078 11.3599 8.80078 11.5999V12.4C8.80073 12.6399 8.96077 12.7999 9.20077 12.7999Z" fill="#ADE8F4"/>
<path d="M9.20077 10.4C9.44077 10.4 9.60075 10.2401 9.60075 10.0001V9.20003C9.60075 8.96003 9.44077 8.80005 9.20077 8.80005C8.96077 8.80005 8.80078 8.96003 8.80078 9.20003V10.0001C8.80073 10.24 8.96077 10.4 9.20077 10.4Z" fill="#ADE8F4"/>
<path d="M11.5992 5.59999C11.8392 5.59999 11.9992 5.44 11.9992 5.2V4.39999C11.9992 4.15998 11.8392 4 11.5992 4C11.3592 4 11.1992 4.15998 11.1992 4.39999V5.2C11.1992 5.43996 11.3592 5.59999 11.5992 5.59999Z" fill="#ADE8F4"/>
<path d="M11.5992 3.20009C11.8392 3.20009 11.9992 3.0401 11.9992 2.8001V2.00008C11.9992 1.76008 11.8392 1.6001 11.5992 1.6001C11.3592 1.6001 11.1992 1.76008 11.1992 2.00008V2.8001C11.1992 3.04005 11.3592 3.20009 11.5992 3.20009Z" fill="#ADE8F4"/>
</svg>
