<svg width="23" height="24" viewBox="0 0 23 24" fill="none" xmlns="http://www.w3.org/2000/svg">
<path d="M21.5329 22.8697H21.5228V8.98684C21.5228 8.96686 21.5228 8.94688 21.5195 8.92715C21.5195 8.92386 21.5195 8.92032 21.5195 8.91703C21.5162 8.90388 21.5162 8.88719 21.5129 8.87404C21.5129 8.86746 21.5096 8.85735 21.5063 8.85077C21.503 8.84091 21.503 8.83105 21.4997 8.82093C21.4965 8.81106 21.4929 8.8012 21.4896 8.79109C21.4863 8.78451 21.4863 8.77793 21.483 8.77136C21.4798 8.76124 21.4732 8.75138 21.4699 8.74152C21.4666 8.73469 21.4631 8.72811 21.4598 8.72154C21.4532 8.71167 21.4499 8.70156 21.4433 8.69498C21.4401 8.68841 21.4368 8.68183 21.4332 8.67525C21.4266 8.66842 21.4234 8.65856 21.4168 8.65199C21.4102 8.64541 21.4069 8.63858 21.4001 8.63201C21.3935 8.62543 21.3902 8.61886 21.3837 8.61228C21.3771 8.60545 21.3703 8.59559 21.3637 8.58901C21.3604 8.58244 21.3538 8.5789 21.3472 8.57561C21.3404 8.56903 21.3305 8.55917 21.324 8.55259C21.3207 8.54905 21.3141 8.54576 21.3073 8.53919C21.2974 8.53261 21.2875 8.52604 21.281 8.51946C21.2741 8.51592 21.2676 8.51263 21.2643 8.50935C21.2544 8.50277 21.2443 8.49619 21.2377 8.49291C21.2279 8.48962 21.2213 8.48279 21.2112 8.4795C21.2046 8.47621 21.1947 8.47293 21.1882 8.46964C21.1748 8.46306 21.1616 8.45978 21.1482 8.45623C21.1449 8.45623 21.1416 8.45295 21.135 8.45295C21.1184 8.44637 21.0986 8.44308 21.0819 8.4398H21.0786L18.3106 7.85962V2.15806C18.3106 2.13809 18.3106 2.11836 18.3073 2.09838C18.3073 2.09509 18.3073 2.0918 18.304 2.08497C18.3007 2.07182 18.3007 2.05513 18.2974 2.04198C18.2941 2.03212 18.2941 2.02529 18.2908 2.01871C18.2876 2.00885 18.2876 1.99899 18.2843 1.99216C18.281 1.98229 18.2774 1.97243 18.2741 1.96231C18.2709 1.95574 18.2709 1.94916 18.2676 1.94259C18.2643 1.93247 18.2577 1.92261 18.2544 1.90946C18.2511 1.90288 18.2476 1.89605 18.2443 1.89276C18.2377 1.8829 18.2344 1.87304 18.2279 1.86292C18.2246 1.85635 18.2213 1.84977 18.2178 1.84648C18.2112 1.83965 18.2079 1.82979 18.2013 1.82321C18.1947 1.81664 18.1914 1.81006 18.1846 1.80323C18.178 1.79666 18.1748 1.79008 18.1682 1.78351C18.1616 1.77668 18.1548 1.7701 18.1482 1.76024C18.1416 1.75366 18.1383 1.75038 18.1318 1.74684C18.1249 1.74026 18.1151 1.7304 18.1085 1.72382C18.1019 1.72053 18.0986 1.71725 18.0918 1.71042C18.0819 1.70384 18.0754 1.69727 18.0655 1.69069C18.0587 1.6874 18.0521 1.68386 18.0455 1.68057C18.0357 1.674 18.0288 1.67071 18.019 1.66414C18.0091 1.66085 18.0025 1.65402 17.9924 1.65073C17.9858 1.64744 17.9793 1.64416 17.9691 1.64087C17.956 1.63429 17.9393 1.631 17.9261 1.62443C17.9229 1.62443 17.9196 1.62089 17.9163 1.62089C17.8963 1.61431 17.8763 1.61102 17.8566 1.60445L10.2157 0.00657558C10.199 0.0032878 10.1826 0 10.1692 0C10.1659 0 10.1626 0 10.1593 0C10.1495 0 10.1394 0 10.1295 0C10.1196 0 10.1095 0 10.1029 0C10.1029 0 10.1029 0 10.0997 0C10.0898 0 10.083 0 10.0731 0C10.0632 0 10.0531 0 10.0465 0C10.0334 0 10.0233 0.0032878 10.0101 0.00657558C10.0035 0.00657558 9.99697 0.00657558 9.99369 0.00986343H9.99014H9.98686L3.69855 1.23976C3.68186 1.24304 3.66871 1.24633 3.65201 1.24962C3.64873 1.24962 3.64544 1.24962 3.64215 1.25316C3.629 1.25645 3.6156 1.26302 3.60244 1.26631C3.59916 1.26631 3.59587 1.2696 3.58904 1.2696C3.57918 1.27289 3.56931 1.27946 3.56274 1.28275C3.48965 1.31942 3.42667 1.3657 3.3771 1.42539C3.3771 1.42868 3.37356 1.42868 3.37356 1.43197C3.37028 1.43879 3.36699 1.44208 3.36041 1.44866C3.32399 1.49823 3.29415 1.55463 3.27417 1.61431C3.27417 1.6176 3.27088 1.62089 3.27088 1.62089C3.26759 1.62772 3.26759 1.63429 3.26431 1.64087C3.26102 1.65073 3.25773 1.66414 3.25444 1.674V1.68386C3.2509 1.70055 3.24761 1.71371 3.24761 1.7304V1.73697C3.24761 1.75366 3.24433 1.7701 3.24433 1.7868V6.17576L1.05313 6.60672C1.03669 6.61001 1.02 6.61329 1.00356 6.61987C1.00027 6.61987 1.00027 6.61987 0.996986 6.62316C0.980294 6.62644 0.967143 6.63327 0.950451 6.63985C0.947163 6.63985 0.943875 6.64314 0.940587 6.64314C0.930471 6.64642 0.920607 6.653 0.910744 6.65629C0.844482 6.68942 0.784796 6.73595 0.734973 6.78906C0.731685 6.79235 0.728397 6.79893 0.721822 6.80222C0.718534 6.8055 0.714993 6.81208 0.711705 6.81891C0.668711 6.87505 0.63558 6.94132 0.6156 7.01112C0.612312 7.02427 0.609025 7.03413 0.605737 7.04754V7.05411C0.602449 7.0708 0.599161 7.08724 0.599161 7.10394V7.10722C0.595873 7.12366 0.595873 7.14364 0.595873 7.16033V22.873H0.585757C0.274174 22.873 0.0222778 23.1249 0.0222778 23.4365C0.0222778 23.7481 0.274174 24 0.585757 24H21.5362C21.8477 24 22.0996 23.7481 22.0996 23.4365C22.0963 23.1216 21.8445 22.8697 21.5329 22.8697ZM9.91073 7.23646C9.95373 7.25315 10.0035 7.26301 10.0498 7.2663L20.3958 9.43752V11.3204L7.46106 8.60545V6.72255L9.91073 7.23646ZM20.3958 14.2509L7.46106 11.5359V9.5536L20.3958 12.2686V14.2509ZM20.3958 15.199V17.1613L7.46106 14.4663V12.484L20.3958 15.199ZM7.46106 15.4142L20.3958 18.1128V20.0951L7.46106 17.4001V15.4142ZM20.3958 21.0432V22.8697H7.46106V18.3447L20.3958 21.0432ZM10.6598 6.24202V1.24962L17.1803 2.61203V7.61102L10.6598 6.24202ZM4.36471 2.25088L9.53289 1.23976V6.00657L7.01342 5.47951C7.00684 5.47951 6.99698 5.47622 6.99015 5.47622C6.98357 5.47622 6.97371 5.47293 6.96713 5.47293C6.95373 5.46964 6.94058 5.46964 6.92717 5.46964C6.9206 5.46964 6.91402 5.46964 6.90745 5.46964C6.89076 5.46964 6.87432 5.46964 6.85763 5.46964C6.85434 5.46964 6.85105 5.46964 6.84776 5.46964C6.82778 5.47293 6.80451 5.47293 6.78479 5.47951L4.36471 5.95371V2.25088ZM1.71954 7.62088L3.82779 7.20662C3.88418 7.20333 3.94058 7.19346 3.99015 7.17349L6.33385 6.71269V8.60216L2.53821 9.38795C2.28631 9.44081 2.12723 9.68613 2.17705 9.93474C2.22334 10.1535 2.41555 10.306 2.63102 10.306C2.66087 10.306 2.694 10.3027 2.72384 10.2961L6.33056 9.55032V11.5326L2.53492 12.3181C2.28302 12.3713 2.12394 12.6166 2.17377 12.8652C2.22005 13.0839 2.41226 13.2365 2.62774 13.2365C2.65758 13.2365 2.69071 13.2332 2.72055 13.2266L6.32728 12.4808V14.4663L2.53163 15.2519C2.27974 15.305 2.12066 15.5503 2.17048 15.7989C2.21676 16.0177 2.40897 16.1702 2.62445 16.1702C2.65429 16.1702 2.68742 16.1669 2.71727 16.1603L6.32399 15.4142V17.3968L2.52834 18.1823C2.27645 18.2354 2.11737 18.4808 2.16694 18.7294C2.21347 18.9481 2.40568 19.1006 2.62116 19.1006C2.651 19.1006 2.68414 19.0973 2.71398 19.0905L6.33385 18.3447V22.8697H1.71954V7.62088Z" fill="#ADB0C7"/>
</svg>
