<svg width="24" height="25" viewBox="0 0 24 25" fill="none" xmlns="http://www.w3.org/2000/svg">
<g clip-path="url(#clip0_863_4108)">
<path d="M12.0467 2.37501C11.7875 2.37314 11.5761 2.58173 11.5742 2.84048C11.5724 3.09923 11.7805 3.31064 12.0397 3.31251C12.2985 3.31439 12.5099 3.10626 12.5117 2.84751C12.5136 2.58876 12.3055 2.37736 12.0467 2.37501Z" fill="#02044F"/>
<path d="M12.0247 5.18758C10.2148 5.17474 8.73253 6.63485 8.71884 8.44418C8.7052 10.2534 10.1661 11.7364 11.9754 11.75C11.9838 11.7501 11.9922 11.7501 12.0006 11.7501C13.7984 11.7501 15.2677 10.2943 15.2813 8.4934C15.2949 6.68426 13.834 5.20122 12.0247 5.18758ZM12.0005 10.8126C11.9946 10.8126 11.9884 10.8126 11.9825 10.8125C10.6901 10.8028 9.64655 9.74352 9.6563 8.45122C9.666 7.16473 10.7154 6.12495 11.9996 6.12495C12.0055 6.12495 12.0117 6.12499 12.0176 6.12504C13.31 6.13479 14.3536 7.19407 14.3438 8.48637C14.3341 9.77286 13.2847 10.8126 12.0005 10.8126Z" fill="#02044F"/>
<path d="M14.0454 2.73069C13.8016 2.64416 13.5335 2.77189 13.447 3.01593C13.3605 3.25996 13.4882 3.52785 13.7322 3.61438C15.7969 4.34615 17.1729 6.3126 17.1564 8.50762C17.1545 8.76647 17.3628 8.97792 17.6217 8.97989C17.6228 8.97989 17.6241 8.97989 17.6253 8.97989C17.8824 8.97989 18.092 8.77233 18.0939 8.51465C18.1134 5.92026 16.4864 3.59586 14.0454 2.73069Z" fill="#02044F"/>
<path d="M14.8763 18.1458C17.9941 14.1325 19.9426 12.0398 19.9689 8.52867C20.0019 4.11102 16.4168 0.5 11.9994 0.5C7.63368 0.5 4.06471 4.03569 4.03152 8.40914C4.00471 12.0155 5.98935 14.1054 9.12867 18.1451C6.00562 18.6118 4.03152 19.7845 4.03152 21.2188C4.03152 22.1796 4.91961 23.0418 6.53226 23.6465C8.00006 24.1969 9.94195 24.5 12.0002 24.5C14.0584 24.5 16.0003 24.1969 17.4681 23.6465C19.0808 23.0417 19.9689 22.1795 19.9689 21.2187C19.9689 19.7852 17.9966 18.6128 14.8763 18.1458ZM4.96897 8.41622C4.99822 4.55704 8.14706 1.4375 11.9995 1.4375C15.8976 1.4375 19.0605 4.62445 19.0314 8.52169C19.0065 11.8561 16.9401 13.911 13.6412 18.2114C13.0528 18.9781 12.5124 19.703 12.0009 20.4121C11.4909 19.7026 10.9613 18.9907 10.3641 18.2111C6.92877 13.7306 4.94357 11.8311 4.96897 8.41622ZM12.0002 23.5625C7.97592 23.5625 4.96897 22.3252 4.96897 21.2188C4.96897 20.3983 6.76654 19.3618 9.78895 19.0029C10.4571 19.8795 11.0428 20.6759 11.6173 21.4893C11.7051 21.6135 11.8477 21.6874 11.9998 21.6875C11.9999 21.6875 12 21.6875 12.0002 21.6875C12.1522 21.6875 12.2947 21.6139 12.3826 21.4899C12.9517 20.6871 13.5534 19.871 14.2158 19.0034C17.2354 19.3627 19.0314 20.3989 19.0314 21.2188C19.0314 22.3252 16.0245 23.5625 12.0002 23.5625Z" fill="#02044F"/>
</g>
<defs>
<clipPath id="clip0_863_4108">
<rect width="24" height="24" fill="white" transform="translate(0 0.5)"/>
</clipPath>
</defs>
</svg>
