<svg width="24" height="24" viewBox="0 0 24 24" fill="none" xmlns="http://www.w3.org/2000/svg">
<g clip-path="url(#clip0_832_3001)">
<path d="M23.2501 11.2505H13.75C13.336 11.2505 13 10.9145 13 10.5005C13 10.0865 13.336 9.75049 13.75 9.75049H23.2501C23.6641 9.75049 24.0001 10.0865 24.0001 10.5005C24.0001 10.9145 23.6641 11.2505 23.2501 11.2505Z" fill="#01277A"/>
<path d="M19.4998 15.0003C19.3077 15.0003 19.1158 14.9273 18.9697 14.7804C18.6768 14.4873 18.6768 14.0123 18.9697 13.7193L22.1898 10.4994L18.9697 7.27931C18.6768 6.98634 18.6768 6.51137 18.9697 6.2184C19.2629 5.92525 19.7379 5.92525 20.0308 6.2184L23.7808 9.9684C24.0738 10.2614 24.0738 10.7363 23.7808 11.0293L20.0308 14.7793C19.8838 14.9273 19.6919 15.0003 19.4998 15.0003Z" fill="#01277A"/>
<path d="M8.00006 24.0005C7.78601 24.0005 7.58295 23.9705 7.38007 23.9075L1.36194 21.9025C0.543091 21.6165 0 20.8535 0 20.0005V2.00055C0 0.897522 0.897034 0.000488281 2.00006 0.000488281C2.21393 0.000488281 2.41699 0.0305176 2.62006 0.0935059L8.638 2.09851C9.45703 2.38452 9.99994 3.14752 9.99994 4.00043V22.0004C9.99994 23.1035 9.10309 24.0005 8.00006 24.0005ZM2.00006 1.50049C1.72504 1.50049 1.5 1.72552 1.5 2.00055V20.0005C1.5 20.2135 1.64301 20.4114 1.84698 20.4825L7.83691 22.4785C7.87994 22.4924 7.93597 22.5005 8.00006 22.5005C8.27509 22.5005 8.49994 22.2755 8.49994 22.0004V4.00043C8.49994 3.78748 8.35693 3.58954 8.15295 3.51849L2.16302 1.52246C2.12 1.50854 2.06396 1.50049 2.00006 1.50049Z" fill="#01277A"/>
<path d="M15.2499 8.00055C14.8359 8.00055 14.4999 7.66455 14.4999 7.25055V2.75055C14.4999 2.06152 13.939 1.50049 13.25 1.50049H2C1.586 1.50049 1.25 1.16449 1.25 0.750488C1.25 0.336487 1.586 0.000488281 2 0.000488281H13.25C14.767 0.000488281 15.9999 1.23352 15.9999 2.75055V7.25055C15.9999 7.66455 15.6639 8.00055 15.2499 8.00055Z" fill="#01277A"/>
<path d="M13.2501 21.0005H9.25C8.836 21.0005 8.5 20.6646 8.5 20.2505C8.5 19.8365 8.836 19.5005 9.25 19.5005H13.2501C13.9391 19.5005 14.5 18.9395 14.5 18.2505V13.7505C14.5 13.3365 14.836 13.0005 15.25 13.0005C15.664 13.0005 16 13.3365 16 13.7505V18.2505C16 19.7675 14.7672 21.0005 13.2501 21.0005Z" fill="#01277A"/>
</g>
<defs>
<clipPath id="clip0_832_3001">
<rect width="24.0007" height="24" fill="white"/>
</clipPath>
</defs>
</svg>
