<svg width="80" height="40" viewBox="0 0 80 40" fill="none" xmlns="http://www.w3.org/2000/svg">
<path d="M39.9903 34.827C44.8204 31.1837 47.8685 25.8939 47.8685 20.0185C47.8685 14.1417 44.8195 8.85481 39.9903 5.17118C35.7697 1.95951 30.1467 0 23.9576 0C10.7388 0 0 8.97191 0 20.0177C0 31.0664 10.7388 39.9974 23.9576 39.9974C30.147 39.9982 35.7697 38.0403 39.9903 34.827Z" fill="#009DDD"/>
<path d="M39.9961 34.8275C44.8262 31.1842 47.8743 25.8943 47.8743 20.0189C47.8743 14.1422 44.8253 8.85526 39.9961 5.17163V34.8275Z" fill="#009DDD"/>
<path d="M56.0899 0.000732422C49.8998 0.000732422 44.2733 1.96024 40.0073 5.17191C39.1646 5.83736 38.3684 6.54294 37.6159 7.28887H42.4442C43.1018 7.95275 43.7113 8.69868 44.2733 9.4029H35.7865C35.2726 10.1085 34.8034 10.8149 34.3799 11.5185H45.6326C46.0097 12.2227 46.3823 12.9304 46.6638 13.6347H33.3996C33.1172 14.3397 32.8821 15.0466 32.6953 15.789H47.368C47.6952 17.1213 47.8855 18.5714 47.8855 20.0192C47.8855 22.2132 47.4611 24.3689 46.664 26.3664H33.3998C33.6787 27.0706 34.0075 27.777 34.3811 28.482H45.6338C45.2129 29.1876 44.7894 29.9313 44.2736 30.5976H35.7867C36.3522 31.3421 36.9602 32.0469 37.6159 32.7132H42.4442C41.6954 33.4577 40.8972 34.1633 40.0073 34.8287C44.2736 38.042 49.8998 39.9999 56.0899 39.9999C69.3104 39.9999 80.0002 31.0689 80.0002 20.0202C79.999 8.97285 69.3104 0.000732422 56.0899 0.000732422Z" fill="#ED1C2E"/>
<path d="M71.7441 24.3274C71.7441 23.9741 72.1212 23.7009 72.5421 23.7009C72.9649 23.7009 73.2918 23.9743 73.2918 24.3274C73.2918 24.6813 72.9647 24.9942 72.5421 24.9942C72.1212 24.9942 71.7441 24.6813 71.7441 24.3274ZM72.5421 24.8373C72.8693 24.8373 73.1041 24.6022 73.1041 24.3274C73.1041 24.0534 72.8691 23.857 72.5421 23.857C72.2133 23.857 71.9344 24.0534 71.9344 24.3274C71.9344 24.6022 72.2133 24.8373 72.5421 24.8373ZM72.4482 24.6022H72.2614V24.0532H72.5419C72.634 24.0532 72.6823 24.0532 72.7303 24.0928C72.7767 24.1316 72.8224 24.1698 72.8224 24.2101C72.8224 24.2892 72.776 24.3675 72.682 24.3675L72.8224 24.602H72.634L72.5419 24.4055H72.4482V24.6022ZM72.4482 24.2892H72.5419C72.5419 24.2892 72.5883 24.2892 72.634 24.2892C72.634 24.2892 72.634 24.2489 72.634 24.2101V24.1698C72.5876 24.1698 72.5419 24.1698 72.4955 24.1698H72.4472V24.2892H72.4482Z" fill="white"/>
<path d="M20.9668 24.9948H17.9677L19.7486 17.1989L15.671 24.9948H12.9491L12.4816 17.2377L10.7007 24.9948H7.98047L10.2788 14.8489H14.9651L15.1992 21.1155L18.4851 14.8489H23.3089L20.9668 24.9948Z" fill="white"/>
<path d="M54.2493 24.8785C53.4049 25.0727 52.7953 25.1511 52.0911 25.1511C50.5924 25.1511 49.7461 24.5246 49.7461 23.3506C49.7461 23.1146 49.7944 22.8786 49.8398 22.6047L50.0266 21.7818L50.1705 21.1561L51.5289 14.8499H54.4815L54.0616 16.7287H55.6067L55.1858 18.7283H53.639L52.8893 22.1746C52.841 22.3315 52.7956 22.4494 52.7956 22.5271C52.7956 22.9587 53.1244 23.1528 53.8286 23.1528C54.1558 23.1528 54.4347 23.114 54.625 23.075L54.2493 24.8785Z" fill="white"/>
<path d="M62.9346 16.8078C62.6995 16.7279 62.6541 16.7279 62.6074 16.7279C62.4654 16.6876 62.3724 16.6876 62.3724 16.6501C62.2768 16.6501 62.184 16.6501 62.0452 16.6501C61.0586 16.6501 60.3562 17.0026 59.4645 17.9808L59.745 16.7279H57.0248L55.1973 24.9942H58.198C59.2758 19.9388 59.6984 19.0389 61.1507 19.0389C61.2444 19.0389 61.3874 19.0785 61.5261 19.0785L61.8549 19.1562L62.9346 16.8078Z" fill="white"/>
<path d="M42.4374 19.3527C42.4374 20.372 43.1417 21.1157 44.7358 21.6265C45.9556 22.0559 46.1433 22.1746 46.1433 22.5667C46.1433 23.0753 45.5795 23.3112 44.4079 23.3112C43.5169 23.3112 42.6715 23.1933 41.6877 22.9595L41.3125 24.8793H41.4545L41.9685 24.9958C42.1553 24.9958 42.4358 25.0353 42.7648 25.0353C43.4691 25.1123 44.032 25.1123 44.4538 25.1123C47.595 25.1123 49.0953 24.2506 49.0953 22.371C49.0953 21.2344 48.4857 20.5692 46.939 20.0598C45.6718 19.6677 45.5324 19.5504 45.5324 19.1586C45.5324 18.7291 46.0479 18.4931 47.0327 18.4931C47.5947 18.4931 48.4375 18.5335 49.1874 18.6097L49.6102 16.7301C48.8139 16.6143 47.6423 16.574 46.9847 16.574C43.6106 16.5726 42.4374 17.8255 42.4374 19.3527Z" fill="white"/>
<path d="M30.6329 24.9942H28.1942L28.2425 24.131C27.4928 24.7978 26.4614 25.1107 25.1014 25.1107C23.5089 25.1107 22.3828 24.2101 22.3828 22.878C22.3828 20.8789 24.3024 19.7043 27.6339 19.7043C27.9591 19.7043 28.3826 19.7043 28.8518 19.7447C28.9456 19.4707 28.9456 19.3518 28.9456 19.2353C28.9456 18.6872 28.4281 18.4907 27.0224 18.4907C26.178 18.4907 25.2432 18.5691 24.5855 18.6872L24.1646 18.8051L23.8822 18.8433L24.3031 17.0026C25.8054 16.6875 26.7419 16.5718 27.8687 16.5718C30.445 16.5718 31.7588 17.3933 31.7588 18.9598C31.7588 19.3914 31.7124 19.7049 31.5256 20.6063L30.916 23.5448L30.8223 24.0534L30.7267 24.4858L30.6803 24.7584L30.6329 24.9942ZM28.4766 21.3106C28.1459 21.2718 28.0074 21.2718 27.8206 21.2718C26.1316 21.2718 25.2889 21.7026 25.2889 22.5263C25.2889 23.0349 25.6624 23.388 26.3184 23.388C27.5401 23.388 28.4293 22.5263 28.4766 21.3106Z" fill="white"/>
<path d="M40.4144 24.7984C39.3849 25.0336 38.4001 25.1501 37.3671 25.1501C34.0427 25.1501 32.3047 23.8568 32.3047 21.4283C32.3047 18.6071 34.5093 16.5312 37.51 16.5312C39.9469 16.5312 41.4974 17.7066 41.4974 19.5085C41.4974 20.1342 41.4018 20.7248 41.1686 21.5464H35.2117C35.2117 21.7024 35.2117 21.7412 35.2117 21.8211C35.2117 22.7613 36.0561 23.2699 37.7908 23.2699C38.8693 23.2699 39.8534 23.1138 40.8836 22.7621L40.4144 24.7984ZM38.822 19.9027C38.822 19.7453 38.822 19.5876 38.822 19.4711C38.822 18.8057 38.3045 18.4122 37.4153 18.4122C36.477 18.4122 35.821 18.9604 35.5379 19.9027H38.822Z" fill="white"/>
<path d="M72.2104 21.2332C71.7413 23.9737 69.4445 25.1887 66.3955 25.1887C63.0693 25.1887 61.7109 23.5055 61.7109 21.3901C61.7109 18.4906 64.0058 16.4907 67.5687 16.4907C70.6634 16.4907 72.3042 18.1365 72.3042 20.2131C72.3051 20.7254 72.3051 20.7636 72.2104 21.2332ZM69.1174 20.1744C69.1174 19.3127 68.6946 18.5315 67.4785 18.5315C65.9746 18.5315 65.0381 20.0183 65.0381 21.3511C65.0381 22.4488 65.6957 23.1925 66.7272 23.1925C67.3831 23.1925 68.7897 22.4488 69.0239 21.195C69.1174 20.8801 69.1174 20.529 69.1174 20.1744Z" fill="white"/>
</svg>
