<svg width="24" height="25" viewBox="0 0 24 25" fill="none" xmlns="http://www.w3.org/2000/svg">
<g clip-path="url(#clip0_863_4094)">
<path d="M23.3748 17.678C22.9271 17.0201 22.1676 16.8595 21.3426 17.2477L20.9054 17.4402C21.5948 15.9707 21.6804 14.3325 21.3372 12.7852C20.943 11.008 19.9909 9.28639 18.5074 7.66813C18.3762 7.52502 18.1539 7.51536 18.0108 7.64657C17.8677 7.77772 17.858 8.00005 17.9892 8.14321C19.3882 9.66927 20.2837 11.2823 20.6509 12.9374C21.0375 14.6808 20.8126 16.4788 19.8258 17.9155L15.4504 19.842L15.454 19.3479C15.4541 19.3354 15.4535 19.3229 15.4523 19.3105C15.3513 18.2949 14.5749 17.4857 13.5643 17.3427C13.5613 17.3422 13.5583 17.3419 13.5553 17.3415L9.6665 16.8938C8.17114 16.6809 7.78602 15.7848 5.76083 15.2738C5.62091 14.0865 5.80742 12.8223 6.31864 11.555C7.08856 9.6463 8.5948 7.79192 10.6829 6.17788C11.4612 6.72969 14.9333 6.79836 15.7103 6.08652C16.1084 6.38882 16.4883 6.70035 16.8422 7.01568C16.9092 7.07539 16.9927 7.10474 17.0759 7.10474C17.1727 7.10474 17.2691 7.06503 17.3385 6.98708C17.4676 6.84214 17.4548 6.61996 17.3098 6.49082C16.9219 6.14521 16.5046 5.80419 16.067 5.47461C16.1695 5.03971 16.026 4.53069 15.6472 4.22769C16.7478 2.55838 17.0679 1.46577 16.6257 0.893331C16.322 0.500097 15.9442 0.684644 15.7829 0.763488C15.5094 0.896988 15.3603 0.904019 15.1087 0.739394C14.6286 0.425285 14.1241 0.41516 13.6286 0.739394C13.3737 0.906128 13.1731 0.906128 12.9184 0.739394C12.4383 0.425285 11.9339 0.41516 11.4383 0.739394C11.1838 0.905988 11.0341 0.895675 10.7649 0.761894C10.6038 0.681785 10.2264 0.494191 9.92075 0.887472C9.48852 1.44378 9.77769 2.50194 10.804 4.11449C10.7412 4.14847 10.6813 4.18836 10.6253 4.23392C10.2171 3.80286 9.54838 3.35328 8.58125 3.46128C7.77908 3.55105 7.18756 3.28597 6.83253 3.04785C6.67128 2.93985 6.45294 2.98288 6.34484 3.14403C6.23675 3.30528 6.27983 3.52363 6.44103 3.63172C6.89361 3.93514 7.64577 4.27293 8.65925 4.15991C9.40644 4.0761 9.91344 4.45794 10.229 4.84653C10.2247 4.86153 10.2207 4.87663 10.217 4.89172C9.94784 4.89594 9.54552 4.92107 9.10245 5.01322C8.03689 5.23489 7.24592 5.74128 6.815 6.47778C6.71698 6.64532 6.77333 6.86066 6.94086 6.95872C7.10844 7.05674 7.32373 7.00035 7.42175 6.83282C8.06272 5.73739 9.62727 5.60343 10.2487 5.59503C10.2514 5.60277 10.2545 5.61041 10.2573 5.6181C8.03975 7.32871 6.49588 9.23638 5.66675 11.2918C5.14269 12.5911 4.93334 13.8927 5.03961 15.1297C4.70253 15.0798 4.36156 15.0531 4.01895 15.0507V14.8381C4.01895 14.2757 3.56136 13.8181 2.99891 13.8181H1.38528C0.822828 13.8181 0.365234 14.2757 0.365234 14.8381V23.0246C0.365234 23.5871 0.822828 24.0446 1.38528 24.0446H2.99886C3.56131 24.0446 4.01891 23.587 4.01891 23.0246V22.9244L7.5388 24.2346C8.01181 24.4106 8.50756 24.4999 9.01227 24.4999H14.2569C15.0588 24.4999 15.8406 24.273 16.5178 23.8438C23.5144 19.4085 23.0895 19.6845 23.1299 19.6487C23.6935 19.1484 23.7987 18.3012 23.3748 17.678ZM15.0507 5.66999C13.7653 5.99455 12.5155 5.99455 11.2298 5.66999C10.6782 5.53053 10.838 4.54663 11.4309 4.69532C12.5811 4.98407 13.6993 4.98407 14.8497 4.69532C15.4322 4.54907 15.6112 5.52833 15.0507 5.66999ZM10.4439 1.38744C10.4466 1.3888 10.4494 1.39021 10.452 1.39152C10.9278 1.62796 11.3446 1.6408 11.8232 1.32772C12.422 0.935706 12.4871 1.56425 13.2734 1.56425C13.652 1.56425 13.8609 1.42757 14.0134 1.32772C14.2683 1.16094 14.469 1.16103 14.7238 1.32772C15.2045 1.64225 15.6112 1.62674 16.1008 1.39063C16.1731 1.65135 16.0094 2.42858 14.9671 3.98043C14.4495 3.97161 13.6984 4.47997 11.5721 4.00677C10.532 2.43486 10.3712 1.65008 10.4439 1.38744ZM22.6822 19.1057L16.1416 23.2503C15.5771 23.608 14.9254 23.7971 14.257 23.7971H9.01231C8.59161 23.7971 8.17836 23.7227 7.78405 23.5759L4.01891 22.1745V18.3891C4.01891 18.1949 3.86155 18.0376 3.66744 18.0376C3.47333 18.0376 3.31597 18.1949 3.31597 18.3891V23.0248C3.31597 23.1996 3.1737 23.3418 2.99891 23.3418H1.38528C1.21044 23.3418 1.06822 23.1996 1.06822 23.0248V14.8383C1.06822 14.6635 1.21044 14.5213 1.38528 14.5213H2.99886C3.1737 14.5213 3.31592 14.6635 3.31592 14.8383V16.7458C3.31592 16.94 3.47328 17.0974 3.66739 17.0974C3.8615 17.0974 4.01886 16.94 4.01886 16.7458V15.7539C6.92656 15.7761 7.58033 17.3087 9.57242 17.5905C9.57542 17.591 9.57842 17.5913 9.58142 17.5917L13.47 18.0394C14.1509 18.1377 14.675 18.6799 14.7508 19.3625L14.7459 20.0311H11.1194C10.9253 20.0311 10.7679 20.1885 10.7679 20.3826C10.7679 20.5768 10.9253 20.7342 11.1194 20.7342H15.0949C15.1392 20.7342 15.1905 20.7243 15.2352 20.7049C15.2423 20.7017 21.6225 17.8926 21.6299 17.8893C22.0898 17.6849 22.5091 17.6557 22.7935 18.0736C23.0145 18.3983 22.9656 18.8373 22.6822 19.1057Z" fill="#02044F"/>
<path d="M13.2328 16.4479C13.4269 16.4479 13.5843 16.2905 13.5843 16.0964V15.5137C14.5711 15.3536 15.1469 14.5549 15.2721 13.8098C15.4286 12.879 14.941 12.0695 14.0301 11.7475C13.8691 11.6906 13.721 11.6362 13.5843 11.5836V9.34242C14.0001 9.41137 14.2498 9.62658 14.268 9.64266C14.4108 9.7725 14.6317 9.76289 14.7627 9.62086C14.8944 9.47817 14.8854 9.2558 14.7427 9.12417C14.7179 9.1013 14.2874 8.71369 13.5843 8.63264V8.13277C13.5843 7.93861 13.4269 7.78125 13.2328 7.78125C13.0387 7.78125 12.8813 7.93861 12.8813 8.13277V8.66105C12.7966 8.67727 12.7098 8.69789 12.6205 8.72475C12.0243 8.90433 11.5786 9.41559 11.4573 10.059C11.3473 10.6428 11.5324 11.2043 11.9404 11.5242C12.1746 11.7079 12.4695 11.8761 12.8813 12.0559V14.8357C12.4748 14.8185 12.2246 14.7421 11.7881 14.4566C11.6257 14.3504 11.4078 14.3958 11.3015 14.5583C11.1953 14.7207 11.2408 14.9386 11.4033 15.0449C11.977 15.4202 12.3606 15.5182 12.8813 15.5384V16.0964C12.8813 16.2905 13.0387 16.4479 13.2328 16.4479ZM12.3743 10.9711C12.1736 10.8137 12.0869 10.5141 12.1482 10.1892C12.205 9.88786 12.4121 9.52177 12.8233 9.39792C12.8429 9.39202 12.8621 9.38695 12.8813 9.3818V11.2805C12.6708 11.1754 12.5058 11.0743 12.3743 10.9711ZM13.7958 12.4103C14.6705 12.7194 14.6163 13.4705 14.5788 13.6933C14.5013 14.1546 14.1627 14.647 13.5843 14.7952V12.3341C13.6527 12.3592 13.7226 12.3844 13.7958 12.4103Z" fill="#02044F"/>
</g>
<defs>
<clipPath id="clip0_863_4094">
<rect width="24" height="24" fill="white" transform="translate(0 0.5)"/>
</clipPath>
</defs>
</svg>
