<svg width="40" height="40" viewBox="0 0 40 40" fill="none" xmlns="http://www.w3.org/2000/svg">
<rect width="40" height="40" rx="4" fill="#CAF0F8"/>
<path d="M18.8858 21.0979C18.8414 21.0883 18.7958 21.0865 18.7508 21.0933C18.3001 21.0408 17.96 20.6594 17.9593 20.2058C17.9593 19.9884 17.783 19.8121 17.5656 19.8121C17.3482 19.8121 17.1719 19.9884 17.1719 20.2058C17.1731 20.9633 17.6798 21.6269 18.4102 21.8274V22.221C18.4102 22.4384 18.5865 22.6147 18.8039 22.6147C19.0213 22.6147 19.1975 22.4384 19.1975 22.221V21.8512C20.0406 21.6747 20.6136 20.8895 20.525 20.0328C20.4362 19.1761 19.7144 18.525 18.8531 18.5248C18.3595 18.5248 17.9593 18.1246 17.9593 17.631C17.9593 17.1374 18.3595 16.7371 18.8531 16.7371C19.3467 16.7371 19.7469 17.1374 19.7469 17.631C19.7469 17.8484 19.9232 18.0246 20.1406 18.0246C20.358 18.0246 20.5343 17.8484 20.5343 17.631C20.5331 16.8356 19.9758 16.1495 19.1975 15.9854V15.6271C19.1975 15.4097 19.0213 15.2334 18.8039 15.2334C18.5865 15.2334 18.4102 15.4097 18.4102 15.6271V16.0094C17.5979 16.2312 17.075 17.0199 17.1869 17.8545C17.2988 18.6892 18.011 19.3121 18.8531 19.312C19.3402 19.312 19.7375 19.702 19.7463 20.1889C19.7554 20.6758 19.3725 21.0802 18.8858 21.0979Z" fill="#0096C7"/>
<path d="M13.1445 18.9488C13.1445 22.1016 15.7003 24.6574 18.8531 24.6574C22.0059 24.6574 24.5617 22.1016 24.5617 18.9488C24.5617 15.796 22.0059 13.2402 18.8531 13.2402C15.7018 13.2437 13.1482 15.7975 13.1445 18.9488ZM18.8531 14.0276C21.5711 14.0276 23.7744 16.2308 23.7744 18.9488C23.7744 21.6668 21.5711 23.8701 18.8531 23.8701C16.1351 23.8701 13.9319 21.6668 13.9319 18.9488C13.9349 16.2322 16.1365 14.0306 18.8531 14.0276Z" fill="#0096C7"/>
<path d="M26.5026 25.6281L23.4188 27.0851C22.993 26.2931 22.1763 25.7891 21.2774 25.7638L18.4306 25.6855C17.9799 25.6727 17.5376 25.5585 17.1368 25.3514L16.8471 25.2013C15.3639 24.4282 13.5961 24.4301 12.1144 25.2063L12.1325 24.5501C12.1385 24.3327 11.9672 24.1516 11.7498 24.1456L8.62812 24.0597C8.41072 24.0538 8.22984 24.225 8.22388 24.4424L8.03531 31.2928C8.02935 31.5102 8.20062 31.6913 8.41802 31.6973L11.5397 31.7832H11.5505C11.7638 31.7832 11.9384 31.6134 11.9441 31.4003L11.9532 31.0725L12.7641 30.6383C13.0825 30.467 13.4546 30.4263 13.8023 30.5247L18.6452 31.8839C18.6536 31.8864 18.6621 31.8883 18.6707 31.8902C19.0208 31.9635 19.3775 32.0002 19.7351 32C20.4924 32.0004 21.2409 31.8372 21.9293 31.5212C21.9462 31.5135 21.9625 31.5045 21.9781 31.4943L28.9997 26.9525C29.1747 26.8392 29.2312 26.6095 29.1287 26.4281C28.6074 25.5031 27.4512 25.1508 26.5026 25.6281ZM8.83322 30.9211L9.00007 24.8576L11.3346 24.9218L11.1677 30.9855L8.83322 30.9211ZM21.5746 30.818C20.7194 31.204 19.7643 31.3105 18.8451 31.1227L14.0153 29.767C13.4717 29.6134 12.8899 29.677 12.3926 29.9444L11.9782 30.1664L12.0891 26.1349C13.4023 25.2615 15.0866 25.1717 16.4852 25.9004L16.7748 26.0506C17.2812 26.312 17.8396 26.4561 18.4091 26.4727L21.2561 26.5509C22.0557 26.574 22.7349 27.1433 22.8971 27.9268L18.6565 27.8098C18.4391 27.8038 18.2582 27.9753 18.2521 28.1925C18.2461 28.4099 18.4176 28.591 18.6348 28.5969L23.3146 28.7257H23.3256C23.5387 28.7255 23.7131 28.5558 23.7188 28.3428C23.7236 28.1717 23.711 28.0005 23.6808 27.8321L26.8438 26.3375C26.8469 26.3362 26.8499 26.3347 26.853 26.3331C27.3017 26.1061 27.8441 26.182 28.2132 26.5236L21.5746 30.818Z" fill="#0096C7"/>
<path d="M19.2463 12.1335V8.39367C19.2463 8.17627 19.0701 8 18.8527 8C18.6353 8 18.459 8.17627 18.459 8.39367V12.1335C18.459 12.3509 18.6353 12.5272 18.8527 12.5272C19.0701 12.5272 19.2463 12.3509 19.2463 12.1335Z" fill="#0096C7"/>
<path d="M22.1994 12.1334V10.3619C22.1994 10.1445 22.0232 9.96826 21.8058 9.96826C21.5884 9.96826 21.4121 10.1445 21.4121 10.3619V12.1334C21.4121 12.3508 21.5884 12.5271 21.8058 12.5271C22.0232 12.5271 22.1994 12.3508 22.1994 12.1334Z" fill="#0096C7"/>
<path d="M16.2952 12.1334V10.3619C16.2952 10.1445 16.1189 9.96826 15.9015 9.96826C15.6841 9.96826 15.5078 10.1445 15.5078 10.3619V12.1334C15.5078 12.3508 15.6841 12.5271 15.9015 12.5271C16.1189 12.5271 16.2952 12.3508 16.2952 12.1334Z" fill="#0096C7"/>
</svg>
