<svg width="492" height="326" viewBox="0 0 492 326" fill="none" xmlns="http://www.w3.org/2000/svg">
<path d="M441.472 157.9H92.5996V268.223H441.472V157.9Z" fill="white"/>
<path d="M441.476 268.865H92.6031C92.4333 268.865 92.2705 268.797 92.1504 268.677C92.0303 268.556 91.9629 268.393 91.9629 268.223V157.875C91.9629 157.705 92.0303 157.542 92.1504 157.422C92.2705 157.301 92.4333 157.234 92.6031 157.234H441.476C441.646 157.234 441.809 157.301 441.929 157.422C442.049 157.542 442.116 157.705 442.116 157.875V268.223C442.116 268.393 442.049 268.556 441.929 268.677C441.809 268.797 441.646 268.865 441.476 268.865ZM93.2049 267.581H440.836V158.517H93.2433L93.2049 267.581Z" fill="#263238"/>
<path d="M267.505 57.241L93.5234 157.901H441.474L267.505 57.241Z" fill="#E1EDF3"/>
<path d="M441.475 158.542H93.5243C93.3846 158.541 93.2492 158.493 93.1387 158.408C93.0283 158.322 92.9488 158.202 92.9126 158.067C92.8763 157.932 92.8852 157.789 92.9378 157.659C92.9905 157.529 93.084 157.42 93.2042 157.349L267.186 56.6885C267.283 56.6322 267.394 56.6025 267.506 56.6025C267.619 56.6025 267.729 56.6322 267.826 56.6885L441.795 157.362C441.92 157.429 442.018 157.537 442.074 157.667C442.13 157.798 442.14 157.943 442.103 158.08C442.063 158.216 441.98 158.334 441.867 158.418C441.754 158.501 441.616 158.545 441.475 158.542ZM95.9187 157.259H439.068L267.493 57.9844L95.9187 157.259Z" fill="#263238"/>
<path d="M337.74 148.932H251.402V268.223H337.74V148.932Z" fill="white"/>
<path d="M337.74 268.865H251.402C251.232 268.865 251.069 268.797 250.949 268.677C250.829 268.556 250.762 268.393 250.762 268.223V148.894C250.762 148.723 250.829 148.56 250.949 148.44C251.069 148.32 251.232 148.252 251.402 148.252H337.74C337.909 148.255 338.07 148.324 338.189 148.444C338.308 148.563 338.377 148.724 338.38 148.894V268.223C338.38 268.393 338.313 268.556 338.193 268.677C338.072 268.797 337.91 268.865 337.74 268.865ZM252.042 267.582H337.048V149.535H252.042V267.582Z" fill="#263238"/>
<path d="M337.74 148.932H251.402V154H337.74V148.932Z" fill="#263238"/>
<path d="M337.74 154.654H251.402C251.232 154.654 251.069 154.587 250.949 154.466C250.829 154.346 250.762 154.183 250.762 154.013V148.88C250.762 148.71 250.829 148.547 250.949 148.427C251.069 148.306 251.232 148.239 251.402 148.239H337.74C337.909 148.242 338.07 148.311 338.189 148.43C338.308 148.55 338.377 148.711 338.38 148.88V154.013C338.377 154.182 338.308 154.343 338.189 154.463C338.07 154.582 337.909 154.651 337.74 154.654ZM252.042 153.371H337.048V149.522H252.042V153.371Z" fill="#263238"/>
<path d="M316.126 268.224H273.027V193.662C273.026 190.825 273.582 188.016 274.664 185.394C275.746 182.773 277.333 180.391 279.334 178.384C281.336 176.378 283.712 174.786 286.327 173.7C288.942 172.614 291.746 172.055 294.577 172.055C300.295 172.055 305.78 174.331 309.823 178.383C313.867 182.436 316.139 187.932 316.139 193.662L316.126 268.224Z" fill="#DBE9EF"/>
<path d="M316.124 268.864H273.026C272.856 268.864 272.693 268.796 272.573 268.676C272.453 268.556 272.385 268.393 272.385 268.222V193.661C272.314 190.695 272.836 187.745 273.919 184.984C275.003 182.223 276.626 179.707 278.694 177.584C280.763 175.461 283.233 173.774 285.962 172.622C288.69 171.471 291.621 170.877 294.581 170.877C297.542 170.877 300.472 171.471 303.201 172.622C305.929 173.774 308.4 175.461 310.468 177.584C312.536 179.707 314.16 182.223 315.243 184.984C316.327 187.745 316.848 190.695 316.777 193.661V268.222C316.777 268.308 316.76 268.392 316.727 268.471C316.694 268.55 316.646 268.621 316.585 268.681C316.524 268.74 316.452 268.787 316.373 268.819C316.294 268.85 316.209 268.866 316.124 268.864ZM273.653 267.581H315.484V193.661C315.553 190.865 315.063 188.083 314.043 185.479C313.023 182.876 311.493 180.503 309.544 178.501C307.595 176.499 305.266 174.908 302.694 173.822C300.122 172.736 297.359 172.176 294.568 172.176C291.777 172.176 289.014 172.736 286.443 173.822C283.871 174.908 281.542 176.499 279.593 178.501C277.644 180.503 276.114 182.876 275.094 185.479C274.074 188.083 273.584 190.865 273.653 193.661V267.581Z" fill="#263238"/>
<path d="M267.533 177.225H67.5586V268.224H267.533V177.225Z" fill="white"/>
<path d="M267.528 268.864H67.5543C67.3845 268.864 67.2216 268.797 67.1016 268.676C66.9815 268.556 66.9141 268.393 66.9141 268.223V177.224C66.9141 177.054 66.9815 176.891 67.1016 176.77C67.2216 176.65 67.3845 176.583 67.5543 176.583H267.528C267.698 176.583 267.861 176.65 267.981 176.77C268.101 176.891 268.169 177.054 268.169 177.224V268.223C268.169 268.393 268.101 268.556 267.981 268.676C267.861 268.797 267.698 268.864 267.528 268.864ZM68.1561 267.581H266.888V177.891H68.1561V267.581Z" fill="#263238"/>
<path d="M267.533 177.225H67.5586V181.28H267.533V177.225Z" fill="#263238"/>
<path d="M267.528 181.92H67.5543C67.3845 181.92 67.2216 181.853 67.1016 181.732C66.9815 181.612 66.9141 181.449 66.9141 181.279V177.224C66.9141 177.054 66.9815 176.891 67.1016 176.77C67.2216 176.65 67.3845 176.583 67.5543 176.583H267.528C267.698 176.583 267.861 176.65 267.981 176.77C268.101 176.891 268.169 177.054 268.169 177.224V181.279C268.169 181.449 268.101 181.612 267.981 181.732C267.861 181.853 267.698 181.92 267.528 181.92ZM68.1561 180.637H266.888V177.891H68.1561V180.637Z" fill="#263238"/>
<path d="M245.517 184.73H89.5508V268.223H245.517V184.73Z" fill="#E1EDF3"/>
<path d="M245.521 268.865H89.5543C89.3845 268.865 89.2216 268.797 89.1016 268.677C88.9815 268.557 88.9141 268.393 88.9141 268.223V184.731C88.9141 184.561 88.9815 184.398 89.1016 184.277C89.2216 184.157 89.3845 184.089 89.5543 184.089H245.521C245.691 184.089 245.853 184.157 245.973 184.277C246.093 184.398 246.161 184.561 246.161 184.731V268.223C246.161 268.393 246.093 268.557 245.973 268.677C245.853 268.797 245.691 268.865 245.521 268.865ZM90.1945 267.582H244.855V185.372H90.1945V267.582Z" fill="#02044F"/>
<path d="M167.547 110.645L61.4141 172.054H273.68L167.547 110.645Z" fill="#E1EDF3"/>
<path d="M273.677 172.759H61.411C61.2713 172.758 61.1359 172.71 61.0254 172.625C60.915 172.539 60.8356 172.419 60.7993 172.284C60.763 172.149 60.7719 172.005 60.8245 171.876C60.8772 171.746 60.9707 171.637 61.0909 171.566L167.224 110.156C167.321 110.099 167.432 110.07 167.544 110.07C167.656 110.07 167.767 110.099 167.864 110.156L273.997 171.476C274.117 171.547 274.211 171.656 274.263 171.786C274.316 171.916 274.325 172.059 274.289 172.194C274.252 172.329 274.173 172.449 274.063 172.535C273.952 172.621 273.817 172.668 273.677 172.669V172.759ZM63.8054 171.476H271.231L167.518 111.452L63.8054 171.476Z" fill="#263238"/>
<path d="M273.667 172.055H61.4141V177.226H273.667V172.055Z" fill="white"/>
<path d="M273.678 177.892H61.4117C61.2419 177.892 61.0791 177.825 60.959 177.704C60.8389 177.584 60.7715 177.421 60.7715 177.251V172.118C60.7715 171.948 60.8389 171.785 60.959 171.664C61.0791 171.544 61.2419 171.477 61.4117 171.477H273.678C273.848 171.477 274.01 171.544 274.13 171.664C274.25 171.785 274.318 171.948 274.318 172.118V177.251C274.318 177.421 274.25 177.584 274.13 177.704C274.01 177.825 273.848 177.892 273.678 177.892ZM62.0519 176.609H273.025V172.76H62.0519V176.609Z" fill="#263238"/>
<path d="M294.559 114.314L239.604 146.11H349.527L294.559 114.314Z" fill="#E1EDF3"/>
<path d="M349.531 146.751H239.608C239.466 146.753 239.327 146.707 239.213 146.621C239.1 146.535 239.018 146.414 238.981 146.276C238.944 146.139 238.954 145.993 239.01 145.863C239.066 145.732 239.164 145.625 239.288 145.557L294.243 113.736C294.343 113.685 294.452 113.659 294.564 113.659C294.675 113.659 294.785 113.685 294.884 113.736L349.852 145.557C349.972 145.629 350.065 145.738 350.118 145.867C350.171 145.997 350.179 146.14 350.143 146.276C350.107 146.411 350.028 146.53 349.917 146.616C349.807 146.702 349.671 146.749 349.531 146.751ZM241.977 145.467H347.124L294.564 115.019L241.977 145.467Z" fill="#02044F"/>
<path d="M349.527 146.109H239.604V151.216H349.527V146.109Z" fill="white"/>
<path d="M349.53 151.857H239.607C239.437 151.857 239.274 151.79 239.154 151.669C239.034 151.549 238.967 151.386 238.967 151.216V146.083C238.967 145.913 239.034 145.75 239.154 145.63C239.274 145.509 239.437 145.442 239.607 145.442H349.53C349.7 145.442 349.863 145.509 349.983 145.63C350.103 145.75 350.17 145.913 350.17 146.083V151.216C350.17 151.386 350.103 151.549 349.983 151.669C349.863 151.79 349.7 151.857 349.53 151.857ZM240.247 150.574H348.89V146.725H240.247V150.574Z" fill="#263238"/>
<path d="M107.863 191.441H95.2383V204.092H107.863V191.441Z" fill="white"/>
<path d="M107.849 204.735H95.2242C95.0544 204.735 94.8916 204.668 94.7715 204.547C94.6514 204.427 94.584 204.264 94.584 204.094V191.442C94.584 191.272 94.6514 191.109 94.7715 190.988C94.8916 190.868 95.0544 190.801 95.2242 190.801H107.849C108.019 190.801 108.182 190.868 108.302 190.988C108.422 191.109 108.489 191.272 108.489 191.442V204.094C108.489 204.264 108.422 204.427 108.302 204.547C108.182 204.668 108.019 204.735 107.849 204.735ZM95.8644 203.452H107.209V192.084H95.8644V203.452Z" fill="#263238"/>
<path d="M126.816 191.441H114.191V204.092H126.816V191.441Z" fill="white"/>
<path d="M126.818 204.735H114.257C114.088 204.735 113.925 204.668 113.805 204.547C113.685 204.427 113.617 204.264 113.617 204.094V191.442C113.617 191.272 113.685 191.109 113.805 190.988C113.925 190.868 114.088 190.801 114.257 190.801H126.882C127.052 190.801 127.215 190.868 127.335 190.988C127.455 191.109 127.522 191.272 127.522 191.442V204.094C127.523 204.184 127.504 204.273 127.468 204.355C127.432 204.437 127.379 204.511 127.313 204.572C127.246 204.632 127.168 204.678 127.083 204.706C126.998 204.734 126.907 204.744 126.818 204.735ZM114.834 203.452H126.178V192.084H114.834V203.452Z" fill="#263238"/>
<path d="M145.752 191.441H133.127V204.092H145.752V191.441Z" fill="white"/>
<path d="M145.762 204.735H133.125C132.955 204.735 132.792 204.668 132.672 204.547C132.552 204.427 132.484 204.264 132.484 204.094V191.442C132.484 191.272 132.552 191.109 132.672 190.988C132.792 190.868 132.955 190.801 133.125 190.801H145.762C145.932 190.801 146.095 190.868 146.215 190.988C146.335 191.109 146.402 191.272 146.402 191.442V204.094C146.402 204.264 146.335 204.427 146.215 204.547C146.095 204.668 145.932 204.735 145.762 204.735ZM133.765 203.452H145.122V192.084H133.765V203.452Z" fill="#263238"/>
<path d="M164.701 191.441H152.076V204.092H164.701V191.441Z" fill="white"/>
<path d="M164.713 204.735H152.076C151.906 204.735 151.743 204.668 151.623 204.547C151.503 204.427 151.436 204.264 151.436 204.094V191.442C151.436 191.272 151.503 191.109 151.623 190.988C151.743 190.868 151.906 190.801 152.076 190.801H164.713C164.883 190.801 165.046 190.868 165.166 190.988C165.286 191.109 165.354 191.272 165.354 191.442V204.094C165.354 204.264 165.286 204.427 165.166 204.547C165.046 204.668 164.883 204.735 164.713 204.735ZM152.716 203.452H164.073V192.084H152.665L152.716 203.452Z" fill="#263238"/>
<path d="M183.652 191.441H171.027V204.092H183.652V191.441Z" fill="white"/>
<path d="M183.652 204.735H171.027C170.857 204.735 170.694 204.668 170.574 204.547C170.454 204.427 170.387 204.264 170.387 204.094V191.442C170.387 191.272 170.454 191.109 170.574 190.988C170.694 190.868 170.857 190.801 171.027 190.801H183.652C183.822 190.801 183.984 190.868 184.104 190.988C184.225 191.109 184.292 191.272 184.292 191.442V204.094C184.292 204.264 184.225 204.427 184.104 204.547C183.984 204.668 183.822 204.735 183.652 204.735ZM171.667 203.452H183.012V192.084H171.667V203.452Z" fill="#263238"/>
<path d="M202.59 191.441H189.965V204.092H202.59V191.441Z" fill="white"/>
<path d="M202.602 204.735H189.964C189.795 204.735 189.632 204.668 189.512 204.547C189.392 204.427 189.324 204.264 189.324 204.094V191.442C189.324 191.272 189.392 191.109 189.512 190.988C189.632 190.868 189.795 190.801 189.964 190.801H202.602C202.772 190.801 202.935 190.868 203.055 190.988C203.175 191.109 203.242 191.272 203.242 191.442V204.094C203.242 204.264 203.175 204.427 203.055 204.547C202.935 204.668 202.772 204.735 202.602 204.735ZM190.605 203.452H201.962V192.084H190.605V203.452Z" fill="#263238"/>
<path d="M221.541 191.441H208.916V204.092H221.541V191.441Z" fill="white"/>
<path d="M221.551 204.735H208.914C208.744 204.735 208.581 204.668 208.461 204.547C208.341 204.427 208.273 204.264 208.273 204.094V191.442C208.273 191.272 208.341 191.109 208.461 190.988C208.581 190.868 208.744 190.801 208.914 190.801H221.551C221.721 190.801 221.884 190.868 222.004 190.988C222.124 191.109 222.191 191.272 222.191 191.442V204.094C222.191 204.264 222.124 204.427 222.004 204.547C221.884 204.668 221.721 204.735 221.551 204.735ZM209.554 203.452H220.911V192.084H209.554V203.452Z" fill="#263238"/>
<path d="M240.486 191.441H227.861V204.092H240.486V191.441Z" fill="white"/>
<path d="M240.49 204.735H227.865C227.695 204.735 227.532 204.668 227.412 204.547C227.292 204.427 227.225 204.264 227.225 204.094V191.442C227.225 191.272 227.292 191.109 227.412 190.988C227.532 190.868 227.695 190.801 227.865 190.801H240.49C240.659 190.801 240.822 190.868 240.942 190.988C241.062 191.109 241.13 191.272 241.13 191.442V204.094C241.13 204.178 241.113 204.261 241.081 204.339C241.049 204.417 241.002 204.488 240.942 204.547C240.883 204.607 240.812 204.654 240.735 204.686C240.657 204.719 240.574 204.735 240.49 204.735ZM228.505 203.452H239.849V192.084H228.505V203.452Z" fill="#263238"/>
<path d="M107.863 210.071H95.2383V222.723H107.863V210.071Z" fill="white"/>
<path d="M107.849 223.365H95.2242C95.0544 223.365 94.8916 223.297 94.7715 223.177C94.6514 223.057 94.584 222.893 94.584 222.723V210.072C94.584 209.902 94.6514 209.738 94.7715 209.618C94.8916 209.498 95.0544 209.43 95.2242 209.43H107.849C108.019 209.43 108.182 209.498 108.302 209.618C108.422 209.738 108.489 209.902 108.489 210.072V222.723C108.489 222.893 108.422 223.057 108.302 223.177C108.182 223.297 108.019 223.365 107.849 223.365ZM95.8644 222.082H107.209V210.713H95.8644V222.082Z" fill="#263238"/>
<path d="M126.816 210.071H114.191V222.723H126.816V210.071Z" fill="white"/>
<path d="M126.818 223.365H114.257C114.088 223.365 113.925 223.297 113.805 223.177C113.685 223.057 113.617 222.893 113.617 222.723V210.072C113.617 209.902 113.685 209.738 113.805 209.618C113.925 209.498 114.088 209.43 114.257 209.43H126.882C127.052 209.43 127.215 209.498 127.335 209.618C127.455 209.738 127.522 209.902 127.522 210.072V222.723C127.523 222.813 127.504 222.902 127.468 222.985C127.432 223.067 127.379 223.141 127.313 223.201C127.246 223.262 127.168 223.307 127.083 223.336C126.998 223.364 126.907 223.374 126.818 223.365ZM114.834 222.082H126.178V210.713H114.834V222.082Z" fill="#263238"/>
<path d="M145.752 210.071H133.127V222.723H145.752V210.071Z" fill="white"/>
<path d="M145.762 223.365H133.125C132.955 223.365 132.792 223.297 132.672 223.177C132.552 223.057 132.484 222.893 132.484 222.723V210.072C132.484 209.902 132.552 209.738 132.672 209.618C132.792 209.498 132.955 209.43 133.125 209.43H145.762C145.932 209.43 146.095 209.498 146.215 209.618C146.335 209.738 146.402 209.902 146.402 210.072V222.723C146.402 222.893 146.335 223.057 146.215 223.177C146.095 223.297 145.932 223.365 145.762 223.365ZM133.765 222.082H145.122V210.713H133.765V222.082Z" fill="#263238"/>
<path d="M164.701 210.071H152.076V222.723H164.701V210.071Z" fill="white"/>
<path d="M164.713 223.365H152.076C151.906 223.365 151.743 223.297 151.623 223.177C151.503 223.057 151.436 222.893 151.436 222.723V210.072C151.436 209.902 151.503 209.738 151.623 209.618C151.743 209.498 151.906 209.43 152.076 209.43H164.713C164.883 209.43 165.046 209.498 165.166 209.618C165.286 209.738 165.354 209.902 165.354 210.072V222.723C165.354 222.893 165.286 223.057 165.166 223.177C165.046 223.297 164.883 223.365 164.713 223.365ZM152.716 222.082H164.073V210.713H152.665L152.716 222.082Z" fill="#263238"/>
<path d="M183.652 210.071H171.027V222.723H183.652V210.071Z" fill="white"/>
<path d="M183.652 223.365H171.027C170.857 223.365 170.694 223.297 170.574 223.177C170.454 223.057 170.387 222.893 170.387 222.723V210.072C170.387 209.902 170.454 209.738 170.574 209.618C170.694 209.498 170.857 209.43 171.027 209.43H183.652C183.822 209.43 183.984 209.498 184.104 209.618C184.225 209.738 184.292 209.902 184.292 210.072V222.723C184.292 222.893 184.225 223.057 184.104 223.177C183.984 223.297 183.822 223.365 183.652 223.365ZM171.667 222.082H183.012V210.713H171.667V222.082Z" fill="#263238"/>
<path d="M202.59 210.071H189.965V222.723H202.59V210.071Z" fill="white"/>
<path d="M202.602 223.365H189.964C189.795 223.365 189.632 223.297 189.512 223.177C189.392 223.057 189.324 222.893 189.324 222.723V210.072C189.324 209.902 189.392 209.738 189.512 209.618C189.632 209.498 189.795 209.43 189.964 209.43H202.602C202.772 209.43 202.935 209.498 203.055 209.618C203.175 209.738 203.242 209.902 203.242 210.072V222.723C203.242 222.893 203.175 223.057 203.055 223.177C202.935 223.297 202.772 223.365 202.602 223.365ZM190.605 222.082H201.962V210.713H190.605V222.082Z" fill="#263238"/>
<path d="M221.541 210.071H208.916V222.723H221.541V210.071Z" fill="white"/>
<path d="M221.551 223.365H208.914C208.744 223.365 208.581 223.297 208.461 223.177C208.341 223.057 208.273 222.893 208.273 222.723V210.072C208.273 209.902 208.341 209.738 208.461 209.618C208.581 209.498 208.744 209.43 208.914 209.43H221.551C221.721 209.43 221.884 209.498 222.004 209.618C222.124 209.738 222.191 209.902 222.191 210.072V222.723C222.191 222.893 222.124 223.057 222.004 223.177C221.884 223.297 221.721 223.365 221.551 223.365ZM209.554 222.082H220.911V210.713H209.554V222.082Z" fill="#263238"/>
<path d="M240.486 210.071H227.861V222.723H240.486V210.071Z" fill="white"/>
<path d="M240.49 223.365H227.865C227.695 223.365 227.532 223.297 227.412 223.177C227.292 223.057 227.225 222.893 227.225 222.723V210.072C227.225 209.902 227.292 209.738 227.412 209.618C227.532 209.498 227.695 209.43 227.865 209.43H240.49C240.659 209.43 240.822 209.498 240.942 209.618C241.062 209.738 241.13 209.902 241.13 210.072V222.723C241.13 222.808 241.113 222.891 241.081 222.969C241.049 223.047 241.002 223.117 240.942 223.177C240.883 223.236 240.812 223.284 240.735 223.316C240.657 223.348 240.574 223.365 240.49 223.365ZM228.505 222.082H239.849V210.713H228.505V222.082Z" fill="#263238"/>
<path d="M107.863 228.69H95.2383V241.342H107.863V228.69Z" fill="white"/>
<path d="M107.849 242.047H95.2242C95.0544 242.047 94.8916 241.98 94.7715 241.859C94.6514 241.739 94.584 241.576 94.584 241.406V228.741C94.584 228.571 94.6514 228.408 94.7715 228.288C94.8916 228.167 95.0544 228.1 95.2242 228.1H107.849C108.019 228.1 108.182 228.167 108.302 228.288C108.422 228.408 108.489 228.571 108.489 228.741V241.406C108.489 241.576 108.422 241.739 108.302 241.859C108.182 241.98 108.019 242.047 107.849 242.047ZM95.8644 240.764H107.209V229.383H95.8644V240.764Z" fill="#263238"/>
<path d="M126.816 228.69H114.191V241.342H126.816V228.69Z" fill="white"/>
<path d="M126.818 242.047H114.257C114.088 242.047 113.925 241.98 113.805 241.859C113.685 241.739 113.617 241.576 113.617 241.406V228.741C113.617 228.571 113.685 228.408 113.805 228.288C113.925 228.167 114.088 228.1 114.257 228.1H126.882C127.052 228.1 127.215 228.167 127.335 228.288C127.455 228.408 127.522 228.571 127.522 228.741V241.406C127.523 241.496 127.504 241.585 127.468 241.667C127.432 241.749 127.379 241.823 127.313 241.884C127.246 241.944 127.168 241.99 127.083 242.018C126.998 242.046 126.907 242.056 126.818 242.047ZM114.834 240.764H126.178V229.383H114.834V240.764Z" fill="#263238"/>
<path d="M145.752 228.69H133.127V241.342H145.752V228.69Z" fill="white"/>
<path d="M145.762 242.047H133.125C132.956 242.044 132.795 241.975 132.676 241.856C132.556 241.736 132.488 241.575 132.484 241.406V228.741C132.484 228.571 132.552 228.408 132.672 228.288C132.792 228.167 132.955 228.1 133.125 228.1H145.762C145.932 228.1 146.095 228.167 146.215 228.288C146.335 228.408 146.402 228.571 146.402 228.741V241.406C146.402 241.576 146.335 241.739 146.215 241.859C146.095 241.98 145.932 242.047 145.762 242.047ZM133.765 240.764H145.122V229.383H133.765V240.764Z" fill="#263238"/>
<path d="M164.701 228.69H152.076V241.342H164.701V228.69Z" fill="white"/>
<path d="M164.713 242.047H152.076C151.906 242.047 151.743 241.98 151.623 241.859C151.503 241.739 151.436 241.576 151.436 241.406V228.741C151.436 228.571 151.503 228.408 151.623 228.288C151.743 228.167 151.906 228.1 152.076 228.1H164.713C164.883 228.1 165.046 228.167 165.166 228.288C165.286 228.408 165.354 228.571 165.354 228.741V241.406C165.35 241.575 165.282 241.736 165.162 241.856C165.043 241.975 164.882 242.044 164.713 242.047ZM152.665 240.764H164.022V229.383H152.665V240.764Z" fill="#263238"/>
<path d="M183.652 228.69H171.027V241.342H183.652V228.69Z" fill="white"/>
<path d="M183.652 242.047H171.027C170.857 242.047 170.694 241.98 170.574 241.859C170.454 241.739 170.387 241.576 170.387 241.406V228.741C170.387 228.571 170.454 228.408 170.574 228.288C170.694 228.167 170.857 228.1 171.027 228.1H183.652C183.822 228.1 183.984 228.167 184.104 228.288C184.225 228.408 184.292 228.571 184.292 228.741V241.406C184.292 241.576 184.225 241.739 184.104 241.859C183.984 241.98 183.822 242.047 183.652 242.047ZM171.667 240.764H183.012V229.383H171.667V240.764Z" fill="#263238"/>
<path d="M202.59 228.69H189.965V241.342H202.59V228.69Z" fill="white"/>
<path d="M202.602 242.047H189.964C189.796 242.044 189.635 241.975 189.515 241.856C189.396 241.736 189.327 241.575 189.324 241.406V228.741C189.324 228.571 189.392 228.408 189.512 228.288C189.632 228.167 189.795 228.1 189.964 228.1H202.602C202.772 228.1 202.935 228.167 203.055 228.288C203.175 228.408 203.242 228.571 203.242 228.741V241.406C203.242 241.576 203.175 241.739 203.055 241.859C202.935 241.98 202.772 242.047 202.602 242.047ZM190.605 240.764H201.962V229.383H190.605V240.764Z" fill="#263238"/>
<path d="M221.541 228.69H208.916V241.342H221.541V228.69Z" fill="white"/>
<path d="M221.551 242.047H208.914C208.745 242.044 208.584 241.975 208.465 241.856C208.345 241.736 208.277 241.575 208.273 241.406V228.741C208.273 228.571 208.341 228.408 208.461 228.288C208.581 228.167 208.744 228.1 208.914 228.1H221.551C221.721 228.1 221.884 228.167 222.004 228.288C222.124 228.408 222.191 228.571 222.191 228.741V241.406C222.188 241.575 222.12 241.736 222 241.856C221.881 241.975 221.72 242.044 221.551 242.047ZM209.554 240.764H220.911V229.383H209.554V240.764Z" fill="#263238"/>
<path d="M240.486 228.69H227.861V241.342H240.486V228.69Z" fill="white"/>
<path d="M240.49 242.047H227.865C227.695 242.047 227.532 241.98 227.412 241.859C227.292 241.739 227.225 241.576 227.225 241.406V228.741C227.225 228.571 227.292 228.408 227.412 228.288C227.532 228.167 227.695 228.1 227.865 228.1H240.49C240.659 228.1 240.822 228.167 240.942 228.288C241.062 228.408 241.13 228.571 241.13 228.741V241.406C241.13 241.49 241.113 241.573 241.081 241.651C241.049 241.729 241.002 241.8 240.942 241.859C240.883 241.919 240.812 241.966 240.735 241.998C240.657 242.031 240.574 242.047 240.49 242.047ZM228.505 240.764H239.849V229.383H228.505V240.764Z" fill="#263238"/>
<path d="M107.863 247.321H95.2383V259.973H107.863V247.321Z" fill="white"/>
<path d="M107.849 260.614H95.2242C95.0544 260.614 94.8916 260.546 94.7715 260.426C94.6514 260.306 94.584 260.143 94.584 259.973V247.321C94.584 247.151 94.6514 246.988 94.7715 246.867C94.8916 246.747 95.0544 246.679 95.2242 246.679H107.849C108.019 246.679 108.182 246.747 108.302 246.867C108.422 246.988 108.489 247.151 108.489 247.321V260.011C108.479 260.174 108.408 260.328 108.289 260.44C108.17 260.552 108.012 260.614 107.849 260.614ZM95.8644 259.331H107.209V247.963H95.8644V259.331Z" fill="#263238"/>
<path d="M126.816 247.321H114.191V259.973H126.816V247.321Z" fill="white"/>
<path d="M126.818 260.614H114.257C114.088 260.614 113.925 260.546 113.805 260.426C113.685 260.306 113.617 260.143 113.617 259.973V247.321C113.617 247.151 113.685 246.988 113.805 246.867C113.925 246.747 114.088 246.679 114.257 246.679H126.882C127.052 246.679 127.215 246.747 127.335 246.867C127.455 246.988 127.522 247.151 127.522 247.321V260.011C127.518 260.098 127.495 260.182 127.457 260.26C127.419 260.338 127.365 260.407 127.299 260.464C127.233 260.52 127.157 260.562 127.074 260.588C126.991 260.614 126.904 260.623 126.818 260.614ZM114.834 259.331H126.178V247.963H114.834V259.331Z" fill="#263238"/>
<path d="M145.752 247.321H133.127V259.973H145.752V247.321Z" fill="white"/>
<path d="M145.762 260.614H133.125C132.955 260.614 132.792 260.546 132.672 260.426C132.552 260.306 132.484 260.143 132.484 259.973V247.321C132.484 247.151 132.552 246.988 132.672 246.867C132.792 246.747 132.955 246.679 133.125 246.679H145.762C145.932 246.679 146.095 246.747 146.215 246.867C146.335 246.988 146.402 247.151 146.402 247.321V260.011C146.393 260.174 146.321 260.328 146.202 260.44C146.083 260.552 145.926 260.614 145.762 260.614ZM133.765 259.331H145.122V247.963H133.765V259.331Z" fill="#263238"/>
<path d="M164.701 247.321H152.076V259.973H164.701V247.321Z" fill="white"/>
<path d="M164.713 260.614H152.076C151.906 260.614 151.743 260.546 151.623 260.426C151.503 260.306 151.436 260.143 151.436 259.973V247.321C151.436 247.151 151.503 246.988 151.623 246.867C151.743 246.747 151.906 246.679 152.076 246.679H164.713C164.883 246.679 165.046 246.747 165.166 246.867C165.286 246.988 165.354 247.151 165.354 247.321V260.011C165.344 260.174 165.272 260.328 165.153 260.44C165.034 260.552 164.877 260.614 164.713 260.614ZM152.716 259.331H164.073V247.963H152.665L152.716 259.331Z" fill="#263238"/>
<path d="M183.652 247.321H171.027V259.973H183.652V247.321Z" fill="white"/>
<path d="M183.652 260.614H171.027C170.857 260.614 170.694 260.546 170.574 260.426C170.454 260.306 170.387 260.143 170.387 259.973V247.321C170.387 247.151 170.454 246.988 170.574 246.867C170.694 246.747 170.857 246.679 171.027 246.679H183.652C183.822 246.679 183.984 246.747 184.104 246.867C184.225 246.988 184.292 247.151 184.292 247.321V260.011C184.282 260.174 184.21 260.328 184.091 260.44C183.972 260.552 183.815 260.614 183.652 260.614ZM171.667 259.331H183.012V247.963H171.667V259.331Z" fill="#263238"/>
<path d="M202.59 247.321H189.965V259.973H202.59V247.321Z" fill="white"/>
<path d="M202.602 260.614H189.964C189.795 260.614 189.632 260.546 189.512 260.426C189.392 260.306 189.324 260.143 189.324 259.973V247.321C189.324 247.151 189.392 246.988 189.512 246.867C189.632 246.747 189.795 246.679 189.964 246.679H202.602C202.772 246.679 202.935 246.747 203.055 246.867C203.175 246.988 203.242 247.151 203.242 247.321V260.011C203.232 260.174 203.161 260.328 203.042 260.44C202.923 260.552 202.765 260.614 202.602 260.614ZM190.605 259.331H201.962V247.963H190.605V259.331Z" fill="#263238"/>
<path d="M221.541 247.321H208.916V259.973H221.541V247.321Z" fill="white"/>
<path d="M221.551 260.614H208.914C208.744 260.614 208.581 260.546 208.461 260.426C208.341 260.306 208.273 260.143 208.273 259.973V247.321C208.273 247.151 208.341 246.988 208.461 246.867C208.581 246.747 208.744 246.679 208.914 246.679H221.551C221.721 246.679 221.884 246.747 222.004 246.867C222.124 246.988 222.191 247.151 222.191 247.321V260.011C222.182 260.174 222.11 260.328 221.991 260.44C221.872 260.552 221.715 260.614 221.551 260.614ZM209.554 259.331H220.911V247.963H209.554V259.331Z" fill="#263238"/>
<path d="M240.486 247.321H227.861V259.973H240.486V247.321Z" fill="white"/>
<path d="M240.49 260.614H227.865C227.695 260.614 227.532 260.546 227.412 260.426C227.292 260.306 227.225 260.143 227.225 259.973V247.321C227.225 247.151 227.292 246.988 227.412 246.867C227.532 246.747 227.695 246.679 227.865 246.679H240.49C240.659 246.679 240.822 246.747 240.942 246.867C241.062 246.988 241.13 247.151 241.13 247.321V260.011C241.12 260.174 241.048 260.328 240.929 260.44C240.81 260.552 240.653 260.614 240.49 260.614ZM228.505 259.331H239.849V247.963H228.505V259.331Z" fill="#263238"/>
<path d="M281.5 269C281.367 269 281.24 268.907 281.146 268.741C281.053 268.576 281 268.351 281 268.117V249.883C281 249.649 281.053 249.424 281.146 249.259C281.24 249.093 281.367 249 281.5 249C281.633 249 281.76 249.093 281.854 249.259C281.947 249.424 282 249.649 282 249.883V268.117C282 268.351 281.947 268.576 281.854 268.741C281.76 268.907 281.633 269 281.5 269Z" fill="#263238"/>
<path d="M304.923 268.224V197.768H281.709V249.144" fill="#263238"/>
<path d="M304.92 268.865C304.751 268.865 304.588 268.797 304.468 268.677C304.348 268.556 304.28 268.393 304.28 268.223V198.422H282.347V249.156C282.347 249.326 282.279 249.489 282.159 249.61C282.039 249.73 281.876 249.798 281.707 249.798C281.537 249.798 281.374 249.73 281.254 249.61C281.134 249.489 281.066 249.326 281.066 249.156V197.831C281.07 197.662 281.138 197.501 281.258 197.381C281.377 197.262 281.538 197.193 281.707 197.19H304.92C305.089 197.193 305.25 197.262 305.369 197.381C305.489 197.501 305.557 197.662 305.561 197.831V268.223C305.561 268.393 305.493 268.556 305.373 268.677C305.253 268.797 305.09 268.865 304.92 268.865Z" fill="#263238"/>
<path d="M451.375 268.224H323.82V148.932L387.597 114.314L451.375 148.932V268.224Z" fill="white"/>
<path d="M451.372 268.864H323.818C323.648 268.864 323.485 268.797 323.365 268.676C323.245 268.556 323.178 268.393 323.178 268.223V148.893C323.179 148.778 323.21 148.665 323.269 148.566C323.327 148.467 323.41 148.385 323.511 148.329L387.288 113.684C387.382 113.634 387.488 113.607 387.595 113.607C387.702 113.607 387.808 113.634 387.902 113.684L451.679 148.329C451.78 148.385 451.863 148.467 451.922 148.566C451.98 148.665 452.011 148.778 452.012 148.893V268.223C452.012 268.393 451.945 268.556 451.825 268.676C451.705 268.797 451.542 268.864 451.372 268.864ZM324.458 267.581H450.732V149.316L387.595 115.019L324.458 149.291V267.581Z" fill="#263238"/>
<path d="M461.111 154.013L387.59 114.096L314.069 154.013L311.777 149.779L387.59 108.617L463.403 149.779L461.111 154.013Z" fill="white"/>
<path d="M461.117 154.655C461.014 154.656 460.912 154.629 460.822 154.578L387.596 114.802L314.369 154.578C314.212 154.636 314.04 154.636 313.883 154.578C313.722 154.524 313.589 154.409 313.511 154.257L311.22 150.036C311.179 149.962 311.153 149.88 311.144 149.796C311.135 149.712 311.143 149.627 311.167 149.546C311.19 149.465 311.23 149.39 311.283 149.324C311.336 149.258 311.401 149.204 311.476 149.163L387.289 108.001C387.383 107.951 387.489 107.924 387.596 107.924C387.703 107.924 387.809 107.951 387.903 108.001L463.716 149.163C463.864 149.248 463.974 149.385 464.023 149.548C464.086 149.705 464.086 149.879 464.023 150.036L461.731 154.257C461.682 154.379 461.596 154.482 461.486 154.553C461.377 154.624 461.248 154.66 461.117 154.655ZM387.596 113.454C387.703 113.455 387.808 113.482 387.903 113.531L460.886 153.141L462.564 150.036L387.621 109.348L312.718 150.036L314.395 153.141L387.378 113.531C387.446 113.493 387.519 113.467 387.596 113.454Z" fill="#263238"/>
<path d="M323.82 148.932V151.832L387.597 117.214L451.375 151.832V148.932L387.597 114.314L323.82 148.932Z" fill="#263238"/>
<path d="M451.372 152.473C451.265 152.472 451.16 152.446 451.065 152.396L387.595 117.945L324.125 152.396C324.03 152.453 323.922 152.482 323.812 152.482C323.701 152.482 323.593 152.453 323.498 152.396C323.399 152.342 323.317 152.262 323.261 152.165C323.205 152.068 323.176 151.957 323.178 151.844V148.945C323.179 148.829 323.21 148.717 323.269 148.618C323.327 148.518 323.411 148.436 323.511 148.38L387.288 113.736C387.382 113.685 387.488 113.659 387.595 113.659C387.702 113.659 387.808 113.685 387.902 113.736L451.68 148.38C451.78 148.436 451.863 148.518 451.922 148.618C451.98 148.717 452.011 148.829 452.012 148.945V151.844C452.013 151.955 451.985 152.064 451.931 152.161C451.877 152.258 451.8 152.339 451.705 152.396C451.604 152.453 451.488 152.48 451.372 152.473ZM387.595 116.546C387.702 116.547 387.807 116.573 387.902 116.623L450.732 150.728V149.291L387.595 115.019L324.458 149.291V150.728L387.288 116.623C387.385 116.582 387.49 116.565 387.595 116.572V116.546Z" fill="#263238"/>
<path d="M359.697 177.905V165.33H414.729V228.01" fill="white"/>
<path d="M414.729 228.652C414.559 228.652 414.396 228.584 414.276 228.464C414.156 228.344 414.089 228.181 414.089 228.011V165.972H360.312V177.892C360.312 178.062 360.244 178.225 360.124 178.346C360.004 178.466 359.841 178.534 359.671 178.534C359.502 178.534 359.339 178.466 359.219 178.346C359.099 178.225 359.031 178.062 359.031 177.892V165.318C359.031 165.147 359.099 164.984 359.219 164.864C359.339 164.744 359.502 164.676 359.671 164.676H414.729C414.899 164.676 415.062 164.744 415.182 164.864C415.302 164.984 415.369 165.147 415.369 165.318V227.998C415.371 228.083 415.356 228.168 415.324 228.247C415.293 228.326 415.246 228.399 415.186 228.46C415.127 228.521 415.056 228.569 414.977 228.602C414.898 228.635 414.814 228.652 414.729 228.652Z" fill="#02044F"/>
<path d="M414.729 234.49V246.834H359.697V182.691" fill="white"/>
<path d="M414.729 247.475H359.671C359.502 247.475 359.339 247.407 359.219 247.287C359.099 247.166 359.031 247.003 359.031 246.833V182.677C359.031 182.507 359.099 182.344 359.219 182.224C359.339 182.103 359.502 182.036 359.671 182.036C359.841 182.036 360.004 182.103 360.124 182.224C360.244 182.344 360.312 182.507 360.312 182.677V246.179H414.089V234.477C414.089 234.307 414.156 234.143 414.276 234.023C414.396 233.903 414.559 233.835 414.729 233.835C414.899 233.835 415.062 233.903 415.182 234.023C415.302 234.143 415.369 234.307 415.369 234.477V246.82C415.369 246.992 415.302 247.156 415.182 247.279C415.063 247.401 414.9 247.471 414.729 247.475Z" fill="#263238"/>
<path d="M411.061 189.825H389.652V204.735H411.061V189.825Z" fill="#263238"/>
<path d="M411.053 205.376H389.658C389.488 205.376 389.325 205.309 389.205 205.188C389.085 205.068 389.018 204.905 389.018 204.735V189.825C389.018 189.655 389.085 189.492 389.205 189.371C389.325 189.251 389.488 189.183 389.658 189.183H411.053C411.223 189.183 411.386 189.251 411.506 189.371C411.626 189.492 411.694 189.655 411.694 189.825V204.735C411.694 204.905 411.626 205.068 411.506 205.188C411.386 205.309 411.223 205.376 411.053 205.376ZM390.298 204.093H410.413V190.466H390.298V204.093Z" fill="#E1EDF3"/>
<path d="M411.061 209.636H389.652V224.546H411.061V209.636Z" fill="#E1EDF3"/>
<path d="M411.053 225.175H389.658C389.488 225.175 389.325 225.107 389.205 224.987C389.085 224.866 389.018 224.703 389.018 224.533V209.636C389.018 209.466 389.085 209.303 389.205 209.183C389.325 209.062 389.488 208.995 389.658 208.995H411.053C411.223 208.995 411.386 209.062 411.506 209.183C411.626 209.303 411.694 209.466 411.694 209.636V224.533C411.694 224.703 411.626 224.866 411.506 224.987C411.386 225.107 411.223 225.175 411.053 225.175ZM390.298 223.892H410.413V210.278H390.298V223.892Z" fill="#263238"/>
<path d="M411.061 169H389.652V184.911H411.061V169Z" fill="#E1EDF3"/>
<path d="M411.053 185.591H389.658C389.488 185.591 389.325 185.524 389.205 185.403C389.085 185.283 389.018 185.12 389.018 184.95V169C389.018 168.83 389.085 168.667 389.205 168.547C389.325 168.426 389.488 168.359 389.658 168.359H411.053C411.223 168.359 411.386 168.426 411.506 168.547C411.626 168.667 411.694 168.83 411.694 169V184.924C411.697 185.01 411.683 185.096 411.652 185.177C411.622 185.258 411.575 185.332 411.515 185.394C411.456 185.457 411.384 185.506 411.304 185.54C411.225 185.574 411.14 185.591 411.053 185.591ZM390.298 184.308H410.413V169.642H390.298V184.308Z" fill="#263238"/>
<path d="M384.764 169H363.355V184.911H384.764V169Z" fill="#E1EDF3"/>
<path d="M384.769 185.591H363.361C363.191 185.591 363.028 185.524 362.908 185.403C362.788 185.283 362.721 185.12 362.721 184.95V169C362.721 168.83 362.788 168.667 362.908 168.547C363.028 168.426 363.191 168.359 363.361 168.359H384.769C384.938 168.362 385.099 168.431 385.218 168.55C385.338 168.67 385.406 168.831 385.41 169V184.924C385.411 185.01 385.396 185.095 385.365 185.175C385.334 185.255 385.287 185.328 385.227 185.39C385.168 185.452 385.097 185.502 385.018 185.536C384.94 185.571 384.855 185.589 384.769 185.591ZM364.001 184.308H384.129V169.642H364.001V184.308Z" fill="#263238"/>
<path d="M384.764 209.636H363.355V224.546H384.764V209.636Z" fill="#E1EDF3"/>
<path d="M384.769 225.175H363.361C363.191 225.175 363.028 225.107 362.908 224.987C362.788 224.866 362.721 224.703 362.721 224.533V209.636C362.721 209.466 362.788 209.303 362.908 209.183C363.028 209.062 363.191 208.995 363.361 208.995H384.769C384.939 208.995 385.102 209.062 385.222 209.183C385.342 209.303 385.41 209.466 385.41 209.636V224.533C385.41 224.703 385.342 224.866 385.222 224.987C385.102 225.107 384.939 225.175 384.769 225.175ZM364.001 223.892H384.129V210.278H364.001V223.892Z" fill="#263238"/>
<path d="M384.764 189.825H363.355V204.735H384.764V189.825Z" fill="#E1EDF3"/>
<path d="M384.769 205.376H363.361C363.191 205.376 363.028 205.309 362.908 205.188C362.788 205.068 362.721 204.905 362.721 204.735V189.825C362.721 189.655 362.788 189.492 362.908 189.371C363.028 189.251 363.191 189.183 363.361 189.183H384.769C384.939 189.183 385.102 189.251 385.222 189.371C385.342 189.492 385.41 189.655 385.41 189.825V204.735C385.406 204.904 385.338 205.065 385.218 205.185C385.099 205.304 384.938 205.373 384.769 205.376ZM364.001 204.093H384.129V190.466H364.001V204.093Z" fill="#263238"/>
<path d="M411.061 229.434H389.652V243.15H411.061V229.434Z" fill="#E1EDF3"/>
<path d="M411.053 243.793H389.658C389.488 243.793 389.325 243.725 389.205 243.605C389.085 243.485 389.018 243.321 389.018 243.151V229.435C389.018 229.265 389.085 229.101 389.205 228.981C389.325 228.861 389.488 228.793 389.658 228.793H411.053C411.223 228.793 411.386 228.861 411.506 228.981C411.626 229.101 411.694 229.265 411.694 229.435V243.151C411.694 243.321 411.626 243.485 411.506 243.605C411.386 243.725 411.223 243.793 411.053 243.793ZM390.298 242.51H410.413V230.076H390.298V242.51Z" fill="#263238"/>
<path d="M384.764 229.434H363.355V243.15H384.764V229.434Z" fill="#E1EDF3"/>
<path d="M384.769 243.793H363.361C363.191 243.793 363.028 243.725 362.908 243.605C362.788 243.485 362.721 243.321 362.721 243.151V229.435C362.721 229.265 362.788 229.101 362.908 228.981C363.028 228.861 363.191 228.793 363.361 228.793H384.769C384.938 228.796 385.099 228.865 385.218 228.985C385.338 229.104 385.406 229.266 385.41 229.435V243.151C385.41 243.321 385.342 243.485 385.222 243.605C385.102 243.725 384.939 243.793 384.769 243.793ZM364.001 242.51H384.129V230.076H364.001V242.51Z" fill="#263238"/>
<path opacity="0.5" d="M364.677 96.5969C348.317 87.8087 340.87 95.1276 334.918 87.8087C328.966 80.4898 351.278 61.4717 306.709 42.4536C306.709 42.4536 303.747 1.50645 242.705 0.0371192C181.662 -1.43221 197.994 41.1506 181.605 51.2695C165.216 61.3885 160.759 45.42 144.398 55.6498C128.038 65.8797 135.456 86.3671 122.057 89.3057C108.659 92.2444 90.8027 76.1372 74.4136 86.3671C58.0246 96.5969 58.0528 105.413 50.6058 105.413C43.1588 105.413 28.2648 99.5356 19.3509 105.413C10.4371 111.29 0 118.581 0 118.581H376.638C376.638 118.581 381.095 105.413 364.677 96.5969Z" fill="url(#paint0_linear_725_6658)"/>
<path opacity="0.5" d="M475.408 96.5413C455.536 87.7581 446.491 95.0728 439.262 87.7581C432.033 80.4434 459.134 61.4363 405 42.4291C405 42.4291 401.403 1.50558 327.26 0.0370978C253.118 -1.43138 272.956 41.1269 253.05 51.24C233.143 61.3531 227.73 45.3938 207.858 55.6178C187.987 65.8417 196.997 86.3173 180.723 89.2543C164.449 92.1913 142.761 76.0934 122.855 86.3173C102.949 96.5413 102.983 105.352 93.9382 105.352C84.8931 105.352 66.8029 99.4782 55.9762 105.352C45.1495 111.226 32.4727 118.513 32.4727 118.513H489.935C489.935 118.513 495.348 105.352 475.408 96.5413Z" fill="url(#paint1_linear_725_6658)"/>
<path d="M440.583 126.284C430.6 126.34 420.857 129.356 412.587 134.95C404.317 140.544 397.892 148.464 394.125 157.71C390.357 166.956 389.416 177.111 391.42 186.892C393.425 196.673 398.285 205.639 405.386 212.658C412.487 219.676 421.509 224.431 431.313 226.321C441.116 228.211 451.26 227.151 460.461 223.275C469.662 219.4 477.507 212.882 483.004 204.548C488.501 196.213 491.403 186.436 491.342 176.452C491.261 163.069 485.868 150.266 476.35 140.859C466.831 131.451 453.966 126.208 440.583 126.284ZM441.095 217.27C433.083 217.315 425.237 214.983 418.551 210.569C411.864 206.155 406.636 199.858 403.528 192.473C400.42 185.088 399.572 176.947 401.091 169.08C402.61 161.213 406.428 153.973 412.061 148.276C417.695 142.579 424.891 138.68 432.74 137.072C440.59 135.465 448.739 136.221 456.159 139.246C463.578 142.27 469.934 147.426 474.423 154.063C478.912 160.7 481.332 168.519 481.378 176.531C481.408 181.851 480.39 187.124 478.381 192.051C476.373 196.977 473.414 201.46 469.674 205.243C465.933 209.026 461.484 212.035 456.581 214.099C451.677 216.162 446.415 217.24 441.095 217.27Z" fill="white"/>
<path d="M440.86 227.611C434.18 227.629 427.562 226.332 421.383 223.792C415.204 221.252 409.587 217.52 404.85 212.81C395.285 203.296 389.89 190.372 389.854 176.88C389.817 163.389 395.141 150.436 404.655 140.87C414.169 131.305 427.093 125.91 440.585 125.874H440.876C454.367 125.837 467.32 131.162 476.886 140.676C486.451 150.19 491.846 163.114 491.882 176.605C491.919 190.096 486.594 203.049 477.081 212.615C467.567 222.18 454.643 227.575 441.151 227.611H440.86ZM440.86 126.661H440.569C433.992 126.68 427.483 127.994 421.415 130.529C415.346 133.063 409.835 136.769 405.199 141.433C400.562 146.097 396.889 151.628 394.389 157.712C391.89 163.795 390.614 170.311 390.633 176.888C390.652 183.465 391.966 189.974 394.501 196.043C397.035 202.111 400.74 207.622 405.404 212.259C414.824 221.623 427.578 226.863 440.86 226.824H441.151C454.434 226.788 467.158 221.476 476.524 212.058C485.89 202.64 491.132 189.887 491.095 176.605C491.059 163.322 485.747 150.598 476.329 141.232C466.911 131.866 454.158 126.625 440.876 126.661H440.86ZM440.86 217.647C430.271 217.289 420.233 212.838 412.857 205.231C405.482 197.623 401.345 187.452 401.315 176.857C401.286 166.261 405.366 156.067 412.699 148.419C420.032 140.77 430.045 136.263 440.632 135.846H440.86C451.45 136.204 461.488 140.655 468.863 148.262C476.238 155.87 480.375 166.041 480.405 176.637C480.435 187.232 476.354 197.426 469.021 205.075C461.689 212.723 451.676 217.23 441.088 217.647H440.86ZM441.088 216.86C451.469 216.447 461.286 212.025 468.474 204.523C475.662 197.022 479.662 187.026 479.632 176.637C479.603 166.247 475.546 156.274 468.316 148.814C461.085 141.354 451.243 136.987 440.86 136.633H440.632C430.251 137.047 420.434 141.469 413.246 148.97C406.058 156.471 402.058 166.467 402.088 176.857C402.117 187.246 406.174 197.219 413.405 204.679C420.635 212.14 430.477 216.506 440.86 216.86H441.088Z" fill="#02044F"/>
<path d="M440.57 123.395C430.587 123.451 420.844 126.467 412.575 132.06C404.306 137.653 397.881 145.573 394.113 154.818C390.344 164.063 389.402 174.217 391.405 183.997C393.409 193.778 398.267 202.744 405.366 209.763C412.466 216.782 421.487 221.538 431.29 223.43C441.092 225.322 451.235 224.264 460.437 220.391C469.638 216.518 477.484 210.003 482.983 201.671C488.482 193.338 491.386 183.562 491.328 173.579C491.251 160.193 485.861 147.387 476.342 137.976C466.823 128.564 453.955 123.32 440.57 123.395ZM441.081 214.373C433.069 214.42 425.222 212.089 418.534 207.676C411.846 203.263 406.617 196.965 403.508 189.58C400.4 182.195 399.551 174.053 401.069 166.186C402.588 158.318 406.406 151.077 412.04 145.379C417.673 139.682 424.871 135.783 432.721 134.175C440.571 132.568 448.721 133.325 456.141 136.351C463.561 139.376 469.917 144.534 474.405 151.171C478.893 157.809 481.312 165.629 481.356 173.642C481.415 184.383 477.205 194.708 469.652 202.347C462.1 209.985 451.823 214.311 441.081 214.373Z" fill="white"/>
<path d="M440.843 224.731C427.4 224.692 414.522 219.32 405.037 209.794C395.551 200.268 390.235 187.366 390.254 173.923C390.273 160.48 395.627 147.594 405.14 138.095C414.652 128.597 427.546 123.261 440.989 123.261C454.432 123.261 467.325 128.597 476.838 138.095C486.351 147.594 491.704 160.48 491.724 173.923C491.743 187.366 486.426 200.268 476.941 209.794C467.456 219.32 454.577 224.692 441.134 224.731H440.843ZM440.843 123.788H440.552C427.377 123.986 414.811 129.367 405.577 138.767C396.342 148.166 391.185 160.826 391.221 174.002C391.257 187.178 396.485 199.81 405.77 209.158C415.056 218.506 427.652 223.819 440.827 223.944H441.119C454.294 223.746 466.86 218.365 476.094 208.965C485.328 199.566 490.486 186.906 490.45 173.73C490.414 160.554 485.186 147.922 475.9 138.574C466.615 129.226 454.019 123.913 440.843 123.788ZM440.843 214.766C430.254 214.407 420.216 209.955 412.842 202.347C405.468 194.739 401.331 184.568 401.303 173.972C401.274 163.377 405.356 153.183 412.689 145.535C420.022 137.888 430.035 133.382 440.623 132.966H440.859C451.448 133.325 461.486 137.777 468.86 145.385C476.235 152.993 480.371 163.164 480.4 173.76C480.428 184.355 476.346 194.549 469.013 202.197C461.68 209.844 451.667 214.35 441.079 214.766H440.843ZM440.843 133.753H440.607C430.226 134.165 420.409 138.586 413.22 146.087C406.031 153.587 402.031 163.583 402.059 173.972C402.088 184.361 406.143 194.335 413.373 201.796C420.603 209.257 430.444 213.624 440.827 213.979H441.064C451.445 213.567 461.262 209.146 468.45 201.645C475.639 194.145 479.64 184.149 479.611 173.76C479.583 163.371 475.527 153.397 468.297 145.936C461.067 138.475 451.226 134.108 440.843 133.753Z" fill="#02044F"/>
<path d="M446.318 224.109L438.636 224.186C437.384 224.199 436.379 225.224 436.392 226.476L436.797 266.947C436.809 268.199 437.834 269.204 439.086 269.191L446.768 269.114C448.02 269.102 449.024 268.077 449.012 266.825L448.607 226.353C448.595 225.101 447.57 224.097 446.318 224.109Z" fill="#48CAE4"/>
<path d="M437.869 270.901C437.166 270.897 436.493 270.616 435.995 270.12C435.497 269.624 435.215 268.952 435.209 268.249L434.98 227.785C434.983 227.076 435.266 226.397 435.768 225.896C436.013 225.647 436.306 225.448 436.629 225.313C436.952 225.178 437.299 225.109 437.649 225.109L445.323 225.062C446.03 225.073 446.706 225.354 447.212 225.849C447.461 226.094 447.659 226.387 447.794 226.71C447.93 227.033 447.999 227.38 447.999 227.73L448.227 268.193C448.229 268.899 447.952 269.577 447.457 270.08C446.962 270.582 446.288 270.869 445.582 270.877L437.908 270.917L437.869 270.901ZM445.323 225.849L437.641 225.896C437.395 225.896 437.152 225.945 436.925 226.04C436.698 226.134 436.492 226.273 436.319 226.447C435.969 226.802 435.774 227.28 435.775 227.777L436.004 268.249C436.009 268.746 436.209 269.221 436.562 269.571C436.735 269.744 436.94 269.881 437.165 269.974C437.391 270.068 437.633 270.115 437.877 270.114L445.551 270.075C446.048 270.07 446.524 269.869 446.874 269.515C447.223 269.161 447.418 268.683 447.416 268.186L447.188 227.714C447.188 227.468 447.139 227.225 447.045 226.998C446.95 226.771 446.811 226.565 446.637 226.392C446.289 226.041 445.817 225.84 445.323 225.833V225.849Z" fill="#02044F"/>
<path d="M446.613 325.02L436.295 325.083C435.539 325.087 434.79 324.943 434.091 324.657C433.391 324.372 432.754 323.952 432.217 323.42C431.68 322.889 431.253 322.257 430.96 321.561C430.667 320.864 430.514 320.117 430.51 319.361V258.953C430.507 258.363 430.62 257.778 430.843 257.232C431.066 256.685 431.394 256.188 431.809 255.768C432.225 255.349 432.718 255.015 433.262 254.786C433.806 254.558 434.39 254.438 434.98 254.435L447.802 254.372C448.392 254.368 448.978 254.481 449.525 254.703C450.072 254.926 450.569 255.254 450.989 255.67C451.409 256.085 451.742 256.579 451.971 257.124C452.199 257.668 452.318 258.253 452.32 258.843V319.251C452.326 320.772 451.729 322.234 450.659 323.315C449.589 324.397 448.134 325.01 446.613 325.02Z" fill="#02044F"/>
<path d="M436.262 325.469C434.639 325.469 433.081 324.826 431.93 323.682C430.778 322.538 430.126 320.984 430.115 319.361V258.953C430.109 257.658 430.617 256.413 431.527 255.493C432.438 254.572 433.677 254.05 434.972 254.042L447.809 253.971C449.1 253.969 450.34 254.479 451.256 255.389C452.172 256.299 452.69 257.535 452.696 258.827V319.243C452.701 320.049 452.546 320.848 452.241 321.595C451.937 322.341 451.488 323.02 450.921 323.593C450.353 324.166 449.679 324.622 448.936 324.934C448.192 325.247 447.395 325.409 446.589 325.414L436.27 325.469H436.262ZM447.801 254.758L434.972 254.829C434.433 254.832 433.9 254.941 433.404 255.15C432.908 255.359 432.457 255.663 432.079 256.046C431.7 256.429 431.401 256.883 431.198 257.382C430.994 257.881 430.891 258.414 430.894 258.953V319.361C430.905 320.776 431.474 322.129 432.478 323.126C433.482 324.122 434.84 324.682 436.254 324.682L446.573 324.626C447.277 324.623 447.973 324.482 448.621 324.209C449.27 323.937 449.859 323.539 450.353 323.039C450.848 322.539 451.24 321.947 451.505 321.295C451.771 320.644 451.906 319.946 451.902 319.243V258.835C451.895 257.751 451.461 256.714 450.692 255.95C449.924 255.187 448.884 254.758 447.801 254.758Z" fill="#02044F"/>
<defs>
<linearGradient id="paint0_linear_725_6658" x1="188.595" y1="0" x2="188.595" y2="118.581" gradientUnits="userSpaceOnUse">
<stop stop-color="#9AC1D4" stop-opacity="0.57"/>
<stop offset="1" stop-color="#CCDFDC" stop-opacity="0"/>
</linearGradient>
<linearGradient id="paint1_linear_725_6658" x1="261.539" y1="0" x2="261.539" y2="118.513" gradientUnits="userSpaceOnUse">
<stop stop-color="#9AC1D4" stop-opacity="0.57"/>
<stop offset="1" stop-color="#CCDFDC" stop-opacity="0"/>
</linearGradient>
</defs>
</svg>
