<svg width="166" height="166" viewBox="0 0 166 166" fill="none" xmlns="http://www.w3.org/2000/svg">
<path d="M163.233 160.467H151.996C152.114 159.557 152.167 158.629 152.167 157.7C152.167 149.891 147.673 143.244 141.1 140.166V47.0332C141.1 45.3732 139.994 44.2666 138.334 44.2666H96.8338V2.76656C96.8338 1.10656 95.7272 7.12274e-08 94.0672 7.12274e-08H19.3672C17.7066 -0.000324148 16.6 1.10624 16.6 2.76624V160.467H2.76656C1.10656 160.467 0 161.573 0 163.233C0 164.893 1.10656 166 2.76656 166H19.3666H27.6666H94.0666H148.57H163.233C164.893 166 166 164.893 166 163.233C166 161.573 164.893 160.467 163.233 160.467ZM135.567 138.529C134.664 138.402 133.741 138.333 132.8 138.333C130.711 138.333 128.663 138.689 126.727 139.354C126.245 138.711 125.468 138.333 124.5 138.333C122.84 138.333 121.733 139.44 121.733 141.1V141.947C120.685 142.703 119.71 143.565 118.825 144.523C118.685 144.671 118.548 144.82 118.413 144.973C116.121 142.107 113.168 140.034 109.829 139.025C109.35 138.585 108.688 138.333 107.9 138.333C107.592 138.333 107.302 138.371 107.036 138.444C106.411 138.371 105.776 138.333 105.133 138.333C103.4 138.333 101.447 138.558 99.8652 139.2C99.6694 139.266 99.4749 139.334 99.2823 139.407C97.3703 137.853 95.1342 136.734 92.7778 136.118C92.7528 136.112 92.7272 136.107 92.7026 136.1C92.497 136.047 92.2908 135.997 92.0836 135.952C91.9157 135.915 91.7458 135.883 91.5762 135.851C91.5026 135.837 91.429 135.823 91.3551 135.81C91.1771 135.779 90.9985 135.752 90.8185 135.727C90.7381 135.716 90.6577 135.706 90.577 135.696C90.412 135.675 90.2463 135.656 90.0796 135.641C89.9581 135.629 89.8362 135.621 89.7142 135.612C89.5839 135.603 89.4539 135.592 89.3226 135.586C89.0597 135.574 88.7967 135.566 88.5334 135.566C88.3298 135.566 88.1278 135.57 87.9268 135.578C87.7952 135.582 87.6639 135.59 87.5326 135.598C87.4801 135.601 87.4269 135.603 87.3744 135.607C84.8539 135.774 82.3775 136.485 80.2331 137.745V49.7998H94.0666H135.567V138.529ZM22.1334 5.53313H91.3V44.2666H77.4666C75.8066 44.2666 74.7 45.3732 74.7 47.0332V133.077C73.2861 131.663 71.6562 130.467 69.8818 129.531C69.7252 129.447 69.567 129.366 69.4081 129.287C69.3455 129.256 69.2836 129.224 69.2207 129.194C67.2462 128.236 65.0976 127.608 62.8524 127.373C62.8209 127.37 62.7892 127.367 62.7574 127.364C62.4967 127.338 62.2348 127.317 61.9715 127.302C61.9018 127.298 61.8321 127.294 61.7621 127.29C61.4647 127.276 61.1665 127.267 60.8666 127.267C56.749 127.267 52.9342 128.621 49.8 130.897V130.034C49.8 128.374 48.6934 127.267 47.0334 127.267C45.3734 127.267 44.2669 128.374 44.2669 130.034V135.567C44.2669 135.982 44.3359 136.362 44.4656 136.7C43.1072 138.938 42.1711 141.462 41.7769 144.144C38.5918 144.508 35.6793 145.654 33.2003 147.368V146.634C33.2003 144.974 32.0938 143.867 30.4338 143.867C28.7738 143.867 27.6672 144.974 27.6672 146.634V152.167C27.6672 152.49 27.7103 152.792 27.7901 153.068C26.4183 155.287 25.4849 157.798 25.1004 160.467H22.1341V5.53313H22.1334ZM43.0076 149.457C43.0624 149.452 43.1179 149.449 43.173 149.445C43.3189 149.434 43.4648 149.423 43.612 149.416C43.8289 149.406 44.0471 149.4 44.2669 149.4C45.9269 149.4 47.0334 148.293 47.0334 146.633C47.0334 138.886 53.12 132.8 60.8669 132.8C67.7834 132.8 73.5934 137.78 74.4234 144.696C74.6105 145.444 75.0547 146.061 75.6623 146.471C75.7005 146.498 75.7398 146.523 75.7796 146.548C75.8224 146.574 75.8649 146.601 75.9093 146.625C76.0115 146.681 76.1178 146.733 76.2287 146.777C76.2329 146.779 76.2368 146.781 76.241 146.783C76.3678 146.833 76.5001 146.876 76.6366 146.91C76.6369 146.91 76.6369 146.91 76.6372 146.91C76.8019 146.965 76.989 146.986 77.1868 146.98C78.0962 146.993 78.9421 146.496 79.4034 145.804C79.4034 145.804 79.4038 145.804 79.4041 145.803L79.6806 145.527C81.8941 142.76 84.9372 141.1 88.5341 141.1C90.4022 141.1 92.2694 141.624 93.9453 142.602C90.6451 145.705 88.7737 149.75 88.5561 154.079C88.5415 154.362 88.5341 154.647 88.5341 154.934C88.5341 156.858 88.8541 158.701 89.4873 160.467H30.71C32.0049 154.51 36.9363 150.009 43.0076 149.457ZM96.0187 160.467C94.9617 158.679 94.3434 156.565 94.3434 154.657C94.3434 151.597 95.5495 148.841 97.6226 146.826C98.0188 146.459 98.4412 146.12 98.8874 145.813C99.3196 145.816 99.7543 145.726 100.153 145.527C106.24 142.207 113.433 145.25 115.647 151.337C115.923 152.167 116.753 152.997 118.137 152.997C118.399 152.997 118.69 152.913 118.982 152.764C119.676 152.651 120.225 152.141 120.627 151.337C121.699 149.058 123.359 147.239 125.38 145.964C125.816 145.843 126.19 145.627 126.488 145.335C128.388 144.38 130.542 143.867 132.8 143.867C140.547 143.867 146.634 149.953 146.634 157.7C146.634 158.53 146.634 159.637 146.357 160.467H96.0187Z" fill="#E1EDF3"/>
<path d="M91.2978 71.9329C89.6378 71.9329 88.5312 73.0394 88.5312 74.6994V80.2329C88.5312 81.8929 89.6378 82.9994 91.2978 82.9994C92.9578 82.9994 94.0644 81.8929 94.0644 80.2329V74.6994C94.0644 73.0394 92.9578 71.9329 91.2978 71.9329Z" fill="#E1EDF3"/>
<path d="M91.2978 121.734C89.6378 121.734 88.5312 122.84 88.5312 124.5V130.034C88.5312 131.694 89.6378 132.8 91.2978 132.8C92.9578 132.8 94.0644 131.694 94.0644 130.034V124.5C94.0644 122.84 92.9578 121.734 91.2978 121.734Z" fill="#E1EDF3"/>
<path d="M91.2978 88.5337C89.6378 88.5337 88.5312 89.6403 88.5312 91.3003V96.8337C88.5312 98.4937 89.6378 99.6003 91.2978 99.6003C92.9578 99.6003 94.0644 98.4937 94.0644 96.8337V91.3003C94.0644 89.6403 92.9578 88.5337 91.2978 88.5337Z" fill="#E1EDF3"/>
<path d="M91.2978 105.133C89.6378 105.133 88.5312 106.239 88.5312 107.899V113.433C88.5312 115.093 89.6378 116.199 91.2978 116.199C92.9578 116.199 94.0644 115.093 94.0644 113.433V107.899C94.0644 106.239 92.9578 105.133 91.2978 105.133Z" fill="#E1EDF3"/>
<path d="M91.2978 55.3333C89.6378 55.3333 88.5312 56.4398 88.5312 58.0998V63.6333C88.5312 65.2933 89.6378 66.3998 91.2978 66.3998C92.9578 66.3998 94.0644 65.2933 94.0644 63.6333V58.0998C94.0644 56.4398 92.9578 55.3333 91.2978 55.3333Z" fill="#E1EDF3"/>
<path d="M107.901 82.9994C109.561 82.9994 110.668 81.8929 110.668 80.2329V74.6994C110.668 73.0394 109.561 71.9329 107.901 71.9329C106.241 71.9329 105.135 73.0394 105.135 74.6994V80.2329C105.135 81.8929 106.241 82.9994 107.901 82.9994Z" fill="#E1EDF3"/>
<path d="M107.901 66.3998C109.561 66.3998 110.668 65.2933 110.668 63.6333V58.0998C110.668 56.4398 109.561 55.3333 107.901 55.3333C106.241 55.3333 105.135 56.4398 105.135 58.0998V63.6333C105.135 65.2933 106.241 66.3998 107.901 66.3998Z" fill="#E1EDF3"/>
<path d="M107.901 99.6003C109.561 99.6003 110.668 98.4937 110.668 96.8337V91.3003C110.668 89.6403 109.561 88.5337 107.901 88.5337C106.241 88.5337 105.135 89.6403 105.135 91.3003V96.8337C105.135 98.4937 106.241 99.6003 107.901 99.6003Z" fill="#E1EDF3"/>
<path d="M107.901 116.199C109.561 116.199 110.668 115.093 110.668 113.433V107.899C110.668 106.239 109.561 105.133 107.901 105.133C106.241 105.133 105.135 106.239 105.135 107.899V113.433C105.135 115.093 106.241 116.199 107.901 116.199Z" fill="#E1EDF3"/>
<path d="M107.901 132.8C109.561 132.8 110.668 131.694 110.668 130.034V124.5C110.668 122.84 109.561 121.734 107.901 121.734C106.241 121.734 105.135 122.84 105.135 124.5V130.034C105.135 131.694 106.241 132.8 107.901 132.8Z" fill="#E1EDF3"/>
<path d="M124.501 99.6003C126.161 99.6003 127.267 98.4937 127.267 96.8337V91.3003C127.267 89.6403 126.161 88.5337 124.501 88.5337C122.841 88.5337 121.734 89.6403 121.734 91.3003V96.8337C121.734 98.4937 122.841 99.6003 124.501 99.6003Z" fill="#E1EDF3"/>
<path d="M124.501 82.9994C126.161 82.9994 127.267 81.8929 127.267 80.2329V74.6994C127.267 73.0394 126.161 71.9329 124.501 71.9329C122.841 71.9329 121.734 73.0394 121.734 74.6994V80.2329C121.734 81.8929 122.841 82.9994 124.501 82.9994Z" fill="#E1EDF3"/>
<path d="M124.501 132.8C126.161 132.8 127.267 131.694 127.267 130.034V124.5C127.267 122.84 126.161 121.734 124.501 121.734C122.841 121.734 121.734 122.84 121.734 124.5V130.034C121.734 131.694 122.841 132.8 124.501 132.8Z" fill="#E1EDF3"/>
<path d="M124.501 116.199C126.161 116.199 127.267 115.093 127.267 113.433V107.899C127.267 106.239 126.161 105.133 124.501 105.133C122.841 105.133 121.734 106.239 121.734 107.899V113.433C121.734 115.093 122.841 116.199 124.501 116.199Z" fill="#E1EDF3"/>
<path d="M124.501 66.3998C126.161 66.3998 127.267 65.2933 127.267 63.6333V58.0998C127.267 56.4398 126.161 55.3333 124.501 55.3333C122.841 55.3333 121.734 56.4398 121.734 58.0998V63.6333C121.734 65.2933 122.841 66.3998 124.501 66.3998Z" fill="#E1EDF3"/>
<path d="M30.4335 105.134C32.0935 105.134 33.2001 104.027 33.2001 102.367V96.8337C33.2001 95.1737 32.0935 94.0671 30.4335 94.0671C28.7735 94.0671 27.667 95.1737 27.667 96.8337V102.367C27.6667 104.027 28.7735 105.134 30.4335 105.134Z" fill="#E1EDF3"/>
<path d="M30.4335 121.733C32.0935 121.733 33.2001 120.627 33.2001 118.967V113.433C33.2001 111.773 32.0935 110.667 30.4335 110.667C28.7735 110.667 27.667 111.773 27.667 113.433V118.967C27.6667 120.626 28.7735 121.733 30.4335 121.733Z" fill="#E1EDF3"/>
<path d="M30.4335 138.333C32.0935 138.333 33.2001 137.226 33.2001 135.566V130.033C33.2001 128.373 32.0935 127.266 30.4335 127.266C28.7735 127.266 27.667 128.373 27.667 130.033V135.566C27.6667 137.226 28.7735 138.333 30.4335 138.333Z" fill="#E1EDF3"/>
<path d="M30.4335 22.1337C32.0935 22.1337 33.2001 21.0272 33.2001 19.3672V13.8337C33.2001 12.1737 32.0935 11.0671 30.4335 11.0671C28.7735 11.0671 27.667 12.1737 27.667 13.8337V19.3672C27.6667 21.0268 28.7735 22.1337 30.4335 22.1337Z" fill="#E1EDF3"/>
<path d="M30.4335 38.7333C32.0935 38.7333 33.2001 37.6268 33.2001 35.9668V30.4333C33.2001 28.7733 32.0935 27.6667 30.4335 27.6667C28.7735 27.6667 27.667 28.7733 27.667 30.4333V35.9668C27.6667 37.6264 28.7735 38.7333 30.4335 38.7333Z" fill="#E1EDF3"/>
<path d="M30.4335 55.3327C32.0935 55.3327 33.2001 54.2261 33.2001 52.5661V47.0327C33.2001 45.3727 32.0935 44.2661 30.4335 44.2661C28.7735 44.2661 27.667 45.3727 27.667 47.0327V52.5661C27.6667 54.2258 28.7735 55.3327 30.4335 55.3327Z" fill="#E1EDF3"/>
<path d="M30.4335 71.9338C32.0935 71.9338 33.2001 70.8272 33.2001 69.1672V63.6338C33.2001 61.9737 32.0935 60.8672 30.4335 60.8672C28.7735 60.8672 27.667 61.9737 27.667 63.6338V69.1672C27.6667 70.8269 28.7735 71.9338 30.4335 71.9338Z" fill="#E1EDF3"/>
<path d="M30.4335 88.5329C32.0935 88.5329 33.2001 87.4263 33.2001 85.7663V80.2329C33.2001 78.5729 32.0935 77.4663 30.4335 77.4663C28.7735 77.4663 27.667 78.5729 27.667 80.2329V85.7663C27.6667 87.426 28.7735 88.5329 30.4335 88.5329Z" fill="#E1EDF3"/>
<path d="M47.0322 38.7333C48.6922 38.7333 49.7987 37.6268 49.7987 35.9668V30.4333C49.7987 28.7733 48.6922 27.6667 47.0322 27.6667C45.3722 27.6667 44.2656 28.7733 44.2656 30.4333V35.9668C44.2653 37.6264 45.3722 38.7333 47.0322 38.7333Z" fill="#E1EDF3"/>
<path d="M47.0322 22.1337C48.6922 22.1337 49.7987 21.0272 49.7987 19.3672V13.8337C49.7987 12.1737 48.6922 11.0671 47.0322 11.0671C45.3722 11.0671 44.2656 12.1737 44.2656 13.8337V19.3672C44.2653 21.0268 45.3722 22.1337 47.0322 22.1337Z" fill="#E1EDF3"/>
<path d="M47.0322 71.9338C48.6922 71.9338 49.7987 70.8272 49.7987 69.1672V63.6338C49.7987 61.9737 48.6922 60.8672 47.0322 60.8672C45.3722 60.8672 44.2656 61.9737 44.2656 63.6338V69.1672C44.2653 70.8269 45.3722 71.9338 47.0322 71.9338Z" fill="#E1EDF3"/>
<path d="M47.0322 55.3327C48.6922 55.3327 49.7987 54.2261 49.7987 52.5661V47.0327C49.7987 45.3727 48.6922 44.2661 47.0322 44.2661C45.3722 44.2661 44.2656 45.3727 44.2656 47.0327V52.5661C44.2653 54.2258 45.3722 55.3327 47.0322 55.3327Z" fill="#E1EDF3"/>
<path d="M47.0322 88.5329C48.6922 88.5329 49.7987 87.4263 49.7987 85.7663V80.2329C49.7987 78.5729 48.6922 77.4663 47.0322 77.4663C45.3722 77.4663 44.2656 78.5729 44.2656 80.2329V85.7663C44.2653 87.426 45.3722 88.5329 47.0322 88.5329Z" fill="#E1EDF3"/>
<path d="M47.0322 105.134C48.6922 105.134 49.7987 104.027 49.7987 102.367V96.8337C49.7987 95.1737 48.6922 94.0671 47.0322 94.0671C45.3722 94.0671 44.2656 95.1737 44.2656 96.8337V102.367C44.2653 104.027 45.3722 105.134 47.0322 105.134Z" fill="#E1EDF3"/>
<path d="M47.0322 121.733C48.6922 121.733 49.7987 120.627 49.7987 118.967V113.433C49.7987 111.773 48.6922 110.667 47.0322 110.667C45.3722 110.667 44.2656 111.773 44.2656 113.433V118.967C44.2653 120.626 45.3722 121.733 47.0322 121.733Z" fill="#E1EDF3"/>
<path d="M63.6318 55.3327C65.2918 55.3327 66.3984 54.2261 66.3984 52.5661V47.0327C66.3984 45.3727 65.2918 44.2661 63.6318 44.2661C61.9718 44.2661 60.8652 45.3727 60.8652 47.0327V52.5661C60.8649 54.2258 61.9718 55.3327 63.6318 55.3327Z" fill="#E1EDF3"/>
<path d="M63.6318 38.7333C65.2918 38.7333 66.3984 37.6268 66.3984 35.9668V30.4333C66.3984 28.7733 65.2918 27.6667 63.6318 27.6667C61.9718 27.6667 60.8652 28.7733 60.8652 30.4333V35.9668C60.8649 37.6264 61.9718 38.7333 63.6318 38.7333Z" fill="#E1EDF3"/>
<path d="M63.6318 22.1337C65.2918 22.1337 66.3984 21.0272 66.3984 19.3672V13.8337C66.3984 12.1737 65.2918 11.0671 63.6318 11.0671C61.9718 11.0671 60.8652 12.1737 60.8652 13.8337V19.3672C60.8649 21.0268 61.9718 22.1337 63.6318 22.1337Z" fill="#E1EDF3"/>
<path d="M63.6318 121.733C65.2918 121.733 66.3984 120.627 66.3984 118.967V113.433C66.3984 111.773 65.2918 110.667 63.6318 110.667C61.9718 110.667 60.8652 111.773 60.8652 113.433V118.967C60.8649 120.626 61.9718 121.733 63.6318 121.733Z" fill="#E1EDF3"/>
<path d="M63.6318 105.134C65.2918 105.134 66.3984 104.027 66.3984 102.367V96.8337C66.3984 95.1737 65.2918 94.0671 63.6318 94.0671C61.9718 94.0671 60.8652 95.1737 60.8652 96.8337V102.367C60.8649 104.027 61.9718 105.134 63.6318 105.134Z" fill="#E1EDF3"/>
<path d="M63.6318 88.5329C65.2918 88.5329 66.3984 87.4263 66.3984 85.7663V80.2329C66.3984 78.5729 65.2918 77.4663 63.6318 77.4663C61.9718 77.4663 60.8652 78.5729 60.8652 80.2329V85.7663C60.8649 87.426 61.9718 88.5329 63.6318 88.5329Z" fill="#E1EDF3"/>
<path d="M63.6318 71.9338C65.2918 71.9338 66.3984 70.8272 66.3984 69.1672V63.6338C66.3984 61.9737 65.2918 60.8672 63.6318 60.8672C61.9718 60.8672 60.8652 61.9737 60.8652 63.6338V69.1672C60.8649 70.8269 61.9718 71.9338 63.6318 71.9338Z" fill="#E1EDF3"/>
<path d="M80.2353 38.7333C81.8953 38.7333 83.0019 37.6268 83.0019 35.9668V30.4333C83.0019 28.7733 81.8953 27.6667 80.2353 27.6667C78.5753 27.6667 77.4688 28.7733 77.4688 30.4333V35.9668C77.4684 37.6264 78.5753 38.7333 80.2353 38.7333Z" fill="#E1EDF3"/>
<path d="M80.2353 22.1337C81.8953 22.1337 83.0019 21.0272 83.0019 19.3672V13.8337C83.0019 12.1737 81.8953 11.0671 80.2353 11.0671C78.5753 11.0671 77.4688 12.1737 77.4688 13.8337V19.3672C77.4684 21.0268 78.5753 22.1337 80.2353 22.1337Z" fill="#E1EDF3"/>
</svg>
