<svg width="32" height="32" viewBox="0 0 32 32" fill="none" xmlns="http://www.w3.org/2000/svg">
<rect width="32" height="32" rx="4" fill="#EB2424" fill-opacity="0.1"/>
<g clip-path="url(#clip0_920_5260)">
<path d="M20.8082 21.1917C20.6519 21.0354 20.3985 21.0354 20.2422 21.1917L16.3998 25.0345V14.0001C16.3998 13.7792 16.2207 13.6001 15.9998 13.6001C15.7789 13.6001 15.5998 13.7792 15.5998 14.0001V25.0345L11.7574 21.1917C11.6011 21.0354 11.3477 21.0354 11.1914 21.1917C11.0351 21.348 11.0351 21.6014 11.1914 21.7577L15.7166 26.2825C15.8726 26.4389 16.1259 26.4392 16.2823 26.2832C16.2826 26.2829 16.2828 26.2827 16.283 26.2825L20.8082 21.7577C20.9645 21.6014 20.9645 21.348 20.8082 21.1917Z" fill="#EB2424"/>
<path d="M26.8 5.6001H5.2C4.53725 5.6001 4 6.13735 4 6.8001V21.2001C4 21.8628 4.53725 22.4001 5.2 22.4001H9.2C9.4209 22.4001 9.6 22.221 9.6 22.0001C9.6 21.7792 9.4209 21.6001 9.2 21.6001H5.2C4.9791 21.6001 4.8 21.421 4.8 21.2001V10.4001H27.2V21.2001C27.2 21.421 27.0209 21.6001 26.8 21.6001H22.8C22.5791 21.6001 22.4 21.7792 22.4 22.0001C22.4 22.221 22.5791 22.4001 22.8 22.4001H26.8C27.4628 22.4001 28 21.8628 28 21.2001V6.8001C28 6.13735 27.4628 5.6001 26.8 5.6001ZM27.2 8.8001H4.8V6.8001C4.8 6.5792 4.9791 6.4001 5.2 6.4001H26.8C27.0209 6.4001 27.2 6.5792 27.2 6.8001V8.8001Z" fill="#EB2424"/>
</g>
<defs>
<clipPath id="clip0_920_5260">
<rect width="24" height="24" fill="white" transform="translate(4 4)"/>
</clipPath>
</defs>
</svg>
