<svg width="32" height="32" viewBox="0 0 32 32" fill="none" xmlns="http://www.w3.org/2000/svg">
<rect width="32" height="32" rx="4" fill="#CCDFDC"/>
<g clip-path="url(#clip0_920_5260)">
<path d="M11.1918 10.8083C11.3481 10.9646 11.6015 10.9646 11.7578 10.8083L15.6002 6.9655L15.6002 17.9999C15.6002 18.2208 15.7793 18.3999 16.0002 18.3999C16.2211 18.3999 16.4002 18.2208 16.4002 17.9999V6.9655L20.2426 10.8083C20.3989 10.9646 20.6523 10.9646 20.8086 10.8083C20.9649 10.652 20.9649 10.3986 20.8086 10.2423L16.2834 5.7175C16.1274 5.5611 15.8741 5.56075 15.7177 5.7168C15.7174 5.71705 15.7172 5.7173 15.717 5.7175L11.1918 10.2423C11.0355 10.3986 11.0355 10.652 11.1918 10.8083Z" fill="#02044F"/>
<path d="M5.2 26.3999L26.8 26.3999C27.4628 26.3999 28 25.8627 28 25.1999L28 10.7999C28 10.1372 27.4628 9.5999 26.8 9.5999H22.8C22.5791 9.5999 22.4 9.779 22.4 9.9999C22.4 10.2208 22.5791 10.3999 22.8 10.3999H26.8C27.0209 10.3999 27.2 10.579 27.2 10.7999L27.2 21.5999L4.8 21.5999L4.8 10.7999C4.8 10.579 4.9791 10.3999 5.2 10.3999H9.2C9.4209 10.3999 9.6 10.2208 9.6 9.9999C9.6 9.779 9.4209 9.5999 9.2 9.5999H5.2C4.53725 9.5999 4 10.1372 4 10.7999L4 25.1999C4 25.8627 4.53725 26.3999 5.2 26.3999ZM4.8 23.1999L27.2 23.1999V25.1999C27.2 25.4208 27.0209 25.5999 26.8 25.5999L5.2 25.5999C4.9791 25.5999 4.8 25.4208 4.8 25.1999V23.1999Z" fill="#02044F"/>
</g>
<defs>
<clipPath id="clip0_920_5260">
<rect width="24" height="24" fill="white" transform="translate(28 28) rotate(-180)"/>
</clipPath>
</defs>
</svg>
