<svg width="32" height="32" viewBox="0 0 32 32" fill="none" xmlns="http://www.w3.org/2000/svg">
<rect width="32" height="32" rx="4" fill="#CAF0F8"/>
<g clip-path="url(#clip0_920_5272)">
<path d="M14.8858 17.0984C14.8414 17.0888 14.7958 17.087 14.7508 17.0938C14.3001 17.0413 13.96 16.6599 13.9593 16.2063C13.9593 15.9889 13.783 15.8126 13.5656 15.8126C13.3482 15.8126 13.1719 15.9889 13.1719 16.2063C13.1731 16.9638 13.6798 17.6274 14.4102 17.8278V18.2215C14.4102 18.4389 14.5865 18.6152 14.8039 18.6152C15.0213 18.6152 15.1975 18.4389 15.1975 18.2215V17.8517C16.0406 17.6752 16.6136 16.89 16.525 16.0333C16.4362 15.1765 15.7144 14.5255 14.8531 14.5253C14.3595 14.5253 13.9593 14.1251 13.9593 13.6315C13.9593 13.1378 14.3595 12.7376 14.8531 12.7376C15.3467 12.7376 15.7469 13.1378 15.7469 13.6315C15.7469 13.8489 15.9232 14.0251 16.1406 14.0251C16.358 14.0251 16.5343 13.8489 16.5343 13.6315C16.5331 12.8361 15.9758 12.15 15.1975 11.9859V11.6276C15.1975 11.4102 15.0213 11.2339 14.8039 11.2339C14.5865 11.2339 14.4102 11.4102 14.4102 11.6276V12.0099C13.5979 12.2317 13.075 13.0204 13.1869 13.855C13.2988 14.6896 14.011 15.3126 14.8531 15.3124C15.3402 15.3124 15.7375 15.7025 15.7463 16.1894C15.7554 16.6762 15.3725 17.0807 14.8858 17.0984Z" fill="#0077B6"/>
<path d="M9.14453 14.9488C9.14453 18.1016 11.7003 20.6574 14.8531 20.6574C18.0059 20.6574 20.5617 18.1016 20.5617 14.9488C20.5617 11.796 18.0059 9.24023 14.8531 9.24023C11.7018 9.24369 9.14818 11.7975 9.14453 14.9488ZM14.8531 10.0276C17.5711 10.0276 19.7744 12.2308 19.7744 14.9488C19.7744 17.6668 17.5711 19.8701 14.8531 19.8701C12.1351 19.8701 9.93187 17.6668 9.93187 14.9488C9.93495 12.2322 12.1365 10.0306 14.8531 10.0276Z" fill="#0077B6"/>
<path d="M22.5026 21.6281L19.4188 23.0851C18.993 22.2931 18.1763 21.7891 17.2774 21.7638L14.4306 21.6855C13.9799 21.6727 13.5376 21.5585 13.1368 21.3514L12.8471 21.2013C11.3639 20.4282 9.59608 20.4301 8.11444 21.2063L8.1325 20.5501C8.13846 20.3327 7.96719 20.1516 7.74979 20.1456L4.62812 20.0597C4.41072 20.0538 4.22984 20.225 4.22388 20.4424L4.03531 27.2928C4.02935 27.5102 4.20062 27.6913 4.41802 27.6973L7.53969 27.7832H7.55046C7.76382 27.7832 7.93836 27.6134 7.94413 27.4003L7.95316 27.0725L8.76414 26.6383C9.08246 26.467 9.4546 26.4263 9.80233 26.5247L14.6452 27.8839C14.6536 27.8864 14.6621 27.8883 14.6707 27.8902C15.0208 27.9635 15.3775 28.0002 15.7351 28C16.4924 28.0004 17.2409 27.8372 17.9293 27.5212C17.9462 27.5135 17.9625 27.5045 17.9781 27.4943L24.9997 22.9525C25.1747 22.8392 25.2312 22.6095 25.1287 22.4281C24.6074 21.5031 23.4512 21.1508 22.5026 21.6281ZM4.83322 26.9211L5.00007 20.8576L7.33459 20.9218L7.16775 26.9855L4.83322 26.9211ZM17.5746 26.818C16.7194 27.204 15.7643 27.3105 14.8451 27.1227L10.0153 25.767C9.47171 25.6134 8.88986 25.677 8.39258 25.9444L7.97815 26.1664L8.08906 22.1349C9.40232 21.2615 11.0866 21.1717 12.4852 21.9004L12.7748 22.0506C13.2812 22.312 13.8396 22.4561 14.4091 22.4727L17.2561 22.5509C18.0557 22.574 18.7349 23.1433 18.8971 23.9268L14.6565 23.8098C14.4391 23.8038 14.2582 23.9753 14.2521 24.1925C14.2461 24.4099 14.4176 24.591 14.6348 24.5969L19.3146 24.7257H19.3256C19.5387 24.7255 19.7131 24.5558 19.7188 24.3428C19.7236 24.1717 19.711 24.0005 19.6808 23.8321L22.8438 22.3375C22.8469 22.3362 22.8499 22.3347 22.853 22.3331C23.3017 22.1061 23.8441 22.182 24.2132 22.5236L17.5746 26.818Z" fill="#0077B6"/>
<path d="M15.2463 8.13353V4.39367C15.2463 4.17627 15.0701 4 14.8527 4C14.6353 4 14.459 4.17627 14.459 4.39367V8.13353C14.459 8.35093 14.6353 8.5272 14.8527 8.5272C15.0701 8.5272 15.2463 8.35093 15.2463 8.13353Z" fill="#0077B6"/>
<path d="M18.1994 8.13344V6.36193C18.1994 6.14453 18.0232 5.96826 17.8058 5.96826C17.5884 5.96826 17.4121 6.14453 17.4121 6.36193V8.13344C17.4121 8.35084 17.5884 8.52711 17.8058 8.52711C18.0232 8.52711 18.1994 8.35084 18.1994 8.13344Z" fill="#0077B6"/>
<path d="M12.2952 8.13344V6.36193C12.2952 6.14453 12.1189 5.96826 11.9015 5.96826C11.6841 5.96826 11.5078 6.14453 11.5078 6.36193V8.13344C11.5078 8.35084 11.6841 8.52711 11.9015 8.52711C12.1189 8.52711 12.2952 8.35084 12.2952 8.13344Z" fill="#0077B6"/>
</g>
<defs>
<clipPath id="clip0_920_5272">
<rect width="24" height="24" fill="white" transform="translate(4 4)"/>
</clipPath>
</defs>
</svg>
