<svg width="32" height="32" viewBox="0 0 32 32" fill="none" xmlns="http://www.w3.org/2000/svg">
<rect width="32" height="32" rx="4" fill="#DBFFE1"/>
<path d="M4.5 16C4.5 9.65739 9.65739 4.5 16 4.5C22.3426 4.5 27.5 9.65739 27.5 16C27.5 22.3426 22.3426 27.5 16 27.5C9.65739 27.5 4.5 22.3426 4.5 16Z" stroke="#029E2D"/>
<path fill-rule="evenodd" clip-rule="evenodd" d="M21.8027 11.9549C22.0934 12.2455 22.0934 12.7236 21.8027 13.0143L14.7715 20.0455C14.6262 20.1908 14.434 20.2658 14.2418 20.2658C14.0496 20.2658 13.8574 20.1908 13.7121 20.0455L10.1965 16.5299C9.90586 16.2393 9.90586 15.7611 10.1965 15.4705C10.4871 15.1799 10.9652 15.1799 11.2559 15.4705L14.2418 18.4564L20.7434 11.9549C21.034 11.6596 21.5121 11.6596 21.8027 11.9549Z" fill="#029E2D"/>
</svg>
