<svg width="22" height="24" viewBox="0 0 22 24" fill="none" xmlns="http://www.w3.org/2000/svg">
<path d="M18.8588 15.1698V10.6216C18.8588 7.24332 16.6911 4.29746 13.7066 3.19711C13.7414 3.02334 13.7607 2.84578 13.7607 2.66814C13.7608 1.21259 12.5763 0.0311279 11.1169 0.0311279C9.65758 0.0311279 8.47304 1.21259 8.47304 2.66814C8.47304 2.84191 8.49237 3.01561 8.52333 3.18163C7.49756 3.54457 6.54916 4.11983 5.74014 4.89973C4.21499 6.36689 3.375 8.3398 3.375 10.4556V15.1698C3.375 15.3358 3.23951 15.4748 3.06917 15.4748C1.64079 15.4748 0.421409 16.5482 0.289793 17.9149C0.216228 18.6755 0.467888 19.4322 0.982714 19.996C1.49366 20.5558 2.22531 20.8801 2.98785 20.8801H7.65626C7.8498 22.6137 9.32854 23.9689 11.1169 23.9689C12.9053 23.9689 14.384 22.6137 14.5776 20.8801H19.246C20.0086 20.8801 20.7402 20.5558 21.2511 19.996C21.7621 19.4322 22.0137 18.6755 21.944 17.9149C21.8124 16.5482 20.5892 15.4748 19.1647 15.4748C18.9943 15.4747 18.8588 15.3396 18.8588 15.1698ZM11.1169 1.57546C11.7208 1.57546 12.2124 2.06581 12.2124 2.66808C12.2124 2.71824 12.2046 2.7646 12.1969 2.81476C11.9336 2.77614 11.6665 2.74913 11.3994 2.74139C10.9388 2.72591 10.4859 2.75686 10.0368 2.81863C10.0291 2.76847 10.0213 2.72211 10.0213 2.67195C10.0215 2.06581 10.5131 1.57546 11.1169 1.57546ZM11.1169 22.4244C10.184 22.4244 9.4021 21.7603 9.22013 20.8801H13.0136C12.8318 21.7603 12.0499 22.4244 11.1169 22.4244ZM20.4034 18.0616C20.4343 18.3937 20.3298 18.7141 20.1092 18.9573C19.8808 19.2006 19.5788 19.3357 19.246 19.3357H2.98791C2.655 19.3357 2.35311 19.2005 2.12853 18.9573C1.90402 18.7141 1.79949 18.3936 1.83046 18.0616C1.88463 17.4786 2.43049 17.0191 3.06917 17.0191C4.09113 17.0191 4.92336 16.1891 4.92336 15.1698V10.4556C4.92336 8.76451 5.59689 7.18542 6.81627 6.01169C7.98142 4.88819 9.49888 4.27812 11.1169 4.27812C11.1944 4.27812 11.2679 4.27812 11.3453 4.28199C14.6318 4.39779 17.3105 7.24332 17.3105 10.6216V15.1698C17.3105 16.1891 18.1427 17.0191 19.1647 17.0191C19.8034 17.0191 20.3453 17.4786 20.4034 18.0616Z" fill="#ADB0C7"/>
</svg>
