<svg width="32" height="33" viewBox="0 0 32 33" fill="none" xmlns="http://www.w3.org/2000/svg">
<rect y="0.299805" width="32" height="32" rx="4" fill="#CCDFDC"/>
<path d="M27.6 27.4998H25.9753C25.9923 27.3684 26 27.2341 26 27.0998C26 25.9708 25.3503 25.0097 24.4 24.5647V11.0998C24.4 10.8598 24.2401 10.6998 24.0001 10.6998H18.0001V4.69979C18.0001 4.45979 17.8401 4.2998 17.6001 4.2998H6.80008C6.55998 4.29976 6.4 4.45974 6.4 4.69974V27.4998H4.39998C4.15998 27.4998 4 27.6598 4 27.8998C4 28.1398 4.15998 28.2998 4.39998 28.2998H6.79998H7.99998H17.6H25.48H27.6C27.84 28.2998 28 28.1398 28 27.8998C28 27.6598 27.84 27.4998 27.6 27.4998ZM23.6 24.328C23.4694 24.3098 23.336 24.2998 23.2 24.2998C22.898 24.2998 22.6018 24.3512 22.322 24.4473C22.2523 24.3544 22.1399 24.2998 22 24.2998C21.76 24.2998 21.6 24.4598 21.6 24.6998V24.8223C21.4484 24.9315 21.3075 25.0561 21.1795 25.1947C21.1593 25.216 21.1395 25.2377 21.12 25.2597C20.7886 24.8454 20.3616 24.5457 19.8789 24.3998C19.8096 24.3361 19.714 24.2997 19.6 24.2997C19.5554 24.2997 19.5136 24.3053 19.475 24.3158C19.3847 24.3053 19.293 24.2997 19.2 24.2997C18.9493 24.2997 18.667 24.3323 18.4383 24.4251C18.41 24.4347 18.3819 24.4445 18.3541 24.4551C18.0776 24.2303 17.7543 24.0686 17.4137 23.9796C17.41 23.9786 17.4063 23.9779 17.4028 23.9769C17.3731 23.9692 17.3433 23.962 17.3133 23.9555C17.289 23.9501 17.2645 23.9455 17.2399 23.9409C17.2293 23.9389 17.2187 23.9368 17.208 23.935C17.1822 23.9305 17.1564 23.9266 17.1304 23.923C17.1188 23.9213 17.1071 23.9199 17.0955 23.9184C17.0716 23.9155 17.0477 23.9127 17.0236 23.9105C17.006 23.9089 16.9884 23.9077 16.9707 23.9064C16.9519 23.9051 16.9331 23.9035 16.9141 23.9026C16.8761 23.9008 16.8381 23.8997 16.8 23.8997C16.7706 23.8997 16.7414 23.9003 16.7123 23.9014C16.6933 23.902 16.6743 23.9032 16.6553 23.9043C16.6477 23.9047 16.64 23.9051 16.6324 23.9056C16.268 23.9298 15.91 24.0326 15.6 24.2148V11.4998H17.6H23.6V24.328ZM7.20002 5.09978H17.2V10.6998H15.2C14.96 10.6998 14.8 10.8598 14.8 11.0998V23.5398C14.5956 23.3354 14.3599 23.1625 14.1034 23.0272C14.0808 23.0151 14.0579 23.0033 14.0349 22.9919C14.0259 22.9875 14.0169 22.9828 14.0078 22.9785C13.7223 22.84 13.4117 22.7491 13.0871 22.7152C13.0825 22.7147 13.078 22.7143 13.0734 22.7138C13.0357 22.7101 12.9978 22.7071 12.9597 22.7049C12.9497 22.7043 12.9396 22.7037 12.9295 22.7032C12.8865 22.7012 12.8433 22.6998 12.8 22.6998C12.2047 22.6998 11.6531 22.8956 11.2 23.2247V23.0999C11.2 22.8599 11.04 22.6999 10.8 22.6999C10.56 22.6999 10.4 22.8599 10.4 23.0999V23.8999C10.4 23.9599 10.41 24.0149 10.4288 24.0636C10.2324 24.3873 10.097 24.7522 10.04 25.1399C9.57953 25.1925 9.15845 25.3583 8.80005 25.606V25.4999C8.80005 25.2599 8.64006 25.0999 8.40006 25.0999C8.16006 25.0999 8.00008 25.2599 8.00008 25.4999V26.2999C8.00008 26.3466 8.00631 26.3902 8.01784 26.4302C7.81952 26.751 7.68456 27.1139 7.62897 27.4999H7.20011V5.09978H7.20002ZM10.218 25.9081C10.2259 25.9074 10.2339 25.9069 10.2419 25.9063C10.263 25.9047 10.2841 25.9031 10.3053 25.9021C10.3367 25.9007 10.3682 25.8998 10.4 25.8998C10.64 25.8998 10.8 25.7398 10.8 25.4998C10.8 24.3798 11.68 23.4997 12.8 23.4997C13.8 23.4997 14.64 24.2197 14.76 25.2197C14.7871 25.3279 14.8513 25.4171 14.9391 25.4763C14.9447 25.4802 14.9503 25.4839 14.9561 25.4875C14.9623 25.4913 14.9684 25.4951 14.9748 25.4986C14.9896 25.5068 15.005 25.5142 15.021 25.5206C15.0216 25.5209 15.0222 25.5211 15.0228 25.5214C15.0411 25.5287 15.0603 25.5348 15.08 25.5398C15.08 25.5398 15.08 25.5398 15.0801 25.5398C15.1039 25.5477 15.1309 25.5508 15.1595 25.5499C15.291 25.5518 15.4133 25.4799 15.48 25.3799C15.48 25.3799 15.4801 25.3799 15.4801 25.3798L15.5201 25.3398C15.8401 24.9398 16.2801 24.6998 16.8001 24.6998C17.0702 24.6998 17.3402 24.7755 17.5825 24.917C17.1053 25.3656 16.8347 25.9505 16.8033 26.5763C16.8012 26.6172 16.8001 26.6584 16.8001 26.6999C16.8001 26.978 16.8464 27.2446 16.9379 27.4999H8.44C8.62722 26.6386 9.34019 25.9878 10.218 25.9081ZM17.8822 27.4998C17.7294 27.2413 17.64 26.9357 17.64 26.6598C17.64 26.2175 17.8144 25.819 18.1141 25.5277C18.1714 25.4746 18.2325 25.4256 18.297 25.3812C18.3595 25.3816 18.4223 25.3686 18.48 25.3398C19.36 24.8598 20.4 25.2998 20.72 26.1798C20.76 26.2998 20.88 26.4198 21.08 26.4198C21.118 26.4198 21.16 26.4077 21.2022 26.3862C21.3025 26.3698 21.3819 26.2961 21.44 26.1798C21.595 25.8504 21.835 25.5874 22.1272 25.4031C22.1902 25.3855 22.2444 25.3544 22.2874 25.3121C22.5622 25.174 22.8736 25.0998 23.2 25.0998C24.32 25.0998 25.2001 25.9798 25.2001 27.0998C25.2001 27.2198 25.2001 27.3798 25.1601 27.4998H17.8822Z" fill="#02044F"/>
<path d="M17.1988 14.6997C16.9588 14.6997 16.7988 14.8597 16.7988 15.0997V15.8997C16.7988 16.1397 16.9588 16.2997 17.1988 16.2997C17.4388 16.2997 17.5988 16.1397 17.5988 15.8997V15.0997C17.5988 14.8597 17.4388 14.6997 17.1988 14.6997Z" fill="#02044F"/>
<path d="M17.1988 21.9004C16.9588 21.9004 16.7988 22.0604 16.7988 22.3004V23.1004C16.7988 23.3404 16.9588 23.5004 17.1988 23.5004C17.4388 23.5004 17.5988 23.3404 17.5988 23.1004V22.3004C17.5988 22.0604 17.4388 21.9004 17.1988 21.9004Z" fill="#02044F"/>
<path d="M17.1988 17.1006C16.9588 17.1006 16.7988 17.2606 16.7988 17.5006V18.3006C16.7988 18.5406 16.9588 18.7006 17.1988 18.7006C17.4388 18.7006 17.5988 18.5406 17.5988 18.3006V17.5006C17.5988 17.2606 17.4388 17.1006 17.1988 17.1006Z" fill="#02044F"/>
<path d="M17.1988 19.4995C16.9588 19.4995 16.7988 19.6595 16.7988 19.8995V20.6995C16.7988 20.9395 16.9588 21.0995 17.1988 21.0995C17.4388 21.0995 17.5988 20.9395 17.5988 20.6995V19.8995C17.5988 19.6595 17.4388 19.4995 17.1988 19.4995Z" fill="#02044F"/>
<path d="M17.1988 12.2993C16.9588 12.2993 16.7988 12.4593 16.7988 12.6993V13.4993C16.7988 13.7393 16.9588 13.8993 17.1988 13.8993C17.4388 13.8993 17.5988 13.7393 17.5988 13.4993V12.6993C17.5988 12.4593 17.4388 12.2993 17.1988 12.2993Z" fill="#02044F"/>
<path d="M19.6031 16.2997C19.8431 16.2997 20.0031 16.1397 20.0031 15.8997V15.0997C20.0031 14.8597 19.8431 14.6997 19.6031 14.6997C19.3631 14.6997 19.2031 14.8597 19.2031 15.0997V15.8997C19.2031 16.1397 19.3631 16.2997 19.6031 16.2997Z" fill="#02044F"/>
<path d="M19.6031 13.8993C19.8431 13.8993 20.0031 13.7393 20.0031 13.4993V12.6993C20.0031 12.4593 19.8431 12.2993 19.6031 12.2993C19.3631 12.2993 19.2031 12.4593 19.2031 12.6993V13.4993C19.2031 13.7393 19.3631 13.8993 19.6031 13.8993Z" fill="#02044F"/>
<path d="M19.6031 18.7006C19.8431 18.7006 20.0031 18.5406 20.0031 18.3006V17.5006C20.0031 17.2606 19.8431 17.1006 19.6031 17.1006C19.3631 17.1006 19.2031 17.2606 19.2031 17.5006V18.3006C19.2031 18.5406 19.3631 18.7006 19.6031 18.7006Z" fill="#02044F"/>
<path d="M19.6031 21.0995C19.8431 21.0995 20.0031 20.9395 20.0031 20.6995V19.8995C20.0031 19.6595 19.8431 19.4995 19.6031 19.4995C19.3631 19.4995 19.2031 19.6595 19.2031 19.8995V20.6995C19.2031 20.9395 19.3631 21.0995 19.6031 21.0995Z" fill="#02044F"/>
<path d="M19.6031 23.5004C19.8431 23.5004 20.0031 23.3404 20.0031 23.1004V22.3004C20.0031 22.0604 19.8431 21.9004 19.6031 21.9004C19.3631 21.9004 19.2031 22.0604 19.2031 22.3004V23.1004C19.2031 23.3404 19.3631 23.5004 19.6031 23.5004Z" fill="#02044F"/>
<path d="M21.9996 18.7006C22.2396 18.7006 22.3996 18.5406 22.3996 18.3006V17.5006C22.3996 17.2606 22.2396 17.1006 21.9996 17.1006C21.7596 17.1006 21.5996 17.2606 21.5996 17.5006V18.3006C21.5996 18.5406 21.7596 18.7006 21.9996 18.7006Z" fill="#02044F"/>
<path d="M21.9996 16.2997C22.2396 16.2997 22.3996 16.1397 22.3996 15.8997V15.0997C22.3996 14.8597 22.2396 14.6997 21.9996 14.6997C21.7596 14.6997 21.5996 14.8597 21.5996 15.0997V15.8997C21.5996 16.1397 21.7596 16.2997 21.9996 16.2997Z" fill="#02044F"/>
<path d="M21.9996 23.5004C22.2396 23.5004 22.3996 23.3404 22.3996 23.1004V22.3004C22.3996 22.0604 22.2396 21.9004 21.9996 21.9004C21.7596 21.9004 21.5996 22.0604 21.5996 22.3004V23.1004C21.5996 23.3404 21.7596 23.5004 21.9996 23.5004Z" fill="#02044F"/>
<path d="M21.9996 21.0995C22.2396 21.0995 22.3996 20.9395 22.3996 20.6995V19.8995C22.3996 19.6595 22.2396 19.4995 21.9996 19.4995C21.7596 19.4995 21.5996 19.6595 21.5996 19.8995V20.6995C21.5996 20.9395 21.7596 21.0995 21.9996 21.0995Z" fill="#02044F"/>
<path d="M21.9996 13.8993C22.2396 13.8993 22.3996 13.7393 22.3996 13.4993V12.6993C22.3996 12.4593 22.2396 12.2993 21.9996 12.2993C21.7596 12.2993 21.5996 12.4593 21.5996 12.6993V13.4993C21.5996 13.7393 21.7596 13.8993 21.9996 13.8993Z" fill="#02044F"/>
<path d="M8.40194 19.4999C8.64194 19.4999 8.80192 19.3399 8.80192 19.0999V18.2999C8.80192 18.0599 8.64194 17.8999 8.40194 17.8999C8.16194 17.8999 8.00195 18.0599 8.00195 18.2999V19.0999C8.00191 19.3399 8.16194 19.4999 8.40194 19.4999Z" fill="#02044F"/>
<path d="M8.40194 21.9003C8.64194 21.9003 8.80192 21.7403 8.80192 21.5003V20.7003C8.80192 20.4603 8.64194 20.3003 8.40194 20.3003C8.16194 20.3003 8.00195 20.4603 8.00195 20.7003V21.5003C8.00191 21.7402 8.16194 21.9003 8.40194 21.9003Z" fill="#02044F"/>
<path d="M8.40194 24.2992C8.64194 24.2992 8.80192 24.1392 8.80192 23.8992V23.0992C8.80192 22.8592 8.64194 22.6992 8.40194 22.6992C8.16194 22.6992 8.00195 22.8592 8.00195 23.0992V23.8992C8.00191 24.1392 8.16194 24.2992 8.40194 24.2992Z" fill="#02044F"/>
<path d="M8.40194 7.49989C8.64194 7.49989 8.80192 7.33991 8.80192 7.0999V6.29989C8.80192 6.05989 8.64194 5.8999 8.40194 5.8999C8.16194 5.8999 8.00195 6.05989 8.00195 6.29989V7.0999C8.00191 7.33986 8.16194 7.49989 8.40194 7.49989Z" fill="#02044F"/>
<path d="M8.40194 9.90028C8.64194 9.90028 8.80192 9.7403 8.80192 9.5003V8.70028C8.80192 8.46028 8.64194 8.30029 8.40194 8.30029C8.16194 8.30029 8.00195 8.46028 8.00195 8.70028V9.5003C8.00191 9.74025 8.16194 9.90028 8.40194 9.90028Z" fill="#02044F"/>
<path d="M8.40194 12.2992C8.64194 12.2992 8.80192 12.1392 8.80192 11.8992V11.0992C8.80192 10.8592 8.64194 10.6992 8.40194 10.6992C8.16194 10.6992 8.00195 10.8592 8.00195 11.0992V11.8992C8.00191 12.1392 8.16194 12.2992 8.40194 12.2992Z" fill="#02044F"/>
<path d="M8.40194 14.7001C8.64194 14.7001 8.80192 14.5401 8.80192 14.3001V13.5001C8.80192 13.2601 8.64194 13.1001 8.40194 13.1001C8.16194 13.1001 8.00195 13.2601 8.00195 13.5001V14.3001C8.00191 14.5401 8.16194 14.7001 8.40194 14.7001Z" fill="#02044F"/>
<path d="M8.40194 17.099C8.64194 17.099 8.80192 16.939 8.80192 16.699V15.899C8.80192 15.659 8.64194 15.499 8.40194 15.499C8.16194 15.499 8.00195 15.659 8.00195 15.899V16.699C8.00191 16.939 8.16194 17.099 8.40194 17.099Z" fill="#02044F"/>
<path d="M10.8004 9.90028C11.0404 9.90028 11.2004 9.7403 11.2004 9.5003V8.70028C11.2004 8.46028 11.0404 8.30029 10.8004 8.30029C10.5604 8.30029 10.4004 8.46028 10.4004 8.70028V9.5003C10.4003 9.74025 10.5604 9.90028 10.8004 9.90028Z" fill="#02044F"/>
<path d="M10.8004 7.49989C11.0404 7.49989 11.2004 7.33991 11.2004 7.0999V6.29989C11.2004 6.05989 11.0404 5.8999 10.8004 5.8999C10.5604 5.8999 10.4004 6.05989 10.4004 6.29989V7.0999C10.4003 7.33986 10.5604 7.49989 10.8004 7.49989Z" fill="#02044F"/>
<path d="M10.8004 14.7001C11.0404 14.7001 11.2004 14.5401 11.2004 14.3001V13.5001C11.2004 13.2601 11.0404 13.1001 10.8004 13.1001C10.5604 13.1001 10.4004 13.2601 10.4004 13.5001V14.3001C10.4003 14.5401 10.5604 14.7001 10.8004 14.7001Z" fill="#02044F"/>
<path d="M10.8004 12.2992C11.0404 12.2992 11.2004 12.1392 11.2004 11.8992V11.0992C11.2004 10.8592 11.0404 10.6992 10.8004 10.6992C10.5604 10.6992 10.4004 10.8592 10.4004 11.0992V11.8992C10.4003 12.1392 10.5604 12.2992 10.8004 12.2992Z" fill="#02044F"/>
<path d="M10.8004 17.099C11.0404 17.099 11.2004 16.939 11.2004 16.699V15.899C11.2004 15.659 11.0404 15.499 10.8004 15.499C10.5604 15.499 10.4004 15.659 10.4004 15.899V16.699C10.4003 16.939 10.5604 17.099 10.8004 17.099Z" fill="#02044F"/>
<path d="M10.8004 19.4999C11.0404 19.4999 11.2004 19.3399 11.2004 19.0999V18.2999C11.2004 18.0599 11.0404 17.8999 10.8004 17.8999C10.5604 17.8999 10.4004 18.0599 10.4004 18.2999V19.0999C10.4003 19.3399 10.5604 19.4999 10.8004 19.4999Z" fill="#02044F"/>
<path d="M10.8004 21.9003C11.0404 21.9003 11.2004 21.7403 11.2004 21.5003V20.7003C11.2004 20.4603 11.0404 20.3003 10.8004 20.3003C10.5604 20.3003 10.4004 20.4603 10.4004 20.7003V21.5003C10.4003 21.7402 10.5604 21.9003 10.8004 21.9003Z" fill="#02044F"/>
<path d="M13.1969 12.2992C13.4369 12.2992 13.5968 12.1392 13.5968 11.8992V11.0992C13.5968 10.8592 13.4369 10.6992 13.1969 10.6992C12.9569 10.6992 12.7969 10.8592 12.7969 11.0992V11.8992C12.7968 12.1392 12.9569 12.2992 13.1969 12.2992Z" fill="#02044F"/>
<path d="M13.1969 9.90028C13.4369 9.90028 13.5968 9.7403 13.5968 9.5003V8.70028C13.5968 8.46028 13.4369 8.30029 13.1969 8.30029C12.9569 8.30029 12.7969 8.46028 12.7969 8.70028V9.5003C12.7968 9.74025 12.9569 9.90028 13.1969 9.90028Z" fill="#02044F"/>
<path d="M13.1969 7.49989C13.4369 7.49989 13.5968 7.33991 13.5968 7.0999V6.29989C13.5968 6.05989 13.4369 5.8999 13.1969 5.8999C12.9569 5.8999 12.7969 6.05989 12.7969 6.29989V7.0999C12.7968 7.33986 12.9569 7.49989 13.1969 7.49989Z" fill="#02044F"/>
<path d="M13.1969 21.9003C13.4369 21.9003 13.5968 21.7403 13.5968 21.5003V20.7003C13.5968 20.4603 13.4369 20.3003 13.1969 20.3003C12.9569 20.3003 12.7969 20.4603 12.7969 20.7003V21.5003C12.7968 21.7402 12.9569 21.9003 13.1969 21.9003Z" fill="#02044F"/>
<path d="M13.1969 19.4999C13.4369 19.4999 13.5968 19.3399 13.5968 19.0999V18.2999C13.5968 18.0599 13.4369 17.8999 13.1969 17.8999C12.9569 17.8999 12.7969 18.0599 12.7969 18.2999V19.0999C12.7968 19.3399 12.9569 19.4999 13.1969 19.4999Z" fill="#02044F"/>
<path d="M13.1969 17.099C13.4369 17.099 13.5968 16.939 13.5968 16.699V15.899C13.5968 15.659 13.4369 15.499 13.1969 15.499C12.9569 15.499 12.7969 15.659 12.7969 15.899V16.699C12.7968 16.939 12.9569 17.099 13.1969 17.099Z" fill="#02044F"/>
<path d="M13.1969 14.7001C13.4369 14.7001 13.5968 14.5401 13.5968 14.3001V13.5001C13.5968 13.2601 13.4369 13.1001 13.1969 13.1001C12.9569 13.1001 12.7969 13.2601 12.7969 13.5001V14.3001C12.7968 14.5401 12.9569 14.7001 13.1969 14.7001Z" fill="#02044F"/>
<path d="M15.6012 9.90028C15.8412 9.90028 16.0011 9.7403 16.0011 9.5003V8.70028C16.0011 8.46028 15.8412 8.30029 15.6012 8.30029C15.3612 8.30029 15.2012 8.46028 15.2012 8.70028V9.5003C15.2011 9.74025 15.3612 9.90028 15.6012 9.90028Z" fill="#02044F"/>
<path d="M15.6012 7.49989C15.8412 7.49989 16.0011 7.33991 16.0011 7.0999V6.29989C16.0011 6.05989 15.8412 5.8999 15.6012 5.8999C15.3612 5.8999 15.2012 6.05989 15.2012 6.29989V7.0999C15.2011 7.33986 15.3612 7.49989 15.6012 7.49989Z" fill="#02044F"/>
</svg>
