<svg width="40" height="40" viewBox="0 0 40 40" fill="none" xmlns="http://www.w3.org/2000/svg">
<rect width="40" height="40" rx="4" fill="#502C84" fill-opacity="0.1"/>
<g clip-path="url(#clip0_2763_6314)">
<path d="M15.0781 28.9531V28.6854C15.747 28.5414 16.25 27.9456 16.25 27.2344V26.4531C16.25 25.6347 15.5841 24.9688 14.7656 24.9688H13.9843C13.9413 24.9688 13.9062 24.9337 13.9062 24.8906V24.1094C13.9062 24.0663 13.9413 24.0312 13.9843 24.0312H14.7656C14.8087 24.0312 14.8438 24.0663 14.8438 24.1094C14.8438 24.4977 15.1586 24.8125 15.5469 24.8125C15.9352 24.8125 16.25 24.4977 16.25 24.1094C16.25 23.3981 15.747 22.8023 15.0781 22.6584V22.3906C15.0781 22.0023 14.7633 21.6875 14.375 21.6875C13.9867 21.6875 13.6719 22.0023 13.6719 22.3906V22.6584C13.003 22.8023 12.5 23.3981 12.5 24.1094V24.8906C12.5 25.7091 13.1659 26.375 13.9844 26.375H14.7657C14.8087 26.375 14.8438 26.4101 14.8438 26.4531V27.2344C14.8438 27.2774 14.8087 27.3125 14.7657 27.3125H13.9844C13.9413 27.3125 13.9062 27.2774 13.9062 27.2344C13.9062 26.846 13.5914 26.5312 13.2031 26.5312C12.8148 26.5312 12.5 26.846 12.5 27.2344C12.5 27.9456 13.003 28.5414 13.6719 28.6854V28.9531C13.6719 29.3414 13.9867 29.6562 14.375 29.6562C14.7633 29.6562 15.0781 29.3414 15.0781 28.9531Z" fill="#502C84"/>
<path d="M31.7472 12.8936L27.0599 8.20597C26.928 8.07406 26.7492 8 26.5627 8H15.7812C14.6181 8 13.6719 8.94627 13.6719 10.1094V19.383C10.5122 19.7339 8.04688 22.4202 8.04688 25.6719C8.04688 29.1612 10.8857 32 14.375 32H29.8438C31.0069 32 31.9531 31.0537 31.9531 29.8906V13.3908C31.9531 13.2042 31.8791 13.0255 31.7472 12.8936ZM27.2656 10.4006L28.4091 11.5441L29.5525 12.6875H27.2656V10.4006ZM9.45312 25.6719C9.45312 22.958 11.6611 20.75 14.375 20.75C17.0889 20.75 19.2969 22.958 19.2969 25.6719C19.2969 28.3858 17.0889 30.5938 14.375 30.5938C11.6611 30.5938 9.45312 28.3858 9.45312 25.6719ZM29.8438 30.5938H18.3476C19.6115 29.5716 20.4752 28.0738 20.6639 26.375H27.9688C28.3571 26.375 28.6719 26.0602 28.6719 25.6719C28.6719 25.2836 28.3571 24.9688 27.9688 24.9688H20.6638C20.5492 23.9366 20.1855 22.9785 19.6341 22.1562H27.9688C28.3571 22.1562 28.6719 21.8414 28.6719 21.4531C28.6719 21.0648 28.3571 20.75 27.9688 20.75H18.3476C17.4326 20.01 16.308 19.5196 15.0781 19.383V10.1094C15.0781 9.72167 15.3935 9.40625 15.7812 9.40625H25.8594V13.3906C25.8594 13.7789 26.1742 14.0938 26.5625 14.0938H30.5469V29.8906C30.5469 30.2783 30.2315 30.5938 29.8438 30.5938Z" fill="#502C84"/>
<path d="M27.9688 16.5312H17.6562C17.2679 16.5312 16.9531 16.8461 16.9531 17.2344C16.9531 17.6227 17.2679 17.9375 17.6562 17.9375H27.9688C28.3571 17.9375 28.6719 17.6227 28.6719 17.2344C28.6719 16.8461 28.3571 16.5312 27.9688 16.5312Z" fill="#502C84"/>
</g>
<defs>
<clipPath id="clip0_2763_6314">
<rect width="24" height="24" fill="white" transform="translate(8 8)"/>
</clipPath>
</defs>
</svg>
