<svg width="40" height="40" viewBox="0 0 40 40" fill="none" xmlns="http://www.w3.org/2000/svg">
<rect width="40" height="40" rx="4" fill="#FBE7D4"/>
<path d="M19.849 19.561C21.4373 19.561 22.8124 18.9914 23.9363 17.8675C25.0598 16.7438 25.6296 15.3688 25.6296 13.7804C25.6296 12.1925 25.06 10.8174 23.9361 9.6933C22.8122 8.56976 21.4371 8.00012 19.849 8.00012C18.2606 8.00012 16.8856 8.56976 15.7619 9.69348C14.6382 10.8172 14.0684 12.1923 14.0684 13.7804C14.0684 15.3688 14.6382 16.744 15.7619 17.8677C16.886 18.9912 18.2611 19.561 19.849 19.561ZM16.7565 10.6879C17.6188 9.82568 18.6302 9.40656 19.849 9.40656C21.0676 9.40656 22.0792 9.82568 22.9417 10.6879C23.8039 11.5504 24.2232 12.562 24.2232 13.7804C24.2232 14.9991 23.8039 16.0106 22.9417 16.873C22.0792 17.7355 21.0676 18.1546 19.849 18.1546C18.6306 18.1546 17.6191 17.7353 16.7565 16.873C15.8941 16.0108 15.4748 14.9991 15.4748 13.7804C15.4748 12.562 15.8941 11.5504 16.7565 10.6879Z" fill="#EB7324"/>
<path d="M29.9631 26.4548C29.9307 25.9871 29.8651 25.477 29.7686 24.9383C29.6712 24.3956 29.5458 23.8825 29.3956 23.4136C29.2404 22.9289 29.0296 22.4503 28.7687 21.9916C28.4982 21.5155 28.1804 21.101 27.8237 20.7598C27.4507 20.403 26.994 20.116 26.4659 19.9067C25.9397 19.6985 25.3565 19.5931 24.7327 19.5931C24.4877 19.5931 24.2507 19.6936 23.7932 19.9915C23.5115 20.1752 23.1821 20.3876 22.8145 20.6225C22.5001 20.8228 22.0742 21.0105 21.5481 21.1804C21.0349 21.3465 20.5137 21.4307 19.9992 21.4307C19.485 21.4307 18.9639 21.3465 18.4503 21.1804C17.9248 21.0107 17.4987 20.823 17.1849 20.6227C16.8207 20.39 16.4911 20.1776 16.2053 19.9913C15.748 19.6934 15.5111 19.5929 15.2661 19.5929C14.6421 19.5929 14.0591 19.6985 13.533 19.9069C13.0053 20.1158 12.5485 20.4028 12.1751 20.76C11.8184 21.1013 11.5005 21.5157 11.2303 21.9916C10.9697 22.4503 10.7588 22.9287 10.6035 23.4138C10.4536 23.8827 10.3281 24.3956 10.2307 24.9383C10.134 25.4763 10.0687 25.9866 10.0363 26.4553C10.0044 26.9136 9.98828 27.3906 9.98828 27.8726C9.98828 29.1254 10.3865 30.1396 11.1719 30.8876C11.9475 31.6257 12.9736 31.9999 14.2219 31.9999H25.778C27.0259 31.9999 28.052 31.6257 28.8278 30.8876C29.6133 30.1401 30.0116 29.1255 30.0116 27.8724C30.0114 27.3888 29.9951 26.9118 29.9631 26.4548ZM27.8581 29.8686C27.3456 30.3564 26.6652 30.5935 25.7778 30.5935H14.2219C13.3344 30.5935 12.6539 30.3564 12.1416 29.8688C11.639 29.3903 11.3947 28.7372 11.3947 27.8726C11.3947 27.4229 11.4095 26.9788 11.4392 26.5526C11.4681 26.1343 11.5273 25.6749 11.615 25.1868C11.7016 24.7047 11.8118 24.2522 11.9429 23.8426C12.0687 23.4498 12.2403 23.0609 12.4531 22.6863C12.6561 22.3292 12.8898 22.0229 13.1476 21.7761C13.3887 21.5452 13.6927 21.3562 14.0508 21.2145C14.3821 21.0834 14.7543 21.0116 15.1584 21.0008C15.2077 21.027 15.2954 21.077 15.4375 21.1696C15.7266 21.358 16.0599 21.573 16.4283 21.8083C16.8436 22.0731 17.3786 22.3122 18.0178 22.5186C18.6713 22.7299 19.3378 22.8372 19.9994 22.8372C20.6609 22.8372 21.3276 22.7299 21.9808 22.5187C22.6205 22.312 23.1554 22.0731 23.5712 21.8079C23.9482 21.567 24.2722 21.3582 24.5613 21.1696C24.7034 21.0771 24.7911 21.027 24.8403 21.0008C25.2446 21.0116 25.6169 21.0834 25.9483 21.2145C26.3063 21.3562 26.6102 21.5453 26.8514 21.7761C27.1092 22.0227 27.3428 22.329 27.5459 22.6865C27.7588 23.0609 27.9306 23.45 28.0562 23.8424C28.1875 24.2526 28.2979 24.7048 28.3843 25.1866C28.4719 25.6757 28.5312 26.1353 28.5601 26.5527V26.5531C28.59 26.9777 28.605 27.4216 28.6052 27.8726C28.605 28.7374 28.3607 29.3903 27.8581 29.8686Z" fill="#EB7324"/>
</svg>
