<svg width="40" height="40" viewBox="0 0 40 40" fill="none" xmlns="http://www.w3.org/2000/svg">
<rect width="40" height="40" rx="4" fill="#FFFAD0"/>
<path d="M31.6 31.2H29.9753C29.9923 31.0685 30 30.9343 30 30.8C30 29.671 29.3503 28.7099 28.4 28.2649V14.8C28.4 14.56 28.2401 14.4 28.0001 14.4H22.0001V8.39999C22.0001 8.15998 21.8401 8 21.6001 8H10.8001C10.56 7.99995 10.4 8.15994 10.4 8.39994V31.2H8.39998C8.15998 31.2 8 31.36 8 31.6C8 31.84 8.15998 32 8.39998 32H10.8H12H21.6H29.48H31.6C31.84 32 32 31.84 32 31.6C32 31.36 31.84 31.2 31.6 31.2ZM27.6 28.0282C27.4694 28.01 27.336 28 27.2 28C26.898 28 26.6018 28.0514 26.322 28.1475C26.2523 28.0546 26.1399 28 26 28C25.76 28 25.6 28.1599 25.6 28.3999V28.5225C25.4484 28.6317 25.3075 28.7563 25.1795 28.8949C25.1593 28.9162 25.1395 28.9379 25.12 28.9599C24.7886 28.5456 24.3616 28.2459 23.8789 28.0999C23.8096 28.0363 23.714 27.9999 23.6 27.9999C23.5554 27.9999 23.5136 28.0055 23.475 28.016C23.3847 28.0055 23.293 27.9999 23.2 27.9999C22.9493 27.9999 22.667 28.0324 22.4383 28.1253C22.41 28.1349 22.3819 28.1447 22.3541 28.1553C22.0776 27.9305 21.7543 27.7688 21.4137 27.6798C21.41 27.6788 21.4063 27.6781 21.4028 27.6771C21.3731 27.6694 21.3432 27.6622 21.3133 27.6557C21.289 27.6503 21.2645 27.6457 21.2399 27.6411C21.2293 27.6391 21.2187 27.637 21.208 27.6352C21.1822 27.6307 21.1564 27.6268 21.1304 27.6232C21.1188 27.6215 21.1071 27.6201 21.0955 27.6186C21.0716 27.6157 21.0477 27.6129 21.0236 27.6107C21.006 27.6091 20.9884 27.6079 20.9707 27.6066C20.9519 27.6053 20.9331 27.6037 20.9141 27.6028C20.8761 27.601 20.8381 27.5999 20.8 27.5999C20.7706 27.5999 20.7414 27.6005 20.7123 27.6016C20.6933 27.6022 20.6743 27.6034 20.6553 27.6045C20.6477 27.6049 20.64 27.6053 20.6324 27.6058C20.268 27.63 19.91 27.7328 19.6 27.915V15.2H21.6H27.6V28.0282V28.0282ZM11.2 8.79997H21.2V14.4H19.2C18.96 14.4 18.8 14.56 18.8 14.8V27.24C18.5956 27.0356 18.3599 26.8627 18.1034 26.7273C18.0808 26.7153 18.0579 26.7035 18.0349 26.6921C18.0259 26.6876 18.0169 26.683 18.0078 26.6786C17.7223 26.5402 17.4117 26.4493 17.0871 26.4153C17.0825 26.4149 17.078 26.4145 17.0734 26.414C17.0357 26.4103 16.9978 26.4073 16.9597 26.4051C16.9497 26.4045 16.9396 26.4039 16.9295 26.4034C16.8865 26.4014 16.8433 26.4 16.8 26.4C16.2047 26.4 15.6531 26.5958 15.2 26.9249V26.8001C15.2 26.5601 15.04 26.4001 14.8 26.4001C14.56 26.4001 14.4 26.5601 14.4 26.8001V27.6001C14.4 27.6601 14.41 27.7151 14.4288 27.7638C14.2324 28.0875 14.097 28.4524 14.04 28.8401C13.5795 28.8927 13.1585 29.0584 12.8 29.3062V29.2001C12.8 28.9601 12.6401 28.8001 12.4001 28.8001C12.1601 28.8001 12.0001 28.9601 12.0001 29.2001V30.0001C12.0001 30.0468 12.0063 30.0904 12.0178 30.1304C11.8195 30.4512 11.6846 30.8141 11.629 31.2001H11.2001V8.79997H11.2ZM14.218 29.6083C14.2259 29.6076 14.2339 29.6071 14.2419 29.6065C14.263 29.6049 14.2841 29.6033 14.3053 29.6023C14.3367 29.6009 14.3682 29.5999 14.4 29.5999C14.64 29.5999 14.8 29.44 14.8 29.2C14.8 28.08 15.68 27.1999 16.8 27.1999C17.8 27.1999 18.64 27.9199 18.76 28.9199C18.7871 29.0281 18.8513 29.1173 18.9391 29.1765C18.9447 29.1804 18.9503 29.1841 18.9561 29.1877C18.9623 29.1915 18.9684 29.1953 18.9748 29.1988C18.9896 29.2069 19.005 29.2144 19.021 29.2208C19.0216 29.2211 19.0222 29.2213 19.0228 29.2216C19.0411 29.2289 19.0603 29.235 19.08 29.2399C19.08 29.2399 19.08 29.2399 19.0801 29.24C19.1039 29.2479 19.1309 29.251 19.1595 29.2501C19.291 29.252 19.4133 29.1801 19.48 29.0801C19.48 29.0801 19.4801 29.0801 19.4801 29.08L19.5201 29.04C19.8401 28.64 20.2801 28.4 20.8001 28.4C21.0702 28.4 21.3402 28.4757 21.5825 28.6172C21.1053 29.0658 20.8347 29.6507 20.8033 30.2764C20.8012 30.3174 20.8001 30.3586 20.8001 30.4001C20.8001 30.6782 20.8464 30.9448 20.9379 31.2001H12.44C12.6272 30.3388 13.3402 29.688 14.218 29.6083ZM21.8822 31.2C21.7294 30.9415 21.64 30.6359 21.64 30.36C21.64 29.9177 21.8144 29.5192 22.1141 29.2279C22.1714 29.1748 22.2325 29.1258 22.297 29.0814C22.3595 29.0818 22.4223 29.0688 22.48 29.04C23.36 28.56 24.4 29 24.72 29.88C24.76 30 24.88 30.12 25.08 30.12C25.118 30.12 25.16 30.1079 25.2022 30.0864C25.3025 30.07 25.3819 29.9963 25.44 29.88C25.595 29.5506 25.835 29.2876 26.1272 29.1033C26.1902 29.0857 26.2444 29.0546 26.2874 29.0123C26.5622 28.8742 26.8736 28.8 27.2 28.8C28.32 28.8 29.2001 29.68 29.2001 30.8C29.2001 30.92 29.2001 31.08 29.1601 31.2H21.8822V31.2Z" fill="#DCC70B"/>
<path d="M21.2008 18.3999C20.9608 18.3999 20.8008 18.5599 20.8008 18.7999V19.5999C20.8008 19.8399 20.9608 19.9999 21.2008 19.9999C21.4408 19.9999 21.6008 19.8399 21.6008 19.5999V18.7999C21.6008 18.5599 21.4408 18.3999 21.2008 18.3999Z" fill="#DCC70B"/>
<path d="M21.2008 25.6001C20.9608 25.6001 20.8008 25.7601 20.8008 26.0001V26.8001C20.8008 27.0401 20.9608 27.2001 21.2008 27.2001C21.4408 27.2001 21.6008 27.0401 21.6008 26.8001V26.0001C21.6008 25.7601 21.4408 25.6001 21.2008 25.6001Z" fill="#DCC70B"/>
<path d="M21.2008 20.7998C20.9608 20.7998 20.8008 20.9598 20.8008 21.1998V21.9998C20.8008 22.2398 20.9608 22.3998 21.2008 22.3998C21.4408 22.3998 21.6008 22.2398 21.6008 21.9998V21.1998C21.6008 20.9598 21.4408 20.7998 21.2008 20.7998Z" fill="#DCC70B"/>
<path d="M21.2008 23.2002C20.9608 23.2002 20.8008 23.3602 20.8008 23.6002V24.4002C20.8008 24.6402 20.9608 24.8002 21.2008 24.8002C21.4408 24.8002 21.6008 24.6402 21.6008 24.4002V23.6002C21.6008 23.3602 21.4408 23.2002 21.2008 23.2002Z" fill="#DCC70B"/>
<path d="M21.2008 16C20.9608 16 20.8008 16.16 20.8008 16.4V17.2C20.8008 17.44 20.9608 17.6 21.2008 17.6C21.4408 17.6 21.6008 17.44 21.6008 17.2V16.4C21.6008 16.16 21.4408 16 21.2008 16Z" fill="#DCC70B"/>
<path d="M23.5992 19.9999C23.8392 19.9999 23.9992 19.8399 23.9992 19.5999V18.7999C23.9992 18.5599 23.8392 18.3999 23.5992 18.3999C23.3592 18.3999 23.1992 18.5599 23.1992 18.7999V19.5999C23.1992 19.8399 23.3592 19.9999 23.5992 19.9999Z" fill="#DCC70B"/>
<path d="M23.5992 17.6C23.8392 17.6 23.9992 17.44 23.9992 17.2V16.4C23.9992 16.16 23.8392 16 23.5992 16C23.3592 16 23.1992 16.16 23.1992 16.4V17.2C23.1992 17.44 23.3592 17.6 23.5992 17.6Z" fill="#DCC70B"/>
<path d="M23.5992 22.3998C23.8392 22.3998 23.9992 22.2398 23.9992 21.9998V21.1998C23.9992 20.9598 23.8392 20.7998 23.5992 20.7998C23.3592 20.7998 23.1992 20.9598 23.1992 21.1998V21.9998C23.1992 22.2398 23.3592 22.3998 23.5992 22.3998Z" fill="#DCC70B"/>
<path d="M23.5992 24.8002C23.8392 24.8002 23.9992 24.6402 23.9992 24.4002V23.6002C23.9992 23.3602 23.8392 23.2002 23.5992 23.2002C23.3592 23.2002 23.1992 23.3602 23.1992 23.6002V24.4002C23.1992 24.6402 23.3592 24.8002 23.5992 24.8002Z" fill="#DCC70B"/>
<path d="M23.5992 27.2001C23.8392 27.2001 23.9992 27.0401 23.9992 26.8001V26.0001C23.9992 25.7601 23.8392 25.6001 23.5992 25.6001C23.3592 25.6001 23.1992 25.7601 23.1992 26.0001V26.8001C23.1992 27.0401 23.3592 27.2001 23.5992 27.2001Z" fill="#DCC70B"/>
<path d="M25.9996 22.3998C26.2396 22.3998 26.3996 22.2398 26.3996 21.9998V21.1998C26.3996 20.9598 26.2396 20.7998 25.9996 20.7998C25.7596 20.7998 25.5996 20.9598 25.5996 21.1998V21.9998C25.5996 22.2398 25.7596 22.3998 25.9996 22.3998Z" fill="#DCC70B"/>
<path d="M25.9996 19.9999C26.2396 19.9999 26.3996 19.8399 26.3996 19.5999V18.7999C26.3996 18.5599 26.2396 18.3999 25.9996 18.3999C25.7596 18.3999 25.5996 18.5599 25.5996 18.7999V19.5999C25.5996 19.8399 25.7596 19.9999 25.9996 19.9999Z" fill="#DCC70B"/>
<path d="M25.9996 27.2001C26.2396 27.2001 26.3996 27.0401 26.3996 26.8001V26.0001C26.3996 25.7601 26.2396 25.6001 25.9996 25.6001C25.7596 25.6001 25.5996 25.7601 25.5996 26.0001V26.8001C25.5996 27.0401 25.7596 27.2001 25.9996 27.2001Z" fill="#DCC70B"/>
<path d="M25.9996 24.8002C26.2396 24.8002 26.3996 24.6402 26.3996 24.4002V23.6002C26.3996 23.3602 26.2396 23.2002 25.9996 23.2002C25.7596 23.2002 25.5996 23.3602 25.5996 23.6002V24.4002C25.5996 24.6402 25.7596 24.8002 25.9996 24.8002Z" fill="#DCC70B"/>
<path d="M25.9996 17.6C26.2396 17.6 26.3996 17.44 26.3996 17.2V16.4C26.3996 16.16 26.2396 16 25.9996 16C25.7596 16 25.5996 16.16 25.5996 16.4V17.2C25.5996 17.44 25.7596 17.6 25.9996 17.6Z" fill="#DCC70B"/>
<path d="M12.4 23.2001C12.64 23.2001 12.8 23.0401 12.8 22.8001V22.0001C12.8 21.7601 12.64 21.6001 12.4 21.6001C12.16 21.6001 12 21.7601 12 22.0001V22.8001C12 23.0401 12.16 23.2001 12.4 23.2001Z" fill="#DCC70B"/>
<path d="M12.4 25.6C12.64 25.6 12.8 25.44 12.8 25.2V24.4C12.8 24.16 12.64 24 12.4 24C12.16 24 12 24.16 12 24.4V25.2C12 25.44 12.16 25.6 12.4 25.6Z" fill="#DCC70B"/>
<path d="M12.4 27.9999C12.64 27.9999 12.8 27.8399 12.8 27.5999V26.7999C12.8 26.5599 12.64 26.3999 12.4 26.3999C12.16 26.3999 12 26.5599 12 26.7999V27.5999C12 27.8399 12.16 27.9999 12.4 27.9999Z" fill="#DCC70B"/>
<path d="M12.4 11.2001C12.64 11.2001 12.8 11.0401 12.8 10.8001V10.0001C12.8 9.76008 12.64 9.6001 12.4 9.6001C12.16 9.6001 12 9.76008 12 10.0001V10.8001C12 11.0401 12.16 11.2001 12.4 11.2001Z" fill="#DCC70B"/>
<path d="M12.4 13.6C12.64 13.6 12.8 13.44 12.8 13.2V12.4C12.8 12.16 12.64 12 12.4 12C12.16 12 12 12.16 12 12.4V13.2C12 13.44 12.16 13.6 12.4 13.6Z" fill="#DCC70B"/>
<path d="M12.4 15.9999C12.64 15.9999 12.8 15.8399 12.8 15.5999V14.7999C12.8 14.5599 12.64 14.3999 12.4 14.3999C12.16 14.3999 12 14.5599 12 14.7999V15.5999C12 15.8399 12.16 15.9999 12.4 15.9999Z" fill="#DCC70B"/>
<path d="M12.4 18.3998C12.64 18.3998 12.8 18.2398 12.8 17.9998V17.1998C12.8 16.9598 12.64 16.7998 12.4 16.7998C12.16 16.7998 12 16.9598 12 17.1998V17.9998C12 18.2398 12.16 18.3998 12.4 18.3998Z" fill="#DCC70B"/>
<path d="M12.4 20.8002C12.64 20.8002 12.8 20.6402 12.8 20.4002V19.6002C12.8 19.3602 12.64 19.2002 12.4 19.2002C12.16 19.2002 12 19.3602 12 19.6002V20.4002C12 20.6402 12.16 20.8002 12.4 20.8002Z" fill="#DCC70B"/>
<path d="M14.8004 13.6C15.0404 13.6 15.2004 13.44 15.2004 13.2V12.4C15.2004 12.16 15.0404 12 14.8004 12C14.5604 12 14.4004 12.16 14.4004 12.4V13.2C14.4003 13.44 14.5604 13.6 14.8004 13.6Z" fill="#DCC70B"/>
<path d="M14.8004 11.2001C15.0404 11.2001 15.2004 11.0401 15.2004 10.8001V10.0001C15.2004 9.76008 15.0404 9.6001 14.8004 9.6001C14.5604 9.6001 14.4004 9.76008 14.4004 10.0001V10.8001C14.4003 11.0401 14.5604 11.2001 14.8004 11.2001Z" fill="#DCC70B"/>
<path d="M14.8004 18.3998C15.0404 18.3998 15.2004 18.2398 15.2004 17.9998V17.1998C15.2004 16.9598 15.0404 16.7998 14.8004 16.7998C14.5604 16.7998 14.4004 16.9598 14.4004 17.1998V17.9998C14.4003 18.2398 14.5604 18.3998 14.8004 18.3998Z" fill="#DCC70B"/>
<path d="M14.8004 15.9999C15.0404 15.9999 15.2004 15.8399 15.2004 15.5999V14.7999C15.2004 14.5599 15.0404 14.3999 14.8004 14.3999C14.5604 14.3999 14.4004 14.5599 14.4004 14.7999V15.5999C14.4003 15.8399 14.5604 15.9999 14.8004 15.9999Z" fill="#DCC70B"/>
<path d="M14.8004 20.8002C15.0404 20.8002 15.2004 20.6402 15.2004 20.4002V19.6002C15.2004 19.3602 15.0404 19.2002 14.8004 19.2002C14.5604 19.2002 14.4004 19.3602 14.4004 19.6002V20.4002C14.4003 20.6402 14.5604 20.8002 14.8004 20.8002Z" fill="#DCC70B"/>
<path d="M14.8004 23.2001C15.0404 23.2001 15.2004 23.0401 15.2004 22.8001V22.0001C15.2004 21.7601 15.0404 21.6001 14.8004 21.6001C14.5604 21.6001 14.4004 21.7601 14.4004 22.0001V22.8001C14.4003 23.0401 14.5604 23.2001 14.8004 23.2001Z" fill="#DCC70B"/>
<path d="M14.8004 25.6C15.0404 25.6 15.2004 25.44 15.2004 25.2V24.4C15.2004 24.16 15.0404 24 14.8004 24C14.5604 24 14.4004 24.16 14.4004 24.4V25.2C14.4003 25.44 14.5604 25.6 14.8004 25.6Z" fill="#DCC70B"/>
<path d="M17.2008 15.9999C17.4408 15.9999 17.6008 15.8399 17.6008 15.5999V14.7999C17.6008 14.5599 17.4408 14.3999 17.2008 14.3999C16.9608 14.3999 16.8008 14.5599 16.8008 14.7999V15.5999C16.8007 15.8399 16.9608 15.9999 17.2008 15.9999Z" fill="#DCC70B"/>
<path d="M17.2008 13.6C17.4408 13.6 17.6008 13.44 17.6008 13.2V12.4C17.6008 12.16 17.4408 12 17.2008 12C16.9608 12 16.8008 12.16 16.8008 12.4V13.2C16.8007 13.44 16.9608 13.6 17.2008 13.6Z" fill="#DCC70B"/>
<path d="M17.2008 11.2001C17.4408 11.2001 17.6008 11.0401 17.6008 10.8001V10.0001C17.6008 9.76008 17.4408 9.6001 17.2008 9.6001C16.9608 9.6001 16.8008 9.76008 16.8008 10.0001V10.8001C16.8007 11.0401 16.9608 11.2001 17.2008 11.2001Z" fill="#DCC70B"/>
<path d="M17.2008 25.6C17.4408 25.6 17.6008 25.44 17.6008 25.2V24.4C17.6008 24.16 17.4408 24 17.2008 24C16.9608 24 16.8008 24.16 16.8008 24.4V25.2C16.8007 25.44 16.9608 25.6 17.2008 25.6Z" fill="#DCC70B"/>
<path d="M17.2008 23.2001C17.4408 23.2001 17.6008 23.0401 17.6008 22.8001V22.0001C17.6008 21.7601 17.4408 21.6001 17.2008 21.6001C16.9608 21.6001 16.8008 21.7601 16.8008 22.0001V22.8001C16.8007 23.0401 16.9608 23.2001 17.2008 23.2001Z" fill="#DCC70B"/>
<path d="M17.2008 20.8002C17.4408 20.8002 17.6008 20.6402 17.6008 20.4002V19.6002C17.6008 19.3602 17.4408 19.2002 17.2008 19.2002C16.9608 19.2002 16.8008 19.3602 16.8008 19.6002V20.4002C16.8007 20.6402 16.9608 20.8002 17.2008 20.8002Z" fill="#DCC70B"/>
<path d="M17.2008 18.3998C17.4408 18.3998 17.6008 18.2398 17.6008 17.9998V17.1998C17.6008 16.9598 17.4408 16.7998 17.2008 16.7998C16.9608 16.7998 16.8008 16.9598 16.8008 17.1998V17.9998C16.8007 18.2398 16.9608 18.3998 17.2008 18.3998Z" fill="#DCC70B"/>
<path d="M19.5992 13.6C19.8392 13.6 19.9992 13.44 19.9992 13.2V12.4C19.9992 12.16 19.8392 12 19.5992 12C19.3592 12 19.1992 12.16 19.1992 12.4V13.2C19.1992 13.44 19.3592 13.6 19.5992 13.6Z" fill="#DCC70B"/>
<path d="M19.5992 11.2001C19.8392 11.2001 19.9992 11.0401 19.9992 10.8001V10.0001C19.9992 9.76008 19.8392 9.6001 19.5992 9.6001C19.3592 9.6001 19.1992 9.76008 19.1992 10.0001V10.8001C19.1992 11.0401 19.3592 11.2001 19.5992 11.2001Z" fill="#DCC70B"/>
</svg>
