<svg width="300" height="295" viewBox="0 0 300 295" fill="none" xmlns="http://www.w3.org/2000/svg">
<path d="M238.2 0H23.5211C17.1977 0.123991 11.1798 2.69602 6.77551 7.15694C2.37125 11.6179 -0.0632548 17.607 0.00124989 23.8224V158.295C0.00124989 171.386 9.36118 182.059 21.0011 182.059C22.5924 182.059 24.1185 181.437 25.2437 180.332C26.3689 179.226 27.0011 177.726 27.0011 176.162C27.0011 174.598 26.3689 173.098 25.2437 171.992C24.1185 170.887 22.5924 170.265 21.0011 170.265C16.0511 170.265 12.0012 164.781 12.0012 158.295V81.462H249.719V91.0441C249.719 92.6079 250.352 94.1078 251.477 95.2136C252.602 96.3194 254.128 96.9407 255.719 96.9407C257.311 96.9407 258.837 96.3194 259.962 95.2136C261.087 94.1078 261.719 92.6079 261.719 91.0441V23.8224C261.784 17.607 259.349 11.6179 254.945 7.15694C250.541 2.69602 244.523 0.123991 238.2 0ZM12.0012 23.8224C11.9358 20.7341 13.106 17.7439 15.2601 15.4945C17.4143 13.2451 20.3805 11.9162 23.5211 11.7933H238.2C241.34 11.9162 244.306 13.2451 246.46 15.4945C248.615 17.7439 249.785 20.7341 249.719 23.8224V38.7114H12.0012V23.8224ZM12.0012 69.6688V50.5047H249.719V69.6688H12.0012Z" fill="#FFB410"/>
<path d="M276.509 294.83H61.8004C55.4875 294.698 49.4817 292.127 45.0848 287.673C40.6878 283.22 38.2539 277.242 38.3105 271.037V136.594C38.2539 130.388 40.6878 124.411 45.0848 119.957C49.4817 115.504 55.4875 112.932 61.8004 112.801H276.509C282.822 112.932 288.827 115.504 293.224 119.957C297.621 124.411 300.055 130.388 299.999 136.594V271.037C300.055 277.242 297.621 283.22 293.224 287.673C288.827 292.127 282.822 294.698 276.509 294.83ZM61.8004 124.594C58.6704 124.724 55.7163 126.053 53.5694 128.295C51.4224 130.537 50.2528 133.515 50.3105 136.594V271.037C50.2528 274.115 51.4224 277.094 53.5694 279.336C55.7163 281.578 58.6704 282.906 61.8004 283.037H276.509C279.639 282.906 282.593 281.578 284.74 279.336C286.887 277.094 288.056 274.115 287.999 271.037V136.594C288.056 133.515 286.887 130.537 284.74 128.295C282.593 126.053 279.639 124.724 276.509 124.594H61.8004Z" fill="#FFB410"/>
<path d="M112.412 256.15H74.5825C72.9912 256.15 71.4651 255.528 70.3399 254.423C69.2147 253.317 68.5825 251.817 68.5825 250.253C68.5825 248.689 69.2147 247.189 70.3399 246.084C71.4651 244.978 72.9912 244.356 74.5825 244.356H112.412C114.003 244.356 115.53 244.978 116.655 246.084C117.78 247.189 118.412 248.689 118.412 250.253C118.412 251.817 117.78 253.317 116.655 254.423C115.53 255.528 114.003 256.15 112.412 256.15Z" fill="#FFB410"/>
<path d="M180.509 256.15H142.679C141.088 256.15 139.562 255.528 138.437 254.423C137.311 253.317 136.679 251.817 136.679 250.253C136.679 248.689 137.311 247.189 138.437 246.084C139.562 244.978 141.088 244.356 142.679 244.356H180.509C182.1 244.356 183.626 244.978 184.751 246.084C185.877 247.189 186.509 248.689 186.509 250.253C186.509 251.817 185.877 253.317 184.751 254.423C183.626 255.528 182.1 256.15 180.509 256.15Z" fill="#FFB410"/>
<path d="M256.169 256.15H210.78C209.188 256.15 207.662 255.528 206.537 254.423C205.412 253.317 204.78 251.817 204.78 250.253C204.78 248.689 205.412 247.189 206.537 246.084C207.662 244.978 209.188 244.356 210.78 244.356H256.169C257.761 244.356 259.287 244.978 260.412 246.084C261.537 247.189 262.169 248.689 262.169 250.253C262.169 251.817 261.537 253.317 260.412 254.423C259.287 255.528 257.761 256.15 256.169 256.15Z" fill="#FFB410"/>
<path d="M237.269 209.709C232.16 209.861 227.121 208.512 222.796 205.833C218.472 203.154 215.059 199.268 212.996 194.672C210.932 190.076 210.311 184.979 211.212 180.034C212.113 175.089 214.495 170.521 218.053 166.914C221.612 163.308 226.184 160.827 231.186 159.789C236.187 158.752 241.39 159.205 246.128 161.09C250.866 162.976 254.924 166.208 257.781 170.373C260.639 174.539 262.167 179.447 262.169 184.471C262.258 191.059 259.687 197.412 255.021 202.142C250.354 206.872 243.972 209.592 237.269 209.709V209.709ZM237.269 171.027C234.528 170.867 231.801 171.521 229.442 172.902C227.082 174.284 225.2 176.33 224.037 178.776C222.875 181.221 222.487 183.953 222.924 186.618C223.36 189.283 224.601 191.757 226.485 193.721C228.369 195.685 230.81 197.047 233.491 197.631C236.172 198.216 238.97 197.995 241.522 196.998C244.075 196.002 246.263 194.275 247.805 192.041C249.347 189.807 250.171 187.17 250.169 184.471C250.274 181.004 248.975 177.637 246.556 175.111C244.137 172.585 240.797 171.105 237.269 170.997V171.027Z" fill="#FFB410"/>
</svg>
