<svg width="24" height="24" viewBox="0 0 24 24" fill="none" xmlns="http://www.w3.org/2000/svg">
<path d="M23.4797 18.3086C22.7306 17.6803 18.3369 14.898 17.6066 15.0257C17.2637 15.0866 17.0014 15.3789 16.2994 16.2163C15.9748 16.6285 15.6183 17.0145 15.2331 17.3709C14.5275 17.2004 13.8445 16.9472 13.1983 16.6166C10.664 15.3827 8.61654 13.3347 7.38343 10.8C7.05278 10.1538 6.79959 9.47076 6.62914 8.76514C6.98548 8.38003 7.37153 8.0235 7.78371 7.69886C8.62029 6.99686 8.91343 6.73629 8.97429 6.39171C9.102 5.65971 6.31714 1.26771 5.69143 0.518571C5.42914 0.208286 5.19086 0 4.88571 0C4.00114 0 0 4.94743 0 5.58857C0 5.64086 0.0857142 10.7914 6.59057 17.4094C13.2086 23.9143 18.3591 24 18.4114 24C19.0526 24 24 19.9989 24 19.1143C24 18.8091 23.7917 18.5709 23.4797 18.3086Z" fill="#02044F"/>
<path d="M18.0003 11.1428H19.7146C19.7125 9.32479 18.9894 7.58183 17.7039 6.29631C16.4184 5.01079 14.6754 4.28769 12.8574 4.28564V5.99993C14.221 6.00129 15.5283 6.54356 16.4925 7.50774C17.4566 8.47192 17.9989 9.77923 18.0003 11.1428Z" fill="#02044F"/>
<path d="M22.286 11.1429H24.0003C23.9969 8.18863 22.8218 5.35638 20.7329 3.26743C18.6439 1.17847 15.8116 0.00340284 12.8574 0V1.71429C15.3571 1.71723 17.7536 2.71155 19.5212 4.47911C21.2887 6.24667 22.283 8.64315 22.286 11.1429Z" fill="#02044F"/>
</svg>
