<svg width="24" height="25" viewBox="0 0 24 25" fill="none" xmlns="http://www.w3.org/2000/svg">
<path d="M20.5207 5.30876H19.9196C19.8006 5.31891 19.6823 5.28298 19.5891 5.20841C19.4959 5.13383 19.4349 5.0263 19.4187 4.90803H18.6172C18.6295 5.22207 18.7604 5.51977 18.9835 5.74115C19.2066 5.96252 19.5053 6.09112 19.8194 6.10101V6.51096H20.6209V6.10101C20.935 6.09112 21.2337 5.96252 21.4568 5.74115C21.6799 5.51977 21.8108 5.22207 21.8231 4.90803C21.8089 4.57621 21.6639 4.26349 21.4199 4.03822C21.1759 3.81295 20.8526 3.69345 20.5207 3.70582H19.9196C19.8006 3.71597 19.6823 3.68004 19.5891 3.60547C19.4959 3.53089 19.4349 3.42336 19.4187 3.30509C19.4349 3.18681 19.4959 3.07928 19.5891 3.00471C19.6823 2.93013 19.8006 2.89421 19.9196 2.90435H20.5207C20.6396 2.89421 20.7579 2.93013 20.8511 3.00471C20.9444 3.07928 21.0054 3.18681 21.0216 3.30509H21.8231C21.8108 2.99104 21.6799 2.69334 21.4568 2.47196C21.2337 2.25059 20.935 2.122 20.6209 2.1121V1.70215H19.8194V2.1121C19.5053 2.122 19.2066 2.25059 18.9835 2.47196C18.7604 2.69334 18.6295 2.99104 18.6172 3.30509C18.6314 3.6369 18.7763 3.94962 19.0203 4.17489C19.2644 4.40016 19.5877 4.51967 19.9196 4.50729H20.5207C20.6396 4.49714 20.7579 4.53307 20.8511 4.60765C20.9444 4.68222 21.0054 4.78975 21.0216 4.90803C21.0054 5.0263 20.9444 5.13383 20.8511 5.20841C20.7579 5.28298 20.6396 5.31891 20.5207 5.30876Z" fill="#02044F"/>
<path d="M21.8224 12.1213C21.8224 12.015 21.7802 11.9131 21.705 11.8379C21.6299 11.7628 21.528 11.7206 21.4217 11.7206H17.8151V9.7169C17.8149 9.64669 17.7963 9.57775 17.7612 9.51699C17.726 9.45623 17.6755 9.40577 17.6147 9.37066L13.0062 6.68173V4.50735C13.0062 4.40107 12.964 4.29914 12.8889 4.22398C12.8137 4.14883 12.7118 4.10661 12.6055 4.10661H11.4033V2.90441C11.4033 2.79813 11.3611 2.6962 11.2859 2.62105C11.2108 2.54589 11.1089 2.50367 11.0026 2.50367H9.80037V0.5H8.9989V2.50367H7.79669C7.69041 2.50367 7.58848 2.54589 7.51333 2.62105C7.43818 2.6962 7.39596 2.79813 7.39596 2.90441V4.10661H6.19376C6.08747 4.10661 5.98554 4.14883 5.91039 4.22398C5.83524 4.29914 5.79302 4.40107 5.79302 4.50735V11.5118L1.95679 14.1967C1.90387 14.2337 1.86068 14.2829 1.83088 14.3402C1.80109 14.3975 1.78558 14.4611 1.78567 14.5257V22.966C1.18457 23.2189 0.585874 23.4869 0 23.7867L0.36547 24.5C3.90678 22.6901 7.82702 21.7463 11.804 21.7463C15.7811 21.7463 19.7013 22.6901 23.2426 24.5L23.6081 23.7867C23.0222 23.4865 22.4235 23.2189 21.8224 22.966V12.1213ZM21.0209 12.522V22.6426C19.975 22.2425 18.9041 21.911 17.8151 21.65V12.522H21.0209ZM17.0136 9.94692V21.4833C16.4814 21.3743 15.9471 21.2821 15.4107 21.2068V14.5257C15.4107 14.4194 15.3684 14.3175 15.2933 14.2424C15.2181 14.1672 15.1162 14.125 15.0099 14.125H13.0062V7.60943L17.0136 9.94692ZM8.19743 3.30514H10.6018V4.10661H8.19743V3.30514ZM6.59449 4.90808H12.2048V14.125H10.2011C10.0948 14.125 9.99289 14.1672 9.91774 14.2424C9.84259 14.3175 9.80037 14.4194 9.80037 14.5257V21.0316C8.72339 21.1154 7.65268 21.2662 6.59449 21.4833V4.90808ZM2.58714 14.7345L5.79302 12.4904V21.65C4.704 21.911 3.63311 22.2425 2.58714 22.6426V14.7345ZM10.6018 20.9799V14.9264H14.6092V21.1022C13.2785 20.9585 11.9388 20.9177 10.6018 20.9799Z" fill="#02044F"/>
</svg>
