<svg width="92" height="93" viewBox="0 0 92 93" fill="none" xmlns="http://www.w3.org/2000/svg">
<path d="M76.9347 69.7151C85.7899 71.9385 91.9999 79.9118 91.9999 89.0546C91.9999 89.8979 91.31 90.5878 90.4667 90.5878H79.695V90.6452C79.695 91.4694 79.0241 92.1211 78.2 92.1211H65.9332C65.914 92.1211 65.8949 92.1211 65.8756 92.1211C65.0514 92.1018 64.3998 91.4119 64.4381 90.5878H53.6664C52.8231 90.5878 52.1331 89.8979 52.1331 89.0546C51.9031 78.2636 61.1033 69.5044 71.3767 69.1018C71.6066 69.1211 71.8366 69.1211 72.0666 69.1211C72.3159 69.1211 72.5649 69.1211 72.7949 69.1018C74.1747 69.1401 75.5546 69.351 76.9347 69.7151ZM79.1965 87.5213H88.8566C88.2816 81.1196 84.1033 75.5995 78.0849 73.3186C77.9123 74.1812 77.5673 75.0054 77.0499 75.7144L79.1965 87.5213ZM76.3598 89.0546L74.328 77.861C72.8714 78.4552 71.2613 78.4552 69.8047 77.861L67.7729 89.0546H76.3598ZM75.1139 72.4944C73.1014 72.1302 71.0506 72.1302 69.0381 72.4944C69.2106 73.8936 70.303 75.0052 71.7022 75.1778C73.3888 75.3695 74.903 74.1619 75.1139 72.4944ZM64.9362 87.5213L67.083 75.7144C66.5654 75.0052 66.2014 74.1812 66.048 73.3186C60.0296 75.5995 55.8513 81.1196 55.2763 87.5213H64.9362Z" fill="#787878"/>
<path d="M72.0673 44.5881C79.2933 44.5881 84.3342 49.0731 84.3342 55.5132C84.3342 61.704 79.4466 68.6233 72.7956 69.1025C72.3164 69.0833 71.8373 69.0833 71.3581 69.1025C64.6881 68.6425 59.7812 61.7232 59.7812 55.5132C59.8005 49.0731 64.8416 44.5881 72.0673 44.5881ZM81.2674 55.5132C81.2867 44.9714 62.8481 44.9714 62.8672 55.5132C62.8672 60.3816 66.8922 66.0549 72.0673 66.0549C77.2425 66.0549 81.2674 60.3816 81.2674 55.5132Z" fill="#787878"/>
<path d="M76.6676 3.1878V6.25451C76.6676 7.94127 75.2877 9.32121 73.6009 9.32121V41.5215C73.6009 42.3648 72.911 43.0548 72.0677 43.0548C71.2244 43.0548 70.5344 42.3648 70.5344 41.5215V9.32121H27.6004V12.3879H52.134C53.8208 12.3879 55.2007 13.7679 55.2007 15.4546V16.9879C55.2007 15.3011 56.5806 13.9212 58.2674 13.9212H62.8674C64.5541 13.9212 65.9341 15.3011 65.9341 16.9879V21.5879C65.9341 23.2746 64.5541 24.6546 62.8674 24.6546H58.2674C56.5806 24.6546 55.2007 23.2746 55.2007 21.5879V18.5211C55.2007 20.2079 53.8208 21.5879 52.134 21.5879V62.9883H59.4557C60.299 62.9883 60.989 63.6783 60.989 64.5216C60.989 65.3649 60.299 66.0548 59.4557 66.0548H52.134V75.2549H53.6673C54.4915 75.2742 55.1622 75.9449 55.1814 76.7691C55.2007 77.6124 54.5106 78.3024 53.6673 78.3216H1.53344C0.709224 78.3024 0.0385115 77.6507 0.0192558 76.8074C1.34081e-09 75.9642 0.690148 75.2742 1.53344 75.2549H3.06671V21.588C1.37994 21.588 0 20.2081 0 18.5213V15.4546C0 13.7679 1.37994 12.3879 3.06671 12.3879H24.5336V9.32121C22.8469 9.32121 21.4669 7.94127 21.4669 6.25451V3.1878C21.4669 1.50103 22.8469 0.121094 24.5336 0.121094H73.6008C75.2875 0.121094 76.6676 1.50121 76.6676 3.1878ZM73.6009 6.25451V3.1878H24.5336V6.25451H73.6009ZM62.8674 21.588V16.9879H58.2674V21.5879H62.8674V21.588ZM52.134 18.5213V15.4546H3.06689V18.5213H52.134ZM49.0673 75.2553C49.0673 68.1443 49.0673 29.5806 49.0673 21.588H6.13359V75.2553H49.0673Z" fill="#787878"/>
<path d="M71.3779 69.1026C71.8572 69.0833 72.3362 69.0833 72.8155 69.1026C72.5662 69.1218 72.3362 69.1218 72.0872 69.1218C71.8381 69.1218 71.6079 69.1218 71.3779 69.1026Z" fill="#787878"/>
<path d="M65.9326 30.7884V35.3884C65.9326 37.0751 64.5527 38.4551 62.8659 38.4551H58.2659C56.5792 38.4551 55.1992 37.0751 55.1992 35.3884V30.7884C55.1992 29.1016 56.5792 27.7217 58.2659 27.7217H62.8659C64.5527 27.7217 65.9326 29.1016 65.9326 30.7884ZM62.8659 35.3884V30.7884H58.2659V35.3884H62.8659Z" fill="#787878"/>
<path d="M65.3974 43.4385C65.3974 43.8028 65.2632 44.1477 65.0141 44.4161C64.4582 45.0677 63.4807 45.1444 62.829 44.5694H58.2481V49.1693C58.9957 49.5336 59.3214 50.4535 58.9381 51.2011C57.6922 53.3286 54.9898 51.0094 55.1622 49.1693V44.5694C55.1622 42.8826 56.5421 41.5027 58.2289 41.5027H62.8288C63.9792 41.5218 65.3591 42.1927 65.3974 43.4385Z" fill="#787878"/>
<path d="M42.9328 56.8558V61.4557C42.9328 63.1425 41.5529 64.5224 39.8661 64.5224H33.7327C32.046 64.5224 30.666 63.1425 30.666 61.4557V56.8558C30.666 55.169 32.046 53.7891 33.7327 53.7891H39.8661C41.5529 53.7891 42.9328 55.169 42.9328 56.8558ZM39.8661 61.4557V56.8558H33.7327V61.4557H39.8661Z" fill="#787878"/>
<path d="M42.9328 43.0545V47.6545C42.9328 49.3411 41.5529 50.7212 39.8661 50.7212H33.7327C32.046 50.7212 30.666 49.3412 30.666 47.6545V43.0545C30.666 41.3677 32.046 39.9878 33.7327 39.9878H39.8661C41.5529 39.9878 42.9328 41.3677 42.9328 43.0545ZM39.8661 47.6545V43.0545H33.7327V47.6545H39.8661Z" fill="#787878"/>
<path d="M42.9328 29.2554V33.8554C42.9328 35.5422 41.5529 36.9221 39.8661 36.9221H33.7327C32.046 36.9221 30.666 35.5422 30.666 33.8554V29.2554C30.666 27.5687 32.046 26.1887 33.7327 26.1887H39.8661C41.5529 26.1887 42.9328 27.5688 42.9328 29.2554ZM39.8661 33.8556V29.2554H33.7327V33.8554H39.8661V33.8556Z" fill="#787878"/>
<path d="M24.5344 56.8558V61.4557C24.5344 63.1425 23.1545 64.5224 21.4677 64.5224H15.3343C13.6475 64.5224 12.2676 63.1425 12.2676 61.4557V56.8558C12.2676 55.169 13.6475 53.7891 15.3343 53.7891H21.4677C23.1545 53.7891 24.5344 55.169 24.5344 56.8558ZM21.4677 61.4557V56.8558H15.3343V61.4557H21.4677Z" fill="#787878"/>
<path d="M24.5344 43.0545V47.6545C24.5344 49.3411 23.1545 50.7212 21.4677 50.7212H15.3343C13.6475 50.7212 12.2676 49.3412 12.2676 47.6545V43.0545C12.2676 41.3677 13.6475 39.9878 15.3343 39.9878H21.4677C23.1545 39.9878 24.5344 41.3677 24.5344 43.0545ZM21.4677 47.6545V43.0545H15.3343V47.6545H21.4677Z" fill="#787878"/>
<path d="M24.5344 29.2554V33.8554C24.5344 35.5422 23.1545 36.9221 21.4677 36.9221H15.3343C13.6475 36.9221 12.2676 35.5422 12.2676 33.8554V29.2554C12.2676 27.5687 13.6475 26.1887 15.3343 26.1887H21.4677C23.1545 26.1887 24.5344 27.5688 24.5344 29.2554ZM21.4677 33.8556V29.2554H15.3343V33.8554H21.4677V33.8556Z" fill="#787878"/>
</svg>
