<svg width="24" height="24" viewBox="0 0 24 24" fill="none" xmlns="http://www.w3.org/2000/svg">
<path d="M11.9997 5.45457C13.5034 5.45457 14.727 4.23103 14.727 2.72731C14.727 1.22359 13.5034 0 11.9997 0C10.496 0 9.27246 1.22354 9.27246 2.72726C9.27246 4.23097 10.496 5.45457 11.9997 5.45457ZM11.9997 1.09089C12.9021 1.09089 13.6361 1.8249 13.6361 2.72726C13.6361 3.62961 12.9021 4.36362 11.9997 4.36362C11.0974 4.36362 10.3634 3.62961 10.3634 2.72726C10.3634 1.8249 11.0974 1.09089 11.9997 1.09089Z" fill="#01277A"/>
<path d="M8.25949 10.9091H15.7403C16.3849 10.9091 16.909 10.3434 16.909 9.64771V9.2983C16.909 8.38689 16.4578 7.55434 15.7307 7.12551C14.8598 6.612 13.5058 6 11.9999 6C10.494 6 9.14001 6.61205 8.2691 7.12551C7.542 7.55429 7.09082 8.38689 7.09082 9.2983V9.64771C7.09082 10.3434 7.61497 10.9091 8.25949 10.9091ZM8.18171 9.2983C8.18171 8.77896 8.43366 8.29526 8.82307 8.06514C9.57682 7.62087 10.7402 7.09089 11.9999 7.09089C13.2597 7.09089 14.423 7.62092 15.1768 8.06514C15.5662 8.29526 15.8181 8.7789 15.8181 9.2983V9.64771C15.8181 9.76118 15.7537 9.81815 15.7403 9.81815H8.25949C8.2462 9.81815 8.18171 9.76113 8.18171 9.64771V9.2983Z" fill="#01277A"/>
<path d="M4.9089 18.5454C6.41262 18.5454 7.63616 17.3218 7.63616 15.8181C7.63616 14.3144 6.41262 13.0908 4.9089 13.0908C3.40518 13.0908 2.18164 14.3144 2.18164 15.8181C2.18164 17.3218 3.40518 18.5454 4.9089 18.5454ZM4.9089 14.1817C5.81125 14.1817 6.54526 14.9157 6.54526 15.8181C6.54526 16.7204 5.81125 17.4544 4.9089 17.4544C4.00655 17.4544 3.27253 16.7204 3.27253 15.8181C3.27253 14.9157 4.00655 14.1817 4.9089 14.1817Z" fill="#01277A"/>
<path d="M8.6399 20.2163C7.769 19.7028 6.41496 19.0908 4.90909 19.0908C3.40323 19.0908 2.04919 19.7029 1.17828 20.2163C0.451176 20.6451 0 21.4777 0 22.3891V22.7385C0 23.4341 0.524148 23.9999 1.16867 23.9999H8.64952C9.29404 23.9999 9.81819 23.4341 9.81819 22.7385V22.3891C9.81819 21.4777 9.36701 20.6451 8.6399 20.2163ZM8.7273 22.7385C8.7273 22.852 8.66286 22.909 8.64952 22.909H1.16867C1.15538 22.909 1.09089 22.852 1.09089 22.7385V22.3891C1.09089 21.8698 1.34284 21.3861 1.73225 21.156C2.486 20.7117 3.64935 20.1817 4.90909 20.1817C6.16884 20.1817 7.33219 20.7117 8.08594 21.156C8.47535 21.3861 8.7273 21.8697 8.7273 22.3891V22.7385Z" fill="#01277A"/>
<path d="M19.0905 18.5454C20.5943 18.5454 21.8178 17.3218 21.8178 15.8181C21.8178 14.3144 20.5943 13.0908 19.0905 13.0908C17.5868 13.0908 16.3633 14.3144 16.3633 15.8181C16.3633 17.3218 17.5868 18.5454 19.0905 18.5454ZM19.0905 14.1817C19.9929 14.1817 20.7269 14.9157 20.7269 15.8181C20.7269 16.7204 19.9929 17.4544 19.0905 17.4544C18.1882 17.4544 17.4542 16.7204 17.4542 15.8181C17.4542 14.9157 18.1882 14.1817 19.0905 14.1817Z" fill="#01277A"/>
<path d="M22.8215 20.2163C21.9506 19.7028 20.5966 19.0908 19.0907 19.0908C17.5849 19.0908 16.2308 19.7029 15.3599 20.2163C14.6328 20.6451 14.1816 21.4777 14.1816 22.3891V22.7385C14.1816 23.4342 14.7058 23.9999 15.3503 23.9999H22.8312C23.4757 23.9999 23.9998 23.4342 23.9998 22.7385V22.3891C23.9998 21.4777 23.5486 20.6451 22.8215 20.2163ZM22.9089 22.7385C22.9089 22.852 22.8445 22.909 22.8311 22.909H15.3503C15.337 22.909 15.2725 22.852 15.2725 22.7385V22.3891C15.2725 21.8698 15.5244 21.3861 15.9138 21.156C16.6676 20.7117 17.8309 20.1817 19.0907 20.1817C20.3504 20.1817 21.5138 20.7117 22.2675 21.156C22.6569 21.3861 22.9089 21.8697 22.9089 22.3891V22.7385Z" fill="#01277A"/>
<path d="M14.7271 18.5455C14.8874 18.5455 15.0456 18.4751 15.1538 18.3409C15.3418 18.1055 15.3034 17.7624 15.0685 17.5739L12.5458 15.5557V12.5455C12.5458 12.244 12.3018 12 12.0003 12C11.6988 12 11.4549 12.2439 11.4549 12.5454V15.5561L8.93214 17.5738C8.69722 17.7624 8.65887 18.1054 8.8469 18.3409C8.95505 18.4751 9.11322 18.5454 9.27358 18.5454C9.39288 18.5454 9.51331 18.5065 9.61394 18.4261L12.0003 16.517L14.3867 18.4261C14.4873 18.5065 14.6077 18.5455 14.7271 18.5455Z" fill="#01277A"/>
</svg>
