<svg width="52" height="52" viewBox="0 0 52 52" fill="none" xmlns="http://www.w3.org/2000/svg">
<rect width="52.0002" height="51.9998" rx="4" fill="#FFFEE2"/>
<path d="M25.9981 21.0549C28.9688 21.0549 31.5713 19.0558 32.3271 16.1936C32.4012 15.9127 32.2331 15.6251 31.9514 15.5511C31.6697 15.4773 31.3814 15.6449 31.3072 15.9258C31.2144 16.2773 31.0875 16.6127 30.9322 16.9302C30.7257 16.2349 30.3712 15.5908 29.8852 15.0341C30.3354 14.3254 30.5974 13.4863 30.5974 12.5869C30.5974 12.1236 30.528 11.6762 30.3993 11.2543C30.9585 12.0008 31.3329 12.8969 31.449 13.88C31.4831 14.1684 31.7447 14.3749 32.0344 14.3407C32.3236 14.3068 32.5305 14.0454 32.4964 13.757C32.1087 10.4749 29.315 8 25.9981 8C22.3892 8 19.4531 10.9282 19.4531 14.5274C19.4531 18.1267 22.3892 21.0549 25.9981 21.0549ZM25.9981 20.0031C24.377 20.0031 22.9183 19.2983 21.9123 18.1803C21.9565 17.3291 22.2616 16.529 22.7882 15.8674C23.6177 16.6748 24.7503 17.1737 25.9981 17.1737C27.2459 17.1737 28.3785 16.6748 29.2079 15.8674C29.7354 16.5299 30.0405 17.3316 30.0839 18.1843C29.0671 19.3125 27.5965 20.0031 25.9981 20.0031ZM25.9981 16.1219C24.0436 16.1219 22.4536 14.5361 22.4536 12.5868C22.4536 10.6375 24.0436 9.05172 25.9981 9.05172C27.9526 9.05172 29.5427 10.6375 29.5427 12.5868C29.5427 14.5361 27.9525 16.1219 25.9981 16.1219ZM21.5958 11.2593C21.468 11.6797 21.3989 12.1253 21.3989 12.5868C21.3989 13.4862 21.6608 14.3252 22.111 15.0339C21.6253 15.5905 21.272 16.2348 21.0657 16.9299C20.7088 16.2041 20.5077 15.3888 20.5077 14.5274C20.5077 13.3034 20.9126 12.172 21.5958 11.2593Z" fill="#D9D116"/>
<path d="M25.9981 30.9448C22.3892 30.9448 19.4531 33.8731 19.4531 37.4723C19.4531 41.0716 22.3892 43.9998 25.9981 43.9998C29.6071 43.9998 32.5431 41.0716 32.5431 37.4723C32.5431 33.8731 29.607 30.9448 25.9981 30.9448ZM22.4536 35.5318C22.4536 33.5825 24.0436 31.9967 25.9981 31.9967C27.9526 31.9967 29.5427 33.5825 29.5427 35.5318C29.5427 37.481 27.9526 39.0668 25.9981 39.0668C24.0436 39.0668 22.4536 37.481 22.4536 35.5318ZM21.5964 34.2031C21.4684 34.6239 21.399 35.0698 21.399 35.5317C21.399 36.4313 21.661 37.2704 22.1114 37.9793C21.6256 38.536 21.2724 39.1804 21.0662 39.8755C20.7091 39.1495 20.5078 38.334 20.5078 37.4723C20.5077 36.2479 20.9129 35.1162 21.5964 34.2031ZM25.9981 42.948C24.377 42.948 22.9183 42.2432 21.9123 41.1252C21.9565 40.274 22.2616 39.4739 22.7882 38.8123C23.6177 39.6197 24.7503 40.1186 25.9981 40.1186C27.2457 40.1186 28.3782 39.6198 29.2076 38.8126C29.7344 39.4739 30.0398 40.2739 30.0841 41.125C29.0781 42.2431 27.6193 42.948 25.9981 42.948ZM30.9311 39.8736C30.7246 39.179 30.3708 38.5353 29.8851 37.9789C30.3353 37.2702 30.5972 36.4311 30.5972 35.5318C30.5972 35.0699 30.5277 34.624 30.3998 34.2032C31.0833 35.1162 31.4884 36.248 31.4884 37.4724C31.4884 38.3333 31.2876 39.1481 30.9311 39.8736Z" fill="#D9D116"/>
<path d="M37.4552 19.4731C33.8462 19.4731 30.9102 22.4014 30.9102 26.0006C30.9102 29.5999 33.8462 32.5282 37.4552 32.5282C41.0641 32.5282 44.0002 29.5999 44.0002 26.0006C44.0002 22.4014 41.064 19.4731 37.4552 19.4731ZM42.9455 26.0006C42.9455 26.8623 42.7443 27.6778 42.3872 28.4039C42.1807 27.709 41.827 27.0652 41.3412 26.5087C41.792 25.7995 42.0543 24.96 42.0543 24.06C42.0543 23.5981 41.9847 23.1523 41.8568 22.7315C42.5404 23.6445 42.9455 24.7762 42.9455 26.0006ZM33.9106 24.06C33.9106 22.1108 35.5007 20.5249 37.4552 20.5249C39.4096 20.5249 40.9997 22.1108 40.9997 24.06C40.9997 26.0093 39.4096 27.5951 37.4552 27.5951C35.5007 27.5951 33.9106 26.0093 33.9106 24.06ZM33.0534 22.7315C32.9255 23.1523 32.856 23.5981 32.856 24.06C32.856 24.9597 33.118 25.7988 33.5685 26.5078C33.0827 27.0642 32.7292 27.708 32.5226 28.4028C32.1658 27.6771 31.9648 26.8619 31.9648 26.0006C31.9648 24.7762 32.37 23.6445 33.0534 22.7315ZM37.4552 31.4764C35.834 31.4764 34.3753 30.7715 33.3694 29.6535C33.4135 28.8023 33.7187 28.0022 34.2453 27.3406C35.0747 28.1481 36.2073 28.6469 37.4551 28.6469C38.7029 28.6469 39.8356 28.148 40.665 27.3406C41.1917 28.0021 41.4968 28.8023 41.5409 29.6535C40.535 30.7715 39.0763 31.4764 37.4552 31.4764Z" fill="#D9D116"/>
<path d="M14.545 19.4731C10.936 19.4731 8 22.4014 8 26.0006C8 29.5999 10.936 32.5282 14.545 32.5282C18.154 32.5282 21.09 29.5999 21.09 26.0006C21.09 22.4014 18.154 19.4731 14.545 19.4731ZM20.0354 26.0006C20.0354 26.8617 19.8345 27.6766 19.4779 28.4022C19.2717 27.7084 18.9187 27.0655 18.4341 26.5096C18.884 25.7997 19.1442 24.9593 19.1442 24.06C19.1442 23.5981 19.0746 23.1523 18.9467 22.7315C19.6302 23.6445 20.0354 24.7762 20.0354 26.0006ZM10.1433 22.7315C10.0153 23.1523 9.94583 23.5981 9.94583 24.06C9.94583 24.9415 10.2005 25.7873 10.657 26.5082C10.1717 27.0646 9.81865 27.7083 9.61243 28.4029C9.25562 27.6771 9.05461 26.862 9.05461 26.0007C9.05461 24.7762 9.4598 23.6445 10.1433 22.7315ZM14.545 31.4764C12.9239 31.4764 11.4652 30.7715 10.4592 29.6535C10.5033 28.8031 10.8079 28.0035 11.3337 27.3425C11.6225 27.6237 11.9505 27.8695 12.3128 28.0704C12.5673 28.2114 12.8883 28.1202 13.0299 27.8665C13.1715 27.6126 13.0799 27.2924 12.8254 27.1512C11.6997 26.5269 11.0004 25.3424 11.0004 24.0601C11.0004 22.1108 12.5905 20.525 14.545 20.525C16.4995 20.525 18.0896 22.1108 18.0896 24.0601C18.0896 25.9426 16.6145 27.4933 14.7313 27.5903C14.4405 27.6053 14.2169 27.8526 14.2319 28.1427C14.2465 28.4235 14.4794 28.6414 14.7581 28.6414C14.7672 28.6414 14.7765 28.6412 14.7858 28.6407C15.9448 28.581 16.9842 28.0966 17.7573 27.3437C18.2825 28.0046 18.5867 28.8037 18.6308 29.6535C17.6249 30.7715 16.1662 31.4764 14.545 31.4764Z" fill="#D9D116"/>
<path d="M33.8247 14.7619C35.1778 15.6966 36.3409 16.8533 37.2818 18.2001C37.3843 18.3467 37.5482 18.4253 37.7149 18.4253C37.8189 18.4253 37.924 18.3946 38.0159 18.3308C38.2548 18.1648 38.3135 17.837 38.147 17.5987C37.1341 16.1488 35.8819 14.9035 34.4252 13.8973C34.1859 13.732 33.8574 13.7914 33.6915 14.0302C33.5257 14.2689 33.5853 14.5965 33.8247 14.7619Z" fill="#D9D116"/>
<path d="M38.0159 33.6691C37.7769 33.5032 37.4483 33.5617 37.2818 33.7999C36.3409 35.1466 35.1777 36.3034 33.8247 37.2381C33.5853 37.4034 33.5257 37.731 33.6915 37.9698C33.794 38.1173 33.9583 38.1963 34.1255 38.1963C34.229 38.1963 34.3336 38.1659 34.4252 38.1027C35.8819 37.0964 37.1341 35.8511 38.147 34.4012C38.3135 34.1629 38.2548 33.8352 38.0159 33.6691Z" fill="#D9D116"/>
<path d="M18.1773 37.1907C16.8543 36.2649 15.7146 35.1247 14.79 33.8019C14.6234 33.5636 14.2948 33.5051 14.0559 33.6713C13.817 33.8373 13.7583 34.1651 13.9248 34.4034C14.9202 35.8275 16.1471 37.0549 17.5716 38.0517C17.6638 38.1162 17.7694 38.1471 17.874 38.1471C18.04 38.1471 18.2035 38.0691 18.3061 37.9232C18.4734 37.6855 18.4157 37.3575 18.1773 37.1907Z" fill="#D9D116"/>
<path d="M14.0559 18.3289C14.1478 18.3928 14.2529 18.4235 14.357 18.4235C14.5236 18.4235 14.6875 18.3449 14.79 18.1983C15.7146 16.8755 16.8543 15.7352 18.1773 14.8095C18.4157 14.6426 18.4734 14.3146 18.3061 14.0769C18.1388 13.8391 17.8099 13.7817 17.5716 13.9485C16.1472 14.9452 14.9202 16.1727 13.9248 17.5968C13.7583 17.835 13.817 18.1629 14.0559 18.3289Z" fill="#D9D116"/>
</svg>
