<svg width="52" height="52" viewBox="0 0 52 52" fill="none" xmlns="http://www.w3.org/2000/svg">
<rect width="52" height="52" rx="4" fill="#EBFBFF"/>
<g opacity="0.36" clip-path="url(#clip0_826_3101)">
<path d="M43.9999 33.423C43.9999 31.3164 43.3691 29.2824 42.1755 27.5407C41.3169 26.2879 40.2114 25.2476 38.9302 24.4745C40.4386 23.046 41.3824 21.027 41.3824 18.7905C41.3824 14.4718 37.8688 10.9583 33.5502 10.9583C30.9894 10.9583 28.5906 12.2247 27.1335 14.3037C26.7633 14.2498 26.385 14.2207 25.9999 14.2207C25.6149 14.2207 25.2367 14.2499 24.8665 14.3037C23.4093 12.2247 21.0105 10.9583 18.4498 10.9583C14.1311 10.9583 10.6175 14.4718 10.6175 18.7905C10.6175 21.027 11.5613 23.046 13.0698 24.4745C11.7885 25.2475 10.683 26.2879 9.82453 27.5406C8.63092 29.2824 8 31.3164 8 33.423V37.7794H15.5503V41.0418H36.4498V37.7794H44V33.423H43.9999ZM33.5502 12.8913C36.803 12.8913 39.4494 15.5377 39.4494 18.7906C39.4494 22.0435 36.803 24.6898 33.5502 24.6898C33.492 24.6898 33.4337 24.6889 33.3753 24.6872C33.3798 24.6748 33.3834 24.6622 33.3878 24.6498C33.4885 24.3643 33.5725 24.0711 33.6398 23.7716C33.6446 23.7503 33.65 23.7292 33.6545 23.7079C33.672 23.6271 33.6874 23.5455 33.7024 23.4637C33.7094 23.4251 33.7167 23.3865 33.7231 23.3477C33.7353 23.2748 33.7463 23.2015 33.7565 23.128C33.7635 23.0768 33.7699 23.0257 33.776 22.9745C33.7836 22.9095 33.7911 22.8445 33.7972 22.7791C33.8034 22.7123 33.808 22.6454 33.8125 22.5784C33.8159 22.5257 33.8203 22.4731 33.8227 22.42C33.828 22.3063 33.831 22.1923 33.8314 22.0783C33.8314 22.0699 33.8321 22.0616 33.8321 22.0531C33.8321 22.0486 33.8317 22.0441 33.8317 22.0395C33.8315 21.923 33.8281 21.8073 33.8229 21.6919C33.8213 21.6583 33.8193 21.6249 33.8174 21.5914C33.8117 21.4933 33.8042 21.3957 33.7951 21.2986C33.7929 21.2766 33.7912 21.2545 33.789 21.2326C33.4969 18.4096 31.7134 15.9933 29.1406 14.8756C30.2493 13.6301 31.8529 12.8913 33.5502 12.8913ZM23.9588 16.5178C23.9777 16.5109 23.9967 16.5044 24.0156 16.4977C24.0742 16.4767 24.1334 16.4568 24.1928 16.4376C24.2379 16.4232 24.2832 16.4092 24.3288 16.3959C24.3619 16.3861 24.3952 16.3768 24.4285 16.3675C24.4881 16.3512 24.5479 16.3352 24.6083 16.3206C25.0548 16.2122 25.5205 16.1533 25.9998 16.1533C26.4794 16.1537 26.9453 16.2127 27.3919 16.3211C27.4519 16.3356 27.5113 16.3514 27.5706 16.3677C27.6044 16.3771 27.6382 16.3865 27.6718 16.3965C27.7168 16.4097 27.7617 16.4234 27.8062 16.4377C27.8664 16.4571 27.9263 16.4772 27.9856 16.4984C28.0039 16.5049 28.0221 16.5111 28.0403 16.5178C30.0132 17.2474 31.4924 19.0032 31.8272 21.134C31.8298 21.151 31.8323 21.1681 31.8348 21.1852C31.8456 21.2574 31.8545 21.3302 31.8626 21.4032C31.8655 21.43 31.8686 21.4568 31.8712 21.4838C31.8775 21.5504 31.8823 21.6174 31.8865 21.6847C31.8883 21.7135 31.8907 21.7422 31.892 21.7711C31.8961 21.857 31.8983 21.9434 31.8986 22.0303C31.8986 22.0379 31.8991 22.0452 31.8991 22.0528C31.8991 22.0562 31.8989 22.0598 31.8989 22.0633C31.8987 22.1474 31.8962 22.2309 31.8925 22.3141C31.8914 22.3403 31.8902 22.3665 31.8887 22.3926C31.8841 22.473 31.8781 22.553 31.8704 22.6325C31.8674 22.6632 31.8633 22.6938 31.8599 22.7245C31.854 22.7759 31.8474 22.8272 31.8402 22.8782C31.8346 22.9179 31.829 22.9578 31.8226 22.9973C31.8129 23.0575 31.8021 23.1173 31.7905 23.177C31.7801 23.23 31.7688 23.2829 31.757 23.3357C31.75 23.3675 31.7426 23.3993 31.735 23.4309C31.7161 23.5092 31.6955 23.5871 31.6734 23.6648C31.6646 23.6956 31.6564 23.7266 31.6471 23.7572C31.6337 23.8016 31.6192 23.8457 31.6048 23.8898C31.5932 23.925 31.5813 23.9601 31.569 23.9951C31.5551 24.0348 31.5414 24.0746 31.5267 24.1141C31.5017 24.1811 31.4754 24.2474 31.448 24.3133C31.4359 24.3426 31.4229 24.3717 31.4102 24.401C31.3864 24.4558 31.3618 24.5103 31.3363 24.5643C31.3333 24.5706 31.3303 24.577 31.3273 24.5834C31.3181 24.6025 31.3091 24.6218 31.2997 24.6409C31.2711 24.6993 31.2413 24.757 31.2108 24.8142C31.1989 24.8364 31.1874 24.8589 31.1752 24.8811C31.1744 24.8825 31.1737 24.8839 31.1729 24.8852C31.1394 24.9461 31.1045 25.006 31.0691 25.0656C31.055 25.0892 31.041 25.1128 31.0266 25.1361C30.988 25.1989 30.9483 25.2609 30.9074 25.322C30.882 25.36 30.8554 25.3972 30.8291 25.4346C30.8068 25.4663 30.7845 25.4981 30.7616 25.5293C30.732 25.5697 30.7017 25.6096 30.671 25.6493C30.6501 25.6763 30.629 25.7031 30.6078 25.7298C30.5753 25.7703 30.5425 25.8107 30.5091 25.8505C30.4883 25.8751 30.467 25.8993 30.4458 25.9235C30.411 25.9634 30.3763 26.0035 30.3405 26.0424C30.3193 26.0655 30.2972 26.0877 30.2756 26.1105C30.2174 26.1719 30.1579 26.2319 30.0972 26.2908C30.0611 26.3257 30.0253 26.3607 29.9883 26.3946C29.9628 26.4181 29.9366 26.4409 29.9106 26.464C29.8683 26.5016 29.8257 26.5388 29.7823 26.5751C29.7603 26.5936 29.738 26.6119 29.7157 26.63C29.6632 26.6728 29.6101 26.7146 29.556 26.7556C29.5414 26.7667 29.5269 26.778 29.5121 26.789C28.5301 27.519 27.3147 27.9517 25.9999 27.9517C24.6849 27.9517 23.4693 27.5189 22.4873 26.7887C22.4729 26.7779 22.4586 26.7668 22.4442 26.7559C22.39 26.7148 22.3366 26.6727 22.2839 26.6297C22.2618 26.6117 22.2396 26.5936 22.2178 26.5752C22.1742 26.5387 22.1315 26.5013 22.089 26.4636C22.0632 26.4406 22.0371 26.418 22.0116 26.3946C21.9746 26.3606 21.9387 26.3255 21.9025 26.2906C21.8415 26.2316 21.7819 26.1713 21.7235 26.1098C21.7022 26.0873 21.6803 26.0653 21.6594 26.0425C21.6235 26.0035 21.5888 25.9634 21.554 25.9234C21.5328 25.8992 21.5116 25.8751 21.4908 25.8505C21.4573 25.8107 21.4246 25.7703 21.3921 25.7298C21.3709 25.7032 21.3497 25.6764 21.3288 25.6493C21.2982 25.6097 21.2679 25.5698 21.2383 25.5294C21.2154 25.4981 21.193 25.4662 21.1707 25.4344C21.1444 25.3971 21.1179 25.36 21.0926 25.3221C21.0515 25.2607 21.0116 25.1985 20.9729 25.1356C20.9587 25.1125 20.9449 25.0892 20.931 25.0659C20.895 25.0055 20.8597 24.9448 20.8258 24.883C20.8133 24.8603 20.8015 24.8372 20.7892 24.8144C20.7587 24.757 20.7288 24.6991 20.7001 24.6406C20.6899 24.6198 20.6799 24.5989 20.67 24.578C20.6684 24.5748 20.667 24.5716 20.6655 24.5684C20.6387 24.512 20.6131 24.455 20.5881 24.3974C20.5762 24.3701 20.5641 24.3428 20.5527 24.3154C20.5247 24.2481 20.4979 24.1803 20.4723 24.1119C20.4585 24.0749 20.4457 24.0376 20.4327 24.0004C20.4193 23.9622 20.4063 23.9238 20.3936 23.8852C20.38 23.8435 20.3663 23.8017 20.3535 23.7598C20.3345 23.697 20.3165 23.6339 20.2996 23.5704C20.2877 23.5259 20.277 23.4809 20.2661 23.4361C20.2576 23.4008 20.2494 23.3655 20.2415 23.3301C20.2319 23.2866 20.2221 23.2432 20.2134 23.1995C20.2 23.1314 20.1877 23.063 20.1767 22.9942C20.1707 22.9571 20.1655 22.9199 20.1601 22.8828C20.1523 22.8278 20.1453 22.7725 20.139 22.717C20.1359 22.6897 20.1323 22.6623 20.1295 22.635C20.1215 22.5535 20.1154 22.4714 20.1108 22.3891C20.1094 22.3654 20.1083 22.3417 20.1073 22.3181C20.1033 22.23 20.1005 22.1417 20.1005 22.0528C20.1005 21.9575 20.1032 21.8628 20.1078 21.7686C20.109 21.743 20.1111 21.7176 20.1126 21.6921C20.1168 21.6213 20.122 21.5508 20.1287 21.4806C20.1311 21.4561 20.1339 21.4318 20.1365 21.4074C20.1448 21.3315 20.1542 21.2559 20.1654 21.1808C20.1675 21.1662 20.1696 21.1515 20.1719 21.1369C20.5057 19.0048 21.9852 17.2479 23.9588 16.5178ZM12.5505 18.7906C12.5505 15.5378 15.1968 12.8913 18.4498 12.8913C20.1472 12.8913 21.7507 13.6302 22.8594 14.8754C20.2857 15.9935 18.5018 18.4109 18.2106 21.2351C18.2086 21.2542 18.2072 21.2735 18.2053 21.2927C18.1957 21.3933 18.188 21.4943 18.1822 21.5959C18.1805 21.6268 18.1786 21.6577 18.1771 21.6887C18.1716 21.8096 18.1678 21.9309 18.1678 22.053C18.1678 22.1764 18.1714 22.2994 18.1772 22.4223C18.1795 22.4718 18.1836 22.5208 18.1868 22.57C18.1915 22.6408 18.1963 22.7115 18.2029 22.7821C18.2087 22.8448 18.2159 22.9071 18.2232 22.9695C18.2296 23.0238 18.2364 23.0779 18.2439 23.132C18.2537 23.2031 18.2644 23.2738 18.2761 23.3443C18.2831 23.3861 18.2909 23.4279 18.2985 23.4696C18.313 23.5485 18.3278 23.6272 18.3446 23.7052C18.3502 23.7309 18.3566 23.7564 18.3624 23.782C18.428 24.0722 18.5095 24.3564 18.6065 24.6335C18.6127 24.6513 18.6181 24.6694 18.6244 24.6872C18.5661 24.6889 18.5077 24.6898 18.4496 24.6898C15.1968 24.6897 12.5505 22.0434 12.5505 18.7906ZM17.1708 31.1134C17.1495 31.1469 17.1292 31.181 17.1084 31.2148C17.0642 31.2861 17.0204 31.3576 16.9781 31.4298C16.9544 31.4701 16.9316 31.5107 16.9086 31.5513C16.8705 31.6183 16.8329 31.6854 16.7964 31.7532C16.7734 31.7958 16.7508 31.8386 16.7283 31.8814C16.6932 31.9488 16.6589 32.0166 16.6252 32.0845C16.6041 32.1272 16.583 32.1698 16.5625 32.2128C16.5283 32.2844 16.4953 32.3566 16.4628 32.4289C16.4451 32.4682 16.4269 32.5072 16.4098 32.5468C16.3721 32.6334 16.3361 32.7206 16.3009 32.8082C16.2905 32.8338 16.2795 32.8591 16.2695 32.8848C16.2247 32.9985 16.1819 33.113 16.1413 33.2281C16.132 33.2545 16.1237 33.2812 16.1145 33.3076C16.084 33.3963 16.0542 33.4853 16.0261 33.5747C16.0132 33.6158 16.0014 33.6571 15.989 33.6982C15.9663 33.774 15.9439 33.8499 15.923 33.9262C15.9105 33.9717 15.8986 34.0172 15.8867 34.0628C15.8676 34.1361 15.8492 34.2095 15.8318 34.2833C15.8207 34.3299 15.8099 34.3766 15.7995 34.4234C15.7829 34.4981 15.7674 34.5731 15.7524 34.6482C15.7434 34.6933 15.7341 34.7385 15.7257 34.7838C15.7105 34.8656 15.6969 34.9477 15.6837 35.03C15.6775 35.0686 15.6706 35.1071 15.6648 35.1458C15.6468 35.2666 15.6305 35.3877 15.6168 35.5093C15.6166 35.5108 15.6165 35.5122 15.6164 35.5137C15.6039 35.6244 15.5932 35.7352 15.5842 35.8465H9.93297V33.423C9.93297 30.112 11.8364 27.1396 14.8184 25.7268C15.9047 26.2978 17.1396 26.6228 18.4497 26.6228C18.8285 26.6228 19.2085 26.5948 19.5857 26.5393C19.6444 26.6231 19.7042 26.706 19.766 26.7874C19.7869 26.8147 19.8085 26.8414 19.8298 26.8685C19.8909 26.9466 19.9528 27.0238 20.0168 27.0995C20.043 27.1305 20.0699 27.1608 20.0966 27.1915C20.1565 27.2603 20.2174 27.3282 20.2796 27.3948C20.3123 27.4299 20.3455 27.4644 20.3788 27.4989C20.4357 27.5576 20.4934 27.6154 20.5521 27.6723C20.5741 27.6937 20.5949 27.7163 20.6171 27.7374C20.5331 27.7882 20.4499 27.8402 20.3675 27.8932C20.354 27.9018 20.3409 27.9109 20.3275 27.9196C20.2451 27.9732 20.1635 28.0279 20.0827 28.0836C20.0548 28.103 20.027 28.1225 19.9991 28.142C19.9271 28.1927 19.8559 28.2444 19.7852 28.2968C19.7629 28.3135 19.7403 28.3297 19.7182 28.3465C19.6283 28.4145 19.5395 28.4837 19.4518 28.5544C19.4327 28.5699 19.4139 28.5858 19.3948 28.6015C19.325 28.6586 19.2559 28.7167 19.1877 28.7756C19.1612 28.7984 19.1349 28.8214 19.1086 28.8445C19.0403 28.9048 18.9728 28.9658 18.906 29.0278C18.8886 29.0439 18.8709 29.0598 18.8536 29.0761C18.7716 29.1532 18.6909 29.2318 18.6114 29.3117C18.5907 29.3325 18.5705 29.3537 18.55 29.3746C18.4891 29.4367 18.4289 29.4995 18.3694 29.5632C18.3459 29.5885 18.3223 29.6139 18.2989 29.6395C18.232 29.7125 18.1661 29.7866 18.1012 29.8617C18.0911 29.8735 18.0806 29.8849 18.0704 29.8968C17.9965 29.9831 17.9242 30.071 17.8529 30.1598C17.8329 30.1846 17.8135 30.2097 17.7939 30.2347C17.7403 30.3029 17.6874 30.3717 17.6354 30.4412C17.6153 30.4681 17.5951 30.4947 17.5753 30.5218C17.5072 30.6146 17.4401 30.7081 17.3748 30.8033C17.3048 30.9056 17.2369 31.0091 17.1708 31.1134ZM17.4833 39.1089V37.7795V36.6855C17.4833 36.5782 17.4853 36.4713 17.4893 36.3647C17.4905 36.3296 17.4933 36.2948 17.4951 36.2598C17.4985 36.1887 17.5018 36.1175 17.507 36.0466C17.5102 36.0036 17.5151 35.961 17.5189 35.9181C17.5245 35.8556 17.5296 35.7931 17.5365 35.7311C17.5416 35.6856 17.5483 35.6405 17.5541 35.5952C17.5616 35.5361 17.5687 35.477 17.5774 35.4182C17.5845 35.3714 17.593 35.325 17.6007 35.2785C17.6102 35.2218 17.619 35.165 17.6296 35.1086C17.6386 35.061 17.649 35.0138 17.6588 34.9664C17.67 34.9117 17.6807 34.8568 17.693 34.8025C17.7038 34.7545 17.7162 34.7071 17.7278 34.6593C17.7408 34.6062 17.7533 34.5527 17.7673 34.4999C17.7801 34.4518 17.7942 34.4043 17.8077 34.3566C17.8224 34.3047 17.8367 34.2527 17.8524 34.2012C17.867 34.1533 17.883 34.1057 17.8984 34.0581C17.9148 34.0075 17.9307 33.9569 17.948 33.9067C17.9645 33.8593 17.9822 33.8122 17.9994 33.7651C18.0175 33.7154 18.0353 33.6656 18.0544 33.6163C18.0725 33.5694 18.0919 33.5231 18.1107 33.4765C18.1305 33.4279 18.15 33.379 18.1707 33.3308C18.1907 33.2843 18.2118 33.2383 18.2326 33.1923C18.2539 33.1448 18.2751 33.0972 18.2973 33.0502C18.3191 33.0043 18.3419 32.959 18.3644 32.9135C18.3874 32.8671 18.4101 32.8206 18.4339 32.7747C18.4574 32.7294 18.4818 32.6848 18.5061 32.64C18.5306 32.5947 18.5549 32.5494 18.5802 32.5045C18.6054 32.4601 18.6315 32.4163 18.6573 32.3723C18.6834 32.3281 18.7093 32.2837 18.7362 32.2398C18.763 32.1962 18.7906 32.1533 18.8182 32.1102C18.8458 32.067 18.8733 32.0238 18.9017 31.9811C18.9301 31.9384 18.9593 31.8962 18.9885 31.8541C19.0176 31.812 19.0466 31.77 19.0763 31.7284C19.1063 31.6867 19.1371 31.6455 19.1679 31.6043C19.1985 31.5634 19.2289 31.5225 19.2602 31.4822C19.2917 31.4415 19.3239 31.4014 19.3562 31.3612C19.3882 31.3214 19.4203 31.2816 19.453 31.2424C19.4859 31.203 19.5196 31.164 19.5532 31.1252C19.5867 31.0864 19.6204 31.0477 19.6547 31.0094C19.689 30.9711 19.7241 30.9334 19.7591 30.8957C19.794 30.8581 19.829 30.8207 19.8647 30.7838C19.9005 30.7467 19.9369 30.7102 19.9734 30.6737C20.0099 30.6373 20.0465 30.601 20.0836 30.5652C20.1206 30.5295 20.1582 30.4943 20.196 30.4593C20.2339 30.4241 20.272 30.389 20.3105 30.3544C20.349 30.32 20.3878 30.2861 20.427 30.2523C20.4662 30.2184 20.5058 30.1847 20.5457 30.1514C20.5854 30.1184 20.6255 30.0858 20.6659 30.0534C20.7066 30.0208 20.7476 29.9884 20.7889 29.9564C20.8298 29.9249 20.8711 29.8938 20.9126 29.8628C20.9547 29.8314 20.9971 29.8004 21.04 29.7698C21.082 29.7397 21.1243 29.7101 21.1669 29.6807C21.2106 29.6507 21.2545 29.621 21.2988 29.5917C21.3418 29.5633 21.3852 29.5352 21.4288 29.5075C21.4739 29.4788 21.5193 29.4504 21.565 29.4226C21.6091 29.3957 21.6535 29.3692 21.6981 29.3431C21.7445 29.3159 21.7913 29.2891 21.8384 29.2627C21.8835 29.2374 21.9289 29.2124 21.9746 29.1878C22.0225 29.1621 22.0707 29.1369 22.1192 29.112C22.1652 29.0883 22.2114 29.065 22.258 29.0421C22.2946 29.0241 22.3316 29.0067 22.3687 28.9892C23.4549 29.5602 24.69 29.8852 25.9999 29.8852C27.31 29.8852 28.545 29.5602 29.6312 28.9892C29.668 29.0066 29.7047 29.0239 29.741 29.0417C29.7882 29.0649 29.8349 29.0885 29.8815 29.1124C29.9294 29.137 29.9771 29.1619 30.0245 29.1874C30.0707 29.2122 30.1166 29.2375 30.1622 29.2631C30.2087 29.2892 30.2549 29.3156 30.3007 29.3425C30.346 29.369 30.391 29.3959 30.4356 29.4232C30.4808 29.4507 30.5255 29.4786 30.57 29.5069C30.6142 29.535 30.6581 29.5634 30.7017 29.5923C30.7455 29.6212 30.7889 29.6506 30.832 29.6803C30.875 29.7099 30.9178 29.7398 30.9602 29.7702C31.0027 29.8005 31.0446 29.8312 31.0864 29.8624C31.1283 29.8935 31.17 29.9249 31.2112 29.9568C31.2522 29.9885 31.2928 30.0206 31.3332 30.0529C31.3738 30.0855 31.4142 30.1183 31.4542 30.1515C31.4939 30.1846 31.5332 30.2181 31.5722 30.2518C31.6116 30.2858 31.6507 30.3199 31.6894 30.3546C31.7276 30.3889 31.7654 30.4237 31.803 30.4586C31.8411 30.494 31.8791 30.5295 31.9165 30.5656C31.9533 30.601 31.9896 30.637 32.0256 30.673C32.0623 30.7098 32.0991 30.7466 32.1351 30.7839C32.1705 30.8206 32.2054 30.8577 32.2401 30.895C32.2754 30.933 32.3107 30.9711 32.3453 31.0097C32.3793 31.0476 32.4127 31.0859 32.4459 31.1244C32.4799 31.1635 32.5138 31.2028 32.5469 31.2426C32.5795 31.2815 32.6113 31.3211 32.6431 31.3606C32.6756 31.401 32.708 31.4413 32.7397 31.4823C32.7709 31.5224 32.8011 31.5631 32.8315 31.6038C32.8624 31.6451 32.8933 31.6866 32.9235 31.7285C32.9531 31.7698 32.982 31.8118 33.0109 31.8536C33.0402 31.8959 33.0696 31.9383 33.0981 31.9812C33.1263 32.0236 33.1536 32.0665 33.181 32.1094C33.2088 32.1528 33.2366 32.1961 33.2636 32.24C33.2903 32.2834 33.316 32.3275 33.3419 32.3714C33.368 32.4156 33.3943 32.4598 33.4195 32.5045C33.4447 32.5492 33.4689 32.5944 33.4933 32.6395C33.5177 32.6844 33.5422 32.7292 33.5657 32.7746C33.5895 32.8204 33.6121 32.8669 33.6351 32.9132C33.6576 32.9587 33.6805 33.0041 33.7023 33.0501C33.7245 33.0971 33.7456 33.1445 33.7668 33.1919C33.7877 33.2382 33.8089 33.2842 33.8289 33.3309C33.8495 33.3787 33.8687 33.4271 33.8884 33.4755C33.9076 33.5224 33.9271 33.5692 33.9453 33.6166C33.9643 33.6656 33.982 33.7152 34 33.7646C34.0173 33.8119 34.035 33.859 34.0515 33.9066C34.0689 33.957 34.0849 34.0079 34.1013 34.0586C34.1167 34.1061 34.1326 34.1534 34.1471 34.2012C34.1629 34.2527 34.1771 34.3048 34.1919 34.3567C34.2054 34.4044 34.2195 34.4518 34.2323 34.4999C34.2463 34.5527 34.2588 34.6061 34.2718 34.6593C34.2835 34.707 34.2958 34.7545 34.3066 34.8025C34.3189 34.8568 34.3295 34.9116 34.3408 34.9662C34.3506 35.0136 34.361 35.0609 34.37 35.1086C34.3806 35.1645 34.3892 35.2208 34.3987 35.2771C34.4065 35.3242 34.4152 35.3709 34.4223 35.4183C34.431 35.4766 34.438 35.5353 34.4455 35.5939C34.4514 35.6396 34.4582 35.6851 34.4633 35.731C34.4702 35.793 34.4753 35.8555 34.4809 35.918C34.4847 35.9609 34.4896 36.0035 34.4928 36.0465C34.4981 36.1174 34.5013 36.1887 34.5047 36.2599C34.5065 36.2948 34.5093 36.3296 34.5105 36.3646C34.5145 36.4712 34.5165 36.5781 34.5165 36.6854V37.7793V39.1089H17.4833ZM36.4162 35.8465C36.3972 35.611 36.37 35.377 36.3354 35.1445C36.3299 35.1077 36.3233 35.0711 36.3174 35.0344C36.304 34.9502 36.2899 34.8662 36.2744 34.7825C36.2662 34.7385 36.2572 34.6946 36.2484 34.6506C36.2332 34.5742 36.2174 34.4979 36.2004 34.422C36.1902 34.3761 36.1796 34.3303 36.1687 34.2847C36.1511 34.2101 36.1325 34.1358 36.1132 34.0616C36.1015 34.0167 36.0898 33.9719 36.0774 33.927C36.0562 33.8499 36.0336 33.7731 36.0106 33.6965C35.9984 33.6561 35.9869 33.6156 35.9742 33.5753C35.9457 33.4846 35.9155 33.3943 35.8845 33.3042C35.8758 33.2791 35.8679 33.2537 35.859 33.2285C35.8182 33.113 35.7754 32.9982 35.7304 32.8841C35.7208 32.8596 35.7102 32.8355 35.7004 32.811C35.6647 32.7224 35.6282 32.6339 35.59 32.5462C35.5731 32.5072 35.5552 32.4688 35.5378 32.43C35.505 32.357 35.4717 32.2842 35.4371 32.2119C35.4169 32.1696 35.396 32.1275 35.3753 32.0855C35.3413 32.0168 35.3066 31.9485 35.2712 31.8806C35.2489 31.838 35.2266 31.7957 35.2038 31.7535C35.1671 31.6855 35.1294 31.6181 35.0911 31.5508C35.0681 31.5104 35.0454 31.47 35.0219 31.4299C34.9794 31.3573 34.9354 31.2855 34.891 31.2138C34.8703 31.1804 34.8502 31.1466 34.8291 31.1135C34.7629 31.0092 34.695 30.9057 34.6249 30.8033C34.5595 30.708 34.4924 30.6145 34.4243 30.5217C34.4046 30.4948 34.3845 30.4682 34.3646 30.4416C34.3123 30.3717 34.2593 30.3027 34.2054 30.2343C34.186 30.2096 34.1668 30.1847 34.147 30.1602C34.0756 30.0711 34.003 29.983 33.9289 29.8965C33.9192 29.8853 33.9093 29.8743 33.8996 29.8631C33.8343 29.7875 33.7678 29.7128 33.7004 29.6392C33.6772 29.6139 33.6539 29.5888 33.6306 29.5637C33.5708 29.4996 33.5102 29.4363 33.449 29.3739C33.4288 29.3533 33.4089 29.3325 33.3885 29.3121C33.3088 29.2321 33.2278 29.1532 33.1457 29.0759C33.1288 29.06 33.1114 29.0445 33.0943 29.0287C33.0272 28.9663 32.9593 28.905 32.8907 28.8444C32.8646 28.8214 32.8383 28.7986 32.812 28.7758C32.7436 28.7168 32.6745 28.6587 32.6046 28.6015C32.5856 28.5859 32.5669 28.57 32.5478 28.5545C32.4602 28.4838 32.3714 28.4146 32.2816 28.3467C32.2592 28.3298 32.2364 28.3134 32.2139 28.2966C32.1435 28.2445 32.0727 28.193 32.001 28.1426C31.9728 28.1228 31.9447 28.1031 31.9165 28.0835C31.8365 28.0283 31.7558 27.9742 31.6742 27.9213C31.6599 27.912 31.6459 27.9023 31.6316 27.8931C31.5492 27.8403 31.4663 27.7884 31.3824 27.7377C31.4041 27.7171 31.4244 27.6952 31.4457 27.6743C31.5056 27.6163 31.5645 27.5574 31.6225 27.4975C31.6549 27.464 31.687 27.4305 31.7188 27.3965C31.7821 27.3288 31.8437 27.2598 31.9046 27.1899C31.9305 27.1602 31.9565 27.1308 31.9819 27.1006C32.0468 27.0239 32.1098 26.9455 32.1717 26.8661C32.192 26.8402 32.2128 26.8147 32.2327 26.7885C32.2949 26.7069 32.3549 26.6236 32.4139 26.5395C32.7911 26.5949 33.1711 26.6229 33.55 26.6229C34.86 26.6229 36.095 26.2979 37.1812 25.7269C40.1633 27.1397 42.0666 30.1121 42.0666 33.4231V35.8465H36.4162Z" fill="#00B4D8"/>
</g>
<defs>
<clipPath id="clip0_826_3101">
<rect width="36" height="36" fill="white" transform="translate(8 8)"/>
</clipPath>
</defs>
</svg>
