<svg width="24" height="24" viewBox="0 0 24 24" fill="none" xmlns="http://www.w3.org/2000/svg">
<g clip-path="url(#clip0_877_7192)">
<path d="M21.414 0H2.58595C1.16006 0 0 1.16002 0 2.58591V18.4015C0 19.8274 1.16006 20.9875 2.58595 20.9875H8.69625L11.5028 23.794C11.6346 23.9259 11.8134 24 12 24C12.1864 24 12.3652 23.9259 12.4972 23.794L15.3037 20.9875H21.414C22.84 20.9875 24 19.8274 24 18.4015V2.58591C24 1.16002 22.8399 0 21.414 0V0ZM22.5938 18.4015C22.5938 19.052 22.0645 19.5812 21.414 19.5812H15.0125C14.826 19.5812 14.6471 19.6553 14.5153 19.7872L12 22.3025L9.48469 19.7872C9.35283 19.6553 9.174 19.5812 8.98748 19.5812H2.58595C1.93547 19.5812 1.40625 19.052 1.40625 18.4015V2.58591C1.40625 1.93542 1.93547 1.40625 2.58595 1.40625H21.414C22.0645 1.40625 22.5938 1.93542 22.5938 2.58591V18.4015Z" fill="#6A6A6A"/>
<path d="M18.04 8.08806L14.3023 7.54478L12.6303 4.1575C12.5118 3.91755 12.2674 3.76562 11.9998 3.76562C11.7322 3.76562 11.4877 3.91755 11.3693 4.15755L9.6974 7.54478L5.95945 8.08806C5.69461 8.12655 5.47457 8.31203 5.39184 8.56661C5.30915 8.82114 5.37815 9.10056 5.56978 9.28736L8.27475 11.9239L7.63631 15.6468C7.59108 15.9106 7.6995 16.1771 7.91601 16.3345C8.13258 16.4918 8.41964 16.5125 8.6565 16.388L11.9998 14.6304L15.3434 16.388C15.4462 16.4421 15.5586 16.4688 15.6705 16.4688H15.6734C16.0608 16.4678 16.3746 16.1534 16.3746 15.7657C16.3746 15.7117 16.3685 15.6591 16.357 15.6085L15.7247 11.9239L18.4297 9.28741C18.6213 9.10061 18.6903 8.82119 18.6076 8.56666C18.5249 8.31203 18.3049 8.12655 18.04 8.08806ZM14.4784 11.1749C14.3127 11.3365 14.2371 11.5692 14.2762 11.7973L14.7366 14.4803L12.327 13.2136C12.1221 13.1059 11.8774 13.1059 11.6726 13.2136L9.26315 14.4803L9.72328 11.7973C9.76237 11.5692 9.68676 11.3365 9.52106 11.175L7.57162 9.2748L10.2655 8.88325C10.4945 8.84997 10.6924 8.70616 10.7948 8.49864L11.9998 6.05734L13.2049 8.49869C13.3073 8.70616 13.5052 8.84997 13.7343 8.88325L16.4279 9.2748L14.4784 11.1749Z" fill="#6A6A6A"/>
</g>
<defs>
<clipPath id="clip0_877_7192">
<rect width="24" height="24" fill="white"/>
</clipPath>
</defs>
</svg>
