<svg width="54" height="54" viewBox="0 0 54 54" fill="none" xmlns="http://www.w3.org/2000/svg">
<g filter="url(#filter0_d_725_6848)">
<circle cx="27" cy="26" r="16" fill="white"/>
</g>
<path d="M32.3791 16H20.7749C19.8298 16 19 16.7775 19 17.6978V34.8639C19 35.172 19.0857 35.4287 19.2239 35.6271C19.3892 35.8642 19.6552 36.0001 19.9406 36C20.2103 36 20.4975 35.8799 20.7627 35.6534L25.9545 31.2453C26.1148 31.1084 26.3451 31.0299 26.5846 31.0299C26.824 31.0299 27.0539 31.1084 27.2147 31.2457L32.389 35.6527C32.6552 35.8799 32.9226 36.0001 33.1919 36.0001C33.6473 36.0001 34.0911 35.6488 34.0911 34.864V17.6978C34.0911 16.7775 33.3242 16 32.3791 16Z" fill="#02044F"/>
<defs>
<filter id="filter0_d_725_6848" x="0" y="0" width="54" height="54" filterUnits="userSpaceOnUse" color-interpolation-filters="sRGB">
<feFlood flood-opacity="0" result="BackgroundImageFix"/>
<feColorMatrix in="SourceAlpha" type="matrix" values="0 0 0 0 0 0 0 0 0 0 0 0 0 0 0 0 0 0 127 0" result="hardAlpha"/>
<feOffset dy="1"/>
<feGaussianBlur stdDeviation="5.5"/>
<feComposite in2="hardAlpha" operator="out"/>
<feColorMatrix type="matrix" values="0 0 0 0 0.458617 0 0 0 0 0.458617 0 0 0 0 0.458617 0 0 0 0.25 0"/>
<feBlend mode="normal" in2="BackgroundImageFix" result="effect1_dropShadow_725_6848"/>
<feBlend mode="normal" in="SourceGraphic" in2="effect1_dropShadow_725_6848" result="shape"/>
</filter>
</defs>
</svg>
