<svg width="40" height="40" viewBox="0 0 40 40" fill="none" xmlns="http://www.w3.org/2000/svg">
<rect width="40" height="40" rx="4" fill="#CAF0F8"/>
<g clip-path="url(#clip0_845_2973)">
<path d="M31.5735 12.5388C31.2625 12.1712 30.8271 11.9467 30.3472 11.9066L13.4462 10.4954C12.9662 10.4553 12.4997 10.6045 12.132 10.9155C11.7659 11.2252 11.5417 11.6584 11.5003 12.1359L11.1603 15.326H9.80257C8.80864 15.326 8 16.1347 8 17.1286V27.7084C8 28.7023 8.80864 29.5109 9.80257 29.5109H26.7625C27.7565 29.5109 28.5651 28.7023 28.5651 27.7084V25.9921L29.1669 26.0424C29.2177 26.0466 29.2682 26.0487 29.3182 26.0487C30.2449 26.0487 31.0348 25.3358 31.1133 24.396L31.9936 13.853C32.0337 13.3731 31.8845 12.9065 31.5735 12.5388ZM9.80257 16.2635H26.7625C27.2395 16.2635 27.6276 16.6516 27.6276 17.1286V18.0926H8.9375V17.1286C8.9375 16.6516 9.32557 16.2635 9.80257 16.2635ZM8.9375 19.0301H27.6276V20.9749H8.9375V19.0301ZM26.7625 28.5734H9.80257C9.32557 28.5734 8.9375 28.1854 8.9375 27.7084V21.9124H27.6276V27.7084C27.6276 28.1854 27.2395 28.5734 26.7625 28.5734ZM31.0594 13.775L30.179 24.318C30.1393 24.7934 29.7202 25.148 29.2449 25.1081L28.5651 25.0514V17.1286C28.5651 16.1347 27.7565 15.326 26.7625 15.326H12.1031L12.4331 12.2304C12.4335 12.2269 12.4338 12.2234 12.4341 12.2197C12.4738 11.7444 12.8927 11.3898 13.3682 11.4297L30.2692 12.8409C30.4995 12.8601 30.7086 12.9679 30.8578 13.1443C31.007 13.3207 31.0786 13.5447 31.0594 13.775Z" fill="#0096C7"/>
<path d="M25.6656 23.3062H21.1543C20.8954 23.3062 20.6855 23.516 20.6855 23.7749V26.7181C20.6855 26.977 20.8954 27.1869 21.1543 27.1869H25.6656C25.9245 27.1869 26.1344 26.977 26.1344 26.7181V23.7749C26.1344 23.516 25.9245 23.3062 25.6656 23.3062ZM25.1969 26.2494H21.623V24.2436H25.1969V26.2494Z" fill="#0096C7"/>
</g>
<defs>
<clipPath id="clip0_845_2973">
<rect width="24" height="24" fill="white" transform="translate(8 8)"/>
</clipPath>
</defs>
</svg>
