<svg width="24" height="24" viewBox="0 0 24 24" fill="none" xmlns="http://www.w3.org/2000/svg">
<path d="M17.6484 0H6.35153C4.92564 0 3.76562 1.16006 3.76562 2.58595V22.3246C3.76562 23.5613 4.44925 24 5.03462 24C5.45655 24 5.88133 23.7891 6.2972 23.3732L11.9999 17.6705L17.7026 23.3732C18.1185 23.7891 18.5433 24 18.9652 24H18.9654C19.3839 24 19.7532 23.7854 19.9786 23.4112C20.1483 23.1296 20.2343 22.764 20.2343 22.3245V2.58595C20.2343 1.16006 19.0743 0 17.6484 0V0ZM18.8281 22.3246C18.8281 22.39 18.8249 22.4448 18.8201 22.4904C18.7838 22.461 18.7425 22.4243 18.697 22.3789L12.497 16.179C12.3652 16.0471 12.1863 15.973 11.9999 15.973C11.8134 15.973 11.6345 16.047 11.5027 16.179L5.3028 22.3789C5.25662 22.4251 5.21566 22.4617 5.18008 22.4905C5.17511 22.444 5.17187 22.3889 5.17187 22.3246V2.58595C5.17187 1.93547 5.70105 1.40625 6.35153 1.40625H17.6484C18.2989 1.40625 18.8281 1.93547 18.8281 2.58595V22.3246Z" fill="#01277A"/>
</svg>
