<svg width="16" height="16" viewBox="0 0 16 16" fill="none" xmlns="http://www.w3.org/2000/svg">
<path d="M11.307 10.7623C10.5404 10.7623 9.84971 11.0934 9.37034 11.62L5.05871 8.94957C5.17382 8.65489 5.23766 8.33482 5.23766 7.99998C5.23766 7.66502 5.17382 7.34496 5.05871 7.0504L9.37034 4.37987C9.84971 4.90648 10.5404 5.23766 11.307 5.23766C12.7511 5.23766 13.9259 4.06286 13.9259 2.61877C13.9259 1.17468 12.7511 0 11.307 0C9.8629 0 8.68809 1.1748 8.68809 2.61889C8.68809 2.95373 8.75206 3.2738 8.86705 3.56847L4.55553 6.23888C4.07616 5.71227 3.38549 5.38109 2.61889 5.38109C1.1748 5.38109 0 6.55602 0 7.99998C0 9.44407 1.1748 10.6189 2.61889 10.6189C3.38549 10.6189 4.07616 10.2878 4.55553 9.76109L8.86705 12.4315C8.75206 12.7262 8.68809 13.0462 8.68809 13.3812C8.68809 14.8252 9.8629 16 11.307 16C12.7511 16 13.9259 14.8252 13.9259 13.3812C13.9259 11.9371 12.7511 10.7623 11.307 10.7623V10.7623ZM9.64305 2.61889C9.64305 1.70141 10.3895 0.954954 11.307 0.954954C12.2245 0.954954 12.9709 1.70141 12.9709 2.61889C12.9709 3.53637 12.2245 4.28283 11.307 4.28283C10.3895 4.28283 9.64305 3.53637 9.64305 2.61889ZM2.61889 9.66392C1.70129 9.66392 0.954832 8.91746 0.954832 7.99998C0.954832 7.08251 1.70129 6.33605 2.61889 6.33605C3.53637 6.33605 4.28271 7.08251 4.28271 7.99998C4.28271 8.91746 3.53637 9.66392 2.61889 9.66392ZM9.64305 13.3811C9.64305 12.4636 10.3895 11.7171 11.307 11.7171C12.2245 11.7171 12.9709 12.4636 12.9709 13.3811C12.9709 14.2986 12.2245 15.045 11.307 15.045C10.3895 15.045 9.64305 14.2986 9.64305 13.3811Z" fill="#6A6A6A"/>
</svg>
