<svg width="54" height="54" viewBox="0 0 54 54" fill="none" xmlns="http://www.w3.org/2000/svg">
<g filter="url(#filter0_d_725_6851)">
<circle cx="27" cy="26" r="16" fill="white"/>
</g>
<g clip-path="url(#clip0_725_6851)">
<path d="M30.5633 28.9581C29.7115 28.9581 28.9441 29.326 28.4115 29.9111L23.6208 26.944C23.7487 26.6165 23.8196 26.2609 23.8196 25.8889C23.8196 25.5167 23.7487 25.1611 23.6208 24.8338L28.4115 21.8665C28.9441 22.4516 29.7115 22.8196 30.5633 22.8196C32.1679 22.8196 33.4732 21.5143 33.4732 19.9097C33.4732 18.3052 32.1679 17 30.5633 17C28.9588 17 27.6534 18.3053 27.6534 19.9099C27.6534 20.2819 27.7245 20.6376 27.8523 20.965L23.0617 23.9321C22.5291 23.347 21.7617 22.979 20.9099 22.979C19.3053 22.979 18 24.2845 18 25.8889C18 27.4934 19.3053 28.7987 20.9099 28.7987C21.7617 28.7987 22.5291 28.4309 23.0617 27.8457L27.8523 30.8128C27.7245 31.1402 27.6534 31.4958 27.6534 31.868C27.6534 33.4724 28.9588 34.7777 30.5633 34.7777C32.1679 34.7777 33.4732 33.4724 33.4732 31.868C33.4732 30.2635 32.1679 28.9581 30.5633 28.9581ZM28.7145 19.9099C28.7145 18.8905 29.5439 18.0611 30.5633 18.0611C31.5827 18.0611 32.4121 18.8905 32.4121 19.9099C32.4121 20.9293 31.5827 21.7587 30.5633 21.7587C29.5439 21.7587 28.7145 20.9293 28.7145 19.9099ZM20.9099 27.7377C19.8903 27.7377 19.0609 26.9083 19.0609 25.8889C19.0609 24.8695 19.8903 24.0401 20.9099 24.0401C21.9293 24.0401 22.7586 24.8695 22.7586 25.8889C22.7586 26.9083 21.9293 27.7377 20.9099 27.7377ZM28.7145 31.8679C28.7145 30.8484 29.5439 30.019 30.5633 30.019C31.5827 30.019 32.4121 30.8484 32.4121 31.8679C32.4121 32.8873 31.5827 33.7167 30.5633 33.7167C29.5439 33.7167 28.7145 32.8873 28.7145 31.8679Z" fill="#1F1F1F"/>
</g>
<defs>
<filter id="filter0_d_725_6851" x="0" y="0" width="54" height="54" filterUnits="userSpaceOnUse" color-interpolation-filters="sRGB">
<feFlood flood-opacity="0" result="BackgroundImageFix"/>
<feColorMatrix in="SourceAlpha" type="matrix" values="0 0 0 0 0 0 0 0 0 0 0 0 0 0 0 0 0 0 127 0" result="hardAlpha"/>
<feOffset dy="1"/>
<feGaussianBlur stdDeviation="5.5"/>
<feComposite in2="hardAlpha" operator="out"/>
<feColorMatrix type="matrix" values="0 0 0 0 0.458617 0 0 0 0 0.458617 0 0 0 0 0.458617 0 0 0 0.25 0"/>
<feBlend mode="normal" in2="BackgroundImageFix" result="effect1_dropShadow_725_6851"/>
<feBlend mode="normal" in="SourceGraphic" in2="effect1_dropShadow_725_6851" result="shape"/>
</filter>
<clipPath id="clip0_725_6851">
<rect width="17.7777" height="17.7778" fill="white" transform="translate(18 17)"/>
</clipPath>
</defs>
</svg>
