<svg width="25" height="25" viewBox="0 0 25 25" fill="none" xmlns="http://www.w3.org/2000/svg">
<path d="M24.6523 23.7461L17.3499 16.4436C18.8667 14.7595 19.7989 12.5391 19.7989 10.0996C19.7988 4.86134 15.5371 0.599609 10.2988 0.599609C5.06056 0.599609 0.798828 4.86134 0.798828 10.0996C0.798828 15.3379 5.06056 19.5996 10.2988 19.5996C12.7384 19.5996 14.9587 18.6674 16.6429 17.1507L23.9453 24.4531C24.043 24.5508 24.1709 24.5996 24.2989 24.5996C24.4268 24.5996 24.5547 24.5508 24.6524 24.4531C24.8477 24.2578 24.8477 23.9414 24.6523 23.7461ZM10.2988 18.5996C5.61233 18.5996 1.79886 14.7866 1.79886 10.0996C1.79886 5.41264 5.61233 1.59959 10.2988 1.59959C14.9854 1.59959 18.7988 5.41259 18.7988 10.0996C18.7988 14.7867 14.9854 18.5996 10.2988 18.5996Z" fill="#6A6A6A"/>
</svg>
