<svg width="20" height="25" viewBox="0 0 20 25" fill="none" xmlns="http://www.w3.org/2000/svg">
<path d="M19.8221 24.5996H18.6221V19.1996C18.6221 18.404 18.306 17.6409 17.7434 17.0783C17.1808 16.5157 16.4177 16.1996 15.6221 16.1996H4.82207C4.02642 16.1996 3.26336 16.5157 2.70075 17.0783C2.13814 17.6409 1.82207 18.404 1.82207 19.1996V24.5996H0.62207V19.1996C0.62207 18.0857 1.06457 17.0174 1.85222 16.2298C2.63987 15.4421 3.70816 14.9996 4.82207 14.9996H15.6221C16.736 14.9996 17.8043 15.4421 18.5919 16.2298C19.3796 17.0174 19.8221 18.0857 19.8221 19.1996V24.5996Z" fill="#6A6A6A"/>
<path d="M10.2221 13.7996C8.91672 13.7996 7.64067 13.4125 6.55531 12.6873C5.46994 11.9621 4.62401 10.9313 4.12447 9.72532C3.62493 8.51933 3.49423 7.19229 3.74889 5.91202C4.00355 4.63174 4.63214 3.45573 5.55517 2.53271C6.47819 1.60968 7.6542 0.981092 8.93448 0.72643C10.2148 0.471767 11.5418 0.602469 12.7478 1.10201C13.9538 1.60155 14.9846 2.44748 15.7098 3.53285C16.435 4.61821 16.8221 5.89426 16.8221 7.19961C16.8221 8.95004 16.1267 10.6288 14.889 11.8665C13.6512 13.1043 11.9725 13.7996 10.2221 13.7996ZM10.2221 1.79961C9.15405 1.79961 8.11002 2.11632 7.22199 2.70968C6.33397 3.30304 5.64184 4.1464 5.23312 5.13312C4.82441 6.11984 4.71747 7.2056 4.92583 8.2531C5.13419 9.3006 5.64849 10.2628 6.4037 11.018C7.1589 11.7732 8.12109 12.2875 9.16858 12.4959C10.2161 12.7042 11.3018 12.5973 12.2886 12.1886C13.2753 11.7799 14.1186 11.0877 14.712 10.1997C15.3054 9.31167 15.6221 8.26763 15.6221 7.19961C15.6221 5.76744 15.0531 4.39393 14.0404 3.38124C13.0278 2.36854 11.6542 1.79961 10.2221 1.79961Z" fill="#6A6A6A"/>
</svg>
