<svg width="30" height="24" viewBox="0 0 30 24" fill="none" xmlns="http://www.w3.org/2000/svg">
<path d="M26.875 0H3.12497C1.4025 0 0 1.683 0 3.75004V20.25C0 22.317 1.4025 24 3.12497 24H26.8749C28.5974 24 29.9999 22.317 29.9999 20.25V3.75004C29.9999 1.683 28.5974 0 26.875 0ZM28.75 20.25C28.75 21.4905 27.9087 22.5 26.875 22.5H3.12497C2.09121 22.5 1.24998 21.4905 1.24998 20.25V3.75004C1.24998 2.50952 2.09121 1.50004 3.12497 1.50004H26.8749C27.9087 1.50004 28.7499 2.50952 28.7499 3.75004V20.25H28.75Z" fill="#6A6A6A"/>
<path d="M29.3749 4.5H0.625018C0.280019 4.5 0 4.83602 0 5.25002V9.75002C0 10.164 0.280019 10.5 0.625018 10.5H29.375C29.72 10.5 30 10.164 30 9.75002V5.25002C29.9999 4.83602 29.7199 4.5 29.3749 4.5ZM28.75 8.99999H1.24998V5.99998H28.7499V8.99999H28.75Z" fill="#6A6A6A"/>
</svg>
