<svg width="22" height="24" viewBox="0 0 22 24" fill="none" xmlns="http://www.w3.org/2000/svg">
<path d="M11.0977 17.8674H3.30392C3.1096 17.8674 2.95215 17.7099 2.95215 17.5156C2.95215 17.3213 3.1096 17.1638 3.30392 17.1638H11.0977C11.292 17.1638 11.4495 17.3213 11.4495 17.5156C11.4495 17.7099 11.292 17.8674 11.0977 17.8674Z" fill="#6A6A6A"/>
<path d="M14.6965 12.2841H3.30392C3.1096 12.2841 2.95215 12.1266 2.95215 11.9323C2.95215 11.7381 3.1096 11.5806 3.30392 11.5806H14.6965C14.8908 11.5806 15.0483 11.7381 15.0483 11.9323C15.0483 12.1266 14.8908 12.2841 14.6965 12.2841Z" fill="#6A6A6A"/>
<path d="M14.6965 15.0761H3.30392C3.1096 15.0761 2.95215 14.9186 2.95215 14.7243C2.95215 14.5301 3.1096 14.3726 3.30392 14.3726H14.6965C14.8908 14.3726 15.0483 14.5301 15.0483 14.7243C15.0483 14.9186 14.8908 15.0761 14.6965 15.0761Z" fill="#6A6A6A"/>
<path d="M9.00018 5.71221H3.30392C3.1096 5.71221 2.95215 5.55471 2.95215 5.36044C2.95215 5.16617 3.1096 5.00867 3.30392 5.00867H9.00018C9.1945 5.00867 9.35196 5.16617 9.35196 5.36044C9.35196 5.55471 9.1945 5.71221 9.00018 5.71221Z" fill="#6A6A6A"/>
<path d="M14.6965 9.49248H3.30392C3.1096 9.49248 2.95215 9.33498 2.95215 9.14071C2.95215 8.94644 3.1096 8.78894 3.30392 8.78894H14.6965C14.8908 8.78894 15.0483 8.94644 15.0483 9.14071C15.0483 9.33498 14.8908 9.49248 14.6965 9.49248Z" fill="#6A6A6A"/>
<path d="M16.2646 21.3823C16.2611 21.3823 16.2576 21.3823 16.2541 21.3822C16.1443 21.379 16.0423 21.3246 15.9784 21.2352L14.8674 19.6816C14.7544 19.5236 14.7909 19.3039 14.9489 19.1909C15.1068 19.078 15.3267 19.1143 15.4397 19.2724L16.2818 20.45L18.4767 17.7375C18.5988 17.5864 18.8203 17.563 18.9714 17.6853C19.1225 17.8074 19.1458 18.029 19.0236 18.18L16.538 21.2519C16.4711 21.3346 16.3705 21.3823 16.2646 21.3823Z" fill="#6A6A6A"/>
<path d="M12.042 3.31217H5.96235C5.38436 3.31217 4.91406 2.84197 4.91406 2.26393V1.0482C4.91406 0.470206 5.38436 0 5.96235 0H12.042C12.62 0 13.0903 0.470206 13.0903 1.04824V2.26398C13.0903 2.84197 12.62 3.31217 12.042 3.31217ZM5.96235 0.70355C5.77225 0.70355 5.61761 0.858143 5.61761 1.04824V2.26398C5.61761 2.45403 5.77225 2.60867 5.96235 2.60867H12.042C12.2321 2.60867 12.3867 2.45408 12.3867 2.26398V1.04824C12.3867 0.85819 12.2321 0.70355 12.042 0.70355H5.96235Z" fill="#6A6A6A"/>
<path d="M17.6524 14.1514C17.4581 14.1514 17.3007 13.9939 17.3007 13.7997V2.82755C17.3007 2.37559 16.9329 2.00787 16.481 2.00787H14.3752C14.1809 2.00787 14.0234 1.85037 14.0234 1.6561C14.0234 1.46182 14.1809 1.30432 14.3752 1.30432H16.481C17.3209 1.30432 18.0042 1.98761 18.0042 2.82755V13.7997C18.0042 13.9939 17.8468 14.1514 17.6524 14.1514Z" fill="#6A6A6A"/>
<path d="M13.4523 24H1.52323C0.683334 24 0 23.3167 0 22.4767V2.82755C0 1.98765 0.683287 1.30432 1.52323 1.30432H3.629C3.82332 1.30432 3.98078 1.46182 3.98078 1.6561C3.98078 1.85037 3.82332 2.00787 3.629 2.00787H1.52323C1.07127 2.00787 0.703549 2.37554 0.703549 2.82755V22.4768C0.703549 22.9287 1.07127 23.2965 1.52323 23.2965H13.4523C13.6467 23.2965 13.8041 23.454 13.8041 23.6482C13.8041 23.8425 13.6467 24 13.4523 24Z" fill="#6A6A6A"/>
<path d="M16.6129 23.9999C14.1189 23.9999 12.0898 21.9709 12.0898 19.4769C12.0898 16.983 14.1189 14.954 16.6129 14.954C19.1068 14.954 21.1358 16.983 21.1358 19.4769C21.1358 21.9709 19.1068 23.9999 16.6129 23.9999ZM16.6129 15.6575C14.5068 15.6575 12.7934 17.3709 12.7934 19.4769C12.7934 21.583 14.5068 23.2964 16.6129 23.2964C18.7189 23.2964 20.4323 21.583 20.4323 19.4769C20.4323 17.3709 18.7189 15.6575 16.6129 15.6575Z" fill="#6A6A6A"/>
</svg>
