<svg width="40" height="40" viewBox="0 0 40 40" fill="none" xmlns="http://www.w3.org/2000/svg">
<rect width="40" height="40" rx="4" fill="#E2F1F4"/>
<g clip-path="url(#clip0_725_5024)">
<path d="M15.1918 14.8083C15.3481 14.9646 15.6015 14.9646 15.7578 14.8083L19.6002 10.9655V21.9999C19.6002 22.2208 19.7793 22.3999 20.0002 22.3999C20.2211 22.3999 20.4002 22.2208 20.4002 21.9999V10.9655L24.2426 14.8083C24.3989 14.9646 24.6523 14.9646 24.8086 14.8083C24.9649 14.652 24.9649 14.3986 24.8086 14.2423L20.2834 9.7175C20.1274 9.5611 19.8741 9.56075 19.7177 9.7168C19.7174 9.71705 19.7172 9.7173 19.717 9.7175L15.1918 14.2423C15.0355 14.3986 15.0355 14.652 15.1918 14.8083Z" fill="#0AA45A"/>
<path d="M9.2 30.3999L30.8 30.3999C31.4628 30.3999 32 29.8627 32 29.1999V14.7999C32 14.1372 31.4628 13.5999 30.8 13.5999H26.8C26.5791 13.5999 26.4 13.779 26.4 13.9999C26.4 14.2208 26.5791 14.3999 26.8 14.3999H30.8C31.0209 14.3999 31.2 14.579 31.2 14.7999L31.2 25.5999L8.8 25.5999L8.8 14.7999C8.8 14.579 8.9791 14.3999 9.2 14.3999H13.2C13.4209 14.3999 13.6 14.2208 13.6 13.9999C13.6 13.779 13.4209 13.5999 13.2 13.5999H9.2C8.53725 13.5999 8 14.1372 8 14.7999L8 29.1999C8 29.8627 8.53725 30.3999 9.2 30.3999ZM8.8 27.1999L31.2 27.1999V29.1999C31.2 29.4208 31.0209 29.5999 30.8 29.5999L9.2 29.5999C8.9791 29.5999 8.8 29.4208 8.8 29.1999V27.1999Z" fill="#0AA45A"/>
</g>
<defs>
<clipPath id="clip0_725_5024">
<rect width="24" height="24" fill="white" transform="translate(32 32) rotate(-180)"/>
</clipPath>
</defs>
</svg>
