<svg width="40" height="40" viewBox="0 0 40 40" fill="none" xmlns="http://www.w3.org/2000/svg">
<rect width="40" height="40" rx="4" fill="#FBE7D4"/>
<g clip-path="url(#clip0_657_1972)">
<path d="M31.9663 21.3587L27.4349 9.98068C27.3387 9.73893 27.0647 9.62091 26.823 9.71708L8.43956 17.0372C8.36459 17.0696 8.29958 17.1213 8.25111 17.187C8.09823 17.2665 8.00165 17.4237 8 17.596V29.8452C8 30.1054 8.21095 30.3164 8.47113 30.3164H28.2584C28.5186 30.3164 28.7296 30.1054 28.7296 29.8452V23.1552L31.7033 21.9708C31.945 21.8744 32.0627 21.6004 31.9663 21.3587ZM27.7873 29.3741H8.94225V18.0671H27.7873V29.3741ZM15.8607 17.1272L23.7493 13.9838C24.4533 14.7239 25.4288 15.1445 26.4502 15.1485L27.237 17.1272H15.8607ZM28.7296 22.1433V17.596C28.7296 17.3358 28.5186 17.1248 28.2584 17.1248H28.2509L27.2526 14.6175C27.2415 14.5966 27.2286 14.5767 27.2139 14.5581C27.1634 14.3312 26.9533 14.1764 26.7216 14.1954C25.7712 14.282 24.8415 13.8817 24.2515 13.1316C24.1047 12.9504 23.8466 12.9053 23.647 13.026C23.6247 13.0287 23.6025 13.0328 23.5806 13.0383L13.9499 16.8733C13.8333 16.919 13.7401 17.0096 13.6912 17.1248H10.7665L26.7339 10.767L30.917 21.2707L28.7296 22.1433Z" fill="#EB7324"/>
<path d="M10.2211 26.1935C11.1358 26.4639 11.8516 27.1787 12.1231 28.0931C12.1826 28.2926 12.3662 28.4294 12.5744 28.4294C12.5989 28.4279 12.6231 28.4243 12.647 28.4186C12.6681 28.4246 12.6897 28.429 12.7115 28.4318H24.0185C24.038 28.4293 24.0572 28.4253 24.076 28.42C24.3114 28.4773 24.5486 28.3329 24.6059 28.0975C24.6061 28.0967 24.6063 28.0958 24.6065 28.0949C24.8773 27.1797 25.5932 26.4638 26.5084 26.193C26.7304 26.1252 26.8683 25.904 26.8316 25.6748C26.8379 25.6519 26.8425 25.6286 26.8453 25.605V21.836C26.8425 21.8124 26.8378 21.7891 26.8312 21.7663C26.8681 21.537 26.7301 21.3157 26.508 21.2481C25.5927 20.9773 24.877 20.2612 24.607 19.3457C24.5388 19.1222 24.3154 18.9839 24.085 19.0225C24.0632 19.0164 24.041 19.012 24.0185 19.0093H12.7115C12.6878 19.0121 12.6643 19.0168 12.6413 19.0234C12.4122 18.9869 12.1911 19.1248 12.1231 19.3466C11.8521 20.2617 11.1363 20.9773 10.2211 21.2481C9.99919 21.3159 9.86127 21.5371 9.89796 21.7663C9.89183 21.7892 9.88742 21.8125 9.88477 21.836V25.605C9.88747 25.6272 9.89189 25.6491 9.89796 25.6705C9.85932 25.9012 9.99754 26.1249 10.2211 26.1935ZM10.827 22.0273C11.773 21.6473 12.5228 20.8976 12.9028 19.9515H23.8268C24.2069 20.8976 24.9569 21.6473 25.903 22.0273V25.4138C24.9573 25.7941 24.2076 26.5438 23.8273 27.4896H12.9028C12.5224 26.5438 11.7727 25.7941 10.827 25.4138V22.0273Z" fill="#EB7324"/>
</g>
<defs>
<clipPath id="clip0_657_1972">
<rect width="24" height="24" fill="white" transform="translate(8 8)"/>
</clipPath>
</defs>
</svg>
