<svg width="40" height="40" viewBox="0 0 40 40" fill="none" xmlns="http://www.w3.org/2000/svg">
<rect width="40" height="40" rx="4" fill="#FEE7D3"/>
<path d="M24.8082 25.1917C24.6519 25.0354 24.3985 25.0354 24.2422 25.1917L20.3998 29.0345V18.0001C20.3998 17.7792 20.2207 17.6001 19.9998 17.6001C19.7789 17.6001 19.5998 17.7792 19.5998 18.0001V29.0345L15.7574 25.1917C15.6011 25.0354 15.3477 25.0354 15.1914 25.1917C15.0351 25.348 15.0351 25.6014 15.1914 25.7577L19.7166 30.2825C19.8726 30.4389 20.1259 30.4392 20.2823 30.2832C20.2826 30.2829 20.2828 30.2827 20.283 30.2825L24.8082 25.7577C24.9645 25.6014 24.9645 25.348 24.8082 25.1917Z" fill="#EB2424"/>
<path d="M30.8 9.6001H9.2C8.53725 9.6001 8 10.1373 8 10.8001V25.2001C8 25.8628 8.53725 26.4001 9.2 26.4001H13.2C13.4209 26.4001 13.6 26.221 13.6 26.0001C13.6 25.7792 13.4209 25.6001 13.2 25.6001H9.2C8.9791 25.6001 8.8 25.421 8.8 25.2001V14.4001H31.2V25.2001C31.2 25.421 31.0209 25.6001 30.8 25.6001H26.8C26.5791 25.6001 26.4 25.7792 26.4 26.0001C26.4 26.221 26.5791 26.4001 26.8 26.4001H30.8C31.4627 26.4001 32 25.8628 32 25.2001V10.8001C32 10.1373 31.4627 9.6001 30.8 9.6001ZM31.2 12.8001H8.8V10.8001C8.8 10.5792 8.9791 10.4001 9.2 10.4001H30.8C31.0209 10.4001 31.2 10.5792 31.2 10.8001V12.8001Z" fill="#EB2424"/>
</svg>
