<svg width="21" height="24" viewBox="0 0 21 24" fill="none" xmlns="http://www.w3.org/2000/svg">
<path d="M9.86072 11.5609C11.449 11.5609 12.8241 10.9913 13.948 9.86737C15.0715 8.74365 15.6414 7.36871 15.6414 5.78027C15.6414 4.19238 15.0717 2.81726 13.9478 1.69318C12.8239 0.569641 11.4488 0 9.86072 0C8.27228 0 6.89734 0.569641 5.77362 1.69336C4.6499 2.81708 4.08008 4.1922 4.08008 5.78027C4.08008 7.36871 4.6499 8.74383 5.77362 9.86755C6.89771 10.9911 8.27283 11.5609 9.86072 11.5609ZM6.76825 2.6878C7.63049 1.82556 8.64197 1.40643 9.86072 1.40643C11.0793 1.40643 12.0909 1.82556 12.9534 2.6878C13.8156 3.55023 14.2349 4.56189 14.2349 5.78027C14.2349 6.99902 13.8156 8.0105 12.9534 8.87292C12.0909 9.73535 11.0793 10.1545 9.86072 10.1545C8.64233 10.1545 7.63086 9.73517 6.76825 8.87292C5.90582 8.01068 5.48651 6.99902 5.48651 5.78027C5.48651 4.56189 5.90582 3.55023 6.76825 2.6878Z" fill="#01277A"/>
<path d="M19.9748 18.4547C19.9424 17.987 19.8768 17.4769 19.7803 16.9382C19.6829 16.3954 19.5575 15.8824 19.4073 15.4135C19.2521 14.9288 19.0413 14.4501 18.7804 13.9915C18.5099 13.5154 18.1921 13.1008 17.8354 12.7597C17.4624 12.4028 17.0057 12.1159 16.4777 11.9066C15.9514 11.6984 15.3682 11.593 14.7444 11.593C14.4994 11.593 14.2625 11.6935 13.8049 11.9914C13.5233 12.175 13.1938 12.3875 12.8262 12.6224C12.5118 12.8227 12.0859 13.0104 11.5598 13.1803C11.0466 13.3464 10.5255 13.4306 10.0109 13.4306C9.49676 13.4306 8.97565 13.3464 8.46204 13.1803C7.93652 13.0106 7.51044 12.8229 7.19659 12.6226C6.8324 12.3898 6.50281 12.1774 6.21698 11.9912C5.75977 11.6933 5.52283 11.5928 5.27783 11.5928C4.65381 11.5928 4.0708 11.6984 3.54474 11.9068C3.01703 12.1157 2.56018 12.4026 2.18683 12.7599C1.83014 13.1012 1.51227 13.5156 1.242 13.9915C0.981445 14.4501 0.770508 14.9286 0.615234 15.4136C0.465271 15.8826 0.339844 16.3954 0.242432 16.9382C0.145752 17.4761 0.0803833 17.9865 0.0479737 18.4552C0.0161133 18.9135 0 19.3905 0 19.8724C0 21.1252 0.398254 22.1395 1.18359 22.8875C1.95923 23.6255 2.98535 23.9998 4.23358 23.9998H15.7897C17.0376 23.9998 18.0637 23.6255 18.8395 22.8875C19.6251 22.14 20.0233 21.1254 20.0233 19.8723C20.0231 19.3887 20.0068 18.9117 19.9748 18.4547ZM17.8698 21.8685C17.3573 22.3563 16.6769 22.5934 15.7895 22.5934H4.23358C3.34607 22.5934 2.66565 22.3563 2.15332 21.8687C1.6507 21.3902 1.40643 20.7371 1.40643 19.8724C1.40643 19.4227 1.42126 18.9787 1.45093 18.5524C1.47986 18.1342 1.539 17.6748 1.62671 17.1866C1.71332 16.7045 1.82355 16.2521 1.95465 15.8425C2.08044 15.4497 2.25201 15.0608 2.46478 14.6862C2.66785 14.3291 2.90149 14.0228 3.1593 13.7759C3.40045 13.545 3.70441 13.3561 4.06256 13.2144C4.3938 13.0833 4.76605 13.0115 5.17017 13.0007C5.21942 13.0269 5.30713 13.0768 5.44922 13.1695C5.73834 13.3579 6.07159 13.5729 6.44 13.8082C6.85529 14.0729 7.39032 14.3121 8.02954 14.5184C8.68304 14.7297 9.34955 14.837 10.0111 14.837C10.6727 14.837 11.3394 14.7297 11.9925 14.5186C12.6323 14.3119 13.1671 14.0729 13.5829 13.8078C13.96 13.5668 14.2839 13.3581 14.573 13.1695C14.7151 13.077 14.8028 13.0269 14.852 13.0007C15.2563 13.0115 15.6286 13.0833 15.96 13.2144C16.318 13.3561 16.6219 13.5452 16.8631 13.7759C17.1209 14.0226 17.3546 14.3289 17.5576 14.6863C17.7706 15.0608 17.9423 15.4499 18.0679 15.8423C18.1992 16.2524 18.3096 16.7047 18.3961 17.1865C18.4836 17.6755 18.5429 18.1351 18.5718 18.5526V18.553C18.6017 18.9776 18.6167 19.4214 18.6169 19.8724C18.6167 20.7372 18.3724 21.3902 17.8698 21.8685Z" fill="#01277A"/>
</svg>
