<svg width="100" height="30" viewBox="0 0 100 30" fill="none" xmlns="http://www.w3.org/2000/svg">
<path d="M36.666 29.2148L41.7454 0.942627H49.682L44.7613 29.2148H36.666Z" fill="#3C58BF"/>
<path d="M36.666 29.2148L43.174 0.942627H49.682L44.7613 29.2148H36.666Z" fill="#293688"/>
<path d="M73.4909 1.25654C71.9036 0.62827 69.3639 0 66.1893 0C58.2527 0 52.5384 3.92669 52.5384 9.58114C52.5384 13.822 56.5067 16.0209 59.6813 17.4345C62.8559 18.8481 63.8083 19.7905 63.8083 21.0471C63.8083 22.9319 61.2686 23.8743 59.0464 23.8743C55.8718 23.8743 54.1257 23.4031 51.4273 22.3036L50.3162 21.8324L49.2051 28.2722C51.1099 29.0576 54.6019 29.8429 58.2527 29.8429C66.6655 29.8429 72.2211 25.9162 72.2211 19.9476C72.2211 16.6492 70.1576 14.1361 65.3956 12.0942C62.5385 10.6806 60.7924 9.89528 60.7924 8.48166C60.7924 7.22512 62.221 5.96858 65.3956 5.96858C68.0941 5.96858 69.9988 6.43978 71.4274 7.06805L72.2211 7.38219L73.4909 1.25654Z" fill="#3C58BF"/>
<path d="M73.4909 1.25654C71.9036 0.62827 69.3639 0 66.1893 0C58.2527 0 53.967 3.92669 53.967 9.58114C53.967 13.822 56.5067 16.0209 59.6813 17.4345C62.8559 18.8481 63.8083 19.7905 63.8083 21.0471C63.8083 22.9319 61.2686 23.8743 59.0464 23.8743C55.8718 23.8743 54.1257 23.4031 51.4273 22.3036L50.3162 21.8324L49.2051 28.2722C51.1099 29.0576 54.6019 29.8429 58.2527 29.8429C66.6655 29.8429 72.2211 25.9162 72.2211 19.9476C72.2211 16.6492 70.1576 14.1361 65.3956 12.0942C62.5385 10.6806 60.7924 9.89528 60.7924 8.48166C60.7924 7.22512 62.221 5.96858 65.3956 5.96858C68.0941 5.96858 69.9988 6.43978 71.4274 7.06805L72.2211 7.38219L73.4909 1.25654Z" fill="#293688"/>
<path d="M87.1432 0.942627C85.2384 0.942627 83.8098 1.0997 83.0162 2.98451L71.1113 29.2148H79.6828L81.2701 24.5028H91.4289L92.3813 29.2148H100L93.3337 0.942627H87.1432ZM83.4924 19.7908C83.9686 18.3772 86.667 11.4662 86.667 11.4662C86.667 11.4662 87.3019 9.73843 87.7781 8.63896L88.2543 11.3091C88.2543 11.3091 89.8416 18.3772 90.1591 19.9478H83.4924V19.7908Z" fill="#3C58BF"/>
<path d="M89.048 0.942627C87.1432 0.942627 85.7146 1.0997 84.9209 2.98451L71.1113 29.2148H79.6828L81.2701 24.5028H91.4289L92.3813 29.2148H100L93.3337 0.942627H89.048ZM83.4924 19.7908C84.1273 18.2201 86.667 11.4662 86.667 11.4662C86.667 11.4662 87.3019 9.73843 87.7781 8.63896L88.2543 11.3091C88.2543 11.3091 89.8416 18.3772 90.1591 19.9478H83.4924V19.7908Z" fill="#293688"/>
<path d="M22.065 20.7331L21.2713 16.6493C19.8427 11.9373 15.2395 6.75405 10.1602 4.24097L17.303 29.3718H25.8745L38.7317 1.09961H30.1602L22.065 20.7331Z" fill="#3C58BF"/>
<path d="M22.065 20.7331L21.2713 16.6493C19.8427 11.9373 15.2395 6.75405 10.1602 4.24097L17.303 29.3718H25.8745L38.7317 1.09961H31.7476L22.065 20.7331Z" fill="#293688"/>
<path d="M0 0.942627L1.42858 1.25676C11.5874 3.61278 18.5715 9.58136 21.27 16.6494L18.4128 3.29865C17.9366 1.41383 16.508 0.942627 14.762 0.942627H0Z" fill="#FFBC00"/>
<path d="M0 0.942627C10.1588 3.29865 18.5715 9.4243 21.27 16.4924L18.5715 5.34053C18.0953 3.45572 16.508 2.35624 14.762 2.35624L0 0.942627Z" fill="#F7981D"/>
<path d="M0 0.942627C10.1588 3.29865 18.5715 9.4243 21.27 16.4924L19.3652 10.3667C18.889 8.48189 18.2541 6.59708 16.0318 5.81174L0 0.942627Z" fill="#ED7C00"/>
<path d="M29.9971 19.7905L24.6002 14.4502L22.0606 20.4188L21.4256 16.4921C19.997 11.7801 15.3938 6.59683 10.3145 4.08374L17.4574 29.2146H26.0288L29.9971 19.7905Z" fill="#051244"/>
<path d="M44.7613 29.2144L37.9359 22.3035L36.666 29.2144H44.7613Z" fill="#051244"/>
<path d="M63.0127 19.4766C63.6476 20.1048 63.9651 20.576 63.8064 21.2043C63.8064 23.0891 61.2667 24.0315 59.0444 24.0315C55.8698 24.0315 54.1238 23.5603 51.4254 22.4609L50.3142 21.9897L49.2031 28.4294C51.1079 29.2148 54.6 30.0001 58.2508 30.0001C63.3302 30.0001 67.4572 28.5865 69.8381 26.0734L63.0127 19.4766Z" fill="#051244"/>
<path d="M72.2188 29.2148H79.6791L81.2664 24.5028H91.4252L92.3776 29.2148H99.9967L97.2983 17.7488L87.7744 8.63892L88.2506 11.152C88.2506 11.152 89.8379 18.2201 90.1554 19.7907H83.4887C84.1236 18.2201 86.6633 11.4661 86.6633 11.4661C86.6633 11.4661 87.2982 9.73839 87.7744 8.63892" fill="#051244"/>
</svg>
