<svg width="24" height="24" viewBox="0 0 24 24" fill="none" xmlns="http://www.w3.org/2000/svg">
<g clip-path="url(#clip0_832_3168)">
<path d="M21.805 5.99493H21.5064V3.09494C21.5064 1.88463 20.5217 0.899902 19.3113 0.899902H3.39063C1.63377 0.899902 0.185231 2.2437 0.0180168 3.95735C-0.00752011 4.07844 0.00157327 2.99949 0.00157327 19.7112C0.00157327 21.5799 1.52187 23.1002 3.39058 23.1002H21.8049C23.0153 23.1002 24 22.1155 24 20.9052V8.18997C24 6.97966 23.0153 5.99493 21.805 5.99493ZM3.39063 2.40766H19.3113C19.6903 2.40766 19.9986 2.71599 19.9986 3.09499V5.99498H3.39063C2.38267 5.99498 1.55753 5.19811 1.51155 4.20132C1.55749 3.20449 2.38263 2.40766 3.39063 2.40766ZM21.805 21.5925H3.39063C2.35327 21.5925 1.50933 20.7486 1.50933 19.7112V6.93132C2.04792 7.29208 2.6951 7.50265 3.39063 7.50265H21.805C22.184 7.50265 22.4923 7.81097 22.4923 8.18997V11.2462H16.8192C14.8871 11.2462 13.3152 12.818 13.3152 14.7501C13.3152 16.6822 14.8871 18.254 16.8192 18.254H22.4923V20.9052C22.4923 21.2842 22.184 21.5925 21.805 21.5925ZM22.4923 16.7464H16.8192C15.7184 16.7464 14.8229 15.8509 14.8229 14.7502C14.8229 13.6494 15.7184 12.754 16.8192 12.754H22.4923V16.7464Z" fill="#01277A"/>
<path d="M17.0974 15.8428C17.7008 15.8428 18.1899 15.3536 18.1899 14.7502C18.1899 14.1469 17.7008 13.6577 17.0974 13.6577C16.494 13.6577 16.0049 14.1469 16.0049 14.7502C16.0049 15.3536 16.494 15.8428 17.0974 15.8428Z" fill="#01277A"/>
</g>
<defs>
<clipPath id="clip0_832_3168">
<rect width="24" height="24" fill="white"/>
</clipPath>
</defs>
</svg>
