<svg width="36" height="36" viewBox="0 0 36 36" fill="none" xmlns="http://www.w3.org/2000/svg">
<rect width="36" height="36" rx="4" fill="#E1EDF3"/>
<path d="M22.2656 20.1562C22.6533 20.1562 22.9688 20.4675 22.9688 20.85H24.375C24.375 19.9374 23.7871 19.1594 22.9688 18.8704V17.3438H21.5625V18.8709C20.7441 19.1612 20.1562 19.9427 20.1562 20.8594C20.1562 22.0225 21.1025 22.9688 22.2656 22.9688C22.6533 22.9688 22.9688 23.2842 22.9688 23.6719C22.9688 24.0596 22.6533 24.375 22.2656 24.375C21.8779 24.375 21.5625 24.0596 21.5625 23.6719H20.1562C20.1562 24.5885 20.7441 25.3701 21.5625 25.6603V27.1781H22.9688V25.6603C23.7871 25.3701 24.375 24.5885 24.375 23.6719C24.375 22.5088 23.4287 21.5625 22.2656 21.5625C21.8779 21.5625 21.5625 21.2471 21.5625 20.8594C21.5625 20.4717 21.8779 20.1562 22.2656 20.1562Z" fill="#0077B6"/>
<path d="M22.2656 14.5312C22.0286 14.5312 21.7942 14.5426 21.5625 14.5635V10.2188C21.5625 8.99948 20.6931 7.89328 19.1144 7.10395C17.6906 6.39206 15.8133 6 13.8281 6C11.8389 6 9.94655 6.39127 8.49952 7.10166C6.88772 7.89305 6 9 6 10.2188V22.9688C6 24.1875 6.88772 25.2945 8.49952 26.0858C9.94655 26.7962 11.8389 27.1875 13.8281 27.1875C14.6254 27.1875 15.4053 27.1238 16.1538 26.9998C17.57 28.8239 19.7829 30 22.2656 30C26.5304 30 30 26.5304 30 22.2656C30 18.0009 26.5304 14.5312 22.2656 14.5312ZM9.1193 8.364C10.359 7.75533 12.0753 7.40625 13.8281 7.40625C17.5574 7.40625 20.1562 8.88848 20.1562 10.2188C20.1562 11.549 17.5574 13.0312 13.8281 13.0312C12.0753 13.0312 10.359 12.6822 9.1193 12.0735C8.03062 11.539 7.40625 10.863 7.40625 10.2188C7.40625 9.5745 8.03062 8.89847 9.1193 8.364ZM7.40625 12.6687C7.72144 12.9095 8.0865 13.1331 8.49952 13.3358C9.94655 14.0462 11.8389 14.4375 13.8281 14.4375C15.8133 14.4375 17.6906 14.0454 19.1144 13.3335C19.5062 13.1376 19.8542 12.9222 20.1562 12.6903V14.8236C18.7549 15.2213 17.5144 16.0053 16.5573 17.0524C15.7006 17.2457 14.7837 17.3438 13.8281 17.3438C12.0753 17.3438 10.359 16.9947 9.1193 16.386C8.03062 15.8515 7.40625 15.1755 7.40625 14.5312V12.6687ZM7.40625 16.9812C7.72144 17.222 8.0865 17.4456 8.49952 17.6483C9.94655 18.3587 11.8389 18.75 13.8281 18.75C14.371 18.75 14.9035 18.7209 15.4229 18.6638C14.9609 19.538 14.6615 20.5107 14.5654 21.5417C14.3211 21.5551 14.0748 21.5625 13.8281 21.5625C12.0753 21.5625 10.359 21.2134 9.1193 20.6047C8.03062 20.0703 7.40625 19.3942 7.40625 18.75V16.9812ZM13.8281 25.7812C12.0753 25.7812 10.359 25.4322 9.1193 24.8235C8.03062 24.289 7.40625 23.613 7.40625 22.9688V21.1999C7.72144 21.4407 8.0865 21.6643 8.49952 21.867C9.94655 22.5775 11.8389 22.9688 13.8281 22.9688C14.0733 22.9688 14.3184 22.9626 14.5619 22.9506C14.6482 23.9287 14.9172 24.8551 15.3347 25.6954C14.8444 25.752 14.3408 25.7812 13.8281 25.7812ZM22.2656 28.5938C18.7763 28.5938 15.9375 25.755 15.9375 22.2656C15.9375 18.7763 18.7763 15.9375 22.2656 15.9375C25.755 15.9375 28.5938 18.7763 28.5938 22.2656C28.5938 25.755 25.755 28.5938 22.2656 28.5938Z" fill="#0077B6"/>
</svg>
