<svg width="24" height="24" viewBox="0 0 24 24" fill="none" xmlns="http://www.w3.org/2000/svg">
<path d="M20.625 1.5H3.375C2.87772 1.5 2.40081 1.69754 2.04917 2.04917C1.69754 2.40081 1.5 2.87772 1.5 3.375V6.375C1.5 6.87228 1.69754 7.34919 2.04917 7.70083C2.40081 8.05246 2.87772 8.25 3.375 8.25V11.25C3.375 11.7473 3.57254 12.2242 3.92417 12.5758C4.27581 12.9275 4.75272 13.125 5.25 13.125H6V16.5C5.99829 17.0043 6.12472 17.5008 6.36741 17.9429C6.6101 18.385 6.9611 18.7582 7.3875 19.0275C6.58125 19.5975 6.75 20.3813 6.75 21.75C6.75 22.1478 6.90804 22.5294 7.18934 22.8107C7.47064 23.092 7.85218 23.25 8.25 23.25H15.375C15.7728 23.25 16.1544 23.092 16.4357 22.8107C16.717 22.5294 16.875 22.1478 16.875 21.75C16.875 20.4338 17.0437 19.5975 16.2375 19.0275C16.6624 18.7566 17.0123 18.3831 17.2548 17.9414C17.4973 17.4996 17.6246 17.0039 17.625 16.5V13.125H18.75C19.2473 13.125 19.7242 12.9275 20.0758 12.5758C20.4275 12.2242 20.625 11.7473 20.625 11.25V8.25C21.1223 8.25 21.5992 8.05246 21.9508 7.70083C22.3025 7.34919 22.5 6.87228 22.5 6.375V3.375C22.5 2.87772 22.3025 2.40081 21.9508 2.04917C21.5992 1.69754 21.1223 1.5 20.625 1.5ZM4.125 11.25V5.25H6.08625C5.98098 5.36769 5.85212 5.46191 5.70804 5.52652C5.56396 5.59113 5.4079 5.62468 5.25 5.625C5.15054 5.625 5.05516 5.66451 4.98484 5.73484C4.91451 5.80516 4.875 5.90054 4.875 6V9.75C4.875 9.84946 4.91451 9.94484 4.98484 10.0152C5.05516 10.0855 5.15054 10.125 5.25 10.125C5.54837 10.125 5.83452 10.2435 6.0455 10.4545C6.25647 10.6655 6.375 10.9516 6.375 11.25C6.375 11.3495 6.41451 11.4448 6.48483 11.5152C6.55516 11.5855 6.65054 11.625 6.75 11.625H13.875V12.375H5.25C4.95163 12.375 4.66548 12.2565 4.4545 12.0455C4.24353 11.8345 4.125 11.5484 4.125 11.25ZM13.5 7.3125C13.5 8.4375 12.8287 9.375 12 9.375C11.1713 9.375 10.5 8.44875 10.5 7.3125C10.5 6.17625 11.1713 5.25 12 5.25C12.8287 5.25 13.5 6.17625 13.5 7.3125ZM12 10.125C14.0437 10.125 15.0262 6.98625 13.5262 5.25H17.0325C17.1527 5.52563 17.3374 5.76832 17.571 5.95759C17.8047 6.14686 18.0804 6.27716 18.375 6.3375V9.4125C18.2139 9.44855 18.0578 9.50396 17.91 9.5775C17.3625 9.85125 17.8237 9.87375 17.4525 9.03375C17.2763 8.65036 16.9759 8.33761 16.6 8.14607C16.224 7.95453 15.7945 7.89539 15.3807 7.97822C14.967 8.06106 14.5933 8.28101 14.3201 8.60253C14.0468 8.92405 13.89 9.32833 13.875 9.75V10.875H7.0875C7.01401 10.5147 6.83618 10.1839 6.57614 9.92386C6.3161 9.66382 5.98533 9.48599 5.625 9.4125V6.3375C5.91958 6.27716 6.19532 6.14686 6.42897 5.95759C6.66262 5.76832 6.84733 5.52563 6.9675 5.25H10.4738C9 6.975 9.94875 10.125 12 10.125ZM15.375 19.5C15.5739 19.5 15.7647 19.579 15.9053 19.7197C16.046 19.8603 16.125 20.0511 16.125 20.25V21.75C16.125 21.9489 16.046 22.1397 15.9053 22.2803C15.7647 22.421 15.5739 22.5 15.375 22.5H8.25C8.05109 22.5 7.86032 22.421 7.71967 22.2803C7.57902 22.1397 7.5 21.9489 7.5 21.75V20.25C7.5 20.0511 7.57902 19.8603 7.71967 19.7197C7.86032 19.579 8.05109 19.5 8.25 19.5H15.375ZM16.875 16.5C16.875 17.0967 16.6379 17.669 16.216 18.091C15.794 18.5129 15.2217 18.75 14.625 18.75H9C8.40326 18.75 7.83097 18.5129 7.40901 18.091C6.98705 17.669 6.75 17.0967 6.75 16.5V13.125H11.8837C11.3398 13.5036 10.8956 14.0085 10.5893 14.5962C10.283 15.184 10.1237 15.8372 10.125 16.5C10.125 16.5995 10.1645 16.6948 10.2348 16.7652C10.3052 16.8355 10.4005 16.875 10.5 16.875C10.5995 16.875 10.6948 16.8355 10.7652 16.7652C10.8355 16.6948 10.875 16.5995 10.875 16.5C10.875 15.6049 11.2306 14.7465 11.8635 14.1135C12.4965 13.4806 13.3549 13.125 14.25 13.125C14.3495 13.125 14.4448 13.0855 14.5152 13.0152C14.5855 12.9448 14.625 12.8495 14.625 12.75C14.625 9.6825 14.5087 9.40875 14.9513 8.955C15.0504 8.84999 15.1696 8.76593 15.3018 8.7078C15.434 8.64966 15.5765 8.61862 15.7209 8.61652C15.8653 8.61443 16.0086 8.64131 16.1424 8.69558C16.2763 8.74986 16.3979 8.83042 16.5 8.9325C16.9913 9.4125 16.875 9.21375 16.875 16.5ZM19.875 11.25C19.875 11.5484 19.7565 11.8345 19.5455 12.0455C19.3345 12.2565 19.0484 12.375 18.75 12.375H17.625V11.25C17.625 10.9516 17.7435 10.6655 17.9545 10.4545C18.1655 10.2435 18.4516 10.125 18.75 10.125C18.8495 10.125 18.9448 10.0855 19.0152 10.0152C19.0855 9.94484 19.125 9.84946 19.125 9.75V6C19.125 5.90054 19.0855 5.80516 19.0152 5.73484C18.9448 5.66451 18.8495 5.625 18.75 5.625C18.5931 5.62213 18.4384 5.58742 18.2953 5.52295C18.1522 5.45849 18.0236 5.36563 17.9175 5.25C17.8837 5.2125 17.9175 5.25 19.875 5.25V11.25ZM21.75 6.375C21.75 6.67337 21.6315 6.95952 21.4205 7.1705C21.2095 7.38147 20.9234 7.5 20.625 7.5V5.25C20.7245 5.25 20.8198 5.21049 20.8902 5.14016C20.9605 5.06984 21 4.97446 21 4.875C21 4.77554 20.9605 4.68016 20.8902 4.60984C20.8198 4.53951 20.7245 4.5 20.625 4.5H3.375C3.27554 4.5 3.18016 4.53951 3.10984 4.60984C3.03951 4.68016 3 4.77554 3 4.875C3 4.97446 3.03951 5.06984 3.10984 5.14016C3.18016 5.21049 3.27554 5.25 3.375 5.25V7.5C3.07663 7.5 2.79048 7.38147 2.5795 7.1705C2.36853 6.95952 2.25 6.67337 2.25 6.375V3.375C2.25 3.07663 2.36853 2.79048 2.5795 2.5795C2.79048 2.36853 3.07663 2.25 3.375 2.25H20.625C20.9234 2.25 21.2095 2.36853 21.4205 2.5795C21.6315 2.79048 21.75 3.07663 21.75 3.375V6.375Z" fill="#1F1F1F"/>
</svg>
