<svg width="62" height="62" viewBox="0 0 62 62" fill="none" xmlns="http://www.w3.org/2000/svg">
<g filter="url(#filter0_d_877_8013)">
<circle cx="31" cy="30" r="20" fill="white"/>
</g>
<path d="M22.6375 40.5H37.8625C38.4288 40.498 38.9713 40.2722 39.3718 39.8718C39.7722 39.4713 39.998 38.9288 40 38.3625V28.5C40 28.3011 39.921 28.1103 39.7803 27.9697C39.6397 27.829 39.4489 27.75 39.25 27.75C39.0511 27.75 38.8603 27.829 38.7197 27.9697C38.579 28.1103 38.5 28.3011 38.5 28.5V38.3625C38.5 38.4462 38.4835 38.5291 38.4515 38.6065C38.4194 38.6838 38.3725 38.7541 38.3133 38.8133C38.2541 38.8725 38.1838 38.9194 38.1065 38.9515C38.0291 38.9835 37.9462 39 37.8625 39H22.6375C22.5538 39 22.4709 38.9835 22.3935 38.9515C22.3162 38.9194 22.2459 38.8725 22.1867 38.8133C22.1275 38.7541 22.0806 38.6838 22.0485 38.6065C22.0165 38.5291 22 38.4462 22 38.3625V23.1375C22 22.9684 22.0672 22.8063 22.1867 22.6867C22.3063 22.5672 22.4684 22.5 22.6375 22.5H32.5C32.6989 22.5 32.8897 22.421 33.0303 22.2803C33.171 22.1397 33.25 21.9489 33.25 21.75C33.25 21.5511 33.171 21.3603 33.0303 21.2197C32.8897 21.079 32.6989 21 32.5 21H22.6375C22.0712 21.002 21.5287 21.2278 21.1282 21.6282C20.7278 22.0287 20.502 22.5712 20.5 23.1375V38.3625C20.502 38.9288 20.7278 39.4713 21.1282 39.8718C21.5287 40.2722 22.0712 40.498 22.6375 40.5Z" fill="#1F1F1F"/>
<path d="M40.7504 26.25C40.9494 26.25 41.1401 26.171 41.2808 26.0303C41.4214 25.8897 41.5004 25.6989 41.5004 25.5V20.25C41.5004 20.0511 41.4214 19.8603 41.2808 19.7197C41.1401 19.579 40.9494 19.5 40.7504 19.5H35.5004C35.3015 19.5 35.1108 19.579 34.9701 19.7197C34.8295 19.8603 34.7504 20.0511 34.7504 20.25C34.7504 20.4489 34.8295 20.6397 34.9701 20.7803C35.1108 20.921 35.3015 21 35.5004 21H38.9429L28.2179 31.7175C28.1476 31.7872 28.0919 31.8702 28.0538 31.9616C28.0157 32.053 27.9961 32.151 27.9961 32.25C27.9961 32.349 28.0157 32.447 28.0538 32.5384C28.0919 32.6298 28.1476 32.7128 28.2179 32.7825C28.2877 32.8528 28.3706 32.9086 28.462 32.9467C28.5534 32.9847 28.6514 33.0043 28.7504 33.0043C28.8495 33.0043 28.9475 32.9847 29.0389 32.9467C29.1303 32.9086 29.2132 32.8528 29.2829 32.7825L40.0004 22.0575V25.5C40.0004 25.6989 40.0795 25.8897 40.2201 26.0303C40.3608 26.171 40.5515 26.25 40.7504 26.25Z" fill="#1F1F1F"/>
<defs>
<filter id="filter0_d_877_8013" x="0" y="0" width="62" height="62" filterUnits="userSpaceOnUse" color-interpolation-filters="sRGB">
<feFlood flood-opacity="0" result="BackgroundImageFix"/>
<feColorMatrix in="SourceAlpha" type="matrix" values="0 0 0 0 0 0 0 0 0 0 0 0 0 0 0 0 0 0 127 0" result="hardAlpha"/>
<feOffset dy="1"/>
<feGaussianBlur stdDeviation="5.5"/>
<feComposite in2="hardAlpha" operator="out"/>
<feColorMatrix type="matrix" values="0 0 0 0 0.458617 0 0 0 0 0.458617 0 0 0 0 0.458617 0 0 0 0.25 0"/>
<feBlend mode="normal" in2="BackgroundImageFix" result="effect1_dropShadow_877_8013"/>
<feBlend mode="normal" in="SourceGraphic" in2="effect1_dropShadow_877_8013" result="shape"/>
</filter>
</defs>
</svg>
